<svg width="54" height="54" viewBox="0 0 54 54" fill="none" xmlns="http://www.w3.org/2000/svg">
<g clip-path="url(#clip0_156_2600)">
<path d="M26.9995 14.1676C24.2366 14.1676 0 13.9697 0 7.0833C0 0.196925 24.2366 0 26.9995 0C29.7624 0 54 0.198914 54 7.0833C54 13.9677 29.7634 14.1676 26.9995 14.1676ZM3.57348 7.0833C5.22048 8.42497 13.1213 10.625 27.0005 10.625C40.8797 10.625 48.7795 8.42497 50.4245 7.0833C48.7775 5.74163 40.8767 3.54165 26.9975 3.54165C13.1183 3.54165 5.22048 5.74263 3.57348 7.0833Z" fill="url(#paint0_linear_156_2600)"/>
<path d="M27 27.2469C24.2371 27.2469 0.000468486 27.049 0.000468486 20.1636C-0.0102068 19.7045 0.161928 19.26 0.479006 18.9278C0.796084 18.5956 1.23213 18.403 1.69123 18.3923C2.11402 18.4021 2.51835 18.5674 2.82695 18.8566C3.13556 19.1457 3.32679 19.5384 3.36409 19.9597C4.40342 21.2656 12.3908 23.7042 27 23.7042C41.6092 23.7042 49.5965 21.2646 50.6359 19.9597C50.6654 19.516 50.8691 19.1019 51.2026 18.8078C51.5362 18.5137 51.9725 18.3634 52.4164 18.3897C52.8603 18.4159 53.2758 18.6166 53.5724 18.948C53.8689 19.2793 54.0225 19.7145 53.9995 20.1586C53.9995 27.044 29.7629 27.2419 27 27.2419V27.2469Z" fill="url(#paint1_linear_156_2600)"/>
<path d="M27 40.6234C24.2371 40.6234 0.000468486 40.4254 0.000468486 33.5401C-0.0102068 33.081 0.161928 32.6364 0.479006 32.3042C0.796084 31.972 1.23213 31.7794 1.69123 31.7687C2.11454 31.7779 2.5196 31.9428 2.82883 32.232C3.13805 32.5213 3.32971 32.9144 3.36708 33.3362C4.4064 34.642 12.3938 37.0807 27.003 37.0807C41.6121 37.0807 49.5995 34.641 50.6388 33.3362C50.6683 32.8925 50.8721 32.4784 51.2056 32.1843C51.5392 31.8902 51.9755 31.7399 52.4194 31.7661C52.8633 31.7924 53.2788 31.9931 53.5754 32.3244C53.8719 32.6558 54.0254 33.091 54.0025 33.5351C54.0025 40.4205 29.7659 40.6184 27.003 40.6184L27 40.6234Z" fill="url(#paint2_linear_156_2600)"/>
<path d="M26.9995 53.9972C24.2366 53.9972 0 53.8122 0 47.2849V6.99199C0.0275558 6.56323 0.217309 6.16104 0.530706 5.86714C0.844103 5.57324 1.25764 5.40967 1.68728 5.40967C2.11693 5.40967 2.53046 5.57324 2.84386 5.86714C3.15726 6.16104 3.34701 6.56323 3.37456 6.99199V47.1039C4.45665 48.3481 12.442 50.6425 26.9995 50.6425C41.557 50.6425 49.5424 48.3481 50.6234 47.1039V6.99199C50.651 6.56323 50.8408 6.16104 51.1542 5.86714C51.4676 5.57324 51.8811 5.40967 52.3107 5.40967C52.7404 5.40967 53.1539 5.57324 53.4673 5.86714C53.7807 6.16104 53.9705 6.56323 53.998 6.99199V47.2849C54 53.8122 29.7634 53.9972 26.9995 53.9972Z" fill="url(#paint3_linear_156_2600)"/>
<path d="M10.9668 33.7569C12.2483 33.7569 13.2871 32.718 13.2871 31.4365C13.2871 30.1551 12.2483 29.1162 10.9668 29.1162C9.68533 29.1162 8.64648 30.1551 8.64648 31.4365C8.64648 32.718 9.68533 33.7569 10.9668 33.7569Z" fill="url(#paint4_linear_156_2600)"/>
<path d="M10.9668 20.2568C12.2483 20.2568 13.2871 19.1707 13.2871 17.831C13.2871 16.4913 12.2483 15.4053 10.9668 15.4053C9.68533 15.4053 8.64648 16.4913 8.64648 17.831C8.64648 19.1707 9.68533 20.2568 10.9668 20.2568Z" fill="url(#paint5_linear_156_2600)"/>
<path d="M10.9668 47.1107C12.2483 47.1107 13.2871 46.0011 13.2871 44.6323C13.2871 43.2635 12.2483 42.1538 10.9668 42.1538C9.68533 42.1538 8.64648 43.2635 8.64648 44.6323C8.64648 46.0011 9.68533 47.1107 10.9668 47.1107Z" fill="url(#paint6_linear_156_2600)"/>
</g>
<defs>
<linearGradient id="paint0_linear_156_2600" x1="27" y1="0" x2="27" y2="14.1676" gradientUnits="userSpaceOnUse">
<stop offset="0.015" stop-color="#52525B"/>
<stop offset="0.495" stop-color="#A1A1AA"/>
<stop offset="1" stop-color="#404040"/>
</linearGradient>
<linearGradient id="paint1_linear_156_2600" x1="27.0009" y1="18.3867" x2="27.0009" y2="27.2469" gradientUnits="userSpaceOnUse">
<stop offset="0.015" stop-color="#52525B"/>
<stop offset="0.495" stop-color="#A1A1AA"/>
<stop offset="1" stop-color="#404040"/>
</linearGradient>
<linearGradient id="paint2_linear_156_2600" x1="27.0024" y1="31.7632" x2="27.0024" y2="40.6234" gradientUnits="userSpaceOnUse">
<stop offset="0.015" stop-color="#52525B"/>
<stop offset="0.495" stop-color="#A1A1AA"/>
<stop offset="1" stop-color="#404040"/>
</linearGradient>
<linearGradient id="paint3_linear_156_2600" x1="26.999" y1="5.40967" x2="26.999" y2="53.9972" gradientUnits="userSpaceOnUse">
<stop offset="0.015" stop-color="#52525B"/>
<stop offset="0.495" stop-color="#A1A1AA"/>
<stop offset="1" stop-color="#404040"/>
</linearGradient>
<linearGradient id="paint4_linear_156_2600" x1="10.9668" y1="29.1162" x2="10.9668" y2="33.7569" gradientUnits="userSpaceOnUse">
<stop offset="0.015" stop-color="#52525B"/>
<stop offset="0.495" stop-color="#A1A1AA"/>
<stop offset="1" stop-color="#404040"/>
</linearGradient>
<linearGradient id="paint5_linear_156_2600" x1="10.9668" y1="15.4053" x2="10.9668" y2="20.2568" gradientUnits="userSpaceOnUse">
<stop offset="0.015" stop-color="#52525B"/>
<stop offset="0.495" stop-color="#A1A1AA"/>
<stop offset="1" stop-color="#404040"/>
</linearGradient>
<linearGradient id="paint6_linear_156_2600" x1="10.9668" y1="42.1538" x2="10.9668" y2="47.1107" gradientUnits="userSpaceOnUse">
<stop offset="0.015" stop-color="#52525B"/>
<stop offset="0.495" stop-color="#A1A1AA"/>
<stop offset="1" stop-color="#404040"/>
</linearGradient>
<clipPath id="clip0_156_2600">
<rect width="54" height="54" fill="white"/>
</clipPath>
</defs>
</svg>
