<svg width="56" height="56" viewBox="0 0 56 56" fill="none" xmlns="http://www.w3.org/2000/svg">
<g clip-path="url(#clip0_156_2514)">
<path d="M29.8676 44.7V41.7539H40.8707C49.2129 41.7539 56 34.9668 56 26.6246C56 19.015 50.3545 12.7002 43.031 11.6494C41.2769 5.15014 35.3865 0.492188 28.4922 0.492188C21.5978 0.492188 15.7084 5.15014 13.9533 11.6494C6.62992 12.7002 0.984375 19.015 0.984375 26.6246C0.984375 34.9668 7.7715 41.7539 16.1137 41.7539H27.1168V44.7C25.1931 45.1998 23.6856 46.7072 23.186 48.6309H0.984375V51.3816H23.186C23.8012 53.7473 25.9368 55.5078 28.4922 55.5078C31.0476 55.5078 33.1832 53.7473 33.7984 51.3816H56V48.6309H33.7984C33.2987 46.7071 31.7913 45.1997 29.8676 44.7ZM16.1137 39.0031C9.27701 39.0031 3.73516 33.4613 3.73516 26.6246C3.73516 19.788 9.27701 14.2461 16.1137 14.2461C16.1604 14.2461 16.2045 14.2589 16.2512 14.2598C16.9371 8.07242 22.1223 3.24297 28.4922 3.24297C34.8621 3.24297 40.0473 8.07242 40.7332 14.2598C40.7799 14.2589 40.824 14.2461 40.8707 14.2461C47.7074 14.2461 53.2492 19.7881 53.2492 26.6246C53.2492 33.4612 47.7074 39.0031 40.8707 39.0031C34.5008 39.0031 22.4836 39.0031 16.1137 39.0031ZM28.4922 52.757C26.9728 52.757 25.7414 51.5256 25.7414 50.0062C25.7414 48.4869 26.9728 47.2555 28.4922 47.2555C30.0116 47.2555 31.243 48.4869 31.243 50.0062C31.243 51.5256 30.0116 52.757 28.4922 52.757Z" fill="url(#paint0_linear_156_2514)"/>
</g>
<defs>
<linearGradient id="paint0_linear_156_2514" x1="28.4922" y1="0.492187" x2="28.4922" y2="55.5078" gradientUnits="userSpaceOnUse">
<stop offset="0.015" stop-color="#52525B"/>
<stop offset="0.495" stop-color="#A1A1AA"/>
<stop offset="1" stop-color="#404040"/>
</linearGradient>
<clipPath id="clip0_156_2514">
<rect width="56" height="56" fill="white"/>
</clipPath>
</defs>
</svg>
