<svg width="56" height="56" viewBox="0 0 56 56" fill="none" xmlns="http://www.w3.org/2000/svg">
<path d="M9.36932 1C9.08451 1 8.81137 1.11314 8.60998 1.31453C8.40859 1.51592 8.29545 1.78906 8.29545 2.07386V10.6648C8.29545 10.9496 8.40859 11.2227 8.60998 11.4241C8.81137 11.6255 9.08451 11.7386 9.36932 11.7386H26.5511V16.0341H9.36932C9.08451 16.0341 8.81137 16.1472 8.60998 16.3486C8.40859 16.55 8.29545 16.8231 8.29545 17.108V25.6989C8.29545 25.9837 8.40859 26.2568 8.60998 26.4582C8.81137 26.6596 9.08451 26.7727 9.36932 26.7727H26.5511V31.0682H9.36932C9.08451 31.0682 8.81137 31.1813 8.60998 31.3827C8.40859 31.5841 8.29545 31.8572 8.29545 32.142V40.733C8.29545 41.0178 8.40859 41.2909 8.60998 41.4923C8.81137 41.6937 9.08451 41.8068 9.36932 41.8068H26.5511V45.0284H23.3295C23.0447 45.0284 22.7716 45.1415 22.5702 45.3429C22.3688 45.5443 22.2557 45.8175 22.2557 46.1023V49.5537H4V51.7014H22.2557V54.6932C22.2557 54.978 22.3688 55.2511 22.5702 55.4525C22.7716 55.6539 23.0447 55.767 23.3295 55.767H31.9205C32.2053 55.767 32.4784 55.6539 32.6798 55.4525C32.8812 55.2511 32.9943 54.978 32.9943 54.6932V51.7014H51.25V49.5537H32.9943V46.1023C32.9943 45.8175 32.8812 45.5443 32.6798 45.3429C32.4784 45.1415 32.2053 45.0284 31.9205 45.0284H28.6989V41.8068H45.8807C46.1655 41.8068 46.4386 41.6937 46.64 41.4923C46.8414 41.2909 46.9545 41.0178 46.9545 40.733V32.142C46.9545 31.8572 46.8414 31.5841 46.64 31.3827C46.4386 31.1813 46.1655 31.0682 45.8807 31.0682H28.6989V26.7727H45.8807C46.1655 26.7727 46.4386 26.6596 46.64 26.4582C46.8414 26.2568 46.9545 25.9837 46.9545 25.6989V17.108C46.9545 16.8231 46.8414 16.55 46.64 16.3486C46.4386 16.1472 46.1655 16.0341 45.8807 16.0341H28.6989V11.7386H45.8807C46.1655 11.7386 46.4386 11.6255 46.64 11.4241C46.8414 11.2227 46.9545 10.9496 46.9545 10.6648V2.07386C46.9545 1.78906 46.8414 1.51592 46.64 1.31453C46.4386 1.11314 46.1655 1 45.8807 1H9.36932ZM10.4432 3.14773H44.8068V9.59091H10.4432V3.14773ZM13.6648 5.29545C13.38 5.29545 13.1068 5.40859 12.9054 5.60998C12.704 5.81137 12.5909 6.08451 12.5909 6.36932C12.5909 6.65412 12.704 6.92727 12.9054 7.12865C13.1068 7.33004 13.38 7.44318 13.6648 7.44318C13.9496 7.44318 14.2227 7.33004 14.4241 7.12865C14.6255 6.92727 14.7386 6.65412 14.7386 6.36932C14.7386 6.08451 14.6255 5.81137 14.4241 5.60998C14.2227 5.40859 13.9496 5.29545 13.6648 5.29545ZM17.9602 5.29545C17.6754 5.29545 17.4023 5.40859 17.2009 5.60998C16.9995 5.81137 16.8864 6.08451 16.8864 6.36932C16.8864 6.65412 16.9995 6.92727 17.2009 7.12865C17.4023 7.33004 17.6754 7.44318 17.9602 7.44318C18.245 7.44318 18.5182 7.33004 18.7196 7.12865C18.921 6.92727 19.0341 6.65412 19.0341 6.36932C19.0341 6.08451 18.921 5.81137 18.7196 5.60998C18.5182 5.40859 18.245 5.29545 17.9602 5.29545ZM22.2557 5.29545C21.9709 5.29545 21.6977 5.40859 21.4963 5.60998C21.295 5.81137 21.1818 6.08451 21.1818 6.36932C21.1818 6.65412 21.295 6.92727 21.4963 7.12865C21.6977 7.33004 21.9709 7.44318 22.2557 7.44318C22.5405 7.44318 22.8136 7.33004 23.015 7.12865C23.2164 6.92727 23.3295 6.65412 23.3295 6.36932C23.3295 6.08451 23.2164 5.81137 23.015 5.60998C22.8136 5.40859 22.5405 5.29545 22.2557 5.29545ZM29.7727 5.29545V7.44318H42.6591V5.29545H29.7727ZM10.4432 18.1818H44.8068V24.625H10.4432V18.1818ZM13.6648 20.3295C13.38 20.3295 13.1068 20.4427 12.9054 20.6441C12.704 20.8455 12.5909 21.1186 12.5909 21.4034C12.5909 21.6882 12.704 21.9614 12.9054 22.1627C13.1068 22.3641 13.38 22.4773 13.6648 22.4773C13.9496 22.4773 14.2227 22.3641 14.4241 22.1627C14.6255 21.9614 14.7386 21.6882 14.7386 21.4034C14.7386 21.1186 14.6255 20.8455 14.4241 20.6441C14.2227 20.4427 13.9496 20.3295 13.6648 20.3295ZM17.9602 20.3295C17.6754 20.3295 17.4023 20.4427 17.2009 20.6441C16.9995 20.8455 16.8864 21.1186 16.8864 21.4034C16.8864 21.6882 16.9995 21.9614 17.2009 22.1627C17.4023 22.3641 17.6754 22.4773 17.9602 22.4773C18.245 22.4773 18.5182 22.3641 18.7196 22.1627C18.921 21.9614 19.0341 21.6882 19.0341 21.4034C19.0341 21.1186 18.921 20.8455 18.7196 20.6441C18.5182 20.4427 18.245 20.3295 17.9602 20.3295ZM22.2557 20.3295C21.9709 20.3295 21.6977 20.4427 21.4963 20.6441C21.295 20.8455 21.1818 21.1186 21.1818 21.4034C21.1818 21.6882 21.295 21.9614 21.4963 22.1627C21.6977 22.3641 21.9709 22.4773 22.2557 22.4773C22.5405 22.4773 22.8136 22.3641 23.015 22.1627C23.2164 21.9614 23.3295 21.6882 23.3295 21.4034C23.3295 21.1186 23.2164 20.8455 23.015 20.6441C22.8136 20.4427 22.5405 20.3295 22.2557 20.3295ZM29.7727 20.3295V22.4773H42.6591V20.3295H29.7727ZM10.4432 33.2159H44.8068V39.6591H10.4432V33.2159ZM13.6648 35.3636C13.38 35.3636 13.1068 35.4768 12.9054 35.6782C12.704 35.8796 12.5909 36.1527 12.5909 36.4375C12.5909 36.7223 12.704 36.9954 12.9054 37.1968C13.1068 37.3982 13.38 37.5114 13.6648 37.5114C13.9496 37.5114 14.2227 37.3982 14.4241 37.1968C14.6255 36.9954 14.7386 36.7223 14.7386 36.4375C14.7386 36.1527 14.6255 35.8796 14.4241 35.6782C14.2227 35.4768 13.9496 35.3636 13.6648 35.3636ZM17.9602 35.3636C17.6754 35.3636 17.4023 35.4768 17.2009 35.6782C16.9995 35.8796 16.8864 36.1527 16.8864 36.4375C16.8864 36.7223 16.9995 36.9954 17.2009 37.1968C17.4023 37.3982 17.6754 37.5114 17.9602 37.5114C18.245 37.5114 18.5182 37.3982 18.7196 37.1968C18.921 36.9954 19.0341 36.7223 19.0341 36.4375C19.0341 36.1527 18.921 35.8796 18.7196 35.6782C18.5182 35.4768 18.245 35.3636 17.9602 35.3636ZM22.2557 35.3636C21.9709 35.3636 21.6977 35.4768 21.4963 35.6782C21.295 35.8796 21.1818 36.1527 21.1818 36.4375C21.1818 36.7223 21.295 36.9954 21.4963 37.1968C21.6977 37.3982 21.9709 37.5114 22.2557 37.5114C22.5405 37.5114 22.8136 37.3982 23.015 37.1968C23.2164 36.9954 23.3295 36.7223 23.3295 36.4375C23.3295 36.1527 23.2164 35.8796 23.015 35.6782C22.8136 35.4768 22.5405 35.3636 22.2557 35.3636ZM29.7727 35.3679V37.5157H42.6591V35.3679H29.7727ZM24.4034 47.1761H30.8466V53.6193H24.4034V47.1761Z" fill="url(#paint0_linear_148_2496)"/>
<defs>
<linearGradient id="paint0_linear_148_2496" x1="27.625" y1="1" x2="27.625" y2="55.767" gradientUnits="userSpaceOnUse">
<stop offset="0.015" stop-color="#52525B"/>
<stop offset="0.495" stop-color="#A1A1AA"/>
<stop offset="1" stop-color="#404040"/>
</linearGradient>
</defs>
</svg>
