<svg width="56" height="56" viewBox="0 0 56 56" fill="none" xmlns="http://www.w3.org/2000/svg">
<g clip-path="url(#clip0_148_2476)">
<path d="M11.0876 0C10.7425 0 10.4115 0.137085 10.1675 0.381097C9.92352 0.625109 9.78644 0.95606 9.78644 1.30115V5.20458H-0.62793V7.80687H-0.622725V23.4206H-0.62793V26.0229H-0.622725V41.6366H-0.62793V44.2389H9.78644V48.1424C9.78644 48.4875 9.92352 48.8184 10.1675 49.0624C10.4115 49.3064 10.7425 49.4435 11.0876 49.4435H55.3265C55.6716 49.4435 56.0026 49.3064 56.2466 49.0624C56.4906 48.8184 56.6277 48.4875 56.6277 48.1424V37.7332C56.6277 37.3881 56.4906 37.0572 56.2466 36.8132C56.0026 36.5691 55.6716 36.4321 55.3265 36.4321H11.0876C10.7425 36.4321 10.4115 36.5691 10.1675 36.8132C9.92352 37.0572 9.78644 37.3881 9.78644 37.7332V41.6366H1.97957V26.0229H9.78644V29.9263C9.78644 30.2714 9.92352 30.6024 10.1675 30.8464C10.4115 31.0904 10.7425 31.2275 11.0876 31.2275H55.3265C55.6716 31.2275 56.0026 31.0904 56.2466 30.8464C56.4906 30.6024 56.6277 30.2714 56.6277 29.9263V19.5172C56.6277 19.1721 56.4906 18.8411 56.2466 18.5971C56.0026 18.3531 55.6716 18.216 55.3265 18.216H11.0876C10.7425 18.216 10.4115 18.3531 10.1675 18.5971C9.92352 18.8411 9.78644 19.1721 9.78644 19.5172V23.4206H1.97957V7.80687H9.78644V11.7103C9.78644 12.0554 9.92352 12.3863 10.1675 12.6304C10.4115 12.8744 10.7425 13.0115 11.0876 13.0115H55.3265C55.6716 13.0115 56.0026 12.8744 56.2466 12.6304C56.4906 12.3863 56.6277 12.0554 56.6277 11.7103V1.30115C56.6277 0.95606 56.4906 0.625109 56.2466 0.381097C56.0026 0.137085 55.6716 0 55.3265 0H11.0876ZM12.3887 2.60229H54.0254V10.4092H12.3887V2.60229ZM17.5933 5.20458V7.80687H35.8093V5.20458H17.5933ZM47.5196 5.20458C47.1746 5.20458 46.8436 5.34166 46.5996 5.58568C46.3556 5.82969 46.2185 6.16064 46.2185 6.50573C46.2185 6.85081 46.3556 7.18176 46.5996 7.42578C46.8436 7.66979 47.1746 7.80687 47.5196 7.80687C47.8647 7.80687 48.1957 7.66979 48.4397 7.42578C48.6837 7.18176 48.8208 6.85081 48.8208 6.50573C48.8208 6.16064 48.6837 5.82969 48.4397 5.58568C48.1957 5.34166 47.8647 5.20458 47.5196 5.20458ZM12.3887 20.8183H54.0254V28.6252H12.3887V20.8183ZM17.5933 23.4206V26.0229H35.8093V23.4206H17.5933ZM47.5196 23.4206C47.1746 23.4206 46.8436 23.5577 46.5996 23.8017C46.3556 24.0457 46.2185 24.3767 46.2185 24.7218C46.2185 25.0668 46.3556 25.3978 46.5996 25.6418C46.8436 25.8858 47.1746 26.0229 47.5196 26.0229C47.8647 26.0229 48.1957 25.8858 48.4397 25.6418C48.6837 25.3978 48.8208 25.0668 48.8208 24.7218C48.8208 24.3767 48.6837 24.0457 48.4397 23.8017C48.1957 23.5577 47.8647 23.4206 47.5196 23.4206ZM12.3887 39.0344H54.0254V46.8412H12.3887V39.0344ZM17.5933 41.6366V44.2389H35.8093V41.6366H17.5933ZM47.5196 41.6366C47.1746 41.6366 46.8436 41.7737 46.5996 42.0177C46.3556 42.2618 46.2185 42.5927 46.2185 42.9378C46.2185 43.2829 46.3556 43.6138 46.5996 43.8578C46.8436 44.1019 47.1746 44.2389 47.5196 44.2389C47.8647 44.2389 48.1957 44.1019 48.4397 43.8578C48.6837 43.6138 48.8208 43.2829 48.8208 42.9378C48.8208 42.5927 48.6837 42.2618 48.4397 42.0177C48.1957 41.7737 47.8647 41.6366 47.5196 41.6366Z" fill="url(#paint0_linear_148_2476)"/>
</g>
<defs>
<linearGradient id="paint0_linear_148_2476" x1="27.9999" y1="0" x2="27.9999" y2="49.4435" gradientUnits="userSpaceOnUse">
<stop offset="0.015" stop-color="#52525B"/>
<stop offset="0.495" stop-color="#A1A1AA"/>
<stop offset="1" stop-color="#404040"/>
</linearGradient>
<clipPath id="clip0_148_2476">
<rect width="56" height="56" fill="white"/>
</clipPath>
</defs>
</svg>
