<svg width="56" height="56" viewBox="0 0 56 56" fill="none" xmlns="http://www.w3.org/2000/svg">
<g clip-path="url(#clip0_156_2510)">
<path d="M52.5 49C50.9811 49 49.6982 49.9782 49.215 51.3333H44.3333V40.1839C46.7583 40.0856 48.6734 39.302 50.0732 38.4237C53.964 35.9844 56 31.4692 56 28.2689C56 23.2923 52.6749 19.1007 48.0555 17.9705C48.5551 16.3664 48.7573 14.6973 48.6576 12.9917C48.2424 5.88574 42.2108 0.0569661 35.2125 0C35.1772 0 35.1424 0 35.1065 0C29.4498 0 24.4077 3.62305 22.4236 8.88444C20.3523 7.16976 17.6743 6.33008 14.9536 6.60124C11.0754 6.98405 7.69556 9.70133 6.34432 13.5238C5.74219 15.2236 5.59351 16.9691 5.89998 18.7293C2.33333 20.4793 0 24.1924 0 28.2689C0 33.986 4.16764 38.1799 9.98275 38.4146C10.4251 39.1336 11.0182 39.7028 11.6667 40.1676V51.3333H6.78501C6.30182 49.9782 5.01895 49 3.5 49C1.56999 49 0 50.57 0 52.5C0 54.43 1.56999 56 3.5 56C5.01895 56 6.30182 55.0218 6.78501 53.6667H14V41.3221C14.798 41.5696 15.5614 41.689 16.1607 41.689C18.4688 41.689 20.1047 41.371 22.1667 39.803V49.215C20.8116 49.6982 19.8333 50.9811 19.8333 52.5C19.8333 54.43 21.4033 56 23.3333 56C25.2633 56 26.8333 54.43 26.8333 52.5C26.8333 50.9811 25.8551 49.6982 24.5 49.215V40.0491C25.7444 40.901 27.5393 41.6776 30.0001 41.6776C30.9835 41.6776 31.8704 41.5587 32.6667 41.3651V49.215C31.3116 49.6982 30.3333 50.9811 30.3333 52.5C30.3333 54.43 31.9033 56 33.8333 56C35.7633 56 37.3333 54.43 37.3333 52.5C37.3333 50.9811 36.3551 49.6982 35 49.215V40.477C36.0805 39.9072 36.8793 39.2441 37.3863 38.7313C39.0612 39.4618 40.5959 39.8736 42 40.0643V53.6667H49.2151C49.6983 55.0218 50.9812 56 52.5 56C54.43 56 56 54.43 56 52.5C56 50.57 54.43 49 52.5 49ZM3.5 53.6667C2.85685 53.6667 2.33333 53.1437 2.33333 52.5C2.33333 51.8563 2.85685 51.3333 3.5 51.3333C4.14315 51.3333 4.66667 51.8563 4.66667 52.5C4.66667 53.1437 4.14315 53.6667 3.5 53.6667ZM23.3333 53.6667C22.6902 53.6667 22.1667 53.1437 22.1667 52.5C22.1667 51.8563 22.6902 51.3333 23.3333 51.3333C23.9765 51.3333 24.5 51.8563 24.5 52.5C24.5 53.1437 23.9765 53.6667 23.3333 53.6667ZM33.8333 53.6667C33.1902 53.6667 32.6667 53.1437 32.6667 52.5C32.6667 51.8563 33.1902 51.3333 33.8333 51.3333C34.4765 51.3333 35 51.8563 35 52.5C35 53.1437 34.4765 53.6667 33.8333 53.6667ZM37.5931 36.2578L36.7278 35.8397L36.1513 36.6087C35.9417 36.889 33.9866 39.3442 30.0001 39.3442C26.0125 39.3442 24.3547 36.7591 24.2909 36.6566L23.5253 35.384L22.4703 36.4287C19.9228 38.9523 18.7191 39.3556 16.1607 39.3556C15.1313 39.3556 12.5946 38.7108 11.7629 36.7933L11.4582 36.0915H10.5C5.69149 36.0915 2.33333 32.8752 2.33333 28.2689C2.33333 24.8145 4.47184 21.6961 7.65454 20.5112L8.65145 20.1398L8.37345 19.1121C7.93254 17.4841 7.9895 15.8662 8.54378 14.3019C9.59538 11.3294 12.201 9.21826 15.1826 8.92318C15.4407 8.89811 15.6976 8.88558 15.9534 8.88558C18.3169 8.88558 20.5619 9.9554 22.0738 11.8364L23.6091 13.7471L24.1235 11.3511C25.2491 6.11247 29.8594 2.33333 35.1065 2.33333C35.1356 2.33333 35.1646 2.33333 35.1937 2.33333C40.9883 2.38005 45.9831 7.22331 46.3283 13.1284C46.4354 14.9616 46.1249 16.7435 45.4049 18.424L44.7765 19.8892L46.3636 20.0441C50.5273 20.4508 53.6667 23.9873 53.6667 28.2689C53.6667 30.8267 52.0067 34.4577 48.8337 36.4469C45.741 38.3861 41.8547 38.32 37.5931 36.2578ZM52.5 53.6667C51.8569 53.6667 51.3333 53.1437 51.3333 52.5C51.3333 51.8563 51.8569 51.3333 52.5 51.3333C53.1431 51.3333 53.6667 51.8563 53.6667 52.5C53.6667 53.1437 53.1431 53.6667 52.5 53.6667Z" fill="url(#paint0_linear_156_2510)"/>
</g>
<defs>
<linearGradient id="paint0_linear_156_2510" x1="28" y1="0" x2="28" y2="56" gradientUnits="userSpaceOnUse">
<stop offset="0.015" stop-color="#52525B"/>
<stop offset="0.495" stop-color="#A1A1AA"/>
<stop offset="1" stop-color="#404040"/>
</linearGradient>
<clipPath id="clip0_156_2510">
<rect width="56" height="56" fill="white"/>
</clipPath>
</defs>
</svg>
