<svg width="56" height="56" viewBox="0 0 56 56" fill="none" xmlns="http://www.w3.org/2000/svg">
<path d="M8.31577 19.5886C8.31577 18.6719 8.27879 18.0004 8.32621 17.3366C8.37194 16.6965 8.05904 16.5318 7.49649 16.471C6.35646 16.3785 5.22297 16.2182 4.10198 15.991C2.44942 15.6082 1.58532 14.6758 1.57109 13.004C1.54525 9.96961 1.67753 6.93305 1.77118 3.89818C1.79725 3.0476 2.20926 2.32789 2.99868 2.01093C4.04436 1.5911 5.13484 1.06269 6.22607 1.01195C14.4692 0.628861 22.7152 0.277041 30.9643 0.0681891C36.2508 -0.0655145 41.5452 0.0276744 46.8356 0.0919182C48.2959 0.125754 49.7507 0.285549 51.1839 0.569575C53.1625 0.940814 53.9741 1.83857 54.2436 3.81309C54.6189 6.56041 54.7742 9.32124 54.2801 12.0707C53.8047 14.7177 52.4987 15.8954 49.8194 16.1574C48.9951 16.238 48.164 16.244 47.3358 16.284C46.1583 16.3412 46.1244 16.3879 46.3581 17.7448C46.7196 17.7744 47.1047 17.8102 47.49 17.8365C48.3172 17.893 49.1479 17.9153 49.9718 18.0025C53.2745 18.3543 54.2103 19.1802 54.5026 22.4654C54.7232 24.7414 54.7576 27.0315 54.6044 29.313C54.3816 32.2538 52.9953 33.514 50.0816 33.8331C48.5556 34.0004 47.0198 34.0787 45.3879 34.205C45.4255 34.9145 45.4591 35.5627 45.5002 36.3332C45.9033 36.3729 46.2826 36.4044 46.6618 36.4481C48.1893 36.6283 49.7294 36.7406 51.2399 37.0169C52.6803 37.2799 53.6783 38.1655 53.9228 39.6666C54.4083 42.6428 54.5798 45.6371 54.0204 48.6224C53.5537 51.1153 52.2173 52.373 49.6597 52.5102C46.3884 52.6857 43.1106 52.7197 39.8346 52.762C30.8327 52.8775 21.8303 52.9931 12.8278 53.0462C10.5022 53.0599 8.17448 52.8566 5.84913 52.7273C5.2977 52.6875 4.75058 52.6016 4.2134 52.4708C2.19575 52.015 1.33238 51.1124 1.31508 49.0298C1.29137 46.1522 1.4367 43.2728 1.52844 40.3952C1.55878 39.4492 1.99663 38.6705 2.87969 38.3328C4.1814 37.8329 5.53266 37.4619 7.10915 36.9577C7.16105 36.5832 7.25492 35.9052 7.35996 35.1452C6.40555 34.9975 5.55093 34.902 4.7129 34.7278C2.82446 34.3352 1.92242 33.4125 1.86979 31.4902C1.79014 28.5743 1.85747 25.6532 1.88591 22.7345C1.89516 21.791 2.31809 21.0006 3.19902 20.6483C4.28805 20.2259 5.40487 19.8791 6.54161 19.6102C7.05201 19.4844 7.61954 19.5886 8.31577 19.5886ZM28.1563 31.5767C28.1563 31.5231 28.1563 31.4693 28.1563 31.4157C29.4966 31.4157 30.8379 31.4482 32.1773 31.41C37.8174 31.2496 43.4574 31.0758 49.0963 30.8885C50.813 30.8309 51.2388 30.4981 51.2984 28.7926C51.3743 26.6318 51.2652 24.4641 51.2276 22.2997C51.2143 21.5603 50.8791 21.135 50.0816 21.1028C49.3343 21.0727 48.5909 20.9347 47.8436 20.907C38.483 20.5587 29.1472 21.0774 19.8133 21.699C14.8549 22.0293 9.89425 22.3253 4.93124 22.587C4.14016 22.6299 4.02234 23.033 4.06193 23.66C4.21531 26.1017 4.37483 28.5406 4.51233 30.9819C4.55974 31.827 5.02844 32.1672 5.81312 32.1758C9.32165 32.2137 12.8333 32.3543 16.3387 32.2544C20.2811 32.1409 24.2172 31.8119 28.1563 31.5767ZM26.4407 39.2459L26.4357 39.403C23.7569 39.5449 21.078 39.7111 18.3964 39.8223C13.8239 40.0119 9.25043 40.1781 4.67592 40.3204C3.85402 40.3439 3.66248 40.7267 3.69164 41.4267C3.78646 43.7131 3.8623 45.9997 3.96045 48.2857C4.019 49.6517 4.13374 49.8695 5.55823 49.9382C8.94515 50.1021 12.3382 50.273 15.7283 50.2282C22.4755 50.1386 29.2205 49.8862 35.967 49.7399C40.1889 49.6481 44.4131 49.6431 48.6354 49.5672C50.2174 49.5391 50.6812 49.1945 50.7725 47.6573C50.9026 45.4594 50.8516 43.2504 50.8661 41.046C50.8711 40.3052 50.5251 39.8747 49.7417 39.8118C48.877 39.7425 48.0177 39.5529 47.1538 39.5384C40.2493 39.4236 33.3451 39.339 26.4407 39.2459ZM26.4577 2.85156L26.4535 3.03553C24.1675 3.14955 21.8819 3.27945 19.595 3.37428C14.7459 3.57555 9.89678 3.77895 5.04599 3.92878C4.2338 3.95388 3.87891 4.17865 3.9166 5.00624C4.01854 7.25241 4.09014 9.50021 4.18307 11.7468C4.24684 13.2937 4.33739 13.494 5.87001 13.5678C9.2185 13.7292 12.5739 13.888 15.9236 13.8425C22.4741 13.7534 29.022 13.5023 35.5718 13.3596C39.9914 13.2631 44.4127 13.2491 48.8326 13.1742C50.472 13.1465 50.9026 12.825 51.0102 11.1803C51.146 9.10051 51.1399 7.00796 51.1023 4.92183C51.0785 3.65994 50.9383 3.58335 49.6435 3.38232C49.0218 3.27125 48.3934 3.20274 47.7624 3.17726C40.661 3.05921 33.5597 2.95066 26.4577 2.85156ZM42.0267 34.1642L10.3178 35.2576C10.4311 35.955 10.5288 36.5568 10.6295 37.1762L41.9082 36.1174C41.94 35.5932 41.975 35.0132 42.0267 34.1642ZM11.5533 19.2752L42.5399 17.5668C42.5937 17.4177 42.6324 17.2635 42.6555 17.1066C42.6508 16.8393 42.6277 16.5727 42.5858 16.3087L11.1987 16.6948C11.2843 17.5482 11.3474 18.212 11.4213 18.8758C11.4528 19.0127 11.4968 19.1464 11.5529 19.2752H11.5533Z" fill="url(#paint0_linear_156_2565)"/>
<path d="M18.3046 27.8059C16.0847 27.9107 13.2089 28.0517 10.3321 28.1779C9.82196 28.2001 9.25515 28.2914 8.81327 28.1105C8.41498 27.9472 7.95674 27.4868 7.8918 27.0964C7.84058 26.7882 8.27914 26.1941 8.62314 26.0715C9.37022 25.8202 10.1508 25.6823 10.9388 25.6624C16.6541 25.4391 22.3703 25.2384 28.0874 25.0605C28.6393 25.0494 29.191 25.0866 29.7364 25.1714C30.3808 25.2644 30.8705 25.6219 30.8995 26.311C30.9284 27.0001 30.4521 27.4252 29.8301 27.5421C29.018 27.6981 28.1938 27.7825 27.367 27.7945C24.5659 27.8241 21.7645 27.8059 18.3046 27.8059Z" fill="url(#paint1_linear_156_2565)"/>
<path d="M47.7416 27.3883C47.3443 27.3787 46.9669 27.2139 46.6902 26.9291C46.4132 26.6443 46.2593 26.2623 46.2608 25.8651C46.2943 24.9579 46.9109 24.2856 47.6961 24.3005C48.1108 24.3237 48.5019 24.5018 48.7916 24.7996C49.0813 25.0974 49.2489 25.4932 49.2604 25.9086C49.2543 26.3059 49.091 26.6846 48.8064 26.9619C48.5218 27.2392 48.1389 27.3925 47.7416 27.3883Z" fill="url(#paint2_linear_156_2565)"/>
<path d="M42.6805 27.5485C42.2829 27.5474 41.9015 27.3906 41.6179 27.1117C41.334 26.8329 41.1711 26.454 41.1632 26.0564C41.1549 25.2205 41.688 24.74 42.617 24.7462C43.5767 24.7523 44.1791 25.3018 44.1488 26.1448C44.1304 26.5222 43.9675 26.8781 43.6944 27.1392C43.4213 27.4003 43.0583 27.5468 42.6805 27.5485Z" fill="url(#paint3_linear_156_2565)"/>
<path d="M36.7103 24.9463C37.0646 24.9588 37.4023 25.1002 37.6599 25.3439C37.9174 25.5875 38.077 25.9167 38.1092 26.2698C38.111 26.4467 38.0759 26.622 38.0062 26.7846C37.9365 26.9472 37.8336 27.0935 37.7043 27.2142C37.575 27.3348 37.4218 27.4272 37.2548 27.4853C37.0877 27.5435 36.9104 27.5663 36.7341 27.5521C36.3976 27.5352 36.0804 27.3898 35.848 27.1458C35.6156 26.9019 35.4857 26.578 35.4852 26.2411C35.4762 26.0746 35.5011 25.9079 35.5586 25.7513C35.6161 25.5948 35.7048 25.4516 35.8194 25.3304C35.9341 25.2092 36.0722 25.1127 36.2254 25.0466C36.3785 24.9806 36.5435 24.9465 36.7103 24.9463Z" fill="url(#paint4_linear_156_2565)"/>
<path d="M18.6113 46.0355C15.735 46.0355 12.8591 46.0355 9.98366 46.0355C9.51101 46.0507 9.03785 46.0402 8.56628 46.0052C7.91885 45.9355 7.42217 45.6213 7.39277 44.9057C7.36554 44.2433 7.8162 43.8908 8.39746 43.7738C9.09048 43.6203 9.7961 43.5311 10.5054 43.5069C16.2985 43.4194 22.0918 43.3501 27.8854 43.2992C28.3937 43.2941 28.9676 43.2706 29.3932 43.487C29.8223 43.7051 30.3689 44.2061 30.377 44.5933C30.3853 44.9848 29.8687 45.5165 29.4501 45.7527C29.0371 45.9853 28.4592 45.9799 27.953 45.9832C24.8392 46.0012 21.7254 45.9922 18.6127 45.9922L18.6113 46.0355Z" fill="url(#paint5_linear_156_2565)"/>
<path d="M47.197 42.9697C47.6157 42.9737 48.0166 43.1388 48.3167 43.4306C48.6169 43.7224 48.7931 44.1187 48.809 44.5369C48.8098 44.9162 48.6667 45.2821 48.4092 45.5609C48.1517 45.8397 47.7984 46.0109 47.4203 46.0402C47.0211 46.0608 46.63 45.9221 46.3331 45.6545C46.0365 45.3868 45.8578 45.0126 45.8368 44.6135C45.8097 43.73 46.4216 42.9918 47.197 42.9697Z" fill="url(#paint6_linear_156_2565)"/>
<path d="M40.7238 44.6062C40.7123 43.7798 41.2656 43.2687 42.1613 43.2785C43.1095 43.29 43.7174 43.8452 43.6928 44.6813C43.6773 45.057 43.5176 45.4124 43.2471 45.6739C42.9766 45.9354 42.6157 46.0824 42.2397 46.0853C41.8439 46.0856 41.4635 45.931 41.18 45.6547C40.8968 45.3781 40.7332 45.0017 40.7238 44.6062Z" fill="url(#paint7_linear_156_2565)"/>
<path d="M36.3818 45.9522C36.2061 45.9579 36.0311 45.928 35.8674 45.8637C35.7037 45.7997 35.5547 45.7029 35.4294 45.5798C35.3042 45.4562 35.2053 45.3089 35.1388 45.1463C35.0723 44.9834 35.0394 44.809 35.0424 44.6334C35.0384 44.4677 35.0674 44.3026 35.1278 44.1484C35.1881 43.9938 35.2786 43.8529 35.3939 43.7337C35.5092 43.6145 35.6471 43.5195 35.7994 43.4542C35.9518 43.3888 36.1157 43.3545 36.2815 43.353C36.6331 43.3769 36.9645 43.5264 37.2155 43.7738C37.4666 44.0212 37.6204 44.3506 37.649 44.7017C37.6504 44.8679 37.6183 45.0326 37.555 45.1857C37.4915 45.3392 37.3979 45.4783 37.2798 45.5949C37.1616 45.7116 37.0213 45.8033 36.867 45.8647C36.7127 45.9261 36.5478 45.9558 36.3818 45.9522Z" fill="url(#paint8_linear_156_2565)"/>
<path d="M18.9192 9.63208H10.4087C9.93456 9.63208 9.46209 9.65032 8.98987 9.63208C8.30072 9.6055 7.70096 9.36679 7.62725 8.59753C7.54522 7.73912 8.18388 7.4359 8.88697 7.31736C9.58565 7.19221 10.2928 7.11972 11.0023 7.1005C16.4407 7.01595 21.8795 6.94652 27.3186 6.89235C28.0644 6.88498 28.8465 6.87266 29.5449 7.0841C29.7894 7.17259 30.0123 7.31216 30.1986 7.49351C30.385 7.6749 30.5306 7.89389 30.6256 8.13596C30.8153 8.78668 30.2795 9.23355 29.6561 9.39666C29.1617 9.5255 28.6533 9.5926 28.1424 9.5965C25.0679 9.61428 21.9935 9.6055 18.9192 9.6055V9.63208Z" fill="url(#paint9_linear_156_2565)"/>
<path d="M47.6024 9.64487C47.4044 9.65238 47.2069 9.62009 47.0212 9.55006C46.8359 9.48002 46.6665 9.37358 46.5228 9.23701C46.3794 9.10041 46.2645 8.93647 46.1851 8.75482C46.106 8.57318 46.0637 8.37752 46.0615 8.17938C46.0594 7.28966 46.6893 6.56944 47.4658 6.57277C47.8635 6.59296 48.2406 6.75578 48.5281 7.03137C48.8152 7.30699 48.9937 7.67692 49.0305 8.0734C49.0428 8.27097 49.015 8.46898 48.9492 8.65568C48.8835 8.84241 48.7813 9.01409 48.648 9.16059C48.5151 9.30705 48.3536 9.42537 48.1741 9.50856C47.9946 9.59174 47.8003 9.63812 47.6024 9.64487Z" fill="url(#paint10_linear_156_2565)"/>
<path d="M42.4877 9.68834C42.2919 9.69419 42.0969 9.6614 41.9134 9.5918C41.7303 9.52223 41.5627 9.41727 41.42 9.28287C41.2773 9.14847 41.1625 8.98727 41.0823 8.80852C41.0021 8.62977 40.9577 8.43696 40.9519 8.24109C40.9284 7.40331 41.4644 6.89125 42.3634 6.89504C43.3181 6.89909 43.9292 7.44029 43.9187 8.27211C43.9119 8.64808 43.758 9.00638 43.4907 9.27088C43.2234 9.53538 42.8637 9.68513 42.4877 9.68834Z" fill="url(#paint11_linear_156_2565)"/>
<path d="M36.4784 9.56993C36.3027 9.55866 36.1312 9.51156 35.9744 9.43144C35.8176 9.35137 35.6788 9.24001 35.5667 9.10424C35.4546 8.96851 35.3714 8.81125 35.3224 8.64214C35.2734 8.47303 35.2596 8.29565 35.2817 8.12097C35.3815 7.42377 35.7675 6.96982 36.5223 6.98167C36.8957 6.99814 37.2473 7.16187 37.5002 7.4371C37.753 7.71236 37.8867 8.07658 37.8715 8.45005C37.8347 8.78311 37.6678 9.08806 37.4066 9.29802C37.1453 9.50798 36.8116 9.60576 36.4784 9.56993Z" fill="url(#paint12_linear_156_2565)"/>
<defs>
<linearGradient id="paint0_linear_156_2565" x1="28.0054" y1="0" x2="28.0054" y2="53.0469" gradientUnits="userSpaceOnUse">
<stop offset="0.015" stop-color="#52525B"/>
<stop offset="0.495" stop-color="#A1A1AA"/>
<stop offset="1" stop-color="#404040"/>
</linearGradient>
<linearGradient id="paint1_linear_156_2565" x1="19.3942" y1="25.0586" x2="19.3942" y2="28.2206" gradientUnits="userSpaceOnUse">
<stop offset="0.015" stop-color="#52525B"/>
<stop offset="0.495" stop-color="#A1A1AA"/>
<stop offset="1" stop-color="#404040"/>
</linearGradient>
<linearGradient id="paint2_linear_156_2565" x1="47.7606" y1="24.3003" x2="47.7606" y2="27.3884" gradientUnits="userSpaceOnUse">
<stop offset="0.015" stop-color="#52525B"/>
<stop offset="0.495" stop-color="#A1A1AA"/>
<stop offset="1" stop-color="#404040"/>
</linearGradient>
<linearGradient id="paint3_linear_156_2565" x1="42.6565" y1="24.7461" x2="42.6565" y2="27.5485" gradientUnits="userSpaceOnUse">
<stop offset="0.015" stop-color="#52525B"/>
<stop offset="0.495" stop-color="#A1A1AA"/>
<stop offset="1" stop-color="#404040"/>
</linearGradient>
<linearGradient id="paint4_linear_156_2565" x1="36.7963" y1="24.9463" x2="36.7963" y2="27.5562" gradientUnits="userSpaceOnUse">
<stop offset="0.015" stop-color="#52525B"/>
<stop offset="0.495" stop-color="#A1A1AA"/>
<stop offset="1" stop-color="#404040"/>
</linearGradient>
<linearGradient id="paint5_linear_156_2565" x1="18.8843" y1="43.2959" x2="18.8843" y2="46.0423" gradientUnits="userSpaceOnUse">
<stop offset="0.015" stop-color="#52525B"/>
<stop offset="0.495" stop-color="#A1A1AA"/>
<stop offset="1" stop-color="#404040"/>
</linearGradient>
<linearGradient id="paint6_linear_156_2565" x1="47.3225" y1="42.9697" x2="47.3225" y2="46.0422" gradientUnits="userSpaceOnUse">
<stop offset="0.015" stop-color="#52525B"/>
<stop offset="0.495" stop-color="#A1A1AA"/>
<stop offset="1" stop-color="#404040"/>
</linearGradient>
<linearGradient id="paint7_linear_156_2565" x1="42.2086" y1="43.2783" x2="42.2086" y2="46.0853" gradientUnits="userSpaceOnUse">
<stop offset="0.015" stop-color="#52525B"/>
<stop offset="0.495" stop-color="#A1A1AA"/>
<stop offset="1" stop-color="#404040"/>
</linearGradient>
<linearGradient id="paint8_linear_156_2565" x1="36.3455" y1="43.353" x2="36.3455" y2="45.9529" gradientUnits="userSpaceOnUse">
<stop offset="0.015" stop-color="#52525B"/>
<stop offset="0.495" stop-color="#A1A1AA"/>
<stop offset="1" stop-color="#404040"/>
</linearGradient>
<linearGradient id="paint9_linear_156_2565" x1="19.1423" y1="6.88916" x2="19.1423" y2="9.64019" gradientUnits="userSpaceOnUse">
<stop offset="0.015" stop-color="#52525B"/>
<stop offset="0.495" stop-color="#A1A1AA"/>
<stop offset="1" stop-color="#404040"/>
</linearGradient>
<linearGradient id="paint10_linear_156_2565" x1="47.5474" y1="6.57275" x2="47.5474" y2="9.64594" gradientUnits="userSpaceOnUse">
<stop offset="0.015" stop-color="#52525B"/>
<stop offset="0.495" stop-color="#A1A1AA"/>
<stop offset="1" stop-color="#404040"/>
</linearGradient>
<linearGradient id="paint11_linear_156_2565" x1="42.435" y1="6.89502" x2="42.435" y2="9.68901" gradientUnits="userSpaceOnUse">
<stop offset="0.015" stop-color="#52525B"/>
<stop offset="0.495" stop-color="#A1A1AA"/>
<stop offset="1" stop-color="#404040"/>
</linearGradient>
<linearGradient id="paint12_linear_156_2565" x1="36.5721" y1="6.98145" x2="36.5721" y2="9.57718" gradientUnits="userSpaceOnUse">
<stop offset="0.015" stop-color="#52525B"/>
<stop offset="0.495" stop-color="#A1A1AA"/>
<stop offset="1" stop-color="#404040"/>
</linearGradient>
</defs>
</svg>
