<svg width="268" height="301" viewBox="0 0 268 301" fill="none" xmlns="http://www.w3.org/2000/svg">
<path fill-rule="evenodd" clip-rule="evenodd" d="M0 82.128C0 37.4858 35.6062 1.15981 79.9686 0L201.238 111.619C206.198 116.185 213.921 115.865 218.486 110.904C241.315 86.1024 239.715 47.4907 214.913 24.6625L188.13 0.0115929C232.304 1.38147 267.693 37.6219 267.693 82.128V218.831C267.693 263.366 232.259 299.624 188.046 300.95L66.8371 189.387C61.8767 184.821 54.1544 185.141 49.5887 190.102C26.7606 214.903 28.3606 253.515 53.1624 276.343L79.9047 300.957C35.572 299.764 0 263.452 0 218.831V82.128ZM49.5887 39.2406C26.7606 64.0425 28.3606 102.654 53.1624 125.482L201.238 261.774C206.198 266.34 213.921 266.02 218.486 261.06C241.315 236.258 239.715 197.646 214.913 174.818L66.8371 38.5259C61.8767 33.9603 54.1544 34.2803 49.5887 39.2406Z" fill="#FF6F00"/>
</svg>
