<svg width="190" height="32" viewBox="0 0 190 32" fill="none" xmlns="http://www.w3.org/2000/svg">
<mask id="mask0_8806_2006" style="mask-type:luminance" maskUnits="userSpaceOnUse" x="0" y="0" width="190" height="32">
<path d="M189.021 0H0.0205078V32H189.021V0Z" fill="white"/>
</mask>
<g mask="url(#mask0_8806_2006)">
<path fill-rule="evenodd" clip-rule="evenodd" d="M16.0205 32C24.8571 32 32.0205 24.8366 32.0205 16C32.0205 7.16344 24.8571 0 16.0205 0C7.18395 0 0.0205078 7.16344 0.0205078 16C0.0205078 24.8366 7.18395 32 16.0205 32ZM23.7159 15.9177L23.7161 14.384C23.7162 13.3615 23.7163 12.3389 23.7159 11.3164C23.7154 9.66824 22.2951 8.24564 20.6452 8.24509C17.5744 8.24346 14.5032 8.24291 11.4324 8.24509C9.89272 8.24618 8.49044 9.55491 8.38026 11.086C8.263 12.7167 9.07677 13.9241 10.6508 14.4515C11.1957 14.6339 11.7557 14.7557 12.3157 14.8776C12.647 14.9497 12.9783 15.0217 13.3065 15.1064C14.2075 15.3391 15.0617 15.6464 15.7315 16.3481C16.2834 16.9268 16.5703 17.6264 16.7814 18.3706C16.9014 18.7928 16.9948 19.2214 17.0883 19.65C17.1929 20.1297 17.2975 20.6094 17.4392 21.0802C17.6933 21.9241 18.0877 22.6695 18.8867 23.1304C19.9443 23.7407 21.0297 23.7837 22.0916 23.1898C23.1503 22.5976 23.7137 21.6713 23.7159 20.4372C23.7171 19.4341 23.7167 18.431 23.7163 17.428V17.4242C23.7161 16.922 23.7159 16.4198 23.7159 15.9177ZM8.3537 20.4224C8.33461 18.6713 9.77234 17.2296 11.5412 17.2258C13.3094 17.222 14.7417 18.6484 14.7406 20.4126C14.7395 22.1583 13.3078 23.5956 11.5652 23.6C9.79743 23.6043 8.37279 22.1953 8.3537 20.4224Z" fill="white" fill-opacity="0.5"/>
<path d="M41.0205 23.7446H42.5496L43.914 19.4253L52.0301 19.402L53.371 23.7446H54.9001L50.4774 9.85776C50.0775 8.60377 49.1365 8 47.9603 8C46.7841 8 45.8431 8.60377 45.4432 9.85776L41.0205 23.7446ZM46.7605 10.299C46.9487 9.64877 47.3251 9.34688 47.9603 9.34688C48.5955 9.34688 48.9719 9.64877 49.1836 10.299L51.6066 18.0552H44.3375L46.7605 10.299Z" fill="white" fill-opacity="0.5"/>
<path d="M62.1618 23.7446V18.9608H65.2435C69.0781 18.9608 71.9481 17.2888 71.9481 13.5733C71.9481 9.97383 69.1959 8.23218 65.1967 8.23218H60.6562V23.7446H62.1618ZM65.2201 9.6255C68.2548 9.6255 70.3955 10.8331 70.3955 13.5733C70.3955 16.4296 68.1137 17.5675 65.2201 17.5675H62.1618V9.6255H65.2201Z" fill="white" fill-opacity="0.5"/>
<path d="M82.5804 24C83.8272 24 84.8153 23.2569 85.2858 21.7707L89.4967 8.23218H87.9441L83.8743 21.4688C83.639 22.2351 83.2391 22.6531 82.5804 22.6531C81.9217 22.6531 81.5218 22.2351 81.2866 21.4688L77.1932 8.23218H75.6406L79.8515 21.7707C80.322 23.2569 81.3101 24 82.5804 24Z" fill="white" fill-opacity="0.5"/>
<path d="M105.315 23.7446V22.3512H96.2107V16.6851H104.68V15.2917H96.2107V9.6255H105.103V8.23218H96.2107C95.0815 8.23218 94.7051 8.78951 94.7051 9.69517V22.2816C94.7051 23.1872 95.0815 23.7446 96.2107 23.7446H105.315Z" fill="white" fill-opacity="0.5"/>
<path d="M112.851 23.7446V17.521H115.345C117.909 17.521 118.779 19.1001 119.885 21.283L121.132 23.7446H122.755L121.414 21.074C120.403 19.0537 119.603 17.5675 118.097 16.9637C120.473 16.5689 121.955 15.0131 121.955 12.7141C121.955 9.64873 119.462 8.23218 116.333 8.23218H111.369V23.7446H112.851ZM116.333 9.6255C118.568 9.6255 120.426 10.5776 120.426 12.8302C120.426 15.0595 118.662 16.1509 116.286 16.1509H112.875V9.6255H116.333Z" fill="white" fill-opacity="0.5"/>
<path d="M137.985 8.23218H126.482V9.6255H131.469V23.7446H132.975V9.6255H137.985V8.23218Z" fill="white" fill-opacity="0.5"/>
<path d="M142.988 8.23218V23.7446H144.493V8.23218H142.988Z" fill="white" fill-opacity="0.5"/>
<path d="M156.167 23.9302C159.178 23.9302 161.483 22.1654 161.483 19.518C161.483 16.4063 158.825 15.7096 156.449 15.1987C154.379 14.7575 152.45 14.3395 152.45 12.296C152.45 10.6704 154.05 9.48612 155.908 9.48612C157.767 9.48612 159.155 10.3221 159.86 11.8315L161.107 11.1813C160.237 9.13779 158.214 8.06958 155.955 8.06958C153.226 8.06958 150.944 9.90412 150.944 12.3424C150.944 15.431 153.65 16.1276 156.026 16.6385C158.096 17.0565 159.978 17.4513 159.978 19.518C159.978 21.4223 158.331 22.5137 156.167 22.5137C154.144 22.5137 152.591 21.6545 151.909 20.1218L150.639 20.7488C151.509 22.7924 153.673 23.9302 156.167 23.9302Z" fill="white" fill-opacity="0.5"/>
<path d="M178.02 23.7446V22.3512H168.916V16.6851H177.385V15.2917H168.916V9.6255H177.808V8.23218H168.916C167.787 8.23218 167.41 8.78951 167.41 9.69517V22.2816C167.41 23.1872 167.787 23.7446 168.916 23.7446H178.02Z" fill="white" fill-opacity="0.5"/>
</g>
</svg>
