<svg width="166" height="38" viewBox="0 0 166 38" fill="none" xmlns="http://www.w3.org/2000/svg">
<g clip-path="url(#clip0_8806_1984)">
<path d="M68.0669 15.3599C68.5215 15.4329 68.9671 15.5535 69.3964 15.7198C70.8049 16.3077 71.5558 17.3983 71.624 18.8859C71.7512 21.6333 70.428 23.6515 68.2438 25.164C66.8399 26.1308 65.1735 26.6441 63.4689 26.6346C61.2087 26.6517 58.9469 26.6346 56.6852 26.6346C56.0802 26.6346 55.9437 26.464 56.0647 25.8776C57.4329 19.2474 58.8016 12.6172 60.1709 5.98703C60.3105 5.30602 60.4812 5.17261 61.1637 5.17261C62.6235 5.17261 64.0832 5.17261 65.5445 5.17261C66.8957 5.17261 68.2283 5.32773 69.4786 5.87844C70.8344 6.47568 71.8521 7.41265 71.9979 8.95773C72.2058 11.1621 71.4627 13.0159 69.6865 14.4058C69.1807 14.7785 68.638 15.0982 68.0669 15.3599ZM62.0836 24.1293V24.106C62.5614 24.106 63.0392 24.1262 63.5155 24.106C65.8098 23.9959 67.3146 22.6726 67.7287 20.4171C68.0638 18.5834 67.1734 17.3145 65.3444 17.0384C64.2027 16.8693 63.0501 16.998 61.9037 16.9577C61.7144 16.9577 61.7036 17.0632 61.6772 17.1935C61.55 17.8249 61.4181 18.4562 61.2863 19.0861C60.9636 20.6373 60.6471 22.1886 60.3136 23.7399C60.2454 24.0502 60.3043 24.1665 60.6518 24.1432C61.1265 24.106 61.6058 24.1293 62.0836 24.1293ZM63.3712 14.4477C63.8609 14.4772 64.3524 14.4491 64.8356 14.364C66.618 13.956 67.9784 12.369 68.1552 10.4858C68.2964 8.98876 67.6372 8.09832 66.1713 7.79738C65.5213 7.66396 64.862 7.70119 64.2073 7.65931C63.7575 7.62983 63.6054 7.76635 63.5201 8.21467C63.1463 10.1879 62.7321 12.1534 62.3101 14.1189C62.2434 14.4291 62.3365 14.4648 62.5971 14.4477C62.8577 14.4307 63.1121 14.4477 63.3712 14.4477Z" fill="white" fill-opacity="0.5"/>
<path d="M86.1254 13.0578C86.3286 12.5536 86.5163 12.127 86.6714 11.6973C86.7151 11.5274 86.8185 11.379 86.9626 11.279C87.1067 11.179 87.282 11.1342 87.4564 11.1528C88.1157 11.1668 88.775 11.1528 89.4343 11.1528C89.9229 11.1528 90.0657 11.3343 89.9726 11.8012C89.2486 15.3785 88.5247 18.9563 87.8008 22.5346C87.7272 22.8232 87.702 23.122 87.7263 23.4188C87.793 23.9152 87.959 24.0905 88.4554 24.1557C88.7657 24.196 88.896 24.3666 88.8432 24.6583C88.7548 25.1531 88.6524 25.6464 88.533 26.1351C88.5074 26.2843 88.4282 26.4191 88.3102 26.5139C88.1922 26.6088 88.0435 26.6572 87.8923 26.6501C87.2715 26.679 86.6498 26.6184 86.0463 26.4702C85.0922 26.2189 84.571 25.603 84.45 24.6086C84.436 24.4954 84.4314 24.3806 84.4205 24.2472C84.253 24.2875 84.194 24.4271 84.1103 24.5233C82.1867 26.6237 79.8039 27.3684 77.0271 26.8859C75.1563 26.5601 73.9928 25.392 73.574 23.5258C73.2156 21.9358 73.408 20.3659 73.7291 18.8006C74.1076 16.9391 74.7452 15.1846 75.9009 13.6364C77.8974 10.9387 81.1116 10.3663 83.5565 10.9791C84.6873 11.2723 85.5219 11.9579 86.1254 13.0578ZM76.9728 21.6596C76.9731 22.0096 77.0032 22.3588 77.0628 22.7037C77.2319 23.7337 77.7997 24.3046 78.8297 24.4768C80.8464 24.815 82.7762 23.9385 83.7798 22.1297C84.7752 20.3081 85.2608 18.2518 85.1853 16.1774C85.1496 14.7099 84.4531 13.7993 83.2183 13.4378C82.4937 13.2391 81.733 13.2099 80.9953 13.3525C79.6891 13.5728 78.9274 14.4477 78.3938 15.5615C77.4692 17.4882 77.1404 19.5561 76.9728 21.6596Z" fill="white" fill-opacity="0.5"/>
<path d="M116.042 5.30444C115.612 7.3935 115.182 9.47843 114.751 11.5592C114.323 13.6426 113.896 15.726 113.465 17.8233C113.667 17.8109 113.732 17.6682 113.826 17.5751C115.764 15.6562 117.705 13.7403 119.628 11.8074C119.824 11.5937 120.065 11.4258 120.333 11.3156C120.601 11.2054 120.89 11.1556 121.18 11.1698C121.888 11.1962 122.6 11.1698 123.311 11.1838C123.466 11.1838 123.662 11.1419 123.73 11.297C123.798 11.4522 123.609 11.5608 123.502 11.6601C121.123 13.8991 118.737 16.1339 116.344 18.3647C116.093 18.5989 116.093 18.7448 116.271 19.0209C117.754 21.3183 119.219 23.6282 120.694 25.9334C120.764 26.042 120.834 26.1521 120.894 26.2638C121.021 26.4965 120.951 26.6594 120.688 26.6609C119.563 26.6609 118.438 26.6718 117.315 26.647C116.979 26.647 116.785 26.3724 116.62 26.0916C115.504 24.1742 114.384 22.261 113.26 20.3519C113.192 20.2355 113.159 20.0866 112.987 20.006C112.668 21.5572 112.353 23.0884 112.035 24.6226C111.935 25.1035 111.841 25.5844 111.732 26.0622C111.624 26.5399 111.442 26.6687 110.978 26.6718C110.255 26.6718 109.531 26.6718 108.806 26.6718C108.161 26.6718 108.04 26.5291 108.169 25.9101C108.566 23.9912 108.969 22.0723 109.366 20.1518C110.237 15.9623 111.101 11.779 111.959 7.60189C111.972 7.49552 112.013 7.39445 112.077 7.30854C112.141 7.22263 112.227 7.15481 112.325 7.11169C113.434 6.56254 114.534 5.99476 115.638 5.43785C115.756 5.35293 115.897 5.30634 116.042 5.30444Z" fill="white" fill-opacity="0.5"/>
<path d="M96.9319 13.6568C97.4698 12.9366 98.0904 12.2821 98.781 11.7068C100.411 10.3727 103.716 10.5806 105.248 11.9814C106.489 13.1185 106.826 14.5751 106.558 16.1543C106.209 18.2005 105.745 20.2264 105.34 22.2633C105.251 22.7054 105.168 23.1537 105.29 23.6067C105.375 23.9247 105.512 24.1807 105.911 24.1776C106.246 24.1776 106.376 24.3823 106.32 24.691C106.232 25.1843 106.133 25.6792 106.018 26.1679C105.991 26.3111 105.914 26.44 105.8 26.5307C105.686 26.6214 105.543 26.6677 105.397 26.6612C104.777 26.6951 104.155 26.6318 103.554 26.4735C102.158 26.081 101.469 25.0773 101.538 23.526C101.583 22.4727 101.891 21.4675 102.076 20.4405C102.327 19.0444 102.748 17.6792 102.825 16.2521C102.843 15.969 102.843 15.685 102.825 15.402C102.717 13.8352 101.739 13.0874 100.202 13.3481C99.7218 13.4257 99.2634 13.604 98.857 13.8714C98.4506 14.1388 98.1054 14.4891 97.844 14.8993C97.1521 15.9139 96.859 17.0711 96.6139 18.2532C96.0792 20.8283 95.5398 23.4035 94.9959 25.9786C94.8811 26.5215 94.6965 26.6627 94.1411 26.6643C93.3918 26.6643 92.641 26.6643 91.8917 26.6643C91.4155 26.6643 91.2712 26.4688 91.3612 26.0003C92.0851 22.4624 92.8122 18.9244 93.5423 15.3864C93.623 14.9955 93.7192 14.6108 93.6013 14.2013C93.5082 13.891 93.3406 13.6893 92.9807 13.6599C92.5479 13.6242 92.4549 13.4737 92.5417 13.0393C92.6286 12.605 92.7155 12.1784 92.8055 11.7502C92.8251 11.5871 92.9047 11.4372 93.0289 11.3296C93.1531 11.2221 93.3129 11.1646 93.4772 11.1685C94.1107 11.128 94.7466 11.1898 95.3604 11.3516C96.3827 11.6479 96.8093 12.1706 96.9117 13.2286C96.9117 13.3403 96.9117 13.452 96.9319 13.6568Z" fill="white" fill-opacity="0.5"/>
<path d="M6.33064 14.4075H8.67308C9.83654 14.4075 11 14.4075 12.1635 14.4075C12.7235 14.4075 12.8584 14.5719 12.7483 15.1211C12.6614 15.5508 12.5683 15.9789 12.4722 16.4071C12.3496 16.9469 12.1619 17.0959 11.574 17.0959C9.79 17.0959 8.00603 17.0958 6.2236 17.0834C5.88387 17.0834 5.74271 17.1486 5.6698 17.5163C5.12995 20.2496 4.55597 22.9752 3.99596 25.7055C3.84083 26.4811 3.71673 26.5866 2.91006 26.5866C2.17321 26.5866 1.43635 26.5866 0.701039 26.5866C0.167397 26.5866 0.0293327 26.4144 0.137922 25.8901C0.789461 22.7317 1.44255 19.5743 2.09719 16.4179C2.81078 12.9689 3.5223 9.52042 4.23176 6.07244C4.4055 5.22854 4.52185 5.12615 5.39367 5.1277L15.477 5.14633C16.1968 5.14633 16.3054 5.27818 16.158 5.9654C16.0711 6.36873 15.9889 6.77362 15.8927 7.1754C15.7733 7.67646 15.5965 7.81608 15.0814 7.81608C12.7545 7.81608 10.4276 7.81608 8.10066 7.81608C7.7904 7.81608 7.66009 7.87348 7.59494 8.2039C7.1916 10.2593 6.76035 12.3163 6.33064 14.4075Z" fill="white" fill-opacity="0.5"/>
<path d="M36.8455 26.9761C35.6177 26.9647 34.3997 26.7551 33.2387 26.3556C32.8295 26.2283 32.4571 26.0043 32.1528 25.7025C31.8426 25.3782 31.8426 25.082 32.114 24.7345C32.2909 24.5126 32.4879 24.3079 32.6772 24.0938C33.1425 23.5617 33.2201 23.5431 33.9182 23.7835C34.8862 24.1093 35.8604 24.404 36.8889 24.4552C37.7995 24.5033 38.6946 24.4676 39.554 24.1171C39.8923 23.9844 40.1923 23.7695 40.4268 23.4919C40.6613 23.2143 40.8231 22.8827 40.8974 22.527C41.0417 21.967 40.8788 21.5807 40.387 21.2705C39.8636 20.9632 39.3039 20.7225 38.721 20.5538C38.0601 20.3397 37.4008 20.1085 36.7291 19.9332C34.3246 19.2926 33.746 17.4791 34.216 15.4144C34.776 12.9556 36.7214 11.2259 39.3073 10.8567C41.1487 10.5976 42.9668 10.7016 44.7011 11.4664C45.0496 11.6041 45.3714 11.8014 45.6521 12.0496C45.9406 12.3258 45.9623 12.5554 45.7141 12.861C45.4039 13.2302 45.0812 13.5776 44.7725 13.9469C44.6174 14.1284 44.4483 14.1159 44.2497 14.0585C43.4943 13.8429 42.7729 13.5125 41.9957 13.3713C41.1099 13.2162 40.2226 13.1619 39.3477 13.4132C38.9704 13.5128 38.6251 13.7079 38.345 13.9796C38.0649 14.2512 37.8594 14.5904 37.7483 14.9645C37.4691 15.7944 37.7747 16.387 38.6093 16.6492C39.6424 16.9734 40.6802 17.2806 41.7118 17.5955C42.2333 17.7403 42.735 17.9487 43.2057 18.216C44.0775 18.7357 44.5088 19.516 44.56 20.5134C44.698 23.1909 43.2569 25.3147 40.6011 26.3571C39.4609 26.8039 38.2726 26.9807 36.8455 26.9761Z" fill="white" fill-opacity="0.5"/>
<path d="M49.8112 13.4781C49.3381 13.4781 48.8603 13.4781 48.384 13.4781C47.8318 13.4781 47.7092 13.3339 47.8147 12.8049C47.8907 12.4248 47.9698 12.0463 48.0613 11.6709C48.0871 11.5155 48.1696 11.3751 48.2927 11.2768C48.4159 11.1786 48.5711 11.1294 48.7284 11.1388C49.155 11.1388 49.5832 11.114 50.0082 11.1388C50.2936 11.159 50.3805 11.0504 50.4255 10.7867C50.5434 10.0886 50.6954 9.39051 50.8288 8.69709C50.8537 8.56988 50.8645 8.45353 51.0057 8.38683C52.2824 7.7446 53.5575 7.09616 54.8699 6.43066C54.9041 6.84796 54.7691 7.197 54.7024 7.55069C54.4992 8.63659 54.2773 9.70232 54.0477 10.7758C53.9872 11.0566 54.0291 11.1636 54.3503 11.1466C54.8777 11.1202 55.4098 11.1342 55.9388 11.1466C56.3669 11.1543 56.5003 11.3094 56.4243 11.7329C56.3483 12.1564 56.2568 12.5412 56.159 12.9414C56.0613 13.3416 55.8131 13.4952 55.4237 13.4921C54.8684 13.4921 54.3115 13.4921 53.7561 13.4921C53.5575 13.4921 53.4567 13.5371 53.4133 13.7481C52.8372 16.6334 52.256 19.5168 51.6696 22.398C51.5984 22.7285 51.615 23.0719 51.7177 23.3939C51.7961 23.6149 51.9426 23.8053 52.136 23.9377C52.3295 24.0701 52.56 24.1377 52.7943 24.1308C53.8197 24.1572 53.829 24.1665 53.6336 25.1764C53.5731 25.4866 53.5048 25.8077 53.4319 26.1211C53.4105 26.2644 53.3379 26.3951 53.2275 26.4889C53.1171 26.5828 52.9764 26.6334 52.8315 26.6315C52.0063 26.6516 51.1732 26.7059 50.3495 26.5601C48.7362 26.2716 47.9372 25.3191 47.9093 23.6623C47.8907 22.5764 48.187 21.5417 48.3995 20.493C48.8649 18.1925 49.3443 15.8935 49.8158 13.5929C49.8194 13.5546 49.8179 13.516 49.8112 13.4781Z" fill="white" fill-opacity="0.5"/>
<path d="M28.393 12.8703C28.5432 12.6777 28.7032 12.4929 28.8723 12.3165C30.0311 11.2182 31.4474 10.8506 33.0018 10.88C33.3121 10.88 33.447 10.9793 33.3633 11.3284C33.1957 12.0171 33.067 12.7152 32.918 13.4086C32.7862 14.0291 32.583 14.1315 31.964 14.0555C30.377 13.8616 28.6412 14.4077 28.1246 16.6927C27.4358 19.7487 26.7765 22.8125 26.1079 25.8732C25.9528 26.6038 25.8163 26.7155 25.0593 26.714C24.3751 26.714 23.6895 26.714 23.0054 26.714C22.4702 26.714 22.3383 26.5418 22.4515 26.0144C23.2137 22.4712 23.977 18.9291 24.7412 15.3881C24.8232 15.0757 24.8639 14.7539 24.8622 14.4309C24.8374 13.9159 24.6513 13.7018 24.1347 13.6181C23.8244 13.5684 23.6786 13.3947 23.7391 13.0782C23.8275 12.6128 23.916 12.1474 24.0214 11.6821C24.0431 11.5254 24.1217 11.3823 24.2421 11.2799C24.3625 11.1774 24.5165 11.1229 24.6745 11.1267C25.475 11.1143 26.277 11.1267 27.0542 11.364C27.7771 11.5843 28.2208 12.0497 28.2828 12.8347L28.393 12.8703Z" fill="white" fill-opacity="0.5"/>
<path d="M14.8224 24.0036C14.8549 22.8976 15.1745 21.8411 15.4041 20.7708C16.0355 17.8233 16.6839 14.8759 17.3277 11.9284C17.4456 11.3871 17.6379 11.2397 18.1809 11.2366C18.9048 11.2366 19.6287 11.2366 20.3527 11.2366C20.8972 11.2366 21.029 11.3917 20.9158 11.9176C20.1536 15.4483 19.3888 18.978 18.6214 22.5066C18.5164 22.9341 18.4782 23.3752 18.5082 23.8144C18.5547 24.3092 18.73 24.4969 19.2078 24.5683C19.4933 24.6117 19.6251 24.7808 19.577 25.0523C19.4871 25.5611 19.3847 26.0668 19.2668 26.5679C19.2374 26.7019 19.1624 26.8215 19.0546 26.9064C18.9468 26.9913 18.8129 27.0361 18.6757 27.0333C17.9001 27.0581 17.1245 26.9961 16.3954 26.6874C15.3141 26.2375 14.7944 25.3284 14.8224 24.0036Z" fill="white" fill-opacity="0.5"/>
<path d="M20.4911 5.33568C20.9037 5.33568 21.3163 5.32637 21.7321 5.33568C22.1075 5.34654 22.2549 5.51873 22.1835 5.87863C22.0222 6.68736 21.8515 7.493 21.6716 8.29553C21.577 8.70972 21.3613 8.87881 20.927 8.88191C20.1513 8.88191 19.3757 8.88191 18.6 8.88191C18.116 8.87415 17.9795 8.68956 18.0835 8.21797C18.2386 7.46249 18.4061 6.70701 18.5752 5.95464C18.6761 5.50477 18.8762 5.34499 19.3276 5.33413C19.7139 5.33413 20.1032 5.33413 20.488 5.33413L20.4911 5.33568Z" fill="white" fill-opacity="0.5"/>
<path d="M108.441 33.0377C109.75 33.7807 109.865 35.2715 108.751 36.3465C107.938 37.1377 106.164 37.3921 105.155 36.8647C104.92 36.7515 104.722 36.5736 104.585 36.3518C104.447 36.13 104.376 35.8736 104.38 35.6128C104.349 35.1651 104.445 34.7178 104.656 34.322C104.868 33.9261 105.186 33.5978 105.576 33.3743C105.77 33.2533 105.982 33.1618 106.184 33.064C106.184 33.0345 106.184 32.9989 106.171 32.9927C105.068 32.4218 105.313 31.3747 105.891 30.554C106.182 30.1693 106.6 29.8996 107.071 29.7924C107.598 29.6534 108.149 29.6322 108.684 29.7303C109.199 29.8156 109.671 30.0297 109.831 30.582C109.928 30.8762 109.949 31.1905 109.89 31.4949C109.832 31.7993 109.697 32.0837 109.497 32.321C109.223 32.6436 108.86 32.8375 108.441 33.0377ZM105.701 35.225C105.69 35.4461 105.761 35.6636 105.9 35.8355C106.04 36.0074 106.238 36.1215 106.457 36.1557C107.482 36.376 108.473 35.3273 108.217 34.2942C108.176 34.09 108.066 33.9062 107.905 33.7742C107.743 33.6422 107.542 33.5699 107.333 33.5697C106.46 33.5325 105.698 34.3019 105.701 35.225ZM107.847 30.6208C107.698 30.6197 107.551 30.6479 107.414 30.7038C107.277 30.7596 107.152 30.842 107.046 30.9461C106.941 31.0503 106.857 31.1742 106.8 31.3109C106.742 31.4475 106.712 31.5941 106.711 31.7423C106.705 31.8453 106.719 31.9486 106.753 32.046C106.787 32.1434 106.841 32.233 106.91 32.3096C106.979 32.3861 107.063 32.4481 107.156 32.4919C107.25 32.5357 107.351 32.5604 107.454 32.5645C108.02 32.5738 108.618 31.944 108.63 31.3374C108.638 30.9124 108.321 30.6239 107.847 30.6208Z" fill="white" fill-opacity="0.5"/>
<path d="M115.615 31.1264C115.583 30.7811 115.438 30.4558 115.203 30.201C114.968 29.9461 114.655 29.7758 114.313 29.7163C113.828 29.6294 113.328 29.6684 112.861 29.8295C111.524 30.312 111.039 31.401 110.913 32.687C110.781 34.0707 111.585 34.7843 112.971 34.623C113.496 34.5609 113.857 34.2677 114.23 33.9249C114.193 34.3765 114.05 34.8129 113.812 35.1985C113.41 35.9245 112.81 36.2937 111.96 36.151C111.678 36.1187 111.4 36.0595 111.13 35.9742C110.665 35.7989 110.654 36.21 110.522 36.4225C110.358 36.6878 110.645 36.7451 110.797 36.8196C112.079 37.4572 113.488 37.1826 114.364 36.0191C115.463 34.5811 115.848 32.9135 115.615 31.1264ZM114.504 31.8136C114.447 32.2501 114.307 32.6716 114.09 33.0546C113.845 33.4564 113.508 33.6984 113.013 33.6752C112.393 33.6596 112.121 33.382 112.135 32.6715C112.164 32.2501 112.273 31.8383 112.458 31.4584C112.574 31.1972 112.766 30.9776 113.01 30.8285C113.372 30.6191 113.77 30.5059 114.144 30.7448C114.518 30.9837 114.574 31.3948 114.504 31.8136Z" fill="white" fill-opacity="0.5"/>
<path d="M119.114 35.2932H116.369C115.988 35.2932 115.916 35.1738 116.089 34.8278C116.158 34.7048 116.243 34.5912 116.341 34.4896C117.596 33.05 118.871 31.6275 120.101 30.1678C120.462 29.7381 120.877 29.783 121.325 29.8063C121.578 29.8187 121.48 30.0281 121.451 30.1647C121.231 31.2381 121.01 32.3106 120.787 33.382C120.749 33.6242 120.697 33.864 120.631 34.1003C120.543 34.3733 120.664 34.3888 120.887 34.4012C121.063 34.4105 121.375 34.2461 121.367 34.6339C121.356 35.1613 121.241 35.3289 120.847 35.287C120.453 35.2451 120.315 35.4018 120.29 35.7524C120.272 35.8799 120.247 36.0063 120.214 36.1309C120.02 37.0803 120.02 37.0725 119.051 37.0198C118.81 37.0058 118.767 36.9096 118.81 36.7095C118.911 36.255 119.006 35.8005 119.114 35.2932ZM119.84 31.7501L117.63 34.3872C118.191 34.3872 118.649 34.3872 119.107 34.3872C119.135 34.3912 119.164 34.3891 119.192 34.3812C119.219 34.3733 119.245 34.3597 119.267 34.3413C119.29 34.323 119.308 34.3002 119.321 34.2744C119.333 34.2487 119.341 34.2206 119.342 34.1918C119.497 33.4162 119.657 32.6374 119.839 31.7485L119.84 31.7501Z" fill="white" fill-opacity="0.5"/>
<path d="M74.8644 37.1051C74.2722 37.1043 73.6858 36.9884 73.1378 36.7639C73.0013 36.7049 72.7329 36.6692 72.8555 36.4536C72.978 36.238 72.9997 35.8191 73.4372 35.9231C74.0362 36.082 74.6542 36.1582 75.2739 36.1496C75.5997 36.1419 75.9188 36.0562 76.2047 35.8998C76.926 35.4965 76.9524 34.727 76.2388 34.3066C75.8877 34.1202 75.525 33.9565 75.1529 33.8164C73.6218 33.1571 73.3379 31.6632 74.5526 30.506C75.5299 29.5752 76.7073 29.4961 77.953 29.8157C78.0647 29.8451 78.1733 29.8855 78.2834 29.9227C78.8744 30.1259 78.8853 30.1694 78.5626 30.6797C78.5459 30.7171 78.5219 30.7509 78.492 30.7789C78.4621 30.807 78.427 30.8289 78.3886 30.8433C78.3503 30.8577 78.3094 30.8644 78.2685 30.863C78.2275 30.8615 78.1872 30.852 78.15 30.8349C77.5444 30.6462 76.908 30.5766 76.276 30.6301C76.0617 30.6434 75.8536 30.7075 75.6688 30.817C75.4841 30.9265 75.328 31.0783 75.2134 31.2599C74.9031 31.7641 75.0179 32.2217 75.5469 32.4808C75.9053 32.6561 76.2838 32.791 76.6499 32.9461C78.2291 33.6163 78.4525 35.3786 77.0967 36.4365C76.532 36.8709 75.7858 37.1005 74.8644 37.1051Z" fill="white" fill-opacity="0.5"/>
<path d="M84.0187 32.5757C84.3802 32.1863 84.6827 31.8186 85.1868 31.7069C86.5535 31.406 87.4967 32.3182 87.2175 33.6864C87.0871 34.3302 86.9491 34.9724 86.825 35.6177C86.7815 35.8473 86.7552 36.0536 87.0639 36.1808C87.3059 36.2801 87.0964 36.5206 87.0887 36.6974C87.0917 36.736 87.0867 36.7748 87.0739 36.8113C87.0611 36.8479 87.0409 36.8813 87.0145 36.9096C86.9881 36.9379 86.9561 36.9604 86.9205 36.9757C86.885 36.991 86.8466 36.9987 86.8079 36.9984C85.9609 37.0945 85.4304 36.55 85.5793 35.7061C85.691 35.0717 85.8275 34.4419 85.9516 33.8089C85.9743 33.7069 85.9883 33.6031 85.9935 33.4987C86.0043 33.131 85.9935 32.7587 85.6041 32.5679C85.269 32.4019 84.7432 32.5431 84.4422 32.8782C84.1413 33.2132 84.0032 33.6538 83.9101 34.1037C83.7302 34.9615 83.544 35.8178 83.3749 36.6788C83.3732 36.7265 83.3615 36.7732 83.3406 36.816C83.3196 36.8589 83.2899 36.8968 83.2533 36.9274C83.2167 36.958 83.1741 36.9805 83.1283 36.9935C83.0824 37.0066 83.0343 37.0098 82.9871 37.003C82.0796 37.0247 82.0812 37.0325 82.2642 36.1436C82.4659 35.158 82.666 34.173 82.8646 33.1884C82.9126 32.948 82.9809 32.6936 82.6257 32.6036C82.4705 32.5632 82.5047 32.4159 82.545 32.3135C82.6163 32.1351 82.5279 31.876 82.8009 31.7985C82.9323 31.7569 83.0712 31.7447 83.2077 31.7627C83.3443 31.7807 83.4753 31.8284 83.5914 31.9025C83.7075 31.9767 83.806 32.0753 83.8798 32.1916C83.9537 32.308 84.0011 32.439 84.0187 32.5757Z" fill="white" fill-opacity="0.5"/>
<path d="M95.6451 34.8185C95.31 34.8185 94.9718 34.8356 94.6383 34.8185C94.3901 34.803 94.328 34.9085 94.328 35.1288C94.2954 35.9448 94.736 36.3776 95.5442 36.2783C95.8766 36.2365 96.204 36.1617 96.5215 36.0549C96.7682 35.9727 96.8597 36.0549 96.9575 36.2643C97.0552 36.4738 97.0117 36.6351 96.8023 36.7406C96.1648 37.0643 95.4466 37.1948 94.736 37.116C93.5338 36.9981 92.9893 36.3016 93.1025 35.0916C93.1512 34.4341 93.3244 33.7918 93.6129 33.199C94.207 32.0154 95.3193 31.4693 96.5944 31.7253C97.336 31.8804 97.7734 32.366 97.8107 33.1214C97.8231 33.3536 97.8075 33.5864 97.7641 33.8149C97.609 34.5626 97.2987 34.8154 96.5371 34.831C96.2408 34.831 95.9429 34.831 95.6466 34.831L95.6451 34.8185ZM94.5328 33.97H96.188C96.2514 33.9775 96.3157 33.9669 96.3733 33.9395C96.431 33.912 96.4797 33.8688 96.5138 33.8149C96.6813 33.5279 96.6022 32.926 96.3587 32.6902C96.1151 32.4544 95.7521 32.4358 95.3922 32.6405C94.888 32.9244 94.7034 33.4317 94.5328 33.97Z" fill="white" fill-opacity="0.5"/>
<path d="M102.3 31.2861C101.882 31.4599 101.506 31.6166 101.128 31.7671C101.035 31.8043 100.9 31.8694 100.842 31.8322C100.731 31.7608 100.819 31.6197 100.825 31.508C100.848 31.1046 101.055 30.8704 101.446 30.723C102.156 30.45 102.842 30.1258 103.545 29.8264C103.647 29.7814 103.76 29.6713 103.855 29.7364C103.949 29.8016 103.869 29.952 103.855 30.0575C103.41 32.2448 102.957 34.4306 102.516 36.6179C102.457 36.9111 102.327 37.0166 102.021 37.0119C101.139 36.9995 101.145 37.0119 101.326 36.151C101.649 34.6245 101.962 33.0949 102.279 31.5669C102.29 31.494 102.288 31.4149 102.3 31.2861Z" fill="white" fill-opacity="0.5"/>
<path d="M88.2305 35.2497C88.2464 34.537 88.4169 33.8362 88.73 33.1958C89.3769 31.8462 91.1019 31.2396 92.4189 31.9036C92.5865 31.9889 92.8983 32.0323 92.7882 32.341C92.6625 32.6854 92.3569 32.8328 92.0559 32.69C90.8692 32.1316 90.03 32.8343 89.712 33.824C89.541 34.312 89.4631 34.8276 89.4824 35.3443C89.5227 35.9865 89.9214 36.3278 90.5683 36.2751C90.8752 36.2345 91.1762 36.1575 91.4649 36.0455C91.62 35.9943 91.7597 35.9446 91.8388 36.1603C91.9039 36.3387 92.0296 36.4938 91.817 36.6753C91.164 37.2322 89.4793 37.2756 88.8076 36.7389C88.3174 36.3573 88.2181 35.8236 88.2305 35.2497Z" fill="white" fill-opacity="0.5"/>
<path d="M79.0312 35.8316C79.1741 35.1195 79.3416 34.2803 79.5169 33.4286C79.6069 32.9865 79.7124 32.5475 79.7899 32.1038C79.7912 32.0561 79.8025 32.0092 79.8232 31.9662C79.8439 31.9232 79.8735 31.885 79.91 31.8543C79.9464 31.8235 79.989 31.8008 80.0349 31.7877C80.0808 31.7745 80.129 31.7713 80.1762 31.7781C81.093 31.7501 81.0884 31.7424 80.9053 32.6266C80.7021 33.6117 80.5003 34.5952 80.3064 35.5818C80.2599 35.8207 80.215 36.0472 80.5485 36.1759C80.7843 36.2659 80.5842 36.4862 80.5764 36.6584C80.5687 36.8306 80.5221 36.9562 80.3251 36.995C79.6286 37.1315 79.0312 36.6615 79.0312 35.8316Z" fill="white" fill-opacity="0.5"/>
<path d="M80.9129 29.5645C81.068 29.5645 81.1875 29.5645 81.3023 29.5645C81.4171 29.5645 81.521 29.6142 81.4977 29.7445C81.445 30.0346 81.3798 30.3216 81.3085 30.607C81.2805 30.7156 81.1813 30.7528 81.0727 30.773C80.1574 30.9374 80.0519 30.8087 80.2381 29.9105C80.3327 29.4234 80.6833 29.6064 80.9129 29.5645Z" fill="white" fill-opacity="0.5"/>
<path d="M138.295 0.896973H164.96C164.759 1.85146 164.561 2.80685 164.354 3.76043C163.565 7.40938 162.774 11.0571 161.979 14.7037C161.659 16.1859 161.338 17.6691 161.014 19.1495C160.972 19.3299 160.991 19.394 161.197 19.3967C161.93 19.4075 162.663 19.3967 163.396 19.3687C163.755 19.3477 164.114 19.3708 164.467 19.4373C165.109 19.5708 165.287 20.0264 164.903 20.556C164.689 20.8315 164.41 21.0519 164.09 21.1983C163.367 21.5655 162.584 21.7225 161.788 21.8244C161.396 21.8837 160.999 21.9139 160.602 21.9146C160.448 21.9146 160.409 21.985 160.383 22.1068C160.139 23.2495 159.892 24.3947 159.644 25.5422L157.381 36.0452C157.336 36.2581 157.29 36.4701 157.247 36.6848C157.225 36.8057 157.181 36.8788 157.04 36.8535C157.002 36.8499 156.964 36.8499 156.926 36.8535H130.836C130.52 36.8535 130.521 36.8535 130.589 36.536C131.895 30.4807 133.201 24.4254 134.505 18.37C134.797 17.0192 135.089 15.669 135.382 14.3193C135.408 14.2412 135.403 14.1566 135.368 14.0821C134.978 13.3234 134.855 12.4997 134.773 11.6679C134.565 9.55322 135.064 7.53328 135.65 5.52867C135.819 4.95129 136.457 4.59584 137.153 4.67342C137.408 4.70139 137.482 4.63283 137.529 4.39465C137.761 3.25432 138.015 2.1185 138.262 0.980873C138.271 0.951985 138.282 0.923904 138.295 0.896973ZM147.367 19.5717C147.435 19.5645 147.504 19.5645 147.572 19.5717C148.41 19.7594 148.838 19.2722 149.178 18.6362C149.216 18.5631 149.255 18.4891 149.288 18.4143C149.524 17.8865 149.523 17.8856 149.09 17.5121C149.061 17.4857 149.03 17.4615 148.998 17.4399C148.808 17.3262 148.809 17.2045 148.926 17.0186C149.286 16.4412 149.813 15.9825 150.439 15.7009C151.065 15.4193 151.762 15.3274 152.441 15.4371C152.674 15.4681 152.893 15.5618 153.075 15.7078C153.67 16.1778 154.286 16.6208 154.915 17.0484C155.493 17.4526 156.096 17.8205 156.722 18.1499C156.953 18.269 156.966 18.2636 156.945 18.0182C156.905 17.5545 156.858 17.0911 156.805 16.628C156.687 15.5869 156.367 14.6279 155.691 13.7916C155.206 13.1925 154.745 12.5746 154.25 11.9827C154.202 11.9318 154.166 11.8707 154.146 11.8041C154.125 11.7375 154.121 11.6671 154.132 11.5984C154.242 10.745 154.244 10.7396 153.703 10.0647C152.512 8.57798 151.097 7.30413 149.651 6.06456C149.566 6.00101 149.467 5.95833 149.362 5.94006C148.362 5.69791 147.339 5.55973 146.31 5.52777C145.713 5.50071 145.159 5.56566 144.669 5.92653C144.269 6.22153 143.845 6.27025 143.342 6.18815C141.718 5.92202 140.086 5.70369 138.456 5.47635C137.981 5.41049 137.511 5.29591 137.026 5.31937C136.609 5.33832 136.377 5.48086 136.272 5.81917C135.753 7.48997 135.356 9.18514 135.414 10.9489C135.444 12.5765 135.991 14.154 136.979 15.4597C138.078 16.9194 139.566 17.8558 141.268 18.49C143.23 19.219 145.28 19.4797 147.362 19.5681L147.367 19.5717ZM147.184 30.644C147.087 30.7062 147.024 30.7477 146.96 30.7874C146.166 31.2782 145.372 31.7708 144.573 32.2543C144.412 32.3518 144.404 32.4023 144.555 32.525C145.838 33.567 147.115 34.6171 148.395 35.6636C148.427 35.6907 148.456 35.7367 148.524 35.7051C148.538 35.4723 148.565 35.2333 148.562 34.9942C148.561 34.7243 148.619 34.4574 148.731 34.2111C149.088 33.3739 149.429 32.5304 149.779 31.6905C149.823 31.5875 149.844 31.4758 149.838 31.3639C149.807 30.6205 149.778 29.8771 149.755 29.1337C149.751 28.9993 149.709 28.8684 149.635 28.7557C148.825 27.4656 148.02 26.1728 147.207 24.8837C147.171 24.8324 147.148 24.7736 147.139 24.7119C147.13 24.6502 147.136 24.5873 147.156 24.5282C147.292 24.0672 147.415 23.6026 147.549 23.1407C147.6 22.96 147.616 22.7714 147.595 22.585C147.547 22.0761 147.503 21.5673 147.468 21.0576C147.458 20.888 147.409 20.832 147.227 20.8311C146.013 20.832 144.803 20.7138 143.613 20.4784C140.515 19.8469 138.018 18.3204 136.236 15.7159C136.201 15.6645 136.183 15.5905 136.088 15.5697C136.078 15.6121 136.067 15.6536 136.058 15.6951C135.267 19.3868 134.477 23.079 133.687 26.7719C133.588 27.2329 133.588 27.2383 134.059 27.287C134.363 27.3186 134.653 27.4142 134.976 27.2987C136.538 26.7457 138.11 26.2207 139.677 25.6749C139.755 25.6397 139.841 25.6266 139.926 25.6371C140.011 25.6476 140.091 25.6813 140.157 25.7344C142.237 27.1959 144.322 28.652 146.41 30.1027L147.184 30.644ZM139.859 26.5328C139.859 27.6371 139.859 28.726 139.859 29.8158C139.861 30.0017 139.823 30.186 139.75 30.3571C139.145 31.7744 138.547 33.1953 137.941 34.6126C137.906 34.6782 137.89 34.7515 137.893 34.8254C137.895 34.8992 137.918 34.971 137.957 35.0339C138.086 35.2558 138.199 35.485 138.305 35.7186C138.324 35.7777 138.363 35.8284 138.416 35.8623C138.469 35.8961 138.532 35.911 138.595 35.9045C140.054 35.8964 141.512 35.9045 142.969 35.8982C143.033 35.8982 143.105 35.927 143.173 35.8539C143.039 35.5833 142.91 35.3027 142.765 35.0321C142.691 34.9019 142.669 34.7491 142.703 34.6036C143.06 32.884 143.408 31.1618 143.771 29.4432C143.808 29.2727 143.771 29.1879 143.634 29.0931C142.438 28.2734 141.244 27.4506 140.052 26.6248C139.999 26.5697 139.928 26.5357 139.851 26.5292L139.859 26.5328ZM160.031 21.3418C160.199 21.3418 160.367 21.3472 160.534 21.3418C161.536 21.3021 162.525 21.1803 163.478 20.8555C163.771 20.7693 164.041 20.6205 164.269 20.4198C164.377 20.3178 164.475 20.1978 164.412 20.0436C164.356 19.9064 164.205 19.8965 164.079 19.8956C163.774 19.8956 163.467 19.8875 163.162 19.9146C161.875 20.0356 160.577 19.9407 159.322 19.634C157.09 19.0882 155.101 18.0516 153.261 16.72C153.022 16.5364 152.737 16.4206 152.436 16.3853C151.577 16.2951 150.831 16.4908 150.276 17.1909C150.174 17.3199 150.171 17.402 150.306 17.5193C151.014 18.1373 151.777 18.6914 152.586 19.1748C154.868 20.5443 157.328 21.34 160.024 21.3382L160.031 21.3418ZM153.201 20.3656C153.225 20.5226 153.247 20.6363 153.259 20.7581C153.296 21.146 153.426 21.5231 153.386 21.9183C153.265 23.1299 153.003 24.3207 152.842 25.5269C152.717 26.4661 152.59 27.4061 152.641 28.3552C152.682 29.122 152.935 29.8131 153.596 30.2687C154.219 30.6981 154.904 30.8289 155.623 30.4635C155.679 30.4403 155.726 30.4001 155.757 30.3489C155.788 30.2977 155.802 30.238 155.797 30.1784C155.794 29.9232 155.769 29.6688 155.721 29.4179C155.689 29.2591 155.637 29.2176 155.463 29.2483C154.816 29.3629 154.371 28.9046 154.498 28.2722C154.609 27.7164 154.833 27.1986 155.047 26.6781C155.569 25.4286 156.188 24.2215 156.73 22.9792C156.868 22.6293 156.953 22.2611 156.982 21.8867C156.996 21.764 156.982 21.7008 156.826 21.681C156.57 21.6441 156.316 21.5923 156.065 21.5258C155.062 21.2667 154.099 20.8765 153.201 20.3656Z" fill="white" fill-opacity="0.5"/>
</g>
<defs>
<clipPath id="clip0_8806_1984">
<rect width="166" height="38" fill="white"/>
</clipPath>
</defs>
</svg>
