<svg width="309" height="309" viewBox="0 0 309 309" fill="none" xmlns="http://www.w3.org/2000/svg">
<mask id="path-1-inside-1_8503_3299" fill="white">
<path fill-rule="evenodd" clip-rule="evenodd" d="M309 154.5C309 239.828 239.828 309 154.5 309C69.172 309 0 239.828 0 154.5C0 69.172 69.172 0 154.5 0C239.828 0 309 69.172 309 154.5ZM228.816 153.705C228.816 148.769 228.816 143.832 228.817 138.895C228.818 129.022 228.819 119.148 228.816 109.274C228.81 93.3593 215.096 79.6222 199.164 79.617C169.512 79.6012 139.855 79.5959 110.203 79.617C95.3351 79.6275 81.7943 92.2649 80.7304 107.049C79.598 122.796 87.456 134.455 102.656 139.547C107.916 141.309 113.323 142.485 118.729 143.661C121.929 144.358 125.129 145.054 128.3 145.871C137 148.118 145.248 151.085 151.716 157.862C157.046 163.449 159.816 170.205 161.854 177.391C163.012 181.468 163.915 185.607 164.817 189.747C165.827 194.378 166.837 199.01 168.206 203.555C170.66 211.705 174.468 218.902 182.184 223.353C192.396 229.246 202.877 229.662 213.131 223.927C223.354 218.208 228.794 209.264 228.816 197.347C228.826 187.649 228.823 177.951 228.819 168.253C228.817 163.404 228.816 158.554 228.816 153.705ZM80.4634 197.205C80.279 180.295 94.1622 166.374 111.242 166.337C128.317 166.3 142.148 180.074 142.137 197.11C142.126 213.967 128.301 227.846 111.474 227.888C94.4044 227.93 80.6477 214.325 80.4634 197.205Z"/>
</mask>
<path d="M228.817 138.895L227.817 138.895L227.817 138.895L228.817 138.895ZM228.816 109.274L227.816 109.275L227.816 109.275L228.816 109.274ZM199.164 79.617L199.163 80.617L199.163 80.617L199.164 79.617ZM110.203 79.617L110.204 80.617L110.204 80.617L110.203 79.617ZM80.7304 107.049L79.733 106.977L79.733 106.977L80.7304 107.049ZM102.656 139.547L102.338 140.496L102.338 140.496L102.656 139.547ZM118.729 143.661L118.942 142.684L118.942 142.684L118.729 143.661ZM128.3 145.871L128.55 144.903L128.549 144.903L128.3 145.871ZM151.716 157.862L152.439 157.172L152.439 157.171L151.716 157.862ZM161.854 177.391L160.892 177.664L160.892 177.665L161.854 177.391ZM164.817 189.747L163.84 189.96L163.84 189.96L164.817 189.747ZM168.206 203.555L167.248 203.844L167.248 203.844L168.206 203.555ZM182.184 223.353L182.684 222.487L182.683 222.487L182.184 223.353ZM213.131 223.927L213.619 224.8L213.619 224.8L213.131 223.927ZM228.816 197.347L229.816 197.349L229.816 197.348L228.816 197.347ZM228.819 168.253L227.819 168.253L228.819 168.253ZM111.242 166.337L111.24 165.337L111.24 165.337L111.242 166.337ZM80.4634 197.205L81.4633 197.194L81.4633 197.194L80.4634 197.205ZM142.137 197.11L143.137 197.111L143.137 197.111L142.137 197.11ZM111.474 227.888L111.476 228.888L111.476 228.888L111.474 227.888ZM154.5 310C240.38 310 310 240.38 310 154.5H308C308 239.276 239.276 308 154.5 308V310ZM-1 154.5C-1 240.38 68.6197 310 154.5 310V308C69.7243 308 1 239.276 1 154.5H-1ZM154.5 -1C68.6197 -1 -1 68.6197 -1 154.5H1C1 69.7243 69.7243 1 154.5 1V-1ZM310 154.5C310 68.6197 240.38 -1 154.5 -1V1C239.276 1 308 69.7243 308 154.5H310ZM227.817 138.895C227.816 143.832 227.816 148.769 227.816 153.705H229.816C229.816 148.769 229.816 143.832 229.817 138.895L227.817 138.895ZM227.816 109.275C227.819 119.148 227.818 129.021 227.817 138.895L229.817 138.895C229.818 129.022 229.819 119.148 229.816 109.274L227.816 109.275ZM199.163 80.617C214.543 80.6221 227.81 93.911 227.816 109.275L229.816 109.274C229.81 92.8075 215.649 78.6224 199.164 78.617L199.163 80.617ZM110.204 80.617C139.855 80.5959 169.512 80.6012 199.163 80.617L199.164 78.617C169.512 78.6012 139.855 78.5959 110.202 78.617L110.204 80.617ZM81.7278 107.121C82.7541 92.8593 95.8602 80.6271 110.204 80.617L110.202 78.617C94.81 78.6279 80.8345 91.6706 79.733 106.977L81.7278 107.121ZM102.974 138.599C95.5453 136.11 89.9774 132.042 86.3976 126.734C82.8186 121.428 81.1751 114.807 81.7278 107.121L79.733 106.977C79.1533 115.038 80.8727 122.12 84.7395 127.853C88.6056 133.585 94.5666 137.892 102.338 140.496L102.974 138.599ZM118.942 142.684C113.526 141.506 108.174 140.341 102.973 138.599L102.338 140.496C107.659 142.277 113.119 143.464 118.517 144.639L118.942 142.684ZM128.549 144.903C125.357 144.08 122.139 143.38 118.942 142.684L118.517 144.639C121.72 145.335 124.901 146.028 128.05 146.84L128.549 144.903ZM152.439 157.171C145.771 150.184 137.292 147.161 128.55 144.903L128.05 146.84C136.708 149.075 144.725 151.986 150.992 158.552L152.439 157.171ZM162.816 177.119C160.76 169.868 157.933 162.931 152.439 157.172L150.992 158.552C156.158 163.967 158.872 170.541 160.892 177.664L162.816 177.119ZM165.795 189.534C164.893 185.399 163.984 181.23 162.816 177.118L160.892 177.665C162.041 181.707 162.937 185.815 163.84 189.96L165.795 189.534ZM169.163 203.267C167.808 198.765 166.806 194.172 165.795 189.534L163.84 189.96C164.849 194.585 165.867 199.255 167.248 203.844L169.163 203.267ZM182.683 222.487C175.285 218.219 171.584 211.306 169.163 203.267L167.248 203.844C169.736 212.104 173.651 219.586 181.684 224.22L182.683 222.487ZM212.643 223.054C202.719 228.604 192.614 228.217 182.684 222.487L181.684 224.22C192.178 230.275 203.035 230.719 213.619 224.8L212.643 223.054ZM227.816 197.345C227.795 208.892 222.557 217.508 212.643 223.054L213.619 224.8C224.15 218.908 229.794 209.635 229.816 197.349L227.816 197.345ZM227.819 168.253C227.823 177.951 227.826 187.649 227.816 197.346L229.816 197.348C229.826 187.649 229.823 177.95 229.819 168.252L227.819 168.253ZM227.816 153.705C227.816 158.555 227.817 163.404 227.819 168.253L229.819 168.252C229.817 163.403 229.816 158.554 229.816 153.705H227.816ZM111.24 165.337C93.614 165.375 79.2729 179.741 79.4634 197.216L81.4633 197.194C81.2851 180.85 94.7103 167.373 111.244 167.337L111.24 165.337ZM143.137 197.111C143.148 179.519 128.866 165.299 111.24 165.337L111.244 167.337C127.768 167.302 141.147 180.629 141.137 197.109L143.137 197.111ZM111.476 228.888C128.857 228.845 143.126 214.517 143.137 197.111L141.137 197.109C141.127 213.417 127.746 226.847 111.471 226.888L111.476 228.888ZM79.4634 197.216C79.6536 214.882 93.8555 228.932 111.476 228.888L111.471 226.888C94.9533 226.929 81.6417 213.767 81.4633 197.194L79.4634 197.216Z" fill="white" fill-opacity="0.03" mask="url(#path-1-inside-1_8503_3299)"/>
</svg>
