<svg width="112" height="112" viewBox="0 0 112 112" fill="none" xmlns="http://www.w3.org/2000/svg">
<g filter="url(#filter0_bd_8794_2022)">
<rect x="24" y="24" width="64" height="64" rx="16" fill="url(#paint0_linear_8794_2022)" shape-rendering="crispEdges"/>
<rect x="38.5" y="38.5" width="35" height="35" rx="17.5" fill="#262E3B"/>
<g clip-path="url(#clip0_8794_2022)">
<path d="M51.1314 54.1536C51.1314 54.4173 51.1604 54.6311 51.211 54.7879C51.2689 54.9446 51.3412 55.1157 51.4425 55.3009C51.4787 55.358 51.4932 55.415 51.4932 55.4649C51.4932 55.5361 51.4497 55.6074 51.3557 55.6787L50.8999 55.978C50.8347 56.0207 50.7696 56.0421 50.7117 56.0421C50.6393 56.0421 50.567 56.0065 50.4946 55.9423C50.3933 55.8354 50.3065 55.7214 50.2342 55.6074C50.1618 55.4862 50.0895 55.3508 50.0098 55.1869C49.4454 55.8426 48.7363 56.1704 47.8825 56.1704C47.2747 56.1704 46.7899 55.9994 46.4354 55.6573C46.0808 55.3152 45.8999 54.8591 45.8999 54.289C45.8999 53.6832 46.117 53.1915 46.5584 52.8209C46.9997 52.4504 47.5858 52.2651 48.3311 52.2651C48.5772 52.2651 48.8304 52.2865 49.0981 52.3221C49.3658 52.3577 49.6408 52.4147 49.9302 52.4789V51.9586C49.9302 51.417 49.8145 51.0393 49.5902 50.8184C49.3586 50.5975 48.9679 50.4906 48.4107 50.4906C48.1575 50.4906 47.897 50.5191 47.6293 50.5832C47.3615 50.6474 47.101 50.7258 46.8478 50.8255C46.732 50.8754 46.6452 50.9039 46.5945 50.9182C46.5439 50.9324 46.5077 50.9396 46.4788 50.9396C46.3775 50.9396 46.3268 50.8683 46.3268 50.7186V50.3694C46.3268 50.2554 46.3413 50.1699 46.3775 50.12C46.4136 50.0701 46.4788 50.0202 46.5801 49.9703C46.8333 49.8421 47.1372 49.7352 47.4918 49.6497C47.8463 49.557 48.2226 49.5143 48.6206 49.5143C49.4816 49.5143 50.1111 49.7067 50.5163 50.0915C50.9143 50.4763 51.1169 51.0607 51.1169 51.8446V54.1536H51.1314ZM48.1937 55.2368C48.4324 55.2368 48.6785 55.1941 48.9389 55.1085C49.1994 55.023 49.431 54.8662 49.6263 54.6524C49.7421 54.517 49.8289 54.3674 49.8723 54.1964C49.9158 54.0253 49.9447 53.8186 49.9447 53.5763V53.277C49.7349 53.2271 49.5106 53.1844 49.279 53.1559C49.0475 53.1274 48.8232 53.1131 48.5989 53.1131C48.1141 53.1131 47.7595 53.2058 47.5207 53.3982C47.2819 53.5906 47.1662 53.8614 47.1662 54.2177C47.1662 54.5527 47.253 54.8021 47.4339 54.9732C47.6076 55.1513 47.8608 55.2368 48.1937 55.2368ZM54.004 56.0065C53.8738 56.0065 53.7869 55.9851 53.7291 55.9352C53.6712 55.8924 53.6205 55.7927 53.5771 55.6573L51.8767 50.1485C51.8333 50.006 51.8116 49.9133 51.8116 49.8635C51.8116 49.7494 51.8694 49.6853 51.9852 49.6853H52.6943C52.8318 49.6853 52.9259 49.7067 52.9765 49.7566C53.0344 49.7993 53.0778 49.8991 53.1212 50.0345L54.3368 54.7522L55.4656 50.0345C55.5018 49.892 55.5452 49.7993 55.6031 49.7566C55.661 49.7138 55.7623 49.6853 55.8926 49.6853H56.4714C56.6089 49.6853 56.703 49.7067 56.7609 49.7566C56.8188 49.7993 56.8694 49.8991 56.8983 50.0345L58.0416 54.8092L59.2934 50.0345C59.3368 49.892 59.3875 49.7993 59.4381 49.7566C59.496 49.7138 59.5901 49.6853 59.7203 49.6853H60.3932C60.509 49.6853 60.5741 49.7423 60.5741 49.8635C60.5741 49.8991 60.5669 49.9347 60.5596 49.9775C60.5524 50.0202 60.5379 50.0772 60.509 50.1556L58.7652 55.6644C58.7218 55.8069 58.6711 55.8996 58.6132 55.9423C58.5553 55.9851 58.4613 56.0136 58.3383 56.0136H57.716C57.5785 56.0136 57.4844 55.9922 57.4265 55.9423C57.3687 55.8924 57.318 55.7998 57.2891 55.6573L56.1675 51.0607L55.0532 55.6501C55.017 55.7927 54.9736 55.8853 54.9157 55.9352C54.8578 55.9851 54.7565 56.0065 54.6263 56.0065H54.004ZM63.302 56.1989C62.9258 56.1989 62.5495 56.1562 62.1877 56.0706C61.8259 55.9851 61.5437 55.8924 61.3556 55.7856C61.2398 55.7214 61.1602 55.6501 61.1313 55.586C61.1023 55.5219 61.0879 55.4506 61.0879 55.3865V55.023C61.0879 54.8734 61.1458 54.8021 61.2543 54.8021C61.2977 54.8021 61.3411 54.8092 61.3845 54.8235C61.4279 54.8377 61.4931 54.8662 61.5654 54.8947C61.8114 55.0016 62.0792 55.0872 62.3614 55.1442C62.6508 55.2012 62.933 55.2297 63.2224 55.2297C63.6783 55.2297 64.0328 55.1513 64.2788 54.9945C64.5249 54.8377 64.6551 54.6097 64.6551 54.3175C64.6551 54.1179 64.59 53.9541 64.4597 53.8186C64.3295 53.6832 64.0835 53.5621 63.7289 53.4481L62.6797 53.1274C62.1515 52.9635 61.7608 52.7212 61.522 52.4005C61.2832 52.0869 61.1602 51.7377 61.1602 51.3671C61.1602 51.0678 61.2254 50.8041 61.3556 50.5761C61.4858 50.3481 61.6595 50.1485 61.8766 49.9917C62.0937 49.8278 62.3397 49.7067 62.6291 49.6212C62.9185 49.5356 63.2224 49.5 63.5408 49.5C63.7 49.5 63.8664 49.5071 64.0256 49.5285C64.192 49.5499 64.344 49.5784 64.4959 49.6069C64.6406 49.6425 64.7781 49.6782 64.9084 49.7209C65.0386 49.7637 65.1399 49.8064 65.2123 49.8492C65.3136 49.9062 65.3859 49.9632 65.4294 50.0274C65.4728 50.0844 65.4945 50.1628 65.4945 50.2625V50.5975C65.4945 50.7471 65.4366 50.8255 65.328 50.8255C65.2701 50.8255 65.1761 50.797 65.0531 50.74C64.6406 50.5547 64.1776 50.4621 63.6638 50.4621C63.2514 50.4621 62.9258 50.5262 62.7014 50.6616C62.4772 50.797 62.3614 51.0037 62.3614 51.2959C62.3614 51.4954 62.4337 51.6664 62.5784 51.8019C62.7232 51.9373 62.9909 52.0727 63.3744 52.1938L64.4018 52.5145C64.9229 52.6784 65.2991 52.9065 65.5234 53.1986C65.7477 53.4908 65.8563 53.8258 65.8563 54.1964C65.8563 54.5028 65.7911 54.7807 65.6681 55.023C65.5379 55.2653 65.3642 55.4791 65.1399 55.6501C64.9156 55.8283 64.6479 55.9566 64.3367 56.0492C64.0111 56.149 63.6711 56.1989 63.302 56.1989Z" fill="white"/>
<path fill-rule="evenodd" clip-rule="evenodd" d="M64.6692 59.6633C62.2887 61.395 58.8299 62.3143 55.856 62.3143C51.6882 62.3143 47.9328 60.7964 45.0964 58.2736C44.8721 58.0741 45.0747 57.8032 45.3424 57.96C48.4104 59.7132 52.1947 60.775 56.1093 60.775C58.7503 60.775 61.6519 60.2334 64.3219 59.1217C64.7199 58.9435 65.06 59.3782 64.6692 59.6633Z" fill="#FC9B1A"/>
<path fill-rule="evenodd" clip-rule="evenodd" d="M65.6608 58.5511C65.3569 58.1663 63.6493 58.3658 62.8751 58.4584C62.6435 58.487 62.6073 58.2874 62.8172 58.1378C64.1775 57.1971 66.4133 57.4679 66.6738 57.7815C66.9343 58.1021 66.6015 60.3042 65.328 61.3589C65.1326 61.5229 64.9445 61.4374 65.0313 61.2235C65.3208 60.518 65.9647 58.9288 65.6608 58.5511Z" fill="#FC9B1A"/>
</g>
<rect x="38.5" y="38.5" width="35" height="35" rx="17.5" stroke="#333B47"/>
<rect x="24.5" y="24.5" width="63" height="63" rx="15.5" stroke="white" stroke-opacity="0.04" shape-rendering="crispEdges"/>
</g>
<defs>
<filter id="filter0_bd_8794_2022" x="-10" y="-10" width="132" height="132" filterUnits="userSpaceOnUse" color-interpolation-filters="sRGB">
<feFlood flood-opacity="0" result="BackgroundImageFix"/>
<feGaussianBlur in="BackgroundImageFix" stdDeviation="17"/>
<feComposite in2="SourceAlpha" operator="in" result="effect1_backgroundBlur_8794_2022"/>
<feColorMatrix in="SourceAlpha" type="matrix" values="0 0 0 0 0 0 0 0 0 0 0 0 0 0 0 0 0 0 127 0" result="hardAlpha"/>
<feOffset/>
<feGaussianBlur stdDeviation="12"/>
<feComposite in2="hardAlpha" operator="out"/>
<feColorMatrix type="matrix" values="0 0 0 0 1 0 0 0 0 1 0 0 0 0 1 0 0 0 0.02 0"/>
<feBlend mode="normal" in2="effect1_backgroundBlur_8794_2022" result="effect2_dropShadow_8794_2022"/>
<feBlend mode="normal" in="SourceGraphic" in2="effect2_dropShadow_8794_2022" result="shape"/>
</filter>
<linearGradient id="paint0_linear_8794_2022" x1="56" y1="24" x2="56" y2="88" gradientUnits="userSpaceOnUse">
<stop stop-color="white" stop-opacity="0.05"/>
<stop offset="1" stop-color="white" stop-opacity="0.03"/>
</linearGradient>
<clipPath id="clip0_8794_2022">
<rect width="22" height="13" fill="white" transform="translate(45 49.5)"/>
</clipPath>
</defs>
</svg>
