<svg width="57" height="34" viewBox="0 0 57 34" fill="none" xmlns="http://www.w3.org/2000/svg">
<g clip-path="url(#clip0_8264_593)">
<path d="M15.8854 12.1709C15.8854 12.8606 15.9604 13.4197 16.0916 13.8298C16.2416 14.2398 16.429 14.6871 16.6915 15.1717C16.7852 15.3208 16.8227 15.47 16.8227 15.6004C16.8227 15.7868 16.7102 15.9732 16.4665 16.1596L15.2855 16.9424C15.1167 17.0542 14.948 17.1101 14.798 17.1101C14.6105 17.1101 14.4231 17.0169 14.2356 16.8492C13.9731 16.5696 13.7482 16.2714 13.5607 15.9732C13.3732 15.6563 13.1858 15.3022 12.9795 14.8735C11.5172 16.5883 9.68 17.4456 7.46782 17.4456C5.89305 17.4456 4.63697 16.9983 3.71836 16.1037C2.79974 15.209 2.33105 14.0161 2.33105 12.5251C2.33105 10.9408 2.89347 9.65474 4.03706 8.68554C5.18065 7.71634 6.69918 7.23174 8.63015 7.23174C9.26756 7.23174 9.92372 7.28765 10.6174 7.38084C11.311 7.47404 12.0234 7.62314 12.7733 7.79089V6.43028C12.7733 5.01375 12.4734 4.02591 11.8922 3.44812C11.2923 2.87033 10.2799 2.59075 8.83638 2.59075C8.18023 2.59075 7.50531 2.6653 6.81166 2.83305C6.11801 3.0008 5.44311 3.20582 4.78695 3.46676C4.487 3.59723 4.26203 3.67178 4.1308 3.70906C3.99957 3.74634 3.90583 3.76498 3.83084 3.76498C3.56838 3.76498 3.43715 3.57859 3.43715 3.18718V2.2739C3.43715 1.97568 3.47464 1.75202 3.56838 1.62155C3.66211 1.49108 3.83084 1.36061 4.0933 1.23014C4.74946 0.894648 5.53685 0.61507 6.45546 0.391408C7.37408 0.149108 8.34894 0.037277 9.38005 0.037277C11.611 0.037277 13.242 0.540516 14.2918 1.54699C15.3229 2.55347 15.8479 4.08183 15.8479 6.13206V12.1709H15.8854ZM8.27395 15.004C8.89262 15.004 9.53003 14.8922 10.2049 14.6685C10.8798 14.4448 11.4797 14.0348 11.9859 13.4756C12.2859 13.1215 12.5108 12.7301 12.6233 12.2828C12.7358 11.8354 12.8108 11.2949 12.8108 10.6612V9.8784C12.2671 9.74793 11.686 9.6361 11.0861 9.56155C10.4861 9.48699 9.90497 9.44972 9.32381 9.44972C8.06773 9.44972 7.14912 9.69202 6.53045 10.1953C5.91179 10.6985 5.61184 11.4068 5.61184 12.3387C5.61184 13.2147 5.8368 13.867 6.30549 14.3144C6.75542 14.7803 7.41158 15.004 8.27395 15.004ZM23.3281 17.0169C22.9906 17.0169 22.7656 16.961 22.6157 16.8306C22.4657 16.7187 22.3344 16.4578 22.222 16.1037L17.8163 1.6961C17.7039 1.32333 17.6476 1.08103 17.6476 0.950563C17.6476 0.652347 17.7976 0.484601 18.0975 0.484601H19.9348C20.291 0.484601 20.5347 0.540516 20.6659 0.670986C20.8159 0.782817 20.9284 1.04376 21.0409 1.39789L24.1904 13.7366L27.115 1.39789C27.2087 1.02512 27.3212 0.782817 27.4712 0.670986C27.6212 0.559155 27.8836 0.484601 28.2211 0.484601H29.7209C30.0771 0.484601 30.3208 0.540516 30.4708 0.670986C30.6208 0.782817 30.752 1.04376 30.827 1.39789L33.7891 13.8857L37.0323 1.39789C37.1448 1.02512 37.2761 0.782817 37.4073 0.670986C37.5573 0.559155 37.801 0.484601 38.1384 0.484601H39.8819C40.1819 0.484601 40.3506 0.633709 40.3506 0.950563C40.3506 1.04376 40.3319 1.13695 40.3131 1.24878C40.2944 1.36061 40.2569 1.50972 40.1819 1.71474L35.6638 16.1223C35.5513 16.4951 35.4201 16.7374 35.2701 16.8492C35.1201 16.961 34.8764 17.0356 34.5577 17.0356H32.9454C32.5892 17.0356 32.3455 16.9797 32.1955 16.8492C32.0456 16.7187 31.9143 16.4764 31.8393 16.1037L28.9335 4.08183L26.0464 16.085C25.9527 16.4578 25.8402 16.7001 25.6902 16.8306C25.5402 16.961 25.2778 17.0169 24.9403 17.0169H23.3281ZM47.4184 17.5202C46.4435 17.5202 45.4686 17.4084 44.5313 17.1847C43.5939 16.961 42.8628 16.7187 42.3753 16.4392C42.0754 16.2714 41.8692 16.085 41.7942 15.9173C41.7192 15.7495 41.6817 15.5631 41.6817 15.3954V14.4448C41.6817 14.0534 41.8317 13.867 42.1129 13.867C42.2253 13.867 42.3378 13.8857 42.4503 13.923C42.5628 13.9602 42.7315 14.0348 42.919 14.1093C43.5564 14.3889 44.2501 14.6126 44.9812 14.7617C45.7311 14.9108 46.4622 14.9853 47.2121 14.9853C48.3932 14.9853 49.3118 14.7803 49.9492 14.3703C50.5867 13.9602 50.9241 13.3638 50.9241 12.5996C50.9241 12.0777 50.7554 11.6491 50.4179 11.2949C50.0805 10.9408 49.4431 10.6239 48.5244 10.3257L45.8061 9.48699C44.4375 9.05831 43.4252 8.4246 42.8065 7.58587C42.1879 6.76577 41.8691 5.85249 41.8691 4.88328C41.8691 4.10047 42.0379 3.41084 42.3753 2.81441C42.7128 2.21798 43.1627 1.6961 43.7251 1.28606C44.2876 0.857371 44.925 0.540516 45.6749 0.316854C46.4247 0.0931924 47.2121 0 48.037 0C48.4495 0 48.8806 0.0186385 49.2931 0.074554C49.7243 0.130469 50.118 0.205023 50.5117 0.279577C50.8866 0.37277 51.2428 0.465962 51.5803 0.577793C51.9177 0.689624 52.1802 0.801455 52.3676 0.913286C52.6301 1.06239 52.8176 1.2115 52.9301 1.37925C53.0426 1.52836 53.0988 1.73338 53.0988 1.99432V2.87033C53.0988 3.26174 52.9488 3.46676 52.6676 3.46676C52.5176 3.46676 52.2739 3.39221 51.9552 3.2431C50.8866 2.7585 49.6868 2.5162 48.3557 2.5162C47.2871 2.5162 46.4435 2.68394 45.8623 3.03807C45.2812 3.39221 44.9812 3.93272 44.9812 4.6969C44.9812 5.21878 45.1687 5.6661 45.5436 6.02023C45.9186 6.37437 46.6122 6.7285 47.6058 7.04535L50.2679 7.88408C51.6178 8.31277 52.5926 8.9092 53.1738 9.67338C53.7549 10.4376 54.0362 11.3136 54.0362 12.2828C54.0362 13.0842 53.8674 13.8111 53.5487 14.4448C53.2113 15.0785 52.7613 15.6377 52.1802 16.085C51.599 16.551 50.9054 16.8865 50.0992 17.1288C49.2556 17.3897 48.3745 17.5202 47.4184 17.5202Z" fill="white"/>
<path fill-rule="evenodd" clip-rule="evenodd" d="M50.9612 26.5808C44.7934 31.11 35.8321 33.5143 28.127 33.5143C17.3285 33.5143 7.59867 29.5443 0.249718 22.9463C-0.33145 22.4244 0.193476 21.7161 0.887127 22.1262C8.83599 26.7113 18.6408 29.4884 28.7832 29.4884C35.6259 29.4884 43.1436 28.0719 50.0614 25.1643C51.0925 24.6983 51.9736 25.8353 50.9612 26.5808Z" fill="white"/>
<path fill-rule="evenodd" clip-rule="evenodd" d="M53.5301 23.6721C52.7427 22.6657 48.3184 23.1875 46.3124 23.4298C45.7125 23.5044 45.6187 22.9825 46.1624 22.5911C49.6869 20.1308 55.4798 20.8391 56.1547 21.6592C56.8296 22.4979 55.9672 28.2572 52.6677 31.0157C52.1615 31.4444 51.6741 31.2208 51.8991 30.6616C52.649 28.8164 54.3175 24.66 53.5301 23.6721Z" fill="white"/>
</g>
<defs>
<clipPath id="clip0_8264_593">
<rect width="57" height="34" fill="white"/>
</clipPath>
</defs>
</svg>
