<svg width="16" height="16" viewBox="0 0 16 16" fill="none" xmlns="http://www.w3.org/2000/svg">
<path d="M14.6666 12.6667V14.6667H1.33331V12.6667C1.33331 12.3 1.63331 12 1.99998 12H14C14.3666 12 14.6666 12.3 14.6666 12.6667Z" fill="white" stroke="#ECECEC" stroke-width="1.5" stroke-miterlimit="10" stroke-linecap="round" stroke-linejoin="round"/>
<path d="M4.66665 7.33331H3.33331V12H4.66665V7.33331Z" fill="white"/>
<path d="M7.33333 7.33331H6V12H7.33333V7.33331Z" fill="white"/>
<path d="M10 7.33331H8.66669V12H10V7.33331Z" fill="white"/>
<path d="M12.6666 7.33331H11.3333V12H12.6666V7.33331Z" fill="white"/>
<path d="M15.3334 15.1667H0.666687C0.393354 15.1667 0.166687 14.94 0.166687 14.6667C0.166687 14.3934 0.393354 14.1667 0.666687 14.1667H15.3334C15.6067 14.1667 15.8334 14.3934 15.8334 14.6667C15.8334 14.94 15.6067 15.1667 15.3334 15.1667Z" fill="white"/>
<path d="M14.2466 3.83331L8.24665 1.43331C8.11331 1.37998 7.88665 1.37998 7.75331 1.43331L1.75331 3.83331C1.51998 3.92664 1.33331 4.19998 1.33331 4.45331V6.66664C1.33331 7.03331 1.63331 7.33331 1.99998 7.33331H14C14.3666 7.33331 14.6666 7.03331 14.6666 6.66664V4.45331C14.6666 4.19998 14.48 3.92664 14.2466 3.83331ZM7.99998 5.66664C7.44665 5.66664 6.99998 5.21998 6.99998 4.66664C6.99998 4.11331 7.44665 3.66664 7.99998 3.66664C8.55331 3.66664 8.99998 4.11331 8.99998 4.66664C8.99998 5.21998 8.55331 5.66664 7.99998 5.66664Z" fill="white"/>
</svg>
