<svg width="268" height="301" viewBox="0 0 268 301" fill="none" xmlns="http://www.w3.org/2000/svg">
<mask id="path-1-inside-1_2150_439" fill="white">
<path fill-rule="evenodd" clip-rule="evenodd" d="M0 82.128C0 37.4858 35.6062 1.15981 79.9686 0L201.238 111.619C206.198 116.185 213.921 115.865 218.486 110.904C241.315 86.1024 239.715 47.4907 214.913 24.6625L188.13 0.0115929C232.304 1.38147 267.693 37.6219 267.693 82.128V218.831C267.693 263.366 232.259 299.624 188.046 300.95L66.8371 189.387C61.8767 184.821 54.1544 185.141 49.5887 190.102C26.7606 214.903 28.3606 253.515 53.1624 276.343L79.9047 300.957C35.572 299.764 0 263.452 0 218.831V82.128ZM49.5887 39.2406C26.7606 64.0425 28.3606 102.654 53.1624 125.482L201.238 261.774C206.198 266.34 213.921 266.02 218.486 261.06C241.315 236.258 239.715 197.646 214.913 174.818L66.8371 38.5259C61.8767 33.9603 54.1544 34.2803 49.5887 39.2406Z"/>
</mask>
<path d="M79.9686 0L80.6459 -0.735777L80.3477 -1.01025L79.9425 -0.999658L79.9686 0ZM201.238 111.619L200.561 112.355L200.561 112.355L201.238 111.619ZM218.486 110.904L217.751 110.227L217.751 110.227L218.486 110.904ZM214.913 24.6625L215.59 23.9267L215.59 23.9267L214.913 24.6625ZM188.13 0.0115929L188.161 -0.987927L185.478 -1.07116L187.453 0.747369L188.13 0.0115929ZM188.046 300.95L187.369 301.686L187.669 301.962L188.076 301.95L188.046 300.95ZM66.8371 189.387L67.5143 188.651L67.5143 188.651L66.8371 189.387ZM49.5887 190.102L48.8529 189.424L48.8529 189.424L49.5887 190.102ZM53.1624 276.343L53.8396 275.608L53.8396 275.608L53.1624 276.343ZM79.9047 300.957L79.8778 301.957L82.5454 302.029L80.5819 300.222L79.9047 300.957ZM53.1624 125.482L52.4852 126.218L52.4852 126.218L53.1624 125.482ZM49.5887 39.2406L50.3245 39.9179L50.3245 39.9179L49.5887 39.2406ZM201.238 261.774L201.915 261.039L201.915 261.039L201.238 261.774ZM218.486 261.06L217.751 260.382L217.751 260.382L218.486 261.06ZM214.913 174.818L215.59 174.082L215.59 174.082L214.913 174.818ZM66.8371 38.5259L67.5143 37.7901L67.5143 37.7901L66.8371 38.5259ZM79.9425 -0.999658C35.0396 0.174279 -1 36.9423 -1 82.128H1C1 38.0293 36.1728 2.14533 79.9948 0.999658L79.9425 -0.999658ZM201.915 110.883L80.6459 -0.735777L79.2914 0.735777L200.561 112.355L201.915 110.883ZM217.751 110.227C213.559 114.781 206.469 115.075 201.915 110.883L200.561 112.355C205.928 117.294 214.283 116.948 219.222 111.581L217.751 110.227ZM214.235 25.3983C238.631 47.8524 240.205 85.8315 217.751 110.227L219.222 111.581C242.424 86.3733 240.798 47.1289 215.59 23.9267L214.235 25.3983ZM187.453 0.747369L214.235 25.3983L215.59 23.9267L188.808 -0.724184L187.453 0.747369ZM268.693 82.128C268.693 37.08 232.873 0.398647 188.161 -0.987927L188.099 1.01111C231.735 2.3643 266.693 38.1638 266.693 82.128H268.693ZM268.693 218.831V82.128H266.693V218.831H268.693ZM188.076 301.95C232.828 300.607 268.693 263.908 268.693 218.831H266.693C266.693 262.823 231.69 298.641 188.016 299.951L188.076 301.95ZM66.1598 190.123L187.369 301.686L188.723 300.214L67.5143 188.651L66.1598 190.123ZM50.3245 190.779C54.5161 186.225 61.6058 185.931 66.1598 190.123L67.5143 188.651C62.1476 183.711 53.7926 184.058 48.8529 189.424L50.3245 190.779ZM53.8396 275.608C29.4442 253.153 27.8704 215.174 50.3245 190.779L48.8529 189.424C25.6508 214.633 27.277 253.877 52.4852 277.079L53.8396 275.608ZM80.5819 300.222L53.8396 275.608L52.4852 277.079L79.2275 301.693L80.5819 300.222ZM-1 218.831C-1 263.995 35.005 300.75 79.8778 301.957L79.9316 299.958C36.139 298.779 1 262.909 1 218.831H-1ZM-1 82.128V218.831H1V82.128H-1ZM53.8396 124.747C29.4442 102.292 27.8704 64.3133 50.3245 39.9179L48.8529 38.5634C25.6508 63.7716 27.277 103.016 52.4852 126.218L53.8396 124.747ZM201.915 261.039L53.8396 124.747L52.4852 126.218L200.561 262.51L201.915 261.039ZM217.751 260.382C213.559 264.936 206.469 265.23 201.915 261.039L200.561 262.51C205.928 267.45 214.283 267.104 219.222 261.737L217.751 260.382ZM214.235 175.554C238.631 198.008 240.205 235.987 217.751 260.382L219.222 261.737C242.424 236.529 240.798 197.284 215.59 174.082L214.235 175.554ZM66.1598 39.2617L214.235 175.554L215.59 174.082L67.5143 37.7901L66.1598 39.2617ZM50.3245 39.9179C54.5161 35.3639 61.6058 35.0701 66.1598 39.2617L67.5143 37.7901C62.1476 32.8505 53.7926 33.1967 48.8529 38.5634L50.3245 39.9179Z" fill="white" fill-opacity="0.03" mask="url(#path-1-inside-1_2150_439)"/>
</svg>
