<svg width="124" height="33" viewBox="0 0 124 33" fill="none" xmlns="http://www.w3.org/2000/svg">
<path d="M36.4429 9.76253C34.6403 9.76253 33.1677 10.2639 32.0145 11.2536C31.916 11.3417 31.7869 11.3871 31.6553 11.3798C31.5237 11.3728 31.4 11.314 31.3116 11.2161C31.2305 11.1264 31.1857 11.0098 31.1857 10.8889V4.22627C31.1828 4.09627 31.1294 3.97254 31.0366 3.88136C30.9441 3.79017 30.8195 3.73877 30.6894 3.7381H27.4974C27.3661 3.7381 27.2399 3.79037 27.1468 3.88342C27.0536 3.97648 27.0015 4.1027 27.0015 4.23432V25.9603C27.0015 26.0919 27.0536 26.2181 27.1468 26.3113C27.2399 26.4044 27.3661 26.4566 27.4974 26.4566H30.6894C30.821 26.4566 30.9473 26.4044 31.0404 26.3113C31.1332 26.2181 31.1857 26.0919 31.1857 25.9603V25.786C31.1863 25.6904 31.2146 25.5969 31.2671 25.5168C31.3199 25.437 31.3943 25.374 31.482 25.3352C31.5694 25.2968 31.6664 25.2844 31.7608 25.2996C31.8553 25.3149 31.9433 25.3572 32.0145 25.4214C33.1677 26.4165 34.6403 26.9125 36.4429 26.9125C37.4988 26.921 38.5441 26.7042 39.5097 26.2766C40.4749 25.8487 41.3377 25.2195 42.0407 24.4314C43.5836 22.7864 44.4169 20.6003 44.3609 18.3456C44.4127 16.0867 43.5801 13.8972 42.0407 12.2433C41.3387 11.4542 40.4762 10.8244 39.5106 10.3965C38.5451 9.96823 37.4991 9.75235 36.4429 9.76253ZM38.8945 21.6231C38.4729 22.044 37.9703 22.3747 37.4168 22.595C36.8636 22.8157 36.2713 22.9212 35.6758 22.9053C35.0797 22.9257 34.4861 22.8223 33.932 22.6017C33.3778 22.381 32.8758 22.0479 32.4571 21.6231C32.0342 21.1888 31.7042 20.6731 31.4865 20.1076C31.269 19.5416 31.1685 18.9379 31.1911 18.3322C31.1673 17.726 31.2671 17.1213 31.4849 16.5547C31.7027 15.9885 32.0333 15.4725 32.4571 15.0382C32.8748 14.6125 33.3772 14.2787 33.9313 14.058C34.4855 13.8374 35.0797 13.7344 35.6758 13.7563C36.2713 13.7392 36.8639 13.8441 37.4174 14.0647C37.9709 14.285 38.4735 14.6163 38.8945 15.0382C39.3208 15.4712 39.6543 15.9866 39.8743 16.5531C40.0943 17.1194 40.1964 17.725 40.1738 18.3322C40.1961 18.9389 40.0937 19.5439 39.8737 20.1098C39.6537 20.6757 39.3205 21.1907 38.8945 21.6231Z" fill="white"/>
<path d="M62.1445 10.2209H58.9554C58.8902 10.2203 58.8256 10.2324 58.7649 10.2569C58.7045 10.281 58.6495 10.3169 58.6028 10.3627C58.5564 10.4082 58.5192 10.4625 58.4937 10.5223C58.468 10.5824 58.4546 10.6466 58.4537 10.7118V10.8943C58.4537 11.0259 58.4015 11.1521 58.3084 11.2453C58.2155 11.3381 58.0893 11.3906 57.9577 11.3906C57.8347 11.3928 57.7154 11.3477 57.6248 11.2644C56.4628 10.2613 54.9768 9.75961 53.1672 9.75961C52.1161 9.75103 51.0755 9.96817 50.1157 10.3967C49.1559 10.8253 48.2994 11.4551 47.6041 12.2436C46.0593 13.9047 45.2858 15.9334 45.2842 18.3293C45.2823 20.7255 46.0555 22.7542 47.6041 24.4154C48.3004 25.2023 49.1572 25.8308 50.1167 26.2588C51.0765 26.6867 52.1164 26.9041 53.1672 26.8965C54.9749 26.8965 56.4609 26.3948 57.6248 25.3918C57.6732 25.3479 57.7294 25.3139 57.7908 25.2919C57.8521 25.2697 57.9173 25.2601 57.9822 25.2633C58.0474 25.2665 58.1113 25.2827 58.1701 25.3107C58.2289 25.3387 58.2817 25.3781 58.3249 25.4267C58.4082 25.5186 58.454 25.6382 58.4537 25.7618V25.9443C58.4553 26.0763 58.5087 26.2025 58.6025 26.2956C58.6966 26.3885 58.8231 26.4406 58.9554 26.4406H62.1445C62.2761 26.44 62.4023 26.3875 62.4955 26.2947C62.5889 26.2018 62.642 26.0759 62.6433 25.9443V10.7118C62.642 10.5808 62.5886 10.4556 62.4952 10.3637C62.4017 10.2715 62.2758 10.2203 62.1445 10.2209ZM57.1743 21.6234C56.7528 22.044 56.2501 22.3746 55.6969 22.5953C55.1434 22.8156 54.5511 22.9212 53.9556 22.9053C53.3598 22.924 52.7666 22.8201 52.2128 22.5994C51.6589 22.3788 51.1566 22.0465 50.7369 21.6234C50.3151 21.1885 49.9857 20.6725 49.7685 20.1069C49.5514 19.5413 49.4513 18.9375 49.4738 18.3322C49.4509 17.7262 49.5511 17.1222 49.7682 16.5559C49.9854 15.99 50.3151 15.4737 50.7369 15.0385C51.156 14.614 51.6583 14.2812 52.2121 14.0605C52.7663 13.8399 53.3598 13.7362 53.9556 13.7563C54.5511 13.7391 55.1441 13.844 55.6976 14.0647C56.2511 14.285 56.7537 14.6166 57.1743 15.0385C57.601 15.4712 57.9345 15.9865 58.1545 16.5531C58.3745 17.1196 58.4762 17.725 58.4537 18.3322C58.4759 18.9388 58.3739 19.5438 58.1539 20.1097C57.9339 20.6756 57.6004 21.1907 57.1743 21.6234Z" fill="white"/>
<path d="M73.3932 9.76249C71.7053 9.76249 70.3643 10.2054 69.3698 11.0905C69.2814 11.17 69.167 11.2145 69.0481 11.2164C68.9183 11.211 68.7959 11.1553 68.7063 11.0612C68.6166 10.9671 68.567 10.8422 68.568 10.7121C68.568 10.5812 68.5158 10.4559 68.4233 10.3631C68.3308 10.2705 68.2052 10.2187 68.0743 10.2187H64.8772C64.8117 10.2174 64.7465 10.2295 64.6858 10.254C64.6251 10.2782 64.5697 10.3144 64.523 10.3602C64.4763 10.4063 64.4391 10.461 64.414 10.5214C64.3885 10.5818 64.3755 10.6466 64.3755 10.7121V25.9472C64.3755 26.0788 64.4279 26.205 64.5211 26.2982C64.6139 26.391 64.7402 26.4435 64.8718 26.4435H68.0663C68.1979 26.4435 68.3241 26.391 68.4173 26.2982C68.5104 26.205 68.5626 26.0788 68.5626 25.9472V17.6859C68.5626 16.3449 68.8862 15.3399 69.5335 14.6713C69.8728 14.3308 70.2794 14.065 70.7277 13.8914C71.1756 13.7175 71.6554 13.6396 72.1354 13.6625C72.5621 13.6418 72.9888 13.7073 73.39 13.8552C73.7909 14.003 74.1578 14.2303 74.4687 14.5238C75.0537 15.0976 75.3468 15.9246 75.3487 17.0046V25.9472C75.3481 26.0121 75.3608 26.0763 75.3853 26.1364C75.4098 26.1965 75.4457 26.2508 75.4912 26.2969C75.5369 26.343 75.591 26.3796 75.6508 26.4047C75.7105 26.4298 75.7748 26.4432 75.8393 26.4435H79.0367C79.1683 26.4435 79.2945 26.391 79.3877 26.2982C79.4805 26.205 79.533 26.0788 79.533 25.9472V16.4816C79.533 14.3842 78.9508 12.7399 77.7866 11.5489C77.2191 10.962 76.5349 10.4998 75.7786 10.1923C75.0219 9.88458 74.2096 9.73833 73.3932 9.76249Z" fill="white"/>
<path d="M89.5481 18.5465C89.4769 18.4578 89.4381 18.3468 89.4381 18.2327C89.4381 18.1186 89.4769 18.0079 89.5481 17.9189L95.1541 11.0285C95.212 10.9554 95.2483 10.8673 95.2587 10.7745C95.2689 10.6816 95.2527 10.5882 95.2123 10.5039C95.1716 10.42 95.1081 10.3491 95.0292 10.2995C94.95 10.2499 94.8585 10.2238 94.7653 10.2238H91.0583C90.9826 10.2232 90.9076 10.24 90.8392 10.2731C90.7709 10.3062 90.7108 10.3545 90.6641 10.4142L86.1231 16.2425C86.0424 16.3468 85.9238 16.4148 85.7931 16.432C85.6624 16.4491 85.5305 16.4138 85.4256 16.3337C85.3645 16.2879 85.3153 16.2285 85.2819 16.1598C85.2482 16.0915 85.2313 16.0158 85.2326 15.9395V4.22624C85.2297 4.09624 85.1763 3.97251 85.0838 3.88133C84.991 3.79014 84.8664 3.73874 84.7363 3.73807H81.5418C81.4766 3.73807 81.4121 3.75101 81.3517 3.77615C81.2916 3.80127 81.2369 3.83812 81.1908 3.88451C81.145 3.93092 81.1088 3.98596 81.0843 4.04646C81.0598 4.10696 81.0477 4.17169 81.0484 4.23696V25.9631C81.0519 26.0915 81.1053 26.2136 81.1975 26.3033C81.2897 26.3929 81.4133 26.4432 81.5418 26.4432H84.7338C84.8654 26.4432 84.9916 26.3907 85.0844 26.2979C85.1776 26.2047 85.2301 26.0785 85.2301 25.9469V20.4887C85.2301 20.4232 85.2428 20.3581 85.2679 20.2976C85.293 20.2372 85.3296 20.1822 85.376 20.1358C85.4224 20.0894 85.4774 20.0528 85.5378 20.0277C85.5985 20.0026 85.6634 19.9896 85.7289 19.9896C85.8026 19.9905 85.8755 20.0077 85.9422 20.0398C86.009 20.0716 86.0678 20.1177 86.1152 20.1749L90.9887 26.2689C91.0373 26.3243 91.0971 26.3691 91.1642 26.4006C91.2309 26.432 91.3037 26.4492 91.3775 26.4511H94.9529C95.0486 26.4533 95.143 26.4279 95.2247 26.3777C95.3061 26.3274 95.3713 26.2546 95.4126 26.1682C95.4536 26.0817 95.4689 25.985 95.4562 25.8903C95.4438 25.7952 95.404 25.7059 95.342 25.6331L89.5481 18.5465Z" fill="white"/>
<path d="M100.152 3.73826H96.9572C96.8933 3.73647 96.8297 3.74738 96.7703 3.77034C96.7105 3.79329 96.6561 3.82785 96.61 3.87201C96.5639 3.91617 96.5267 3.96904 96.5013 4.02757C96.4759 4.08613 96.4622 4.14914 96.4609 4.21302V25.966C96.4638 26.095 96.5175 26.2174 96.6107 26.3071C96.7035 26.3964 96.8281 26.4454 96.9572 26.4432H100.152C100.28 26.4448 100.404 26.3955 100.497 26.3061C100.589 26.2168 100.643 26.0944 100.645 25.966V4.20764C100.641 4.08028 100.587 3.95969 100.495 3.87188C100.402 3.78407 100.279 3.73606 100.152 3.73826Z" fill="white"/>
<path d="M117.793 10.248C117.742 10.2311 117.689 10.2219 117.635 10.2209H114.226C114.122 10.2203 114.02 10.2524 113.935 10.3131C113.85 10.3738 113.787 10.46 113.754 10.5589L110.712 19.8074C110.669 19.9323 110.579 20.0356 110.46 20.0938C110.341 20.1523 110.204 20.1609 110.079 20.1183C110.011 20.0957 109.948 20.0582 109.896 20.0086C109.843 19.959 109.803 19.8986 109.776 19.8315L106.171 10.5376C106.135 10.4435 106.07 10.363 105.987 10.3064C105.904 10.2499 105.805 10.2203 105.705 10.2209H102.217C102.087 10.2209 101.961 10.2724 101.868 10.3643C101.776 10.4562 101.723 10.5811 101.721 10.7118C101.721 10.7783 101.735 10.8441 101.762 10.9051L108.049 25.7323C108.091 25.8528 108.091 25.9847 108.049 26.1052C107.665 27.1083 107.161 27.8487 106.541 28.3126C105.899 28.7713 105.131 29.0222 104.342 29.0314C104.215 29.0378 104.095 29.0927 104.007 29.1853C103.92 29.2778 103.872 29.4005 103.872 29.5277V32.4513C103.872 32.5785 103.92 32.7012 104.007 32.7937C104.095 32.8863 104.215 32.9413 104.342 32.9476C106.205 32.9635 107.779 32.4888 109.062 31.5233C110.457 30.4665 111.576 28.7812 112.418 26.4673L118.093 10.8835C118.138 10.7595 118.131 10.6228 118.074 10.5039C118.018 10.3847 117.917 10.2928 117.793 10.248Z" fill="white"/>
<path d="M122.114 12.8792C122.105 12.8613 122.1 12.8423 122.098 12.8226V12.5892C122.105 12.5065 122.093 12.4236 122.063 12.3463C122.033 12.269 121.985 12.1997 121.924 12.1441C121.845 12.0853 121.753 12.0455 121.655 12.0287C121.778 12.0179 121.895 11.9721 121.993 11.8974C122.044 11.8526 122.083 11.7963 122.108 11.7333C122.133 11.6704 122.142 11.6024 122.135 11.5353C122.14 11.4393 122.117 11.3442 122.069 11.2606C122.022 11.1773 121.952 11.1089 121.867 11.0632C121.746 11.0015 121.612 10.9675 121.476 10.964H120.502V12.9408H121.039V12.2353H121.253C121.313 12.2331 121.372 12.243 121.427 12.2649C121.461 12.277 121.492 12.2964 121.518 12.3221C121.543 12.3476 121.563 12.3784 121.575 12.4124C121.594 12.4903 121.604 12.5704 121.605 12.6509C121.607 12.7415 121.619 12.8311 121.639 12.9192H122.149L122.122 12.8792H122.114ZM121.508 11.8061C121.428 11.8567 121.334 11.8818 121.24 11.8786H121.047V11.3073H121.159C121.263 11.3016 121.367 11.3162 121.465 11.3502C121.512 11.3636 121.553 11.3925 121.582 11.4326C121.61 11.4726 121.624 11.5213 121.621 11.5699C121.624 11.6157 121.615 11.6615 121.595 11.7028C121.575 11.7442 121.545 11.7798 121.508 11.8061Z" fill="white"/>
<path d="M122.527 10.6797H122.54C122.21 10.3532 121.766 10.1669 121.302 10.1599C120.837 10.1529 120.388 10.3259 120.048 10.6422C119.867 10.8062 119.722 11.0075 119.625 11.2326C119.529 11.4577 119.482 11.7009 119.488 11.9457C119.485 12.1781 119.529 12.4086 119.615 12.6242C119.702 12.8397 119.831 13.0362 119.993 13.2021C120.156 13.3681 120.349 13.5004 120.563 13.5913C120.777 13.6822 121.007 13.7299 121.239 13.7321H121.277C121.745 13.7363 122.195 13.555 122.529 13.2279C122.867 12.8896 123.056 12.4312 123.056 11.9533C123.055 11.4755 122.865 11.0174 122.527 10.6797ZM122.312 12.9971C122.178 13.137 122.016 13.2476 121.837 13.3223C121.658 13.397 121.465 13.4342 121.271 13.4317C120.98 13.4304 120.695 13.343 120.453 13.1805C120.211 13.0181 120.023 12.7879 119.911 12.5186C119.799 12.2493 119.77 11.953 119.826 11.6669C119.881 11.3811 120.02 11.1178 120.225 10.9105C120.356 10.7729 120.512 10.6629 120.685 10.5859C120.858 10.509 121.045 10.4667 121.234 10.4619C121.423 10.4575 121.612 10.4899 121.788 10.5583C121.965 10.6263 122.127 10.7287 122.264 10.8593L122.315 10.9105C122.453 11.0447 122.563 11.2059 122.637 11.3839C122.711 11.5616 122.749 11.753 122.747 11.9457C122.749 12.1412 122.712 12.3352 122.637 12.5157C122.562 12.6966 122.452 12.8604 122.312 12.9971Z" fill="white"/>
<path d="M20.3575 16.9721C20.3181 16.8564 20.243 16.7559 20.1435 16.6847C20.044 16.6138 19.9248 16.5754 19.8024 16.5754C19.6628 16.5706 19.5264 16.6173 19.4187 16.7067C18.0293 18.1873 14.4218 19.5903 10.1946 19.5903C5.96749 19.5903 2.31419 18.1631 0.943608 16.7013C0.899416 16.6434 0.843779 16.5951 0.779876 16.5592C0.702619 16.5007 0.60883 16.4679 0.511863 16.4654C0.445734 16.4631 0.379605 16.4743 0.317927 16.4981C0.256249 16.522 0.199975 16.5579 0.152286 16.604C0.104915 16.6501 0.0670817 16.7051 0.0413296 16.7661C0.0152596 16.8272 0.00222669 16.8927 0.00222669 16.9588C-0.000634651 16.9702 -0.000634651 16.9823 0.00222669 16.9938C0.000637057 16.9963 0 16.9988 0 17.0017C0 17.0046 0.000637057 17.0074 0.00222669 17.0097V26.8965C0.00222669 27.8055 0.363391 28.6776 1.00624 29.3204C1.64909 29.9633 2.52084 30.3244 3.43011 30.3244H12.4907C17.2542 30.3244 21.2614 26.5532 21.2909 21.7897C21.3024 20.5717 21.1215 19.3595 20.7546 18.1981L20.3575 16.9721Z" fill="white"/>
<path d="M21.2916 9.05419C21.3043 10.2725 21.1235 11.4847 20.7553 12.6458L20.3582 13.8717C20.3359 13.9353 20.3032 13.9951 20.2619 14.0485C20.1617 14.1719 20.0174 14.2507 19.8594 14.2679C19.7017 14.285 19.5434 14.2389 19.4197 14.1398C18.03 12.6592 14.4225 11.2482 10.1953 11.2482C5.96819 11.2482 2.31489 12.6808 0.944311 14.1426C0.899801 14.2011 0.844164 14.2501 0.780579 14.2873C0.702369 14.3439 0.608897 14.3757 0.512566 14.3785C0.446437 14.3811 0.380626 14.3702 0.318948 14.3467C0.25727 14.3232 0.20068 14.2873 0.153309 14.2415C0.10562 14.1957 0.0677847 14.1407 0.0420326 14.08C0.0159626 14.0193 0.00292969 13.9538 0.00292969 13.8876V3.94733C0.00292969 3.49695 0.091631 3.05097 0.263947 2.63493C0.436582 2.21886 0.689333 1.84084 1.0079 1.5225C1.32646 1.20416 1.70447 0.951726 2.12096 0.7796C2.53712 0.607506 2.98317 0.519091 3.43336 0.519441H12.4914C17.2549 0.519441 21.2621 4.29066 21.2916 9.05419Z" fill="white"/>
</svg>
