<svg width="64" height="64" viewBox="0 0 64 64" fill="none" xmlns="http://www.w3.org/2000/svg">
<rect width="64" height="64" rx="32" fill="white"/>
<path d="M44.765 24.1136C44.7803 25.5748 44.5633 27.0288 44.1217 28.4214L43.6455 29.8918C43.6188 29.968 43.5795 30.0397 43.5299 30.1038C43.4098 30.2517 43.2367 30.3463 43.0472 30.3669C42.8581 30.3875 42.6681 30.3322 42.5198 30.2132C40.8531 28.4374 36.5262 26.7451 31.4562 26.7451C26.3862 26.7451 22.0044 28.4633 20.3605 30.2167C20.3071 30.2868 20.2404 30.3455 20.1642 30.3902C20.0703 30.458 19.9582 30.4962 19.8427 30.4996C19.7634 30.5026 19.6845 30.4897 19.6105 30.4615C19.5365 30.4332 19.4686 30.3902 19.4118 30.3352C19.3546 30.2803 19.3092 30.2144 19.2783 30.1415C19.2471 30.0687 19.2314 29.9901 19.2314 29.9108V17.9885C19.2314 17.4483 19.3378 16.9134 19.5445 16.4144C19.7516 15.9153 20.0547 15.462 20.4368 15.0801C20.8189 14.6983 21.2723 14.3956 21.7718 14.1891C22.2709 13.9827 22.8059 13.8767 23.3459 13.8771H34.2101C39.9234 13.8771 44.7296 18.4003 44.765 24.1136Z" fill="#296CF0"/>
<path d="M43.6481 34.1082C43.6009 33.9694 43.5109 33.8489 43.3915 33.7634C43.2722 33.6784 43.1292 33.6323 42.9824 33.6323C42.815 33.6265 42.6514 33.6826 42.5221 33.7898C40.8557 35.5656 36.5289 37.2483 31.4589 37.2483C26.3888 37.2483 22.0071 35.5366 20.3632 33.7833C20.3102 33.7139 20.2435 33.6559 20.1668 33.6128C20.0742 33.5427 19.9617 33.5034 19.8454 33.5003C19.7661 33.4977 19.6867 33.511 19.6128 33.5396C19.5388 33.5682 19.4713 33.6113 19.4141 33.6666C19.3573 33.7219 19.3119 33.7878 19.281 33.8611C19.2497 33.9343 19.2341 34.0128 19.2341 34.0921C19.2307 34.1059 19.2307 34.1204 19.2341 34.1341C19.2322 34.1371 19.2314 34.1402 19.2314 34.1436C19.2314 34.1471 19.2322 34.1505 19.2341 34.1532V46.0115C19.2341 47.1016 19.6673 48.1476 20.4383 48.9186C21.2094 49.6897 22.2549 50.1228 23.3455 50.1228H34.2128C39.9261 50.1228 44.7322 45.5996 44.7677 39.8863C44.7814 38.4255 44.5645 36.9715 44.1244 35.5785L43.6481 34.1082Z" fill="#296CF0"/>
</svg>
