<svg width="16" height="16" viewBox="0 0 16 16" fill="none" xmlns="http://www.w3.org/2000/svg">
<path d="M7.16669 3.09336L4.21335 1.63336C2.62002 0.853363 1.31335 1.6467 1.31335 3.39336V13.2867C1.31335 14.0467 1.94669 14.6667 2.72002 14.6667H7.66669C8.03335 14.6667 8.33335 14.3667 8.33335 14V4.94003C8.33335 4.24003 7.80669 3.4067 7.16669 3.09336ZM5.98002 9.1667H3.66669C3.39335 9.1667 3.16669 8.94003 3.16669 8.6667C3.16669 8.39336 3.39335 8.1667 3.66669 8.1667H5.98002C6.25335 8.1667 6.48002 8.39336 6.48002 8.6667C6.48002 8.94003 6.26002 9.1667 5.98002 9.1667ZM5.98002 6.50003H3.66669C3.39335 6.50003 3.16669 6.27336 3.16669 6.00003C3.16669 5.7267 3.39335 5.50003 3.66669 5.50003H5.98002C6.25335 5.50003 6.48002 5.7267 6.48002 6.00003C6.48002 6.27336 6.26002 6.50003 5.98002 6.50003Z" fill="white"/>
<path d="M14.6666 12.0267V13C14.6666 13.92 13.92 14.6667 13 14.6667H9.97998C9.61998 14.6667 9.33331 14.38 9.33331 14.02V12.58C10.0466 12.6667 10.8 12.46 11.34 12.0267C11.7933 12.3933 12.3733 12.6133 13.0066 12.6133C13.6266 12.6133 14.2066 12.3933 14.6666 12.0267Z" fill="white"/>
<path d="M14.6666 10.0333V10.04C14.6133 10.9133 13.9 11.6133 13.0066 11.6133C12.08 11.6133 11.34 10.86 11.34 9.94666C11.34 10.9667 10.4 11.7867 9.33331 11.58V7.99999C9.33331 7.57333 9.72665 7.25333 10.1466 7.34666L11.34 7.61333L11.66 7.68666L13.02 7.99333C13.3466 8.05999 13.6466 8.17333 13.9066 8.33999C13.9066 8.34666 13.9133 8.34666 13.9133 8.34666C13.98 8.39333 14.0466 8.44666 14.1066 8.50666C14.4133 8.81333 14.6133 9.25999 14.66 9.91333C14.66 9.95333 14.6666 9.99333 14.6666 10.0333Z" fill="white"/>
</svg>
