<svg width="68" height="68" viewBox="0 0 68 68" fill="none" xmlns="http://www.w3.org/2000/svg">
<path d="M49.413 57.4507H49.0927V53.2255C49.0927 52.0451 48.1358 51.0882 46.9554 51.0882H46.6583C42.2923 44.65 44.318 27.688 44.318 27.688H43.7618C45.3615 27.688 46.6583 26.3912 46.6583 24.7915C46.6583 23.1918 45.3615 21.8949 43.7618 21.8949H40.976C42.1564 21.8949 43.1133 20.938 43.1133 19.7576V16.2487H43.714C44.8944 16.2487 45.8513 15.2918 45.8513 14.1114V2H41.0851V6.2177H36.098V2H31.8947V6.2177H26.9076V2H22.1484V14.1114C22.1484 15.2918 23.1053 16.2487 24.2857 16.2487H24.8864V19.7576C24.8864 20.938 25.8433 21.8949 27.0237 21.8949H24.2379C22.6382 21.8949 21.3414 23.1918 21.3414 24.7915C21.3414 26.3912 22.6382 27.688 24.2379 27.688H23.6817C23.6817 27.688 25.7073 44.65 21.3414 51.0882H21.0443C19.8639 51.0882 18.907 52.0451 18.907 53.2255V57.4507H18.5867C16.9298 57.4507 15.5867 58.7938 15.5867 60.4507V66H52.413V60.4507C52.413 58.7938 51.0699 57.4507 49.413 57.4507Z" fill="white"/>
<path d="M52.4116 60.4525V66.0025H15.5916V63.5125C43.6116 54.5025 38.1716 6.2225 38.1716 6.2225H41.0816V2.0025H45.8516V14.1125C45.8516 15.2925 44.8916 16.2525 43.7116 16.2525H43.1116V19.7625C43.1116 20.9425 42.1516 21.8925 40.9716 21.8925H43.7616C45.3616 21.8925 46.6616 23.1925 46.6616 24.7925C46.6616 26.3925 45.3616 27.6925 43.7616 27.6925H44.3216C44.3216 27.6925 42.2916 44.6525 46.6616 51.0925H46.9516C48.1317 51.0925 49.0916 52.0425 49.0916 53.2225V57.4525H49.4116C51.0716 57.4525 52.4116 58.7926 52.4116 60.4525Z" fill="#DEE1E6"/>
<path d="M50.0928 56.5194V53.2256C50.0928 51.591 48.8321 50.26 47.2336 50.1165C43.874 44.4538 44.9602 31.2974 45.25 28.3896C46.6617 27.8035 47.6582 26.4127 47.6582 24.7915C47.6582 22.6863 45.977 20.9763 43.8882 20.9078C44.0297 20.5508 44.1133 20.1646 44.1133 19.7578V17.2082C45.6536 17.0096 46.8516 15.7046 46.8516 14.1113V2C46.8516 1.4478 46.4043 1 45.8516 1H41.085C40.5323 1 40.085 1.4478 40.085 2V5.2178H37.0977V2C37.0977 1.4478 36.6504 1 36.0977 1H31.8946C31.3419 1 30.8946 1.4478 30.8946 2V5.2178H27.9073V2C27.9073 1.4478 27.46 1 26.9073 1H22.1485C21.5958 1 21.1485 1.4478 21.1485 2V14.1113C21.1485 15.7046 22.3464 17.0096 23.8868 17.2082V19.7578C23.8868 20.1645 23.9704 20.5508 24.1119 20.9078C22.0231 20.9763 20.3419 22.6864 20.3419 24.7915C20.3419 26.4128 21.3385 27.8037 22.7504 28.3898C23.0411 31.2975 24.1278 44.4505 20.7665 50.1165C19.1686 50.2596 17.9073 51.5907 17.9073 53.2256V56.5194C16.0256 56.8444 14.587 58.4778 14.587 60.4507V66C14.587 66.5522 15.0343 67 15.587 67H52.4132C52.9659 67 53.4132 66.5522 53.4132 66V60.4507C53.4131 58.4778 51.9745 56.8444 50.0928 56.5194ZM25.8867 19.7578V17.2485H42.1133V19.7578C42.1133 20.3848 41.6026 20.895 40.9756 20.895H27.0234C26.3965 20.895 25.8867 20.3848 25.8867 19.7578ZM23.1484 14.1113V3H25.9072V6.2178C25.9072 6.77 26.3545 7.2178 26.9072 7.2178H31.8945C32.4472 7.2178 32.8945 6.77 32.8945 6.2178V3H35.0976V6.2178C35.0976 6.77 35.5449 7.2178 36.0976 7.2178H41.0849C41.6376 7.2178 42.0849 6.77 42.0849 6.2178V3H44.8515V14.1113C44.8515 14.7383 44.3408 15.2485 43.7138 15.2485C40.495 15.2485 29.4148 15.2485 24.2861 15.2485C23.6592 15.2485 23.1484 14.7383 23.1484 14.1113ZM24.2383 22.895C28.3094 22.895 39.6708 22.895 43.7617 22.895C44.8076 22.895 45.6582 23.7456 45.6582 24.7915C45.6582 25.8374 44.8076 26.688 43.7617 26.688H24.2383C23.1924 26.688 22.3418 25.8374 22.3418 24.7915C22.3418 23.7456 23.1924 22.895 24.2383 22.895ZM24.791 28.688H43.208C42.8642 32.3267 42.0703 43.7778 44.9629 50.0884H23.0371C25.9287 43.7783 25.1357 32.3267 24.791 28.688ZM19.9072 53.2256C19.9072 52.5986 20.417 52.0884 21.0439 52.0884C29.9094 52.0884 37.9411 52.0884 46.955 52.0884C47.582 52.0884 48.0927 52.5987 48.0927 53.2256V56.4507H19.9072V53.2256ZM51.4131 65H16.5869V60.4507C16.5869 59.3477 17.4844 58.4507 18.5869 58.4507C54.9993 58.4507 18.4914 58.4507 49.4131 58.4507C50.5156 58.4507 51.4131 59.3477 51.4131 60.4507V65Z" fill="black"/>
<path d="M39.8672 47.6714C39.4531 47.6714 39.1172 47.3355 39.1172 46.9214V43.9995C39.1172 43.5854 39.4531 43.2495 39.8672 43.2495C40.2813 43.2495 40.6172 43.5854 40.6172 43.9995V46.9214C40.6172 47.3354 40.2813 47.6714 39.8672 47.6714ZM39.8672 40.6274C39.4531 40.6274 39.1172 40.2915 39.1172 39.8774V37.3774C39.1172 36.9633 39.4531 36.6274 39.8672 36.6274C40.2813 36.6274 40.6172 36.9633 40.6172 37.3774V39.8774C40.6172 40.2915 40.2813 40.6274 39.8672 40.6274Z" fill="white"/>
</svg>
