<svg width="331" height="331" viewBox="0 0 331 331" fill="none" xmlns="http://www.w3.org/2000/svg">
<g opacity="0.03">
<g clip-path="url(#clip0_8503_3392)">
<mask id="path-1-inside-1_8503_3392" fill="white">
<path d="M176.555 4.10111C173.832 1.45081 170.177 -0.0221666 166.378 0.000252209C163.499 0.059772 160.7 0.95483 158.32 2.57637C155.941 4.19791 154.084 6.47612 152.975 9.13394C151.866 11.7918 151.553 14.7146 152.075 17.5469C152.596 20.3793 153.929 22.9991 155.911 25.0877C157.294 26.4351 158.933 27.4919 160.73 28.1962C162.528 28.9005 164.448 29.238 166.378 29.1886C170.17 29.2239 173.824 27.7685 176.555 25.1359C177.943 23.7589 179.045 22.1206 179.797 20.3155C180.549 18.5103 180.936 16.5741 180.936 14.6185C180.936 12.6629 180.549 10.7266 179.797 8.92148C179.045 7.11633 177.943 5.47805 176.555 4.10111"/>
</mask>
<path d="M166.378 0.000252209L166.372 -0.99973L166.364 -0.999687L166.357 -0.999534L166.378 0.000252209ZM155.911 25.0877L155.186 25.7761L155.199 25.7903L155.213 25.804L155.911 25.0877ZM166.378 29.1886L166.387 28.1886L166.37 28.1884L166.352 28.1889L166.378 29.1886ZM176.555 25.1359L177.249 25.8558L177.259 25.8459L176.555 25.1359ZM177.252 3.38455C174.341 0.551113 170.433 -1.0237 166.372 -0.99973L166.384 1.00023C169.92 0.979366 173.323 2.35051 175.857 4.81766L177.252 3.38455ZM166.357 -0.999534C163.285 -0.936006 160.297 0.0193268 157.757 1.75001L158.883 3.40273C161.103 1.89033 163.714 1.05555 166.398 1.00004L166.357 -0.999534ZM157.757 1.75001C155.218 3.4807 153.235 5.91224 152.052 8.7489L153.898 9.51897C154.932 7.04 156.664 4.91512 158.883 3.40273L157.757 1.75001ZM152.052 8.7489C150.869 11.5856 150.535 14.705 151.091 17.7279L153.058 17.3659C152.572 14.7241 152.864 11.998 153.898 9.51897L152.052 8.7489ZM151.091 17.7279C151.648 20.7508 153.07 23.547 155.186 25.7761L156.637 24.3993C154.788 22.4513 153.544 20.0077 153.058 17.3659L151.091 17.7279ZM155.213 25.804C156.692 27.2444 158.444 28.3743 160.365 29.1273L161.095 27.2651C159.422 26.6095 157.896 25.6257 156.609 24.3715L155.213 25.804ZM160.365 29.1273C162.287 29.8802 164.34 30.241 166.403 30.1882L166.352 28.1889C164.556 28.2349 162.768 27.9207 161.095 27.2651L160.365 29.1273ZM166.368 30.1885C170.423 30.2263 174.33 28.6703 177.249 25.8557L175.861 24.416C173.319 26.8667 169.917 28.2215 166.387 28.1886L166.368 30.1885ZM177.259 25.8459C178.741 24.3759 179.917 22.6271 180.72 20.7L178.874 19.9309C178.173 21.6142 177.145 23.1419 175.851 24.4258L177.259 25.8459ZM180.72 20.7C181.523 18.773 181.936 16.7061 181.936 14.6185H179.936C179.936 16.4421 179.575 18.2476 178.874 19.9309L180.72 20.7ZM181.936 14.6185C181.936 12.5309 181.523 10.464 180.72 8.53693L178.874 9.30604C179.575 10.9893 179.936 12.7949 179.936 14.6185H181.936ZM180.72 8.53693C179.917 6.6099 178.741 4.86101 177.259 3.3911L175.851 4.81111C177.145 6.09509 178.173 7.62276 178.874 9.30604L180.72 8.53693Z" fill="white" mask="url(#path-1-inside-1_8503_3392)"/>
<mask id="path-3-inside-2_8503_3392" fill="white">
<path d="M164.775 330.203C160.927 330.203 157.236 328.676 154.515 325.957C151.794 323.237 150.266 319.55 150.266 315.704C150.266 311.859 151.794 308.171 154.515 305.452C157.236 302.732 160.927 301.205 164.775 301.205C168.577 301.169 172.242 302.627 174.979 305.265C176.371 306.644 177.476 308.285 178.23 310.094C178.984 311.902 179.373 313.842 179.373 315.801C179.373 317.76 178.984 319.699 178.23 321.508C177.476 323.316 176.371 324.958 174.979 326.337C172.242 328.974 168.577 330.432 164.775 330.397V330.203ZM164.775 305.265C162.695 305.324 160.677 305.981 158.962 307.156C157.246 308.332 155.905 309.976 155.099 311.892C154.293 313.809 154.057 315.916 154.417 317.964C154.778 320.011 155.721 321.911 157.133 323.437C159.185 325.319 161.869 326.363 164.654 326.363C167.439 326.363 170.122 325.319 172.174 323.437C173.224 322.481 174.049 321.305 174.593 319.993C175.136 318.682 175.384 317.267 175.318 315.849C175.376 314.439 175.125 313.034 174.582 311.731C174.039 310.429 173.217 309.261 172.174 308.309C171.204 307.341 170.049 306.576 168.778 306.062C167.507 305.547 166.146 305.292 164.775 305.313"/>
</mask>
<path d="M164.775 330.203H165.775V329.203H164.775V330.203ZM164.775 301.205V302.205L164.784 302.205L164.775 301.205ZM174.979 305.265L175.683 304.554L175.673 304.544L174.979 305.265ZM174.979 326.337L175.673 327.057L175.683 327.047L174.979 326.337ZM164.775 330.397H163.775V331.387L164.765 331.397L164.775 330.397ZM157.133 323.437L156.399 324.116L156.427 324.146L156.457 324.174L157.133 323.437ZM164.654 326.363L164.654 327.363L164.654 326.363ZM172.174 323.437L171.501 322.698L171.498 322.7L172.174 323.437ZM175.318 315.849L174.319 315.808L174.317 315.851L174.319 315.895L175.318 315.849ZM172.174 308.309L171.468 309.017L171.484 309.033L171.5 309.048L172.174 308.309ZM164.775 329.203C161.192 329.203 157.755 327.781 155.222 325.249L153.808 326.664C156.717 329.571 160.662 331.203 164.775 331.203V329.203ZM155.222 325.249C152.689 322.718 151.266 319.284 151.266 315.704H149.266C149.266 319.815 150.9 323.757 153.808 326.664L155.222 325.249ZM151.266 315.704C151.266 312.124 152.689 308.691 155.222 306.159L153.808 304.744C150.9 307.651 149.266 311.593 149.266 315.704H151.266ZM155.222 306.159C157.755 303.627 161.192 302.205 164.775 302.205V300.205C160.662 300.205 156.717 301.838 153.808 304.744L155.222 306.159ZM164.784 302.205C168.325 302.172 171.737 303.529 174.286 305.985L175.673 304.544C172.747 301.725 168.83 300.167 164.765 300.205L164.784 302.205ZM174.275 305.975C175.574 307.261 176.604 308.792 177.307 310.478L179.153 309.709C178.349 307.778 177.169 306.027 175.683 304.554L174.275 305.975ZM177.307 310.478C178.011 312.165 178.373 313.974 178.373 315.801H180.373C180.373 313.709 179.958 311.639 179.153 309.709L177.307 310.478ZM178.373 315.801C178.373 317.628 178.011 319.437 177.307 321.123L179.153 321.893C179.958 319.962 180.373 317.892 180.373 315.801H178.373ZM177.307 321.123C176.604 322.809 175.574 324.34 174.275 325.627L175.683 327.047C177.169 325.575 178.349 323.823 179.153 321.893L177.307 321.123ZM174.286 325.617C171.737 328.072 168.325 329.43 164.784 329.397L164.765 331.397C168.83 331.435 172.747 329.876 175.673 327.057L174.286 325.617ZM165.775 330.397V330.203H163.775V330.397H165.775ZM164.746 304.265C162.475 304.33 160.271 305.048 158.396 306.331L159.527 307.981C161.084 306.915 162.916 306.318 164.803 306.264L164.746 304.265ZM158.396 306.331C156.522 307.615 155.058 309.411 154.177 311.505L156.021 312.28C156.752 310.54 157.969 309.048 159.527 307.981L158.396 306.331ZM154.177 311.505C153.297 313.598 153.038 315.901 153.433 318.137L155.402 317.79C155.075 315.932 155.29 314.019 156.021 312.28L154.177 311.505ZM153.433 318.137C153.827 320.373 154.856 322.449 156.399 324.116L157.867 322.758C156.585 321.373 155.73 319.648 155.402 317.79L153.433 318.137ZM156.457 324.174C158.694 326.225 161.619 327.363 164.654 327.363L164.654 325.363C162.119 325.363 159.677 324.412 157.809 322.7L156.457 324.174ZM164.654 327.363C167.689 327.363 170.614 326.225 172.85 324.174L171.498 322.7C169.631 324.412 167.189 325.363 164.654 325.363L164.654 327.363ZM172.848 324.176C174.006 323.121 174.917 321.823 175.516 320.376L173.669 319.61C173.182 320.786 172.441 321.84 171.501 322.698L172.848 324.176ZM175.516 320.376C176.116 318.929 176.389 317.367 176.317 315.803L174.319 315.895C174.378 317.166 174.156 318.435 173.669 319.61L175.516 320.376ZM176.317 315.89C176.382 314.335 176.104 312.784 175.505 311.346L173.659 312.116C174.146 313.284 174.371 314.544 174.319 315.808L176.317 315.89ZM175.505 311.346C174.906 309.909 173.999 308.62 172.848 307.571L171.5 309.048C172.435 309.901 173.172 310.948 173.659 312.116L175.505 311.346ZM172.881 307.602C171.816 306.539 170.549 305.7 169.154 305.135L168.403 306.989C169.55 307.453 170.592 308.143 171.468 309.017L172.881 307.602ZM169.154 305.135C167.759 304.57 166.265 304.291 164.76 304.313L164.79 306.313C166.027 306.294 167.256 306.524 168.403 306.989L169.154 305.135Z" fill="white" mask="url(#path-3-inside-2_8503_3392)"/>
<path d="M60.8772 90.9479L60.8767 90.9492C58.2372 97.1114 56.8947 103.75 56.9328 110.452V167.396H41.8017L41.8017 110.451L41.8017 110.447C41.734 101.707 43.4652 93.0454 46.888 85.0008L46.8893 84.9978C53.3932 69.4286 65.7859 57.0514 81.3749 50.5555C89.4519 47.2011 98.1132 45.4741 106.861 45.4741C115.608 45.4741 124.269 47.2009 132.345 50.5551C139.319 53.494 145.723 57.6276 151.268 62.768L150.312 63.6247L150.3 63.6348L150.29 63.6455C147.007 66.962 144.098 70.6266 141.613 74.5736C137.188 70.3328 132.03 66.9271 126.386 64.5235L126.384 64.5226C120.204 61.9235 113.566 60.5846 106.861 60.5846C100.155 60.5846 93.5176 61.9235 87.3378 64.5226L87.3354 64.5237C81.4406 67.0396 76.0746 70.6447 71.5193 75.1495L71.5192 75.1494L71.5146 75.1541C67.0206 79.7157 63.4137 85.0711 60.8772 90.9479Z" stroke="white" stroke-opacity="0.5"/>
<path d="M142.192 260.594L141.841 260.238L142.195 260.591C146.52 256.237 149.999 251.122 152.457 245.502L152.46 245.495L152.463 245.488L152.463 245.487L152.464 245.486L152.465 245.483C152.467 245.48 152.469 245.476 152.472 245.471C152.479 245.459 152.489 245.444 152.503 245.424C152.518 245.404 152.534 245.382 152.556 245.355C152.575 245.329 152.6 245.297 152.625 245.264C152.704 245.157 152.834 244.97 152.867 244.718C155.485 238.577 156.817 231.966 156.779 225.291C156.779 225.29 156.779 225.29 156.779 225.289L156.779 168.395H171.957V225.339L171.957 225.343C172.014 234.102 170.266 242.779 166.824 250.836C166.142 252.423 165.12 254.228 164.378 255.538C164.213 255.829 164.061 256.097 163.931 256.331C163.644 256.847 163.372 257.379 163.104 257.902C163.038 258.032 162.972 258.161 162.906 258.289C162.572 258.939 162.239 259.57 161.874 260.162C159.345 264.232 156.375 268.011 153.017 271.431L151.666 272.642L151.665 272.641L151.656 272.65C146.047 277.932 139.555 282.192 132.474 285.236C116.564 291.937 98.6438 292.075 82.6312 285.62C66.6181 279.165 53.8146 266.642 47.0186 250.788C43.5912 242.729 41.8601 234.052 41.9329 225.296H41.9329V225.292V168.395H57.064V225.15C57.0259 231.852 58.3682 238.49 61.0073 244.652C66.0387 256.571 75.5346 266.055 87.4688 271.079L87.469 271.079C93.6488 273.679 100.287 275.017 106.992 275.017C113.697 275.017 120.335 273.679 126.515 271.079L126.516 271.079C132.361 268.611 137.681 265.052 142.192 260.594Z" stroke="white"/>
<path d="M286.951 110.449L286.951 110.45L286.765 167.726H271.585V110.783C271.646 104.079 270.303 97.4356 267.641 91.2804C262.647 79.3526 253.16 69.8617 241.227 64.8524C235.038 62.2547 228.393 60.9166 221.68 60.9166C214.968 60.9166 208.323 62.2547 202.134 64.8524L202.132 64.8533C196.284 67.3377 190.964 70.9124 186.456 75.386L186.454 75.388C182.167 79.6899 178.706 84.7394 176.24 90.2866L176.236 90.2951L176.233 90.3038C176.196 90.3954 176.124 90.5399 176.054 90.6749C176.02 90.7395 175.989 90.7972 175.966 90.8388L175.94 90.8874L175.933 90.9002L175.931 90.9033L175.931 90.904L175.931 90.9041L175.919 90.9253L175.909 90.9477C173.232 97.1007 171.872 103.745 171.917 110.454V167.397H156.786L156.786 110.452L156.786 110.449C156.741 101.713 158.47 93.0586 161.869 85.009C162.745 83.1278 163.724 81.2965 164.802 79.5235L164.807 79.5152L164.812 79.5067C165.116 78.961 165.394 78.3977 165.665 77.848C165.716 77.7456 165.766 77.6437 165.817 77.5425C166.139 76.892 166.46 76.2641 166.823 75.6748C169.352 71.5792 172.338 67.7837 175.724 64.3611L177.03 63.1972L177.03 63.1974L177.04 63.1879C186.269 54.488 197.835 48.6606 210.325 46.4173C222.815 44.174 235.69 45.612 247.375 50.5556L247.378 50.5566C262.967 57.0525 275.36 69.4297 281.863 84.9989L281.864 85.0007C285.266 93.0527 286.996 101.71 286.951 110.449Z" stroke="white"/>
<path d="M177.575 272.975L178.531 272.118L178.543 272.108L178.553 272.098C181.836 268.781 184.746 265.116 187.231 261.169C191.662 265.4 196.819 268.804 202.456 271.219L202.46 271.221C208.648 273.818 215.293 275.156 222.006 275.156C228.718 275.156 235.364 273.818 241.552 271.221C253.485 266.211 262.972 256.721 267.967 244.793C270.643 238.641 272.002 231.999 271.957 225.291V168.395H287.088L287.088 225.104L287.088 225.107C287.135 233.66 285.485 242.137 282.233 250.049C278.981 257.961 274.191 265.152 268.141 271.204C268.141 271.204 268.141 271.204 268.141 271.205L177.575 272.975Z" stroke="white" stroke-opacity="0.5"/>
</g>
</g>
<defs>
<clipPath id="clip0_8503_3392">
<rect width="330.397" height="330.397" fill="white"/>
</clipPath>
</defs>
</svg>
