<svg width="64" height="64" viewBox="0 0 64 64" fill="none" xmlns="http://www.w3.org/2000/svg">
<rect width="64" height="64" rx="32" fill="white"/>
<g clip-path="url(#clip0_8494_2593)">
<path d="M33.0998 16.3972C32.8361 16.1405 32.4821 15.9979 32.1142 16C31.8354 16.0058 31.5642 16.0925 31.3338 16.2495C31.1033 16.4066 30.9235 16.6272 30.8161 16.8847C30.7087 17.1421 30.6784 17.4252 30.7289 17.6995C30.7793 17.9738 30.9084 18.2275 31.1004 18.4298C31.2344 18.5603 31.3931 18.6627 31.5672 18.7309C31.7413 18.7991 31.9272 18.8318 32.1142 18.827C32.4814 18.8304 32.8354 18.6895 33.0998 18.4345C33.2343 18.3011 33.341 18.1425 33.4139 17.9676C33.4867 17.7928 33.5242 17.6053 33.5242 17.4158C33.5242 17.2264 33.4867 17.0389 33.4139 16.8641C33.341 16.6892 33.2343 16.5306 33.0998 16.3972" fill="#FB6E46"/>
<path d="M31.959 47.9813C31.5863 47.9813 31.2288 47.8333 30.9653 47.57C30.7018 47.3066 30.5537 46.9494 30.5537 46.577C30.5537 46.2045 30.7018 45.8473 30.9653 45.584C31.2288 45.3206 31.5863 45.1727 31.959 45.1727C32.3272 45.1692 32.6821 45.3104 32.9473 45.5659C33.0821 45.6995 33.1892 45.8584 33.2622 46.0336C33.3352 46.2087 33.3728 46.3966 33.3728 46.5863C33.3728 46.7761 33.3352 46.9639 33.2622 47.1391C33.1892 47.3142 33.0821 47.4732 32.9473 47.6068C32.6821 47.8622 32.3272 48.0034 31.959 48V47.9813ZM31.959 45.5659C31.7576 45.5717 31.5621 45.6353 31.3959 45.7491C31.2298 45.8629 31.0999 46.0222 31.0219 46.2078C30.9438 46.3934 30.9209 46.5975 30.9558 46.7958C30.9908 46.9941 31.0821 47.1781 31.2189 47.3259C31.4176 47.5082 31.6775 47.6093 31.9472 47.6093C32.217 47.6093 32.4769 47.5082 32.6756 47.3259C32.7773 47.2333 32.8572 47.1194 32.9098 46.9924C32.9625 46.8654 32.9865 46.7283 32.9801 46.591C32.9858 46.4545 32.9614 46.3183 32.9088 46.1922C32.8562 46.066 32.7766 45.9529 32.6756 45.8608C32.5817 45.767 32.4698 45.6929 32.3467 45.6431C32.2236 45.5932 32.0918 45.5686 31.959 45.5706" fill="#3ABE88"/>
<path d="M21.5625 26.6975C21.5589 26.0549 21.6875 25.4185 21.9406 24.8277C22.1839 24.264 22.5298 23.7504 22.9609 23.3128C23.3978 22.8808 23.9124 22.5351 24.4777 22.2938C25.0703 22.0446 25.7068 21.9162 26.3498 21.9162C26.9928 21.9162 27.6293 22.0446 28.2219 22.2938C28.7814 22.5321 29.2913 22.8732 29.725 23.2992C29.9706 22.9005 30.2609 22.5312 30.5904 22.1983L30.7225 22.08C30.1724 21.5614 29.5337 21.1454 28.8368 20.8517C28.0486 20.5244 27.2034 20.3558 26.3498 20.3558C25.4962 20.3558 24.651 20.5244 23.8628 20.8517C22.3412 21.4858 21.1315 22.6939 20.4967 24.2136C20.1626 24.9988 19.9936 25.8443 20.0002 26.6975V32.2612H21.5625V26.6975Z" fill="#FB6E46"/>
<path d="M31.1361 37.8202C31.1398 38.4628 31.0111 39.0992 30.758 39.69C30.758 39.7173 30.7307 39.7355 30.7216 39.7582C30.4859 40.297 30.1523 40.7875 29.7377 41.2049V41.2049C29.3052 41.6324 28.7951 41.9736 28.2346 42.2102C27.642 42.4595 27.0055 42.5879 26.3625 42.5879C25.7195 42.5879 25.083 42.4595 24.4904 42.2102C23.3462 41.7285 22.4357 40.8192 21.9533 39.6763C21.7003 39.0856 21.5716 38.4491 21.5753 37.8066V32.2611H20.0129V37.8202C20.0058 38.6749 20.1748 39.522 20.5094 40.3087C21.1727 41.856 22.4222 43.0782 23.985 43.7081C25.5478 44.338 27.2967 44.3245 28.8495 43.6705C29.5406 43.3735 30.1742 42.9577 30.7216 42.4423L30.8537 42.324C31.1818 41.9899 31.472 41.6207 31.7191 41.2231C31.792 41.1048 31.8512 40.9729 31.9195 40.85C31.9879 40.7272 32.12 40.5043 32.2019 40.3132C32.538 39.5268 32.7085 38.6798 32.703 37.8248V32.2611H31.1361V37.8202Z" fill="#FEA200"/>
<path d="M43.8405 26.6976C43.845 25.8446 43.6761 24.9996 43.344 24.2137C42.7092 22.694 41.4996 21.4859 39.9779 20.8518C38.8375 20.3694 37.5811 20.229 36.3621 20.448C35.1431 20.6669 34.0143 21.2356 33.1137 22.0847L32.9861 22.1984C32.6551 22.5328 32.3632 22.9036 32.1161 23.3039C32.0432 23.4221 31.9886 23.5541 31.9203 23.6769C31.8147 23.8504 31.719 24.0296 31.6333 24.2137C31.3013 24.9996 31.1324 25.8446 31.1368 26.6976V32.2613H32.6992V26.6976C32.6948 26.0545 32.8251 25.4176 33.0818 24.8279C33.0818 24.8279 33.1045 24.7869 33.1137 24.7642C33.3501 24.2323 33.682 23.7482 34.093 23.3357V23.3357C34.5252 22.9068 35.0354 22.564 35.5961 22.3258C36.1895 22.0767 36.8267 21.9484 37.4704 21.9484C38.1142 21.9484 38.7514 22.0767 39.3448 22.3258C40.489 22.8061 41.3985 23.7161 41.8774 24.8597C42.1326 25.4498 42.2613 26.0867 42.2554 26.7294V32.2931H43.8223L43.8405 26.6976Z" fill="#1E61D8"/>
<path d="M42.2915 32.2611V37.8203C42.2958 38.4633 42.1655 39.1002 41.9089 39.69C41.43 40.8336 40.5205 41.7436 39.3763 42.2239C38.7829 42.473 38.1457 42.6013 37.502 42.6013C36.8583 42.6013 36.221 42.473 35.6276 42.2239C35.0686 41.9844 34.559 41.6436 34.1245 41.2185C33.8789 41.6172 33.5885 41.9865 33.259 42.3194L33.127 42.4377C33.6776 42.9556 34.3162 43.3715 35.0127 43.666C36.1818 44.1592 37.4717 44.2928 38.7172 44.0497C39.9628 43.8066 41.1074 43.1978 42.0045 42.3012C42.5951 41.7105 43.0625 41.0087 43.38 40.2365C43.6974 39.4642 43.8584 38.6368 43.8538 37.8021V32.2611H42.2915Z" fill="#3ABE88"/>
</g>
<defs>
<clipPath id="clip0_8494_2593">
<rect width="32" height="32" fill="white" transform="translate(16 16)"/>
</clipPath>
</defs>
</svg>
