<svg width="201" height="44" viewBox="0 0 201 44" fill="none" xmlns="http://www.w3.org/2000/svg">
<g clip-path="url(#clip0_8503_3393)">
<path d="M22.8267 1.1329C22.4747 0.790238 22.0021 0.599795 21.5109 0.602694C21.1387 0.610389 20.7768 0.726112 20.4691 0.935763C20.1615 1.14541 19.9214 1.43997 19.778 1.7836C19.6347 2.12723 19.5942 2.50513 19.6616 2.87133C19.729 3.23753 19.9014 3.57625 20.1577 3.84628C20.3365 4.02048 20.5483 4.15713 20.7807 4.24819C21.0131 4.33924 21.2614 4.38287 21.5109 4.37649C22.0012 4.38106 22.4737 4.19289 22.8267 3.85251C23.0062 3.67448 23.1487 3.46267 23.2459 3.22928C23.3431 2.99588 23.3932 2.74555 23.3932 2.4927C23.3932 2.23986 23.3431 1.98952 23.2459 1.75613C23.1487 1.52274 23.0062 1.31093 22.8267 1.1329" fill="white"/>
<path d="M21.3036 43.2951C20.8061 43.2951 20.329 43.0976 19.9772 42.746C19.6254 42.3944 19.4277 41.9176 19.4277 41.4204C19.4277 40.9232 19.6254 40.4464 19.9772 40.0949C20.329 39.7433 20.8061 39.5458 21.3036 39.5458C21.7953 39.5412 22.269 39.7297 22.623 40.0707C22.803 40.249 22.9458 40.4612 23.0433 40.695C23.1408 40.9288 23.191 41.1796 23.191 41.4329C23.191 41.6862 23.1408 41.937 23.0433 42.1708C22.9458 42.4046 22.803 42.6168 22.623 42.7952C22.269 43.1362 21.7953 43.3246 21.3036 43.3201V43.2951ZM21.3036 40.0707C21.0348 40.0784 20.7739 40.1633 20.552 40.3153C20.3302 40.4673 20.1569 40.6798 20.0527 40.9276C19.9485 41.1754 19.9179 41.4479 19.9645 41.7126C20.0112 41.9773 20.133 42.2229 20.3157 42.4202C20.581 42.6635 20.9279 42.7985 21.288 42.7985C21.6481 42.7985 21.995 42.6635 22.2603 42.4202C22.396 42.2966 22.5027 42.1445 22.573 41.975C22.6432 41.8054 22.6753 41.6225 22.6668 41.4392C22.6743 41.2569 22.6419 41.0752 22.5717 40.9068C22.5014 40.7384 22.3952 40.5874 22.2603 40.4644C22.1349 40.3391 21.9856 40.2403 21.8213 40.1738C21.6569 40.1072 21.4809 40.0743 21.3036 40.0769" fill="white"/>
<path d="M7.42571 14.883C7.4208 14.0253 7.59259 13.1757 7.93039 12.3871C8.25516 11.6346 8.71699 10.9489 9.29241 10.3648C9.87558 9.78813 10.5626 9.32659 11.3172 9.00449C12.1083 8.67179 12.958 8.5004 13.8163 8.5004C14.6746 8.5004 15.5243 8.67179 16.3154 9.00449C17.0624 9.32262 17.743 9.77787 18.3219 10.3466C18.6498 9.81442 19.0374 9.32134 19.4772 8.87697L19.6536 8.71907C18.9192 8.02681 18.0666 7.4715 17.1362 7.07941C16.0841 6.64242 14.9558 6.41745 13.8163 6.41745C12.6768 6.41745 11.5485 6.64242 10.4963 7.07941C8.46511 7.92582 6.85034 9.53855 6.00286 11.5672C5.55686 12.6155 5.33127 13.7441 5.34009 14.883V22.3101H7.42571V14.883Z" fill="white" fill-opacity="0.5"/>
<path d="M20.2053 29.731C20.2102 30.5887 20.0384 31.4383 19.7006 32.2269C19.7006 32.2634 19.6641 32.2877 19.652 32.318C19.3374 33.0373 18.8921 33.692 18.3386 34.2492V34.2492C17.7612 34.8199 17.0802 35.2753 16.332 35.5913C15.541 35.924 14.6913 36.0954 13.8329 36.0954C12.9746 36.0954 12.1249 35.924 11.3339 35.5913C9.80635 34.9482 8.59097 33.7343 7.94703 32.2087C7.60923 31.4201 7.43744 30.5705 7.44235 29.7128V22.31H5.35673V29.731C5.34725 30.8719 5.57285 32.0027 6.0195 33.0528C6.9049 35.1184 8.57297 36.7499 10.6591 37.5908C12.7453 38.4317 15.08 38.4137 17.1529 37.5407C18.0754 37.1441 18.9212 36.5891 19.652 35.901L19.8283 35.7431C20.2663 35.2971 20.6537 34.8043 20.9836 34.2735C21.0809 34.1156 21.1599 33.9395 21.2511 33.7755C21.3424 33.6115 21.5187 33.314 21.6281 33.0589C22.0767 32.0091 22.3044 30.8784 22.297 29.7371V22.31H20.2053V29.731Z" fill="white"/>
<path d="M37.1647 14.8832C37.1706 13.7445 36.9451 12.6165 36.5019 11.5674C35.6544 9.53867 34.0396 7.92593 32.0084 7.07952C30.486 6.43547 28.8088 6.24813 27.1815 6.54038C25.5543 6.83264 24.0475 7.59184 22.8451 8.72526L22.6749 8.87709C22.233 9.32345 21.8434 9.81853 21.5135 10.3528C21.4162 10.5107 21.3432 10.6868 21.252 10.8508C21.1112 11.0824 20.9833 11.3216 20.8689 11.5674C20.4257 12.6165 20.2003 13.7445 20.2062 14.8832V22.3103H22.2918V14.8832C22.286 14.0247 22.46 13.1745 22.8025 12.3872C22.8025 12.3872 22.8329 12.3326 22.8451 12.3022C23.1607 11.5922 23.6038 10.9459 24.1524 10.3953V10.3953C24.7294 9.82269 25.4104 9.36513 26.159 9.04712C26.9511 8.71458 27.8018 8.54329 28.6611 8.54329C29.5204 8.54329 30.371 8.71458 31.1632 9.04712C32.6906 9.68827 33.9048 10.903 34.544 12.4297C34.8846 13.2174 35.0565 14.0676 35.0486 14.9256V22.3528H37.1403L37.1647 14.8832Z" fill="white"/>
<path d="M35.0972 22.31V29.731C35.103 30.5894 34.929 31.4396 34.5865 32.2269C33.9473 33.7536 32.7331 34.9684 31.2057 35.6095C30.4135 35.942 29.5629 36.1133 28.7036 36.1133C27.8443 36.1133 26.9936 35.942 26.2015 35.6095C25.4553 35.2899 24.7749 34.8348 24.1949 34.2674C23.8671 34.7996 23.4794 35.2927 23.0396 35.737L22.8633 35.8949C23.5984 36.5863 24.4508 37.1415 25.3806 37.5346C26.9413 38.193 28.6631 38.3713 30.3259 38.0468C31.9886 37.7222 33.5165 36.9096 34.7141 35.7127C35.5025 34.9241 36.1265 33.9873 36.5502 32.9564C36.974 31.9255 37.189 30.821 37.1828 29.7067V22.31H35.0972Z" fill="white" fill-opacity="0.5"/>
</g>
<path d="M62.7563 32.7137C60.3578 32.7137 58.4559 32.0391 57.0505 30.6899C55.6451 29.322 54.9424 27.3545 54.9424 24.7873V20.1777C54.9424 17.6105 55.6451 15.6523 57.0505 14.3032C58.4559 12.9353 60.3578 12.2513 62.7563 12.2513C65.1174 12.2513 66.935 12.9072 68.2092 14.2189C69.5021 15.5305 70.1486 17.3201 70.1486 19.5874V19.7561H67.1411V19.5031C67.1411 18.1727 66.7757 17.0858 66.0449 16.2426C65.3329 15.3994 64.2367 14.9778 62.7563 14.9778C61.2572 14.9778 60.0861 15.4369 59.2429 16.355C58.3996 17.2545 57.978 18.51 57.978 20.1215V24.8435C57.978 26.4363 58.3996 27.6918 59.2429 28.61C60.0861 29.5281 61.2572 29.9872 62.7563 29.9872C64.2367 29.9872 65.3329 29.5656 66.0449 28.7224C66.7757 27.8604 67.1411 26.7736 67.1411 25.4619V24.9841H70.1486V25.3776C70.1486 27.6449 69.5021 29.4344 68.2092 30.7461C66.935 32.0578 65.1174 32.7137 62.7563 32.7137ZM73.0319 32.3202V12.6448H75.9269V20.4306H76.3767C76.564 20.0746 76.8264 19.7279 77.1637 19.3907C77.5197 19.0534 77.9788 18.7817 78.5409 18.5755C79.1218 18.3507 79.8526 18.2382 80.7333 18.2382C81.7827 18.2382 82.7102 18.4725 83.516 18.9409C84.3405 19.4094 84.987 20.0746 85.4554 20.9366C85.9239 21.7798 86.1581 22.801 86.1581 24.0003V32.3202H83.263V24.2252C83.263 23.0259 82.9632 22.1452 82.3636 21.583C81.764 21.0022 80.9395 20.7117 79.8901 20.7117C78.6909 20.7117 77.7258 21.1052 76.995 21.8922C76.283 22.6792 75.9269 23.8223 75.9269 25.3214V32.3202H73.0319ZM96.2553 32.7137C94.8687 32.7137 93.632 32.4326 92.5451 31.8704C91.477 31.2895 90.6338 30.4651 90.0154 29.397C89.3971 28.3289 89.0879 27.064 89.0879 25.6024V25.1808C89.0879 23.7192 89.3971 22.4638 90.0154 21.4144C90.6338 20.3463 91.477 19.5218 92.5451 18.9409C93.632 18.36 94.8687 18.0696 96.2553 18.0696C97.642 18.0696 98.8787 18.36 99.9655 18.9409C101.052 19.5218 101.905 20.3463 102.523 21.4144C103.142 22.4638 103.451 23.7192 103.451 25.1808V25.6024C103.451 27.064 103.142 28.3289 102.523 29.397C101.905 30.4651 101.052 31.2895 99.9655 31.8704C98.8787 32.4326 97.642 32.7137 96.2553 32.7137ZM96.2553 30.1278C97.5295 30.1278 98.5602 29.7249 99.3472 28.9191C100.153 28.0946 100.556 26.961 100.556 25.5181V25.2651C100.556 23.8223 100.162 22.698 99.3753 21.8922C98.5883 21.0677 97.5483 20.6555 96.2553 20.6555C94.9999 20.6555 93.9692 21.0677 93.1635 21.8922C92.3765 22.698 91.983 23.8223 91.983 25.2651V25.5181C91.983 26.961 92.3765 28.0946 93.1635 28.9191C93.9692 29.7249 94.9999 30.1278 96.2553 30.1278ZM112.986 32.7137C111.599 32.7137 110.363 32.4326 109.276 31.8704C108.208 31.2895 107.364 30.4651 106.746 29.397C106.128 28.3289 105.819 27.064 105.819 25.6024V25.1808C105.819 23.7192 106.128 22.4638 106.746 21.4144C107.364 20.3463 108.208 19.5218 109.276 18.9409C110.363 18.36 111.599 18.0696 112.986 18.0696C114.373 18.0696 115.609 18.36 116.696 18.9409C117.783 19.5218 118.636 20.3463 119.254 21.4144C119.872 22.4638 120.181 23.7192 120.181 25.1808V25.6024C120.181 27.064 119.872 28.3289 119.254 29.397C118.636 30.4651 117.783 31.2895 116.696 31.8704C115.609 32.4326 114.373 32.7137 112.986 32.7137ZM112.986 30.1278C114.26 30.1278 115.291 29.7249 116.078 28.9191C116.884 28.0946 117.286 26.961 117.286 25.5181V25.2651C117.286 23.8223 116.893 22.698 116.106 21.8922C115.319 21.0677 114.279 20.6555 112.986 20.6555C111.73 20.6555 110.7 21.0677 109.894 21.8922C109.107 22.698 108.714 23.8223 108.714 25.2651V25.5181C108.714 26.961 109.107 28.0946 109.894 28.9191C110.7 29.7249 111.73 30.1278 112.986 30.1278ZM128.901 32.7137C127.14 32.7137 125.678 32.3202 124.517 31.5331C123.355 30.7461 122.643 29.5562 122.38 27.9635L125.079 27.317C125.229 28.0853 125.482 28.6943 125.838 29.144C126.194 29.5937 126.634 29.9123 127.159 30.0997C127.702 30.287 128.283 30.3807 128.901 30.3807C129.82 30.3807 130.522 30.2027 131.01 29.8467C131.515 29.4907 131.768 29.0316 131.768 28.4694C131.768 27.9073 131.534 27.495 131.066 27.2327C130.597 26.9703 129.904 26.7549 128.986 26.5862L128.03 26.4176C127.093 26.2489 126.241 26.0053 125.472 25.6868C124.704 25.3682 124.095 24.9279 123.645 24.3657C123.196 23.8036 122.971 23.0821 122.971 22.2014C122.971 20.8897 123.458 19.8779 124.432 19.1658C125.407 18.435 126.7 18.0696 128.311 18.0696C129.866 18.0696 131.141 18.4256 132.134 19.1377C133.146 19.831 133.802 20.7773 134.101 21.9766L131.403 22.7355C131.234 21.8922 130.878 21.302 130.335 20.9647C129.792 20.6087 129.117 20.4306 128.311 20.4306C127.524 20.4306 126.906 20.5805 126.456 20.8804C126.006 21.1614 125.782 21.5643 125.782 22.089C125.782 22.6511 125.997 23.0634 126.428 23.3257C126.878 23.5881 127.477 23.7848 128.227 23.916L129.211 24.0846C130.204 24.2533 131.113 24.4875 131.937 24.7873C132.762 25.0871 133.408 25.5181 133.876 26.0803C134.364 26.6424 134.607 27.392 134.607 28.3289C134.607 29.7155 134.092 30.793 133.061 31.5613C132.031 32.3295 130.644 32.7137 128.901 32.7137ZM143.781 32.7137C142.376 32.7137 141.149 32.4232 140.099 31.8423C139.05 31.2427 138.225 30.4088 137.626 29.3408C137.045 28.2539 136.754 26.9985 136.754 25.5743V25.237C136.754 23.7942 137.045 22.5387 137.626 21.4706C138.207 20.3838 139.012 19.5499 140.043 18.969C141.092 18.3694 142.301 18.0696 143.669 18.0696C144.999 18.0696 146.161 18.3694 147.154 18.969C148.166 19.5499 148.953 20.3651 149.515 21.4144C150.077 22.4638 150.359 23.6911 150.359 25.0965V26.1927H139.706C139.743 27.4107 140.146 28.3851 140.914 29.1159C141.701 29.828 142.676 30.184 143.838 30.184C144.924 30.184 145.74 29.9404 146.283 29.4532C146.845 28.966 147.276 28.4038 147.576 27.7667L149.965 29.0035C149.703 29.5281 149.319 30.0809 148.813 30.6618C148.325 31.2427 147.679 31.7299 146.873 32.1234C146.067 32.5169 145.037 32.7137 143.781 32.7137ZM139.734 23.9722H147.407C147.332 22.9228 146.958 22.1077 146.283 21.5268C145.608 20.9272 144.728 20.6274 143.641 20.6274C142.554 20.6274 141.664 20.9272 140.971 21.5268C140.296 22.1077 139.884 22.9228 139.734 23.9722ZM153.197 32.3202V12.6448H156.233V29.5656H165.705V32.3202H153.197ZM168.008 32.3202V18.4631H170.903V32.3202H168.008ZM169.47 16.5799C168.908 16.5799 168.43 16.4019 168.036 16.0458C167.661 15.6711 167.474 15.1933 167.474 14.6124C167.474 14.0315 167.661 13.563 168.036 13.207C168.43 12.8322 168.908 12.6448 169.47 12.6448C170.051 12.6448 170.528 12.8322 170.903 13.207C171.278 13.563 171.465 14.0315 171.465 14.6124C171.465 15.1933 171.278 15.6711 170.903 16.0458C170.528 16.4019 170.051 16.5799 169.47 16.5799ZM177.139 32.3202V20.9085H173.26V18.4631H177.139V15.4275C177.139 14.5843 177.392 13.9097 177.898 13.4037C178.404 12.8978 179.079 12.6448 179.922 12.6448H183.491V15.0902H180.849C180.306 15.0902 180.034 15.3713 180.034 15.9334V18.4631H184.026V20.9085H180.034V32.3202H177.139ZM192.203 32.7137C190.798 32.7137 189.571 32.4232 188.521 31.8423C187.472 31.2427 186.647 30.4088 186.048 29.3408C185.467 28.2539 185.176 26.9985 185.176 25.5743V25.237C185.176 23.7942 185.467 22.5387 186.048 21.4706C186.629 20.3838 187.434 19.5499 188.465 18.969C189.514 18.3694 190.723 18.0696 192.091 18.0696C193.421 18.0696 194.583 18.3694 195.576 18.969C196.588 19.5499 197.375 20.3651 197.937 21.4144C198.499 22.4638 198.78 23.6911 198.78 25.0965V26.1927H188.128C188.165 27.4107 188.568 28.3851 189.336 29.1159C190.123 29.828 191.098 30.184 192.26 30.184C193.346 30.184 194.161 29.9404 194.705 29.4532C195.267 28.966 195.698 28.4038 195.998 27.7667L198.387 29.0035C198.125 29.5281 197.741 30.0809 197.235 30.6618C196.747 31.2427 196.101 31.7299 195.295 32.1234C194.489 32.5169 193.459 32.7137 192.203 32.7137ZM188.156 23.9722H195.829C195.754 22.9228 195.379 22.1077 194.705 21.5268C194.03 20.9272 193.15 20.6274 192.063 20.6274C190.976 20.6274 190.086 20.9272 189.393 21.5268C188.718 22.1077 188.306 22.9228 188.156 23.9722Z" fill="white"/>
<defs>
<clipPath id="clip0_8503_3393">
<rect width="42.7175" height="42.7175" fill="white" transform="translate(0 0.602661)"/>
</clipPath>
</defs>
</svg>
