<svg width="32" height="32" viewBox="0 0 32 32" fill="none" xmlns="http://www.w3.org/2000/svg">
<path d="M16 15.3733C12.32 15.3733 9.33334 18.36 9.33334 22.04C9.33334 23.0267 9.54668 23.96 9.94668 24.7867C10.0533 25.0267 10.1733 25.2533 10.3067 25.4667C11.4533 27.4 13.5733 28.7067 16 28.7067C18.4267 28.7067 20.5467 27.4 21.6933 25.4667C21.8267 25.2533 21.9467 25.0267 22.0533 24.7867C22.4533 23.96 22.6667 23.0267 22.6667 22.04C22.6667 18.36 19.68 15.3733 16 15.3733ZM18.76 21.4667L15.92 24.0933C15.7333 24.2667 15.48 24.36 15.24 24.36C14.9867 24.36 14.7333 24.2667 14.5333 24.0667L13.2133 22.7467C12.8267 22.36 12.8267 21.72 13.2133 21.3333C13.6 20.9467 14.24 20.9467 14.6267 21.3333L15.2667 21.9733L17.4 20C17.8133 19.6267 18.44 19.6533 18.8133 20.0533C19.1867 20.4533 19.16 21.08 18.76 21.4667Z" fill="white"/>
<path d="M26.9333 22.76C26.4533 23.1867 25.9333 23.5467 25.3733 23.84C24.8933 24.08 24.4133 23.6133 24.4933 23.08C24.5467 22.6933 24.5733 22.2933 24.5733 21.88C24.5733 17.1067 20.68 13.2133 15.9067 13.2133C11.1333 13.2133 7.24 17.1067 7.24 21.88C7.24 22.4933 7.30667 23.08 7.42667 23.6533C7.52 24.12 7.16 24.5867 6.69334 24.4667C1.42667 23.1867 1.4 15.08 7.29334 14.6667H7.36C3.08 2.75999 21.1333 -2 23.2 10.5067C28.9733 11.24 31.3067 18.9333 26.9333 22.76Z" fill="white"/>
</svg>
