<svg width="24" height="25" viewBox="0 0 24 25" fill="none" xmlns="http://www.w3.org/2000/svg">
<path d="M14.1755 4.53279C14.1766 3.305 11.6731 2.31055 8.58832 2.31055C5.50357 2.31055 3.00224 3.30611 3 4.53279M3 4.53279C3 5.76058 5.50133 6.75504 8.58832 6.75504C11.6753 6.75504 14.1766 5.76058 14.1766 4.53279L14.1766 13.155M3 4.53279V17.8662C3.00112 19.094 5.50245 20.0884 8.58832 20.0884C10.0849 20.0884 11.4361 19.8518 12.4387 19.4706M3.00112 8.97726C3.00112 10.2051 5.50245 11.1995 8.58944 11.1995C11.6764 11.1995 14.1778 10.2051 14.1778 8.97726M12.5057 15.0052C11.4976 15.3996 10.115 15.6441 8.58832 15.6441C5.50245 15.6441 3.00112 14.6496 3.00112 13.4218M20.5272 13.7752C22.4909 15.7274 22.4909 18.8941 20.5272 20.8464C18.5635 22.7986 15.3781 22.7986 13.4144 20.8464C11.4507 18.8941 11.4507 15.7274 13.4144 13.7752C15.3781 11.8229 18.5635 11.8229 20.5272 13.7752Z" stroke="#FF2E42" stroke-width="2" stroke-linecap="round" stroke-linejoin="round"/>
</svg>
