<svg width="33" height="33" viewBox="0 0 33 33" fill="none" xmlns="http://www.w3.org/2000/svg">
<path d="M28.9462 8.79111L16.9462 3.45778C16.7756 3.38195 16.5909 3.34277 16.4042 3.34277C16.2175 3.34277 16.0328 3.38195 15.8622 3.45778L3.8622 8.79111C3.83553 8.80311 3.81687 8.82311 3.7902 8.83778C3.75287 8.85645 3.71287 8.86845 3.6782 8.89111C3.64887 8.91111 3.6262 8.93645 3.5982 8.95778C3.50074 9.03021 3.41525 9.1175 3.34487 9.21645C3.3182 9.25378 3.2902 9.28711 3.2662 9.32445C3.22652 9.39491 3.19263 9.46849 3.16487 9.54445C3.15287 9.58045 3.1342 9.61378 3.12353 9.64978C3.09005 9.76689 3.07256 9.88798 3.07153 10.0098V23.3431C3.07153 23.8711 3.38087 24.3471 3.86353 24.5618L15.8635 29.8951C16.0369 29.9724 16.2209 30.0098 16.4049 30.0098C16.5905 30.005 16.7731 29.9614 16.9409 29.8818L16.9462 29.8951L28.9462 24.5618C29.1821 24.4572 29.3825 24.2863 29.5231 24.07C29.6637 23.8536 29.7384 23.6011 29.7382 23.3431V10.0098C29.7384 9.75177 29.6637 9.49925 29.5231 9.28291C29.3825 9.06656 29.1821 8.89571 28.9462 8.79111ZM16.4049 6.13645L25.1222 10.0098L16.4049 13.8831L7.68887 10.0098L16.4049 6.13645ZM5.7382 22.4778V12.0618L15.0715 16.2098V26.6244L5.7382 22.4778ZM17.7382 26.6244V16.2098L27.0715 12.0618V22.4778L17.7382 26.6244Z" fill="white"/>
</svg>
