<svg width="16" height="16" viewBox="0 0 16 16" fill="none" xmlns="http://www.w3.org/2000/svg">
<path d="M4.44671 9.33331H2.66671C1.93337 9.33331 1.33337 9.93331 1.33337 10.6666V14C1.33337 14.3666 1.63337 14.6666 2.00004 14.6666H4.44671C4.81337 14.6666 5.11337 14.3666 5.11337 14V9.99998C5.11337 9.63331 4.81337 9.33331 4.44671 9.33331Z" fill="white"/>
<path d="M8.88665 6.66669H7.10665C6.37332 6.66669 5.77332 7.26669 5.77332 8.00002V14C5.77332 14.3667 6.07332 14.6667 6.43998 14.6667H9.55332C9.91998 14.6667 10.22 14.3667 10.22 14V8.00002C10.22 7.26669 9.62665 6.66669 8.88665 6.66669Z" fill="white"/>
<path d="M13.3334 11.3333H11.5534C11.1867 11.3333 10.8867 11.6333 10.8867 12V14C10.8867 14.3666 11.1867 14.6666 11.5534 14.6666H14.0001C14.3667 14.6666 14.6667 14.3666 14.6667 14V12.6666C14.6667 11.9333 14.0667 11.3333 13.3334 11.3333Z" fill="white"/>
<path d="M10.0067 3.23336C10.2133 3.02669 10.2933 2.78003 10.2267 2.56669C10.16 2.35336 9.95333 2.20003 9.66 2.15336L9.02 2.04669C8.99333 2.04669 8.93333 2.00003 8.92 1.97336L8.56667 1.26669C8.3 0.726694 7.69333 0.726694 7.42667 1.26669L7.07333 1.97336C7.06667 2.00003 7.00667 2.04669 6.98 2.04669L6.34 2.15336C6.04667 2.20003 5.84667 2.35336 5.77333 2.56669C5.70667 2.78003 5.78667 3.02669 5.99333 3.23336L6.48667 3.73336C6.51333 3.75336 6.53333 3.83336 6.52667 3.86003L6.38667 4.47336C6.28 4.93336 6.45333 5.14003 6.56667 5.22003C6.68 5.30003 6.92667 5.40669 7.33333 5.16669L7.93333 4.81336C7.96 4.79336 8.04667 4.79336 8.07333 4.81336L8.66667 5.16669C8.85333 5.28003 9.00667 5.31336 9.12667 5.31336C9.26667 5.31336 9.36667 5.26003 9.42667 5.22003C9.54 5.14003 9.71333 4.93336 9.60667 4.47336L9.46667 3.86003C9.46 3.82669 9.48 3.75336 9.50667 3.73336L10.0067 3.23336Z" fill="white"/>
</svg>
