<svg width="16" height="16" viewBox="0 0 16 16" fill="none" xmlns="http://www.w3.org/2000/svg">
<path d="M11.333 2.33337H4.66634C2.66634 2.33337 1.33301 3.33337 1.33301 5.66671V10.3334C1.33301 12.6667 2.66634 13.6667 4.66634 13.6667H11.333C13.333 13.6667 14.6663 12.6667 14.6663 10.3334V5.66671C14.6663 3.33337 13.333 2.33337 11.333 2.33337ZM4.16634 9.66671C4.16634 9.94004 3.93967 10.1667 3.66634 10.1667C3.39301 10.1667 3.16634 9.94004 3.16634 9.66671V6.33337C3.16634 6.06004 3.39301 5.83337 3.66634 5.83337C3.93967 5.83337 4.16634 6.06004 4.16634 6.33337V9.66671ZM7.99967 10C6.89301 10 5.99967 9.10671 5.99967 8.00004C5.99967 6.89337 6.89301 6.00004 7.99967 6.00004C9.10634 6.00004 9.99967 6.89337 9.99967 8.00004C9.99967 9.10671 9.10634 10 7.99967 10ZM12.833 9.66671C12.833 9.94004 12.6063 10.1667 12.333 10.1667C12.0597 10.1667 11.833 9.94004 11.833 9.66671V6.33337C11.833 6.06004 12.0597 5.83337 12.333 5.83337C12.6063 5.83337 12.833 6.06004 12.833 6.33337V9.66671Z" fill="white"/>
</svg>
