<svg width="65" height="64" viewBox="0 0 65 64" fill="none" xmlns="http://www.w3.org/2000/svg">
<rect x="0.408203" width="64" height="64" rx="32" fill="white"/>
<path d="M23.5286 15H48.3669C48.1791 15.9024 47.9947 16.8057 47.8027 17.7073C47.0675 21.1572 46.33 24.606 45.5903 28.0536C45.2915 29.455 44.9928 30.8572 44.6906 32.2569C44.6522 32.4275 44.6693 32.4881 44.8613 32.4906C45.5442 32.5009 46.227 32.4906 46.9099 32.4642C47.2439 32.4443 47.579 32.4661 47.9077 32.529C48.5051 32.6553 48.6716 33.086 48.3139 33.5867C48.114 33.8472 47.8539 34.0556 47.556 34.194C46.8825 34.5411 46.1536 34.6896 45.4119 34.7859C45.0464 34.842 44.6772 34.8705 44.3074 34.8712C44.164 34.8712 44.1273 34.9378 44.1034 35.0529C43.8758 36.1333 43.6462 37.216 43.4146 38.301L41.3072 48.231C41.2645 48.4323 41.2218 48.6328 41.1817 48.8358C41.1612 48.9501 41.1202 49.0192 40.9897 48.9953C40.9542 48.9919 40.9184 48.9919 40.883 48.9953H16.5799C16.2863 48.9953 16.2871 48.9953 16.3503 48.695C17.5669 42.97 18.7829 37.245 19.9984 31.52C20.2698 30.2428 20.5421 28.9662 20.8152 27.6902C20.8389 27.6164 20.8341 27.5363 20.8015 27.4659C20.4388 26.7486 20.3236 25.9698 20.2476 25.1834C20.0538 23.1841 20.519 21.2743 21.0644 19.3791C21.2223 18.8332 21.8164 18.4971 22.4643 18.5705C22.7024 18.5969 22.7707 18.5321 22.8151 18.3069C23.031 17.2288 23.2674 16.1549 23.4979 15.0793C23.5057 15.052 23.516 15.0255 23.5286 15ZM31.9788 32.6561C32.0423 32.6493 32.1064 32.6493 32.1699 32.6561C32.9501 32.8335 33.3495 32.3729 33.6654 31.7716C33.7012 31.7025 33.7379 31.6326 33.7686 31.5618C33.988 31.0628 33.9871 31.062 33.5834 30.7088C33.5568 30.6838 33.5283 30.661 33.4981 30.6406C33.3214 30.5331 33.3222 30.418 33.4306 30.2423C33.7664 29.6964 34.2572 29.2627 34.8404 28.9964C35.4236 28.7302 36.0729 28.6433 36.7057 28.747C36.9222 28.7763 37.1263 28.8649 37.2955 29.0029C37.8503 29.4473 38.4239 29.8661 39.0094 30.2704C39.548 30.6525 40.1102 31.0004 40.6926 31.3119C40.9086 31.4245 40.9205 31.4193 40.9009 31.1873C40.8633 30.7489 40.8198 30.3108 40.7703 29.8729C40.6602 28.8886 40.3623 27.9819 39.7324 27.1913C39.2808 26.6249 38.8515 26.0406 38.3906 25.4811C38.3457 25.4329 38.3125 25.3751 38.2934 25.3122C38.2743 25.2492 38.2699 25.1827 38.2805 25.1177C38.3829 24.3108 38.3846 24.3057 37.881 23.6677C36.7714 22.262 35.4535 21.0577 34.1066 19.8857C34.0274 19.8256 33.9349 19.7853 33.8369 19.768C32.9057 19.5391 31.9531 19.4084 30.9946 19.3782C30.4381 19.3526 29.9226 19.414 29.4659 19.7552C29.0929 20.0341 28.6977 20.0802 28.2291 20.0026C26.7166 19.7509 25.1965 19.5445 23.678 19.3296C23.2359 19.2673 22.798 19.159 22.3465 19.1812C21.9581 19.1991 21.7422 19.3339 21.644 19.6537C21.16 21.2334 20.7904 22.8361 20.8442 24.5036C20.8723 26.0425 21.3821 27.5339 22.3021 28.7684C23.3263 30.1484 24.7125 31.0338 26.2975 31.6334C28.125 32.3226 30.0352 32.5691 31.9745 32.6527L31.9788 32.6561ZM31.808 43.1244C31.7184 43.1833 31.6595 43.2225 31.5998 43.26C30.8598 43.724 30.1206 44.1897 29.3763 44.6469C29.2261 44.739 29.2192 44.7868 29.3592 44.9028C30.5542 45.888 31.744 46.8808 32.9364 47.8702C32.9663 47.8958 32.9936 47.9393 33.0568 47.9095C33.0696 47.6894 33.0952 47.4634 33.0918 47.2373C33.0913 46.9822 33.1452 46.7298 33.2497 46.497C33.5817 45.7054 33.8992 44.9079 34.2253 44.1138C34.267 44.0165 34.286 43.9109 34.2808 43.8051C34.2517 43.1022 34.2244 42.3994 34.2031 41.6966C34.1995 41.5694 34.1608 41.4457 34.0913 41.3392C33.3367 40.1195 32.5873 38.8972 31.8302 37.6783C31.7966 37.6299 31.7748 37.5743 31.7665 37.5159C31.7582 37.4576 31.7637 37.3981 31.7824 37.3422C31.9088 36.9064 32.0231 36.4671 32.1486 36.0304C32.1959 35.8595 32.2104 35.6812 32.1913 35.505C32.1469 35.0239 32.1059 34.5428 32.0726 34.0609C32.0633 33.9006 32.018 33.8477 31.8482 33.8468C30.7177 33.8476 29.59 33.7359 28.4818 33.5133C25.5959 32.9163 23.27 31.4731 21.6107 29.0106C21.5774 28.962 21.5612 28.892 21.4724 28.8724C21.463 28.9125 21.4528 28.9517 21.4443 28.991C20.7079 32.4813 19.9719 35.9721 19.2361 39.4635C19.144 39.8994 19.144 39.9045 19.5827 39.9506C19.8661 39.9804 20.1358 40.0708 20.4362 39.9617C21.8915 39.4388 23.3562 38.9424 24.8158 38.4263C24.8882 38.3931 24.9684 38.3807 25.0475 38.3907C25.1265 38.4006 25.2012 38.4325 25.263 38.4826C27.2006 39.8644 29.1421 41.2411 31.0876 42.6126L31.808 43.1244ZM24.9848 39.2375C24.9848 40.2815 24.9848 41.311 24.9848 42.3414C24.9866 42.5172 24.952 42.6914 24.8832 42.8532C24.3199 44.1932 23.7634 45.5366 23.1983 46.8765C23.1662 46.9386 23.1508 47.0079 23.1534 47.0777C23.1561 47.1475 23.1769 47.2155 23.2137 47.2749C23.3332 47.4847 23.439 47.7013 23.5372 47.9223C23.5552 47.9781 23.592 48.0261 23.6413 48.0581C23.6905 48.0901 23.7493 48.1042 23.8077 48.098C25.1666 48.0903 26.5246 48.098 27.8826 48.092C27.9415 48.092 28.0089 48.1193 28.0721 48.0502C27.9474 47.7943 27.8271 47.5291 27.6922 47.2732C27.6231 47.15 27.6024 47.0056 27.6342 46.868C27.9671 45.2423 28.2914 43.614 28.6294 41.9891C28.6636 41.8279 28.6294 41.7477 28.5014 41.6582C27.3872 40.8831 26.2751 40.1052 25.1649 39.3245C25.1158 39.2724 25.0493 39.2402 24.978 39.2341L24.9848 39.2375ZM43.7756 34.3296C43.9318 34.3296 44.088 34.3347 44.2442 34.3296C45.1772 34.2921 46.0981 34.1769 46.9858 33.8699C47.259 33.7884 47.5108 33.6477 47.7233 33.4579C47.824 33.3615 47.9153 33.2481 47.8564 33.1022C47.8044 32.9726 47.6635 32.9632 47.5457 32.9623C47.2615 32.9623 46.9756 32.9547 46.6922 32.9802C45.4934 33.0947 44.2838 33.005 43.115 32.715C41.0357 32.1989 39.1827 31.2189 37.4688 29.9599C37.2464 29.7863 36.9808 29.6769 36.7006 29.6435C35.9008 29.5582 35.206 29.7433 34.6888 30.4052C34.5932 30.5271 34.5906 30.6048 34.7161 30.7157C35.3758 31.3 36.0869 31.8238 36.8406 32.2808C38.9659 33.5756 41.2577 34.3279 43.7688 34.3262L43.7756 34.3296ZM37.4133 33.4067C37.4355 33.5551 37.456 33.6626 37.4671 33.7778C37.5021 34.1445 37.6224 34.5011 37.5857 34.8746C37.473 36.0202 37.2289 37.1461 37.0787 38.2865C36.9626 39.1744 36.844 40.0632 36.8918 40.9605C36.9302 41.6855 37.1658 42.3388 37.7812 42.7696C38.3616 43.1756 38.9992 43.2993 39.6692 42.9538C39.7213 42.9318 39.7651 42.8939 39.7942 42.8454C39.8234 42.797 39.8364 42.7406 39.8314 42.6843C39.8287 42.443 39.805 42.2024 39.7605 41.9652C39.7307 41.8151 39.682 41.7759 39.5198 41.8049C38.9172 41.9132 38.5033 41.4799 38.6211 40.882C38.7243 40.3566 38.9335 39.867 39.1332 39.3748C39.6189 38.1935 40.1959 37.0522 40.7003 35.8777C40.8291 35.5469 40.9082 35.1988 40.935 34.8448C40.9487 34.7288 40.935 34.6691 40.7899 34.6503C40.5511 34.6155 40.3145 34.5665 40.0815 34.5036C39.1471 34.2586 38.2497 33.8897 37.4133 33.4067Z" fill="#DFAC0F"/>
<path d="M31.9463 32.616C30.0006 32.5306 28.0839 32.2856 26.2487 31.5916C24.6583 30.994 23.2675 30.1054 22.2399 28.7242C21.3168 27.4888 20.8052 25.9961 20.7771 24.4559C20.7266 22.7871 21.094 21.1831 21.5796 19.6021C21.678 19.282 21.8947 19.1471 22.2844 19.1292C22.7374 19.107 23.1768 19.2146 23.6204 19.2777C25.1439 19.4928 26.6692 19.6994 28.1867 19.9512C28.656 20.0289 29.0534 19.9828 29.4276 19.7037C29.8858 19.3622 30.4031 19.3008 30.9615 19.3264C31.9237 19.3588 32.8798 19.4918 33.8141 19.7233C33.9125 19.7406 34.0052 19.781 34.0848 19.8411C35.4362 21.014 36.7559 22.2194 37.8718 23.6262C38.3771 24.263 38.3754 24.2681 38.2726 25.0774C38.262 25.1424 38.2664 25.209 38.2856 25.272C38.3047 25.335 38.3381 25.3928 38.3831 25.4411C38.8455 26.0011 39.2763 26.5858 39.7293 27.1526C40.3614 27.944 40.6602 28.8514 40.7707 29.8365C40.8204 30.2741 40.8641 30.7126 40.9017 31.152C40.9214 31.3842 40.9095 31.3893 40.6928 31.2766C40.1084 30.9649 39.5444 30.6167 39.004 30.2343C38.4165 29.8297 37.841 29.4105 37.2843 28.9658C37.1145 28.8276 36.9097 28.739 36.6925 28.7097C36.0576 28.6059 35.4061 28.6928 34.821 28.9593C34.2358 29.2258 33.7434 29.6598 33.4065 30.2061C33.2977 30.382 33.2969 30.4972 33.4742 30.6048C33.5045 30.6252 33.5331 30.6481 33.5598 30.6731C33.9649 31.0231 33.9657 31.0239 33.7456 31.5267C33.7148 31.5976 33.678 31.6676 33.642 31.7367C33.3251 32.3343 32.9243 32.7995 32.1416 32.6219C32.0769 32.6129 32.0114 32.6109 31.9463 32.616ZM34.0223 25.1713L32.8653 23.8772C32.7685 23.7688 32.7154 23.8772 32.6589 23.9233C32.0731 24.432 31.4884 24.9425 30.9049 25.4547C30.8553 25.4983 30.7816 25.5273 30.7713 25.6212L34.0223 25.1713Z" fill="#162D4C"/>
<path d="M31.8199 43.0671L31.0975 42.5571C29.1426 41.187 27.1888 39.816 25.2362 38.4441C25.1739 38.3941 25.0988 38.3624 25.0192 38.3525C24.9397 38.3425 24.8589 38.3549 24.7861 38.388C23.3173 38.898 21.8434 39.3935 20.3789 39.918C20.074 40.0268 19.8025 39.9367 19.5199 39.9069C19.0785 39.861 19.0785 39.8559 19.1712 39.4216C19.9099 35.9407 20.6489 32.4609 21.3881 28.9822C21.3967 28.9431 21.407 28.904 21.4165 28.8641C21.5024 28.8836 21.5221 28.9533 21.5556 29.0018C23.2254 31.4556 25.566 32.8972 28.4701 33.4888C29.5853 33.7106 30.7201 33.8219 31.8577 33.8211C32.0295 33.8211 32.0742 33.8747 32.0836 34.0345C32.1137 34.5147 32.1583 34.9941 32.203 35.4735C32.2223 35.6491 32.2077 35.8268 32.16 35.997C32.0338 36.4322 31.9187 36.87 31.7916 37.3043C31.7727 37.36 31.7672 37.4192 31.7756 37.4774C31.7839 37.5355 31.8059 37.5909 31.8397 37.6392C32.6015 38.8538 33.3557 40.0718 34.115 41.2873C34.185 41.3934 34.2239 41.5167 34.2275 41.6434C34.249 42.3438 34.2765 43.0442 34.3057 43.7445C34.3109 43.85 34.2918 43.9552 34.2498 44.0522C33.9217 44.8435 33.6022 45.6383 33.2681 46.4271C33.1629 46.6591 33.1087 46.9105 33.1092 47.1648C33.1092 47.3901 33.0868 47.6153 33.074 47.8346C33.0104 47.8644 32.9829 47.821 32.9529 47.7955C31.7503 46.8095 30.5564 45.8202 29.353 44.8385C29.2122 44.7237 29.2191 44.6761 29.3702 44.5835C30.1192 44.1279 30.8631 43.6638 31.6078 43.2014C31.6705 43.1649 31.7297 43.1258 31.8199 43.0671Z" fill="#162D4C"/>
<path d="M24.953 39.2621C25.0243 39.2692 25.0907 39.3009 25.1397 39.3514C26.277 40.1192 27.4141 40.8861 28.5508 41.6522C28.6835 41.7406 28.7166 41.8206 28.6817 41.9788C28.3327 43.5784 28.0046 45.1897 27.6642 46.7943C27.6317 46.9301 27.6529 47.0727 27.7236 47.1942C27.8614 47.4468 27.9854 47.7069 28.1119 47.9612C28.0473 48.0293 27.9784 48.0024 27.9182 48.0024C26.5298 48.0024 25.1415 48.0024 23.7522 48.0083C23.6925 48.0144 23.6324 48.0005 23.582 47.9689C23.5317 47.9373 23.4941 47.89 23.4756 47.8349C23.3753 47.6177 23.2671 47.403 23.1449 47.1959C23.1073 47.1373 23.0861 47.0702 23.0833 47.0013C23.0806 46.9324 23.0964 46.864 23.1292 46.8027C23.7069 45.4802 24.2758 44.1542 24.8517 42.8317C24.9221 42.672 24.9575 42.5 24.9556 42.3265C24.9495 41.3087 24.953 40.2926 24.953 39.2621Z" fill="#162D4C"/>
<path d="M43.7575 34.309C41.2554 34.309 38.9719 33.5454 36.8491 32.2266C36.0981 31.7617 35.3896 31.2288 34.7322 30.6344C34.6072 30.5216 34.6097 30.4427 34.705 30.3186C35.2204 29.6453 35.9127 29.4579 36.7096 29.5438C36.9888 29.5777 37.2535 29.6891 37.475 29.8657C39.1828 31.1463 41.0292 32.1433 43.101 32.6682C44.2644 32.9613 45.4682 33.051 46.6611 32.9337C46.9426 32.9077 47.2275 32.9129 47.5116 32.9155C47.6289 32.9155 47.7667 32.9259 47.8211 33.0578C47.8798 33.2062 47.7888 33.3181 47.6885 33.4196C47.4767 33.6127 47.2258 33.7558 46.9536 33.8387C46.0691 34.1511 45.1515 34.2682 44.2219 34.3064C44.0688 34.3142 43.9132 34.309 43.7575 34.309Z" fill="#162D4C"/>
<path d="M37.4645 33.3204C38.2817 33.8033 39.1585 34.1721 40.0715 34.4169C40.299 34.4796 40.5299 34.5286 40.7631 34.5634C40.9006 34.5821 40.9181 34.6418 40.9047 34.7576C40.8786 35.1112 40.8014 35.4589 40.6756 35.7894C40.1832 36.9608 39.6199 38.1007 39.1459 39.2824C38.9484 39.7739 38.7443 40.263 38.6459 40.7878C38.531 41.3841 38.9351 41.8178 39.5233 41.7096C39.6816 41.6806 39.7291 41.7198 39.7583 41.8698C39.8016 42.1067 39.8248 42.347 39.8274 42.588C39.8323 42.6442 39.8196 42.7005 39.7911 42.7489C39.7627 42.7973 39.72 42.8352 39.6691 42.8572C39.015 43.2022 38.3926 43.0787 37.8261 42.6732C37.2253 42.2429 36.9929 41.5903 36.9579 40.8662C36.9112 39.9699 37.027 39.0822 37.1403 38.1953C37.287 37.0571 37.5253 35.9325 37.6353 34.7875C37.6711 34.4143 37.5519 34.0582 37.5194 33.6918C37.5061 33.5794 37.4861 33.4661 37.4645 33.3204Z" fill="#162D4C"/>
<path d="M33.9758 25.1486L30.8398 25.5631C30.8497 25.4766 30.9224 25.4498 30.9686 25.4097C31.5303 24.9378 32.0937 24.4674 32.6587 23.9986C32.7131 23.9537 32.7643 23.8562 32.8576 23.9561L33.9758 25.1486Z" fill="#DCAA10"/>
</svg>
