<svg width="337" height="340" viewBox="0 0 337 340" fill="none" xmlns="http://www.w3.org/2000/svg">
<path d="M148.107 281.173L148.717 280.772L148.123 280.348L139.713 274.348L139.711 274.347C116.956 258.23 94.2133 242.103 71.4844 225.966C70.6897 225.325 69.7322 224.918 68.719 224.79C67.7083 224.663 66.6822 224.819 65.7551 225.24C60.0307 227.249 54.2979 229.239 48.5638 231.23C37.1828 235.18 25.7968 239.133 14.4621 243.235C12.779 243.841 11.1811 243.898 9.57974 243.753C8.77585 243.68 7.97664 243.558 7.16145 243.429L6.99553 243.403C6.23819 243.283 5.46579 243.161 4.68511 243.078L4.68446 243.077C3.38809 242.941 2.45892 242.839 1.78897 242.686C1.11174 242.531 0.821261 242.348 0.67863 242.146C0.533583 241.94 0.456643 241.593 0.525785 240.885C0.594002 240.187 0.788942 239.257 1.06141 237.968L1.06154 237.967C9.66142 197.015 18.2646 156.075 26.8712 115.149C26.9301 114.878 26.9941 114.616 27.0602 114.345C27.1741 114.427 27.2675 114.527 27.3525 114.639C27.4472 114.764 27.5302 114.903 27.6214 115.062C27.6333 115.083 27.6455 115.104 27.658 115.126C27.7351 115.262 27.8225 115.415 27.9184 115.555C47.4377 144.542 74.8054 161.571 108.731 168.554L108.734 168.555C121.75 171.171 134.995 172.484 148.273 172.475C149.25 172.475 149.699 172.636 149.943 172.879C150.194 173.129 150.349 173.583 150.403 174.514L150.403 174.516C150.754 180.174 151.274 185.822 151.794 191.461L151.795 191.469C152.012 193.471 151.848 195.497 151.311 197.438C150.608 199.889 149.934 202.345 149.262 204.798L149.169 205.136C148.466 207.7 147.763 210.258 147.025 212.806C146.783 213.532 146.713 214.304 146.821 215.061C146.929 215.818 147.21 216.539 147.644 217.169C152.907 225.648 158.138 234.14 163.368 242.632C166.951 248.448 170.534 254.265 174.127 260.078L174.127 260.078L174.133 260.088C174.898 261.26 175.323 262.62 175.362 264.019L175.362 264.02C175.613 272.263 175.933 280.505 176.273 288.745L176.273 288.749C176.33 289.914 176.122 291.076 175.663 292.148L175.66 292.155C174.247 295.599 172.848 299.045 171.45 302.491C169.067 308.366 166.685 314.238 164.234 320.085C162.982 322.878 162.337 325.905 162.342 328.966C162.342 330.834 162.212 332.693 162.083 334.547C162.038 335.186 161.993 335.825 161.954 336.463C161.912 336.461 161.873 336.449 161.826 336.422C161.77 336.391 161.709 336.343 161.627 336.266C161.611 336.252 161.592 336.234 161.571 336.213C161.506 336.15 161.419 336.066 161.348 336.005L161.341 336C155.683 331.311 150.04 326.616 144.399 321.921C136.085 315.004 127.776 308.09 119.43 301.209L119.43 301.209C119.028 300.878 118.763 300.62 118.603 300.409C118.445 300.199 118.432 300.088 118.436 300.036C118.44 299.983 118.472 299.875 118.659 299.689C118.847 299.503 119.143 299.288 119.574 299.021C126.898 294.519 134.18 289.946 141.459 285.375C142.847 284.504 144.235 283.633 145.622 282.762C146.282 282.373 146.912 281.959 147.778 281.389C147.884 281.319 147.993 281.247 148.107 281.173Z" stroke="white" stroke-opacity="0.03"/>
<path d="M68.3919 235.793C68.876 235.941 69.3166 236.213 69.6672 236.587L69.7027 236.625L69.7453 236.654C82.7787 245.775 95.8088 254.885 108.836 263.985L108.838 263.986C109.561 264.486 109.943 264.915 110.126 265.385C110.31 265.857 110.324 266.451 110.133 267.351L110.133 267.352C107.604 279.363 105.171 291.433 102.738 303.5C101.322 310.521 99.9072 317.541 98.4733 324.548C98.0755 326.279 98.3355 328.095 99.2027 329.644C100.4 331.918 101.505 334.242 102.605 336.558C102.896 337.171 103.187 337.782 103.479 338.392C103.297 338.514 103.119 338.554 102.935 338.564C102.788 338.573 102.634 338.562 102.453 338.544C102.431 338.542 102.407 338.54 102.383 338.538C102.228 338.522 102.047 338.505 101.872 338.505C85.9621 338.505 70.0511 338.505 54.1298 338.575L54.1045 338.575L54.0794 338.578C53.5089 338.638 52.9351 338.5 52.4541 338.188C51.9731 337.875 51.6142 337.407 51.4377 336.861L51.4295 336.836L51.4186 336.811C50.2643 334.221 49.017 331.656 47.6065 329.177L47.602 329.169L47.5972 329.162C47.2117 328.539 46.9943 327.826 46.966 327.094C46.9378 326.362 47.0998 325.635 47.4361 324.984L47.4451 324.967L47.4527 324.949C51.0726 316.358 54.6642 307.752 58.2549 299.148C61.2295 292.021 64.2035 284.894 67.1925 277.78C68.0255 275.82 68.4441 273.71 68.422 271.581C68.3707 262.726 68.3784 253.882 68.3863 244.972C68.3889 241.921 68.3916 238.862 68.3919 235.793Z" stroke="white" stroke-opacity="0.03"/>
<path d="M207.071 153.218L207.071 153.217C198.266 147.875 189.96 141.751 182.253 134.921L182.253 134.92C181.546 134.295 181.312 133.857 181.289 133.492C181.265 133.117 181.449 132.66 181.995 131.963L181.995 131.962C187.92 124.376 195.867 122.245 205.116 123.222C208.306 123.603 211.331 124.85 213.864 126.829L213.869 126.833L213.875 126.838C233.994 141.626 255.763 153.151 280.201 159.22L280.202 159.22C293.936 162.611 308.146 163.65 322.228 162.293C325.257 162.018 328.322 162.048 331.411 162.078C331.666 162.08 331.922 162.082 332.177 162.085H332.181C332.869 162.085 333.547 162.117 334.12 162.309C334.67 162.493 335.106 162.816 335.359 163.416C335.643 164.122 335.567 164.724 335.292 165.295C335.005 165.891 334.502 166.451 333.919 167.031C331.485 169.203 328.604 170.812 325.478 171.746L325.468 171.749L325.458 171.752C315.122 175.33 304.385 176.676 293.481 177.115L293.476 177.115C292.207 177.179 290.93 177.167 289.631 177.155C289.105 177.15 288.576 177.145 288.041 177.145C258.727 177.145 231.966 168.378 207.071 153.218Z" stroke="white" stroke-opacity="0.03"/>
<path d="M253.1 181.95L253.1 181.949C250.283 181.538 247.492 180.96 244.744 180.218C234.079 177.422 223.824 173.252 214.236 167.815C214.269 168.019 214.301 168.217 214.332 168.412C214.49 169.4 214.632 170.288 214.739 171.165L214.739 171.172L214.74 171.18C214.878 172.7 215.146 174.195 215.419 175.714C215.527 176.319 215.636 176.927 215.738 177.543C216.092 179.685 216.351 181.877 216.13 184.134L216.13 184.134C215.468 190.871 214.421 197.545 213.321 204.196C213.136 205.312 212.95 206.426 212.764 207.54C211.841 213.075 210.919 218.598 210.188 224.15C210.188 224.15 210.188 224.15 210.188 224.15L210.132 224.579C208.789 234.854 207.452 245.086 208.002 255.408L208.002 255.41C208.417 263.816 211.168 271.303 218.209 276.235C224.893 280.914 232.164 282.307 239.813 278.36L239.83 278.352L239.848 278.344C240.361 278.128 240.792 277.754 241.078 277.277C241.365 276.799 241.493 276.244 241.444 275.689L241.442 275.67L241.442 275.65C241.411 272.852 241.136 270.061 240.621 267.31C240.447 266.437 240.245 266.068 239.999 265.899C239.754 265.73 239.32 265.659 238.381 265.827C238.381 265.827 238.38 265.827 238.38 265.827L238.292 265.335C231.232 266.605 226.382 261.515 227.762 254.515L253.1 181.95ZM253.1 181.95L253.106 181.95C253.889 182.055 254.163 182.255 254.28 182.437C254.414 182.646 254.456 182.995 254.376 183.676L254.374 183.687L254.374 183.697C254.064 187.795 253.149 191.825 251.659 195.655L253.1 181.95ZM232.867 237.706C230.639 243.117 228.39 248.579 227.271 254.419L252.122 195.845C249.518 201.903 246.75 207.888 243.98 213.876C240.463 221.479 236.945 229.085 233.762 236.845L233.3 236.655C233.3 236.655 233.3 236.655 233.3 236.655C233.156 237.005 233.011 237.356 232.867 237.706Z" stroke="white" stroke-opacity="0.03"/>
<mask id="path-5-inside-1_8503_3493" fill="white">
<path fill-rule="evenodd" clip-rule="evenodd" d="M83.332 146.025C104.762 154.155 127.142 157.025 149.862 158.025C150.622 157.965 151.387 157.988 152.142 158.095C161.282 160.175 165.962 154.725 169.662 147.725L169.737 147.579C170.133 146.817 170.534 146.045 170.872 145.265C173.442 139.375 173.432 139.365 168.702 135.265C168.391 134.972 168.056 134.704 167.702 134.465C165.632 133.205 165.642 131.855 166.912 129.795C170.846 123.395 176.595 118.31 183.428 115.189C190.261 112.067 197.869 111.049 205.282 112.265C207.818 112.608 210.21 113.646 212.192 115.265C218.692 120.475 225.412 125.385 232.272 130.125C238.582 134.605 245.169 138.683 251.992 142.335C254.522 143.655 254.662 143.595 254.432 140.875C253.992 135.728 253.482 130.591 252.902 125.465C251.612 113.925 248.122 103.295 240.742 94.0248C238.544 91.266 236.391 88.471 234.238 85.6757C231.208 81.7428 228.178 77.8092 225.022 73.9747C224.496 73.41 224.107 72.7326 223.883 71.9942C223.66 71.2559 223.608 70.4762 223.732 69.7148L223.738 69.6634C224.932 60.2345 224.941 60.1613 219.052 52.7148C206.022 36.2348 190.612 22.1148 174.832 8.37475C173.903 7.67035 172.82 7.19729 171.672 6.99475C160.762 4.28304 149.597 2.72449 138.362 2.34475C131.842 2.04475 125.802 2.76475 120.452 6.76475C116.082 10.0348 111.442 10.5747 105.962 9.66475C91.0644 7.18462 76.1033 5.07911 61.1439 2.97384C58.3097 2.57498 55.4756 2.17613 52.642 1.77475C51.3231 1.58633 50.0075 1.36421 48.6916 1.14205C44.8393 0.491665 40.9851 -0.159045 37.042 0.0347562C32.492 0.244756 29.962 1.82475 28.812 5.57475C23.142 24.0947 18.852 42.8847 19.442 62.4347C19.7705 80.4768 25.7436 97.9624 36.522 112.435C48.522 128.615 64.762 139.025 83.332 146.025ZM160.592 55.6547L174.102 70.8147H174.102L136.142 76.0848C136.142 76.0829 136.142 76.081 136.143 76.0791L136.102 76.0848C136.193 75.2435 136.73 74.8468 137.227 74.4786C137.38 74.3653 137.53 74.2547 137.662 74.1348C144.468 68.1348 151.295 62.1548 158.142 56.1948C158.266 56.0869 158.39 55.9551 158.516 55.8208C158.874 55.4383 159.251 55.0358 159.732 55.1116C159.985 55.135 160.268 55.2903 160.592 55.6547Z"/>
</mask>
<path d="M149.862 158.025L149.818 159.024L149.879 159.026L149.94 159.022L149.862 158.025ZM83.332 146.025L83.6867 145.09L83.6847 145.089L83.332 146.025ZM152.142 158.095L152.364 157.12L152.323 157.11L152.282 157.105L152.142 158.095ZM169.662 147.725L170.546 148.192L170.55 148.185L169.662 147.725ZM169.737 147.579L168.85 147.119L168.85 147.119L169.737 147.579ZM170.872 145.265L169.955 144.865L169.955 144.867L170.872 145.265ZM168.702 135.265L168.017 135.993L168.032 136.007L168.047 136.02L168.702 135.265ZM167.702 134.465L168.262 133.636L168.242 133.623L168.222 133.611L167.702 134.465ZM166.912 129.795L167.763 130.32L167.764 130.318L166.912 129.795ZM205.282 112.265L205.12 113.252L205.134 113.254L205.148 113.256L205.282 112.265ZM212.192 115.265L211.56 116.039L211.567 116.045L212.192 115.265ZM232.272 130.125L232.851 129.309L232.84 129.302L232.272 130.125ZM251.992 142.335L251.52 143.216L251.529 143.221L251.992 142.335ZM254.432 140.875L255.428 140.79L255.428 140.79L254.432 140.875ZM252.902 125.465L251.908 125.576L251.908 125.577L252.902 125.465ZM240.742 94.0248L241.524 93.4019L241.524 93.4017L240.742 94.0248ZM234.238 85.6757L235.03 85.0654L235.03 85.0654L234.238 85.6757ZM225.022 73.9747L225.794 73.3392L225.775 73.3158L225.754 73.2935L225.022 73.9747ZM223.732 69.7148L224.719 69.8754L224.722 69.8579L224.724 69.8403L223.732 69.7148ZM223.738 69.6634L222.746 69.5378L222.746 69.5379L223.738 69.6634ZM219.052 52.7148L218.268 53.335L218.268 53.3351L219.052 52.7148ZM174.832 8.37475L175.489 7.62058L175.463 7.59839L175.436 7.57798L174.832 8.37475ZM171.672 6.99475L171.431 7.96522L171.464 7.97354L171.498 7.97954L171.672 6.99475ZM138.362 2.34475L138.316 3.34377L138.328 3.34418L138.362 2.34475ZM120.452 6.76475L119.853 5.96385L119.853 5.96409L120.452 6.76475ZM105.962 9.66475L105.798 10.6512L105.798 10.6512L105.962 9.66475ZM61.1439 2.97384L61.2832 1.9836L61.2832 1.9836L61.1439 2.97384ZM52.642 1.77475L52.5006 2.7647L52.5018 2.76486L52.642 1.77475ZM48.6916 1.14205L48.5251 2.1281L48.5251 2.1281L48.6916 1.14205ZM37.042 0.0347562L37.0881 1.0337L37.0911 1.03355L37.042 0.0347562ZM28.812 5.57475L27.8559 5.28156L27.8558 5.28201L28.812 5.57475ZM19.442 62.4347L20.4419 62.4165L20.4415 62.4046L19.442 62.4347ZM36.522 112.435L37.3252 111.839L37.324 111.837L36.522 112.435ZM174.102 70.8147V71.8147H176.333L174.849 70.1494L174.102 70.8147ZM160.592 55.6547L159.845 56.3195L159.845 56.32L160.592 55.6547ZM174.102 70.8147V69.8147H174.032L173.964 69.8242L174.102 70.8147ZM136.142 76.0848L135.148 75.977L135.01 77.2516L136.28 77.0753L136.142 76.0848ZM136.143 76.0791L137.136 76.1908L137.28 74.9116L136.005 75.0886L136.143 76.0791ZM136.102 76.0848L135.107 75.9763L134.968 77.2516L136.239 77.0753L136.102 76.0848ZM137.227 74.4786L136.633 73.6747L136.633 73.6747L137.227 74.4786ZM137.662 74.1348L137 73.3846L136.994 73.3899L136.988 73.3954L137.662 74.1348ZM158.142 56.1948L157.488 55.4379L157.485 55.4405L158.142 56.1948ZM158.516 55.8208L159.246 56.5044L159.246 56.5043L158.516 55.8208ZM159.732 55.1116L159.577 56.0995L159.608 56.1044L159.64 56.1074L159.732 55.1116ZM149.906 157.026C127.236 156.028 104.975 153.166 83.6867 145.09L82.9773 146.96C104.549 155.143 127.048 158.022 149.818 159.024L149.906 157.026ZM152.282 157.105C151.454 156.988 150.616 156.962 149.783 157.028L149.94 159.022C150.628 158.968 151.32 158.989 152.003 159.085L152.282 157.105ZM168.778 147.257C166.947 150.722 164.941 153.663 162.362 155.5C159.837 157.299 156.679 158.102 152.364 157.12L151.92 159.07C156.745 160.168 160.497 159.285 163.522 157.129C166.493 155.012 168.678 151.727 170.546 148.192L168.778 147.257ZM168.85 147.119L168.774 147.264L170.55 148.185L170.625 148.04L168.85 147.119ZM169.955 144.867C169.632 145.61 169.248 146.351 168.85 147.119L170.625 148.04C171.018 147.283 171.435 146.48 171.789 145.663L169.955 144.867ZM168.047 136.02C169.246 137.06 170.086 137.789 170.667 138.412C171.241 139.025 171.467 139.436 171.547 139.806C171.629 140.181 171.595 140.663 171.33 141.489C171.063 142.322 170.606 143.374 169.955 144.865L171.789 145.665C172.423 144.211 172.929 143.052 173.235 142.099C173.543 141.138 173.693 140.258 173.502 139.381C173.31 138.5 172.807 137.772 172.128 137.046C171.458 136.329 170.523 135.52 169.357 134.509L168.047 136.02ZM167.142 135.293C167.452 135.503 167.744 135.737 168.017 135.993L169.387 134.536C169.037 134.207 168.661 133.906 168.262 133.636L167.142 135.293ZM166.061 129.27C165.403 130.336 164.919 131.445 165.063 132.558C165.216 133.744 166.029 134.617 167.182 135.319L168.222 133.611C167.305 133.053 167.088 132.62 167.046 132.301C166.996 131.91 167.151 131.313 167.763 130.32L166.061 129.27ZM183.013 114.279C175.999 117.483 170.098 122.702 166.06 129.271L167.764 130.318C171.594 124.088 177.192 119.138 183.844 116.098L183.013 114.279ZM205.444 111.278C197.835 110.03 190.026 111.075 183.013 114.279L183.844 116.098C190.496 113.059 197.903 112.068 205.12 113.252L205.444 111.278ZM212.824 114.49C210.699 112.755 208.135 111.642 205.416 111.274L205.148 113.256C207.501 113.574 209.72 114.538 211.56 116.039L212.824 114.49ZM232.84 129.302C225.995 124.572 219.294 119.676 212.817 114.484L211.567 116.045C218.09 121.273 224.829 126.198 231.704 130.947L232.84 129.302ZM252.464 141.453C245.678 137.821 239.127 133.765 232.851 129.309L231.693 130.94C238.038 135.445 244.66 139.545 251.52 143.216L252.464 141.453ZM253.436 140.959C253.494 141.654 253.521 142.096 253.505 142.381C253.497 142.522 253.482 142.557 253.489 142.536C253.502 142.502 253.565 142.361 253.739 142.258C253.904 142.161 254.039 142.175 254.039 142.175C254.041 142.176 254.025 142.174 253.986 142.163C253.947 142.153 253.894 142.136 253.825 142.11C253.527 141.998 253.099 141.785 252.455 141.448L251.529 143.221C252.15 143.545 252.688 143.819 253.121 143.982C253.338 144.064 253.583 144.139 253.834 144.165C254.09 144.191 254.428 144.174 254.755 143.981C255.09 143.784 255.272 143.485 255.367 143.224C255.458 142.977 255.489 142.718 255.502 142.491C255.527 142.041 255.485 141.456 255.428 140.79L253.436 140.959ZM251.908 125.577C252.487 130.695 252.996 135.822 253.436 140.96L255.428 140.79C254.988 135.634 254.477 130.488 253.896 125.352L251.908 125.577ZM239.96 94.6476C247.193 103.734 250.633 114.171 251.908 125.576L253.896 125.354C252.591 113.679 249.051 102.856 241.524 93.4019L239.96 94.6476ZM233.446 86.2859C235.598 89.0802 237.756 91.8817 239.96 94.6479L241.524 93.4017C239.332 90.6504 237.184 87.8619 235.03 85.0654L233.446 86.2859ZM224.25 74.6103C227.394 78.4302 230.415 82.351 233.446 86.2859L235.03 85.0654C232.002 81.1347 228.963 77.1883 225.794 73.3392L224.25 74.6103ZM222.926 72.284C223.194 73.1683 223.661 73.9796 224.29 74.656L225.754 73.2935C225.332 72.8404 225.02 72.2968 224.841 71.7044L222.926 72.284ZM222.745 69.5541C222.597 70.4661 222.659 71.3998 222.926 72.284L224.841 71.7044C224.661 71.1119 224.62 70.4863 224.719 69.8754L222.745 69.5541ZM222.746 69.5379L222.74 69.5893L224.724 69.8403L224.731 69.7889L222.746 69.5379ZM218.268 53.3351C221.265 57.1251 222.569 58.8248 223.087 60.7106C223.606 62.5996 223.354 64.7354 222.746 69.5378L224.731 69.789C225.316 65.1625 225.666 62.5473 225.016 60.1807C224.364 57.8111 222.728 55.7509 219.836 52.0944L218.268 53.3351ZM174.175 9.12893C189.949 22.8632 205.299 36.9324 218.268 53.335L219.836 52.0945C206.745 35.5371 191.275 21.3663 175.489 7.62058L174.175 9.12893ZM171.498 7.97954C172.49 8.15449 173.425 8.5631 174.228 9.17153L175.436 7.57798C174.381 6.7776 173.15 6.2401 171.846 6.00996L171.498 7.97954ZM138.328 3.34418C149.494 3.72156 160.589 5.27039 171.431 7.96522L171.913 6.02428C160.935 3.29568 149.701 1.72743 138.396 1.34532L138.328 3.34418ZM121.051 7.56565C126.129 3.76883 131.89 3.04803 138.316 3.3437L138.408 1.34581C131.794 1.04148 125.475 1.76068 119.853 5.96385L121.051 7.56565ZM105.798 10.6512C111.454 11.5904 116.397 11.048 121.051 7.56541L119.853 5.96409C115.767 9.02155 111.43 9.5591 106.126 8.67826L105.798 10.6512ZM61.0045 3.96408C75.966 6.06964 90.9147 8.17346 105.798 10.6512L106.126 8.67832C91.2142 6.19579 76.2405 4.08857 61.2832 1.9836L61.0045 3.96408ZM52.5018 2.76486C55.3359 3.16632 58.1704 3.56523 61.0045 3.96408L61.2832 1.9836C58.449 1.58473 55.6153 1.18594 52.7823 0.784631L52.5018 2.76486ZM48.5251 2.1281C49.8389 2.3499 51.167 2.57419 52.5006 2.7647L52.7834 0.784797C51.4792 0.598476 50.176 0.378519 48.8581 0.156004L48.5251 2.1281ZM37.0911 1.03355C40.9079 0.845958 44.6552 1.47474 48.5251 2.1281L48.8581 0.156004C45.0234 -0.491405 41.0623 -1.16405 36.9929 -0.964038L37.0911 1.03355ZM29.768 5.86794C30.2909 4.16303 31.0928 3.04636 32.2038 2.31121C33.3391 1.56 34.9062 1.1344 37.0881 1.03369L36.9959 -0.96418C34.6278 -0.854884 32.6549 -0.385494 31.1002 0.643299C29.5211 1.68814 28.4831 3.23647 27.8559 5.28156L29.768 5.86794ZM20.4415 62.4046C19.8564 43.0165 24.1099 24.3493 29.7682 5.86749L27.8558 5.28201C22.1741 23.8402 17.8476 42.753 18.4424 62.4649L20.4415 62.4046ZM37.324 111.837C26.6704 97.5327 20.7665 80.2496 20.4418 62.4165L18.4422 62.4529C18.7744 80.7039 24.8167 98.3921 35.72 113.032L37.324 111.837ZM83.6847 145.089C65.2429 138.137 49.1819 127.826 37.3252 111.839L35.7188 113.03C47.8621 129.404 64.2811 139.912 82.9793 146.96L83.6847 145.089ZM174.849 70.1494L161.339 54.9894L159.845 56.32L173.355 71.4801L174.849 70.1494ZM174.102 71.8147H174.102V69.8147H174.102V71.8147ZM136.28 77.0753L174.239 71.8052L173.964 69.8242L136.004 75.0943L136.28 77.0753ZM135.149 75.9673C135.148 75.9715 135.148 75.9754 135.148 75.977L137.136 76.1926C137.136 76.1903 137.136 76.1904 137.136 76.1908L135.149 75.9673ZM136.005 75.0886L135.964 75.0943L136.239 77.0753L136.28 77.0696L136.005 75.0886ZM137.096 76.1932C137.136 75.8277 137.31 75.6614 137.822 75.2825L136.633 73.6747C136.149 74.0322 135.251 74.6594 135.107 75.9763L137.096 76.1932ZM137.822 75.2825C137.967 75.1754 138.159 75.0345 138.335 74.8741L136.988 73.3954C136.901 73.475 136.794 73.5552 136.633 73.6747L137.822 75.2825ZM138.323 74.8849C145.128 68.8863 151.953 62.9076 158.798 56.949L157.485 55.4405C150.637 61.4019 143.809 67.3832 137 73.3846L138.323 74.8849ZM158.795 56.9516C158.968 56.8025 159.129 56.6293 159.246 56.5044L157.786 55.1373C157.651 55.2809 157.565 55.3713 157.488 55.4379L158.795 56.9516ZM159.246 56.5043C159.338 56.4055 159.412 56.3266 159.485 56.2561C159.557 56.1863 159.61 56.1421 159.65 56.1145C159.725 56.0619 159.68 56.1158 159.577 56.0995L159.888 54.1238C159.303 54.0317 158.829 54.2488 158.505 54.4742C158.204 54.6846 157.947 54.9645 157.786 55.1373L159.246 56.5043ZM161.339 54.99C160.931 54.5317 160.433 54.1721 159.824 54.1159L159.64 56.1074C159.538 56.0979 159.604 56.0489 159.845 56.3195L161.339 54.99Z" fill="white" fill-opacity="0.03" mask="url(#path-5-inside-1_8503_3493)"/>
</svg>
