<svg width="1136" height="433" viewBox="0 0 1136 433" fill="none" xmlns="http://www.w3.org/2000/svg">
<g clip-path="url(#clip0_8320_1177)">
<mask id="mask0_8320_1177" style="mask-type:alpha" maskUnits="userSpaceOnUse" x="0" y="-167" width="1136" height="600">
<rect y="-167" width="1136" height="600" fill="url(#paint0_radial_8320_1177)"/>
</mask>
<g mask="url(#mask0_8320_1177)">
</g>
<g clip-path="url(#clip1_8320_1177)">
<rect opacity="0.05" y="-167" width="1136" height="600" fill="url(#paint1_radial_8320_1177)"/>
<mask id="mask1_8320_1177" style="mask-type:alpha" maskUnits="userSpaceOnUse" x="412" y="-2" width="478" height="401">
<rect x="412" y="-1.85449" width="478" height="400.709" fill="url(#paint2_radial_8320_1177)"/>
</mask>
<g mask="url(#mask1_8320_1177)">
</g>
<g clip-path="url(#clip2_8320_1177)">
<g opacity="0.7">
<path opacity="0.11" d="M537.178 298.941C537.476 298.747 537.561 298.348 537.368 298.05C537.174 297.752 536.775 297.667 536.477 297.86C536.178 298.054 536.094 298.453 536.287 298.751C536.481 299.05 536.88 299.135 537.178 298.941Z" fill="white"/>
<path d="M540.859 300.772C541.082 300.627 541.146 300.328 541.001 300.104C540.856 299.881 540.557 299.817 540.333 299.962C540.109 300.107 540.045 300.406 540.191 300.63C540.336 300.854 540.635 300.918 540.859 300.772Z" fill="white"/>
<path d="M546.092 289.319C546.316 289.174 546.379 288.875 546.234 288.651C546.089 288.428 545.79 288.364 545.566 288.509C545.343 288.654 545.279 288.953 545.424 289.177C545.569 289.401 545.868 289.464 546.092 289.319Z" fill="white"/>
<path d="M522.787 303.674C523.011 303.529 523.074 303.23 522.929 303.006C522.784 302.782 522.485 302.718 522.261 302.864C522.037 303.009 521.974 303.308 522.119 303.532C522.264 303.755 522.563 303.819 522.787 303.674Z" fill="white"/>
<path opacity="0.11" d="M513.624 318.831C513.923 318.637 514.008 318.238 513.814 317.94C513.62 317.641 513.222 317.556 512.923 317.75C512.625 317.944 512.54 318.342 512.733 318.641C512.927 318.939 513.326 319.024 513.624 318.831Z" fill="white"/>
<path d="M504.64 316.218C504.789 316.121 504.832 315.922 504.735 315.773C504.638 315.624 504.439 315.582 504.29 315.678C504.141 315.775 504.098 315.974 504.195 316.123C504.292 316.273 504.491 316.315 504.64 316.218Z" fill="white"/>
<path d="M543.2 309.998C543.349 309.902 543.391 309.702 543.295 309.553C543.198 309.404 542.999 309.362 542.85 309.459C542.7 309.555 542.658 309.755 542.755 309.904C542.852 310.053 543.051 310.095 543.2 309.998Z" fill="white"/>
<path d="M602.072 271.795C602.221 271.699 602.263 271.499 602.167 271.35C602.07 271.201 601.871 271.159 601.722 271.255C601.573 271.352 601.53 271.551 601.627 271.701C601.724 271.85 601.923 271.892 602.072 271.795Z" fill="white"/>
<path d="M622.041 238.111C622.19 238.014 622.233 237.815 622.136 237.666C622.039 237.517 621.84 237.474 621.691 237.571C621.542 237.668 621.499 237.867 621.596 238.016C621.693 238.165 621.892 238.208 622.041 238.111Z" fill="white"/>
<path d="M645.368 250.989C645.517 250.892 645.56 250.693 645.463 250.544C645.366 250.395 645.167 250.352 645.018 250.449C644.869 250.546 644.826 250.745 644.923 250.894C645.02 251.043 645.219 251.085 645.368 250.989Z" fill="white"/>
<path d="M448.894 361.605C449.043 361.508 449.085 361.309 448.988 361.16C448.892 361.011 448.692 360.968 448.543 361.065C448.394 361.162 448.352 361.361 448.449 361.51C448.545 361.659 448.745 361.702 448.894 361.605Z" fill="white"/>
<path opacity="0.11" d="M435.382 349.65C435.532 349.554 435.574 349.354 435.477 349.205C435.38 349.056 435.181 349.014 435.032 349.11C434.883 349.207 434.841 349.406 434.937 349.556C435.034 349.705 435.233 349.747 435.382 349.65Z" fill="white"/>
<path opacity="0.11" d="M427.803 363.396C427.952 363.3 427.994 363.1 427.898 362.951C427.801 362.802 427.602 362.76 427.453 362.857C427.303 362.953 427.261 363.153 427.358 363.302C427.455 363.451 427.654 363.493 427.803 363.396Z" fill="white"/>
<path opacity="0.11" d="M447.228 373.816C447.377 373.72 447.42 373.52 447.323 373.371C447.226 373.222 447.027 373.18 446.878 373.276C446.729 373.373 446.686 373.572 446.783 373.722C446.88 373.871 447.079 373.913 447.228 373.816Z" fill="white"/>
<path opacity="0.11" d="M504.485 321.306C504.635 321.209 504.677 321.01 504.58 320.861C504.483 320.712 504.284 320.67 504.135 320.766C503.986 320.863 503.944 321.062 504.04 321.211C504.137 321.36 504.336 321.403 504.485 321.306Z" fill="white"/>
<path opacity="0.11" d="M548.973 320.071C549.122 319.974 549.165 319.775 549.068 319.626C548.971 319.477 548.772 319.434 548.623 319.531C548.474 319.628 548.431 319.827 548.528 319.976C548.625 320.125 548.824 320.167 548.973 320.071Z" fill="white"/>
<path opacity="0.11" d="M599.066 283.723C599.215 283.626 599.257 283.427 599.16 283.278C599.064 283.129 598.864 283.086 598.715 283.183C598.566 283.28 598.524 283.479 598.62 283.628C598.717 283.777 598.916 283.82 599.066 283.723Z" fill="white"/>
<path opacity="0.3" d="M456.937 346.792C457.086 346.695 457.128 346.496 457.031 346.347C456.935 346.198 456.735 346.155 456.586 346.252C456.437 346.349 456.395 346.548 456.492 346.697C456.588 346.846 456.788 346.889 456.937 346.792Z" fill="white"/>
<path d="M509.582 291.903C509.731 291.806 509.773 291.607 509.676 291.458C509.58 291.309 509.38 291.266 509.231 291.363C509.082 291.46 509.04 291.659 509.137 291.808C509.233 291.957 509.433 291.999 509.582 291.903Z" fill="white"/>
<path d="M550.818 264.375C550.968 264.279 551.01 264.079 550.913 263.93C550.816 263.781 550.617 263.739 550.468 263.836C550.319 263.932 550.277 264.132 550.373 264.281C550.47 264.43 550.669 264.472 550.818 264.375Z" fill="white"/>
<path d="M507.342 328.663C507.491 328.567 507.534 328.367 507.437 328.218C507.34 328.069 507.141 328.027 506.992 328.124C506.843 328.22 506.801 328.42 506.897 328.569C506.994 328.718 507.193 328.76 507.342 328.663Z" fill="white"/>
<path opacity="0.3" d="M488.439 340.932C488.588 340.835 488.631 340.636 488.534 340.487C488.437 340.338 488.238 340.295 488.089 340.392C487.94 340.489 487.897 340.688 487.994 340.837C488.091 340.986 488.29 341.029 488.439 340.932Z" fill="white"/>
<path opacity="0.11" d="M455.433 338.558C455.582 338.461 455.625 338.262 455.528 338.112C455.431 337.963 455.232 337.921 455.083 338.018C454.934 338.114 454.891 338.314 454.988 338.463C455.085 338.612 455.284 338.654 455.433 338.558Z" fill="white"/>
<path opacity="0.3" d="M518.652 295.229C518.801 295.132 518.843 294.933 518.747 294.784C518.65 294.635 518.451 294.592 518.302 294.689C518.153 294.786 518.11 294.985 518.207 295.134C518.304 295.283 518.503 295.326 518.652 295.229Z" fill="white"/>
<path opacity="0.3" d="M515.265 330.815C515.414 330.719 515.456 330.519 515.36 330.37C515.263 330.221 515.064 330.179 514.914 330.276C514.765 330.372 514.723 330.572 514.82 330.721C514.916 330.87 515.116 330.912 515.265 330.815Z" fill="white"/>
<path opacity="0.3" d="M484.34 354.72C484.49 354.623 484.532 354.424 484.435 354.275C484.338 354.126 484.139 354.084 483.99 354.18C483.841 354.277 483.799 354.476 483.895 354.625C483.992 354.774 484.191 354.817 484.34 354.72Z" fill="white"/>
<path opacity="0.3" d="M464.77 341.71C464.919 341.614 464.961 341.414 464.864 341.265C464.768 341.116 464.568 341.074 464.419 341.171C464.27 341.267 464.228 341.467 464.325 341.616C464.421 341.765 464.621 341.807 464.77 341.71Z" fill="white"/>
<path opacity="0.3" d="M632.208 231.898C632.357 231.801 632.4 231.602 632.303 231.453C632.206 231.304 632.007 231.261 631.858 231.358C631.709 231.455 631.666 231.654 631.763 231.803C631.86 231.952 632.059 231.995 632.208 231.898Z" fill="white"/>
<path opacity="0.11" d="M581.546 249.039C581.695 248.942 581.737 248.743 581.64 248.594C581.544 248.445 581.344 248.402 581.195 248.499C581.046 248.596 581.004 248.795 581.1 248.944C581.197 249.093 581.396 249.136 581.546 249.039Z" fill="white"/>
<path opacity="0.11" d="M632.453 248.239C632.602 248.142 632.644 247.943 632.548 247.794C632.451 247.645 632.252 247.603 632.102 247.699C631.953 247.796 631.911 247.995 632.008 248.144C632.104 248.294 632.304 248.336 632.453 248.239Z" fill="white"/>
<path opacity="0.3" d="M565.708 295.009C566.007 294.815 566.092 294.416 565.898 294.118C565.704 293.819 565.305 293.735 565.007 293.928C564.709 294.122 564.624 294.521 564.817 294.819C565.011 295.118 565.41 295.202 565.708 295.009Z" fill="white"/>
<path opacity="0.11" d="M576.385 276.568C576.684 276.374 576.768 275.975 576.575 275.677C576.381 275.379 575.982 275.294 575.684 275.487C575.385 275.681 575.301 276.08 575.494 276.378C575.688 276.677 576.087 276.761 576.385 276.568Z" fill="white"/>
<path d="M570.117 267.204C570.341 267.059 570.405 266.76 570.26 266.536C570.114 266.312 569.815 266.249 569.592 266.394C569.368 266.539 569.304 266.838 569.449 267.062C569.595 267.286 569.894 267.349 570.117 267.204Z" fill="white"/>
<path d="M569.886 307.65C570.11 307.505 570.174 307.206 570.029 306.982C569.883 306.759 569.584 306.695 569.361 306.84C569.137 306.985 569.073 307.284 569.218 307.508C569.364 307.732 569.663 307.796 569.886 307.65Z" fill="white"/>
<path d="M663.045 254.87C663.268 254.724 663.332 254.425 663.187 254.202C663.042 253.978 662.743 253.914 662.519 254.059C662.295 254.205 662.231 254.504 662.377 254.727C662.522 254.951 662.821 255.015 663.045 254.87Z" fill="white"/>
<path d="M484.805 364.013C485.029 363.868 485.092 363.569 484.947 363.345C484.802 363.121 484.503 363.058 484.279 363.203C484.055 363.348 483.992 363.647 484.137 363.871C484.282 364.095 484.581 364.158 484.805 364.013Z" fill="white"/>
<path d="M444.862 381.109C445.085 380.964 445.149 380.665 445.004 380.441C444.859 380.218 444.56 380.154 444.336 380.299C444.112 380.444 444.048 380.743 444.194 380.967C444.339 381.191 444.638 381.255 444.862 381.109Z" fill="white"/>
<path d="M433.26 373.287C433.484 373.142 433.548 372.843 433.403 372.619C433.258 372.395 432.958 372.332 432.735 372.477C432.511 372.622 432.447 372.921 432.592 373.145C432.738 373.369 433.037 373.432 433.26 373.287Z" fill="white"/>
<path d="M560.662 281.017C560.886 280.871 560.949 280.572 560.804 280.349C560.659 280.125 560.36 280.061 560.136 280.206C559.912 280.352 559.849 280.651 559.994 280.874C560.139 281.098 560.438 281.162 560.662 281.017Z" fill="white"/>
<path d="M526.641 331.492C526.865 331.347 526.929 331.048 526.784 330.824C526.638 330.6 526.339 330.537 526.116 330.682C525.892 330.827 525.828 331.126 525.973 331.35C526.119 331.574 526.418 331.637 526.641 331.492Z" fill="white"/>
<path d="M602.228 298.943C602.452 298.798 602.516 298.499 602.37 298.275C602.225 298.051 601.926 297.987 601.702 298.133C601.479 298.278 601.415 298.577 601.56 298.801C601.705 299.024 602.005 299.088 602.228 298.943Z" fill="white"/>
<path d="M661.871 234.139C662.095 233.994 662.158 233.695 662.013 233.471C661.868 233.247 661.569 233.184 661.345 233.329C661.121 233.474 661.058 233.773 661.203 233.997C661.348 234.221 661.647 234.284 661.871 234.139Z" fill="white"/>
<path d="M658.714 215.081C658.938 214.935 659.002 214.636 658.856 214.413C658.711 214.189 658.412 214.125 658.188 214.27C657.965 214.416 657.901 214.715 658.046 214.938C658.191 215.162 658.49 215.226 658.714 215.081Z" fill="white"/>
<path opacity="0.3" d="M592.573 253.016C592.871 252.822 592.956 252.423 592.762 252.125C592.569 251.826 592.17 251.741 591.871 251.935C591.573 252.129 591.488 252.528 591.682 252.826C591.875 253.124 592.274 253.209 592.573 253.016Z" fill="white"/>
<path d="M580.128 233.843C580.426 233.65 580.511 233.251 580.317 232.952C580.124 232.654 579.725 232.569 579.427 232.763C579.128 232.956 579.043 233.355 579.237 233.654C579.431 233.952 579.829 234.037 580.128 233.843Z" fill="white"/>
<path d="M610.335 249.931C610.558 249.786 610.622 249.487 610.477 249.263C610.332 249.039 610.033 248.976 609.809 249.121C609.585 249.266 609.522 249.565 609.667 249.789C609.812 250.013 610.111 250.076 610.335 249.931Z" fill="white"/>
<path opacity="0.3" d="M616.598 230.9C616.896 230.707 616.981 230.308 616.788 230.009C616.594 229.711 616.195 229.626 615.897 229.82C615.598 230.013 615.513 230.412 615.707 230.711C615.901 231.009 616.3 231.094 616.598 230.9Z" fill="white"/>
<path opacity="0.3" d="M655.775 232.724C656.073 232.53 656.158 232.131 655.964 231.833C655.771 231.534 655.372 231.449 655.074 231.643C654.775 231.837 654.69 232.236 654.884 232.534C655.077 232.832 655.476 232.917 655.775 232.724Z" fill="white"/>
<path opacity="0.3" d="M624.529 253.767C624.828 253.573 624.912 253.175 624.719 252.876C624.525 252.578 624.126 252.493 623.828 252.686C623.53 252.88 623.445 253.279 623.638 253.577C623.832 253.876 624.231 253.961 624.529 253.767Z" fill="white"/>
<path opacity="0.3" d="M472.503 358.949C472.802 358.755 472.887 358.356 472.693 358.058C472.499 357.759 472.1 357.674 471.802 357.868C471.504 358.062 471.419 358.461 471.612 358.759C471.806 359.057 472.205 359.142 472.503 358.949Z" fill="white"/>
<path opacity="0.3" d="M440.988 358.292C441.287 358.099 441.371 357.7 441.178 357.402C440.984 357.103 440.585 357.018 440.287 357.212C439.988 357.406 439.904 357.804 440.097 358.103C440.291 358.401 440.69 358.486 440.988 358.292Z" fill="white"/>
<path opacity="0.11" d="M639.445 231.808C639.744 231.614 639.828 231.215 639.635 230.917C639.441 230.618 639.042 230.533 638.744 230.727C638.446 230.921 638.361 231.32 638.554 231.618C638.748 231.916 639.147 232.001 639.445 231.808Z" fill="white"/>
<path opacity="0.3" d="M473.647 324.051C473.945 323.857 474.03 323.458 473.836 323.16C473.643 322.861 473.244 322.777 472.946 322.97C472.647 323.164 472.562 323.563 472.756 323.861C472.95 324.159 473.348 324.244 473.647 324.051Z" fill="white"/>
<path opacity="0.11" d="M462.851 323.382C463.149 323.188 463.234 322.789 463.041 322.491C462.847 322.192 462.448 322.108 462.15 322.301C461.851 322.495 461.766 322.894 461.96 323.192C462.154 323.491 462.553 323.575 462.851 323.382Z" fill="white"/>
<path opacity="0.3" d="M471.908 342.066C472.206 341.873 472.291 341.474 472.097 341.175C471.904 340.877 471.505 340.792 471.206 340.986C470.908 341.179 470.823 341.578 471.017 341.877C471.21 342.175 471.609 342.26 471.908 342.066Z" fill="white"/>
<path d="M488.608 330.844C488.831 330.699 488.895 330.399 488.75 330.176C488.605 329.952 488.306 329.888 488.082 330.033C487.858 330.179 487.794 330.478 487.94 330.701C488.085 330.925 488.384 330.989 488.608 330.844Z" fill="white"/>
<path opacity="0.11" d="M577.049 155.871C577.347 155.677 577.432 155.278 577.238 154.98C577.045 154.681 576.646 154.596 576.347 154.79C576.049 154.984 575.964 155.383 576.158 155.681C576.351 155.979 576.75 156.064 577.049 155.871Z" fill="white"/>
<path d="M580.73 157.703C580.953 157.557 581.017 157.258 580.872 157.035C580.727 156.811 580.428 156.747 580.204 156.892C579.98 157.038 579.917 157.337 580.062 157.56C580.207 157.784 580.506 157.848 580.73 157.703Z" fill="white"/>
<path d="M585.963 146.249C586.187 146.104 586.251 145.805 586.105 145.581C585.96 145.357 585.661 145.294 585.437 145.439C585.214 145.584 585.15 145.883 585.295 146.107C585.44 146.331 585.739 146.394 585.963 146.249Z" fill="white"/>
<path d="M562.657 160.604C562.881 160.459 562.945 160.16 562.8 159.936C562.654 159.712 562.355 159.649 562.132 159.794C561.908 159.939 561.844 160.238 561.989 160.462C562.135 160.685 562.434 160.749 562.657 160.604Z" fill="white"/>
<path opacity="0.11" d="M553.495 175.76C553.793 175.567 553.878 175.168 553.685 174.869C553.491 174.571 553.092 174.486 552.794 174.68C552.495 174.873 552.41 175.272 552.604 175.571C552.798 175.869 553.197 175.954 553.495 175.76Z" fill="white"/>
<path d="M544.51 173.149C544.659 173.052 544.702 172.853 544.605 172.704C544.508 172.555 544.309 172.512 544.16 172.609C544.011 172.706 543.969 172.905 544.065 173.054C544.162 173.203 544.361 173.246 544.51 173.149Z" fill="white"/>
<path d="M583.07 166.929C583.22 166.832 583.262 166.633 583.165 166.484C583.068 166.334 582.869 166.292 582.72 166.389C582.571 166.486 582.529 166.685 582.625 166.834C582.722 166.983 582.921 167.025 583.07 166.929Z" fill="white"/>
<path d="M641.942 128.726C642.091 128.629 642.134 128.43 642.037 128.281C641.94 128.132 641.741 128.089 641.592 128.186C641.443 128.283 641.4 128.482 641.497 128.631C641.594 128.78 641.793 128.823 641.942 128.726Z" fill="white"/>
<path d="M661.912 95.0409C662.061 94.9442 662.103 94.7449 662.007 94.5958C661.91 94.4468 661.71 94.4044 661.561 94.5011C661.412 94.5978 661.37 94.7971 661.467 94.9462C661.563 95.0953 661.763 95.1377 661.912 95.0409Z" fill="white"/>
<path d="M685.238 107.92C685.387 107.823 685.43 107.624 685.333 107.475C685.236 107.326 685.037 107.283 684.888 107.38C684.739 107.477 684.697 107.676 684.793 107.825C684.89 107.974 685.089 108.017 685.238 107.92Z" fill="white"/>
<path d="M488.765 218.535C488.914 218.438 488.956 218.239 488.86 218.09C488.763 217.94 488.564 217.898 488.414 217.995C488.265 218.092 488.223 218.291 488.32 218.44C488.416 218.589 488.616 218.631 488.765 218.535Z" fill="white"/>
<path opacity="0.11" d="M475.253 206.58C475.402 206.484 475.445 206.284 475.348 206.135C475.251 205.986 475.052 205.944 474.903 206.041C474.754 206.137 474.711 206.337 474.808 206.486C474.905 206.635 475.104 206.677 475.253 206.58Z" fill="white"/>
<path opacity="0.11" d="M467.672 220.327C467.822 220.23 467.864 220.031 467.767 219.882C467.671 219.732 467.471 219.69 467.322 219.787C467.173 219.883 467.131 220.083 467.227 220.232C467.324 220.381 467.523 220.423 467.672 220.327Z" fill="white"/>
<path opacity="0.11" d="M487.099 230.747C487.248 230.65 487.29 230.451 487.194 230.302C487.097 230.153 486.897 230.11 486.748 230.207C486.599 230.304 486.557 230.503 486.654 230.652C486.75 230.801 486.95 230.844 487.099 230.747Z" fill="white"/>
<path opacity="0.11" d="M544.356 178.236C544.505 178.139 544.548 177.94 544.451 177.791C544.354 177.642 544.155 177.599 544.006 177.696C543.857 177.793 543.814 177.992 543.911 178.141C544.008 178.29 544.207 178.332 544.356 178.236Z" fill="white"/>
<path opacity="0.11" d="M588.843 177.001C588.992 176.904 589.034 176.705 588.938 176.556C588.841 176.407 588.642 176.364 588.493 176.461C588.344 176.558 588.301 176.757 588.398 176.906C588.495 177.055 588.694 177.098 588.843 177.001Z" fill="white"/>
<path opacity="0.11" d="M638.936 140.653C639.085 140.556 639.128 140.357 639.031 140.208C638.934 140.059 638.735 140.016 638.586 140.113C638.437 140.21 638.394 140.409 638.491 140.558C638.588 140.707 638.787 140.749 638.936 140.653Z" fill="white"/>
<path opacity="0.3" d="M496.807 203.722C496.956 203.625 496.998 203.426 496.902 203.277C496.805 203.127 496.606 203.085 496.456 203.182C496.307 203.279 496.265 203.478 496.362 203.627C496.458 203.776 496.658 203.818 496.807 203.722Z" fill="white"/>
<path d="M549.453 148.832C549.602 148.736 549.644 148.536 549.548 148.387C549.451 148.238 549.252 148.196 549.102 148.293C548.953 148.389 548.911 148.589 549.008 148.738C549.104 148.887 549.304 148.929 549.453 148.832Z" fill="white"/>
<path d="M590.689 121.305C590.838 121.208 590.88 121.009 590.783 120.86C590.687 120.711 590.487 120.669 590.338 120.765C590.189 120.862 590.147 121.061 590.244 121.21C590.34 121.359 590.54 121.402 590.689 121.305Z" fill="white"/>
<path d="M547.213 185.594C547.362 185.497 547.405 185.298 547.308 185.149C547.211 185 547.012 184.958 546.863 185.054C546.714 185.151 546.671 185.35 546.768 185.499C546.865 185.648 547.064 185.691 547.213 185.594Z" fill="white"/>
<path opacity="0.3" d="M528.309 197.861C528.458 197.765 528.501 197.565 528.404 197.416C528.307 197.267 528.108 197.225 527.959 197.321C527.81 197.418 527.767 197.617 527.864 197.766C527.961 197.916 528.16 197.958 528.309 197.861Z" fill="white"/>
<path opacity="0.11" d="M495.303 195.488C495.452 195.391 495.495 195.192 495.398 195.043C495.301 194.894 495.102 194.852 494.953 194.948C494.804 195.045 494.762 195.244 494.858 195.393C494.955 195.543 495.154 195.585 495.303 195.488Z" fill="white"/>
<path opacity="0.3" d="M558.523 152.159C558.672 152.062 558.714 151.863 558.617 151.714C558.521 151.564 558.321 151.522 558.172 151.619C558.023 151.716 557.981 151.915 558.078 152.064C558.174 152.213 558.374 152.255 558.523 152.159Z" fill="white"/>
<path opacity="0.3" d="M555.135 187.746C555.284 187.649 555.327 187.45 555.23 187.3C555.133 187.151 554.934 187.109 554.785 187.206C554.636 187.302 554.594 187.502 554.69 187.651C554.787 187.8 554.986 187.842 555.135 187.746Z" fill="white"/>
<path opacity="0.3" d="M524.211 211.65C524.36 211.554 524.403 211.354 524.306 211.205C524.209 211.056 524.01 211.014 523.861 211.11C523.712 211.207 523.669 211.406 523.766 211.556C523.863 211.705 524.062 211.747 524.211 211.65Z" fill="white"/>
<path opacity="0.3" d="M504.64 198.641C504.789 198.544 504.831 198.345 504.735 198.195C504.638 198.046 504.439 198.004 504.289 198.101C504.14 198.197 504.098 198.397 504.195 198.546C504.291 198.695 504.491 198.737 504.64 198.641Z" fill="white"/>
<path opacity="0.3" d="M672.079 88.8276C672.228 88.7308 672.27 88.5315 672.174 88.3825C672.077 88.2334 671.877 88.191 671.728 88.2877C671.579 88.3845 671.537 88.5837 671.634 88.7328C671.73 88.8819 671.93 88.9243 672.079 88.8276Z" fill="white"/>
<path opacity="0.11" d="M621.416 105.97C621.565 105.873 621.608 105.674 621.511 105.525C621.414 105.376 621.215 105.334 621.066 105.43C620.917 105.527 620.874 105.726 620.971 105.875C621.068 106.024 621.267 106.067 621.416 105.97Z" fill="white"/>
<path opacity="0.11" d="M672.322 105.17C672.471 105.073 672.514 104.874 672.417 104.725C672.32 104.576 672.121 104.533 671.972 104.63C671.823 104.727 671.781 104.926 671.877 105.075C671.974 105.224 672.173 105.267 672.322 105.17Z" fill="white"/>
<path opacity="0.3" d="M605.579 151.939C605.877 151.745 605.962 151.346 605.769 151.048C605.575 150.75 605.176 150.665 604.878 150.858C604.579 151.052 604.494 151.451 604.688 151.749C604.882 152.048 605.281 152.133 605.579 151.939Z" fill="white"/>
<path opacity="0.11" d="M616.255 133.498C616.554 133.304 616.639 132.905 616.445 132.607C616.251 132.309 615.852 132.224 615.554 132.417C615.256 132.611 615.171 133.01 615.364 133.308C615.558 133.607 615.957 133.692 616.255 133.498Z" fill="white"/>
<path d="M609.988 124.134C610.212 123.989 610.275 123.689 610.13 123.466C609.985 123.242 609.686 123.178 609.462 123.324C609.239 123.469 609.175 123.768 609.32 123.992C609.465 124.215 609.764 124.279 609.988 124.134Z" fill="white"/>
<path d="M609.757 164.58C609.981 164.435 610.044 164.136 609.899 163.912C609.754 163.688 609.455 163.625 609.231 163.77C609.008 163.915 608.944 164.214 609.089 164.438C609.234 164.662 609.533 164.725 609.757 164.58Z" fill="white"/>
<path d="M702.915 111.799C703.139 111.654 703.202 111.355 703.057 111.131C702.912 110.908 702.613 110.844 702.389 110.989C702.165 111.134 702.102 111.433 702.247 111.657C702.392 111.881 702.691 111.944 702.915 111.799Z" fill="white"/>
<path d="M524.676 220.943C524.899 220.798 524.963 220.499 524.818 220.275C524.673 220.052 524.373 219.988 524.15 220.133C523.926 220.278 523.862 220.577 524.008 220.801C524.153 221.025 524.452 221.089 524.676 220.943Z" fill="white"/>
<path d="M484.732 238.039C484.956 237.894 485.02 237.595 484.874 237.371C484.729 237.148 484.43 237.084 484.206 237.229C483.983 237.374 483.919 237.674 484.064 237.897C484.209 238.121 484.508 238.185 484.732 238.039Z" fill="white"/>
<path d="M473.131 230.217C473.354 230.072 473.418 229.772 473.273 229.549C473.128 229.325 472.829 229.261 472.605 229.407C472.381 229.552 472.317 229.851 472.463 230.075C472.608 230.298 472.907 230.362 473.131 230.217Z" fill="white"/>
<path d="M600.532 137.947C600.756 137.802 600.819 137.502 600.674 137.279C600.529 137.055 600.23 136.991 600.006 137.137C599.782 137.282 599.719 137.581 599.864 137.805C600.009 138.028 600.308 138.092 600.532 137.947Z" fill="white"/>
<path d="M566.511 188.422C566.735 188.277 566.799 187.978 566.654 187.754C566.508 187.53 566.209 187.466 565.986 187.612C565.762 187.757 565.698 188.056 565.843 188.28C565.989 188.503 566.288 188.567 566.511 188.422Z" fill="white"/>
<path d="M642.098 155.873C642.322 155.727 642.386 155.428 642.241 155.205C642.095 154.981 641.796 154.917 641.573 155.062C641.349 155.207 641.285 155.507 641.43 155.73C641.576 155.954 641.875 156.018 642.098 155.873Z" fill="white"/>
<path d="M701.741 91.0688C701.965 90.9236 702.029 90.6245 701.884 90.4008C701.738 90.1771 701.439 90.1134 701.216 90.2586C700.992 90.4038 700.928 90.7029 701.073 90.9266C701.219 91.1503 701.518 91.214 701.741 91.0688Z" fill="white"/>
<path d="M698.585 72.0117C698.809 71.8665 698.873 71.5674 698.727 71.3437C698.582 71.1199 698.283 71.0563 698.059 71.2015C697.836 71.3467 697.772 71.6457 697.917 71.8695C698.062 72.0932 698.361 72.1569 698.585 72.0117Z" fill="white"/>
<path opacity="0.3" d="M632.443 109.945C632.741 109.751 632.826 109.352 632.632 109.054C632.439 108.755 632.04 108.671 631.741 108.864C631.443 109.058 631.358 109.457 631.552 109.755C631.745 110.054 632.144 110.138 632.443 109.945Z" fill="white"/>
<path d="M619.998 90.7734C620.296 90.5798 620.381 90.1809 620.188 89.8825C619.994 89.5841 619.595 89.4992 619.297 89.6928C618.998 89.8865 618.913 90.2854 619.107 90.5838C619.301 90.8821 619.7 90.9671 619.998 90.7734Z" fill="white"/>
<path d="M650.205 106.861C650.429 106.716 650.493 106.417 650.348 106.193C650.202 105.97 649.903 105.906 649.68 106.051C649.456 106.196 649.392 106.495 649.537 106.719C649.683 106.943 649.982 107.006 650.205 106.861Z" fill="white"/>
<path opacity="0.3" d="M656.469 87.8301C656.767 87.6364 656.852 87.2375 656.658 86.9391C656.465 86.6407 656.066 86.5558 655.767 86.7495C655.469 86.9431 655.384 87.342 655.578 87.6404C655.771 87.9388 656.17 88.0237 656.469 87.8301Z" fill="white"/>
<path opacity="0.3" d="M695.645 89.6538C695.943 89.4601 696.028 89.0613 695.835 88.7629C695.641 88.4645 695.242 88.3796 694.944 88.5732C694.645 88.7668 694.56 89.1657 694.754 89.4641C694.948 89.7625 695.346 89.8474 695.645 89.6538Z" fill="white"/>
<path opacity="0.3" d="M664.399 110.697C664.698 110.504 664.783 110.105 664.589 109.806C664.395 109.508 663.996 109.423 663.698 109.617C663.4 109.81 663.315 110.209 663.508 110.508C663.702 110.806 664.101 110.891 664.399 110.697Z" fill="white"/>
<path opacity="0.3" d="M512.373 215.879C512.672 215.685 512.757 215.286 512.563 214.988C512.369 214.69 511.971 214.605 511.672 214.798C511.374 214.992 511.289 215.391 511.482 215.689C511.676 215.988 512.075 216.073 512.373 215.879Z" fill="white"/>
<path opacity="0.3" d="M480.858 215.223C481.157 215.029 481.242 214.63 481.048 214.332C480.854 214.033 480.455 213.948 480.157 214.142C479.859 214.336 479.774 214.735 479.967 215.033C480.161 215.331 480.56 215.416 480.858 215.223Z" fill="white"/>
<path opacity="0.11" d="M679.316 88.7378C679.614 88.5441 679.699 88.1452 679.505 87.8468C679.312 87.5485 678.913 87.4635 678.615 87.6572C678.316 87.8508 678.231 88.2497 678.425 88.5481C678.618 88.8465 679.017 88.9314 679.316 88.7378Z" fill="white"/>
<path opacity="0.3" d="M513.517 180.981C513.815 180.788 513.9 180.389 513.707 180.09C513.513 179.792 513.114 179.707 512.816 179.901C512.517 180.094 512.432 180.493 512.626 180.792C512.82 181.09 513.219 181.175 513.517 180.981Z" fill="white"/>
<path opacity="0.11" d="M502.721 180.312C503.019 180.118 503.104 179.719 502.91 179.421C502.717 179.122 502.318 179.037 502.019 179.231C501.721 179.425 501.636 179.823 501.83 180.122C502.023 180.42 502.422 180.505 502.721 180.312Z" fill="white"/>
<path opacity="0.3" d="M511.779 198.996C512.077 198.802 512.162 198.404 511.968 198.105C511.775 197.807 511.376 197.722 511.077 197.915C510.779 198.109 510.694 198.508 510.888 198.806C511.081 199.105 511.48 199.19 511.779 198.996Z" fill="white"/>
<path d="M528.478 187.774C528.702 187.629 528.766 187.33 528.62 187.106C528.475 186.882 528.176 186.818 527.952 186.964C527.729 187.109 527.665 187.408 527.81 187.632C527.955 187.855 528.255 187.919 528.478 187.774Z" fill="white"/>
<path opacity="0.11" d="M746.505 106.032C746.803 105.838 746.888 105.439 746.694 105.141C746.501 104.842 746.102 104.757 745.803 104.951C745.505 105.145 745.42 105.544 745.614 105.842C745.807 106.14 746.206 106.225 746.505 106.032Z" fill="white"/>
<path d="M750.186 107.864C750.41 107.719 750.473 107.419 750.328 107.196C750.183 106.972 749.884 106.908 749.66 107.054C749.436 107.199 749.373 107.498 749.518 107.722C749.663 107.945 749.962 108.009 750.186 107.864Z" fill="white"/>
<path d="M755.419 96.4101C755.643 96.2649 755.707 95.9658 755.561 95.7421C755.416 95.5184 755.117 95.4547 754.893 95.5999C754.67 95.7451 754.606 96.0442 754.751 96.2679C754.896 96.4916 755.195 96.5553 755.419 96.4101Z" fill="white"/>
<path d="M732.113 110.765C732.337 110.619 732.4 110.32 732.255 110.097C732.11 109.873 731.811 109.809 731.587 109.954C731.363 110.1 731.3 110.399 731.445 110.622C731.59 110.846 731.889 110.91 732.113 110.765Z" fill="white"/>
<path opacity="0.11" d="M722.951 125.921C723.249 125.727 723.334 125.328 723.14 125.03C722.947 124.732 722.548 124.647 722.249 124.84C721.951 125.034 721.866 125.433 722.06 125.731C722.253 126.03 722.652 126.115 722.951 125.921Z" fill="white"/>
<path d="M713.966 123.309C714.115 123.213 714.157 123.013 714.061 122.864C713.964 122.715 713.765 122.673 713.616 122.77C713.467 122.866 713.424 123.066 713.521 123.215C713.618 123.364 713.817 123.406 713.966 123.309Z" fill="white"/>
<path d="M752.526 117.09C752.675 116.993 752.717 116.794 752.62 116.645C752.524 116.496 752.324 116.453 752.175 116.55C752.026 116.647 751.984 116.846 752.08 116.995C752.177 117.144 752.376 117.186 752.526 117.09Z" fill="white"/>
<path d="M811.398 78.8866C811.547 78.7899 811.59 78.5906 811.493 78.4416C811.396 78.2925 811.197 78.2501 811.048 78.3468C810.899 78.4436 810.856 78.6428 810.953 78.7919C811.05 78.941 811.249 78.9834 811.398 78.8866Z" fill="white"/>
<path d="M831.368 45.2016C831.517 45.1048 831.559 44.9056 831.463 44.7565C831.366 44.6074 831.167 44.565 831.017 44.6618C830.868 44.7585 830.826 44.9578 830.923 45.1068C831.019 45.2559 831.219 45.2983 831.368 45.2016Z" fill="white"/>
<path d="M854.694 58.08C854.844 57.9832 854.886 57.784 854.789 57.6349C854.692 57.4858 854.493 57.4434 854.344 57.5402C854.195 57.6369 854.153 57.8362 854.249 57.9852C854.346 58.1343 854.545 58.1767 854.694 58.08Z" fill="white"/>
<path d="M658.22 168.696C658.369 168.599 658.411 168.4 658.315 168.251C658.218 168.102 658.019 168.059 657.87 168.156C657.72 168.253 657.678 168.452 657.775 168.601C657.872 168.75 658.071 168.792 658.22 168.696Z" fill="white"/>
<path opacity="0.11" d="M644.709 156.742C644.858 156.645 644.9 156.446 644.803 156.297C644.707 156.147 644.507 156.105 644.358 156.202C644.209 156.299 644.167 156.498 644.264 156.647C644.36 156.796 644.56 156.838 644.709 156.742Z" fill="white"/>
<path opacity="0.11" d="M637.129 170.488C637.278 170.391 637.321 170.192 637.224 170.043C637.127 169.894 636.928 169.852 636.779 169.948C636.63 170.045 636.587 170.244 636.684 170.393C636.781 170.543 636.98 170.585 637.129 170.488Z" fill="white"/>
<path opacity="0.11" d="M656.554 180.908C656.703 180.811 656.746 180.612 656.649 180.463C656.552 180.313 656.353 180.271 656.204 180.368C656.055 180.465 656.013 180.664 656.109 180.813C656.206 180.962 656.405 181.004 656.554 180.908Z" fill="white"/>
<path opacity="0.11" d="M713.812 128.397C713.961 128.3 714.003 128.101 713.906 127.952C713.81 127.803 713.61 127.76 713.461 127.857C713.312 127.954 713.27 128.153 713.367 128.302C713.463 128.451 713.663 128.494 713.812 128.397Z" fill="white"/>
<path opacity="0.11" d="M758.295 127.162C758.444 127.065 758.486 126.866 758.389 126.716C758.293 126.567 758.093 126.525 757.944 126.622C757.795 126.718 757.753 126.918 757.849 127.067C757.946 127.216 758.145 127.258 758.295 127.162Z" fill="white"/>
<path opacity="0.11" d="M808.392 90.8139C808.541 90.7172 808.584 90.5179 808.487 90.3688C808.39 90.2197 808.191 90.1773 808.042 90.2741C807.893 90.3708 807.85 90.5701 807.947 90.7191C808.044 90.8682 808.243 90.9106 808.392 90.8139Z" fill="white"/>
<path opacity="0.3" d="M666.263 153.883C666.412 153.786 666.454 153.587 666.358 153.438C666.261 153.289 666.062 153.246 665.912 153.343C665.763 153.44 665.721 153.639 665.818 153.788C665.914 153.937 666.114 153.979 666.263 153.883Z" fill="white"/>
<path d="M718.908 98.994C719.057 98.8973 719.099 98.698 719.003 98.549C718.906 98.3999 718.707 98.3575 718.558 98.4542C718.408 98.551 718.366 98.7502 718.463 98.8993C718.56 99.0484 718.759 99.0908 718.908 98.994Z" fill="white"/>
<path d="M760.145 71.4662C760.294 71.3695 760.336 71.1702 760.239 71.0212C760.143 70.8721 759.943 70.8297 759.794 70.9264C759.645 71.0231 759.603 71.2224 759.7 71.3715C759.796 71.5206 759.996 71.563 760.145 71.4662Z" fill="white"/>
<path d="M716.668 135.755C716.817 135.659 716.86 135.459 716.763 135.31C716.666 135.161 716.467 135.119 716.318 135.215C716.169 135.312 716.126 135.511 716.223 135.661C716.32 135.81 716.519 135.852 716.668 135.755Z" fill="white"/>
<path opacity="0.3" d="M697.765 148.023C697.914 147.926 697.957 147.727 697.86 147.578C697.763 147.429 697.564 147.386 697.415 147.483C697.266 147.58 697.223 147.779 697.32 147.928C697.417 148.077 697.616 148.12 697.765 148.023Z" fill="white"/>
<path opacity="0.11" d="M664.759 145.649C664.908 145.552 664.951 145.353 664.854 145.204C664.757 145.055 664.558 145.012 664.409 145.109C664.26 145.206 664.218 145.405 664.314 145.554C664.411 145.703 664.61 145.746 664.759 145.649Z" fill="white"/>
<path opacity="0.3" d="M727.978 102.32C728.127 102.223 728.17 102.024 728.073 101.875C727.976 101.726 727.777 101.684 727.628 101.78C727.479 101.877 727.436 102.076 727.533 102.225C727.63 102.375 727.829 102.417 727.978 102.32Z" fill="white"/>
<path opacity="0.3" d="M724.591 137.907C724.74 137.81 724.783 137.611 724.686 137.462C724.589 137.312 724.39 137.27 724.241 137.367C724.092 137.464 724.05 137.663 724.146 137.812C724.243 137.961 724.442 138.003 724.591 137.907Z" fill="white"/>
<path opacity="0.3" d="M693.667 161.811C693.816 161.715 693.858 161.515 693.761 161.366C693.665 161.217 693.465 161.175 693.316 161.272C693.167 161.368 693.125 161.568 693.222 161.717C693.318 161.866 693.518 161.908 693.667 161.811Z" fill="white"/>
<path opacity="0.3" d="M674.095 148.802C674.244 148.705 674.287 148.506 674.19 148.357C674.093 148.208 673.894 148.165 673.745 148.262C673.596 148.359 673.554 148.558 673.65 148.707C673.747 148.856 673.946 148.898 674.095 148.802Z" fill="white"/>
<path opacity="0.3" d="M841.534 38.9892C841.683 38.8924 841.726 38.6932 841.629 38.5441C841.532 38.395 841.333 38.3526 841.184 38.4493C841.035 38.5461 840.992 38.7454 841.089 38.8944C841.186 39.0435 841.385 39.0859 841.534 38.9892Z" fill="white"/>
<path opacity="0.11" d="M790.872 56.1308C791.021 56.034 791.064 55.8348 790.967 55.6857C790.87 55.5366 790.671 55.4942 790.522 55.591C790.373 55.6877 790.33 55.887 790.427 56.036C790.524 56.1851 790.723 56.2275 790.872 56.1308Z" fill="white"/>
<path opacity="0.11" d="M841.778 55.331C841.928 55.2342 841.97 55.035 841.873 54.8859C841.776 54.7368 841.577 54.6944 841.428 54.7912C841.279 54.8879 841.237 55.0872 841.333 55.2362C841.43 55.3853 841.629 55.4277 841.778 55.331Z" fill="white"/>
<path opacity="0.3" d="M775.035 102.1C775.333 101.906 775.418 101.508 775.224 101.209C775.031 100.911 774.632 100.826 774.333 101.019C774.035 101.213 773.95 101.612 774.144 101.91C774.337 102.209 774.736 102.294 775.035 102.1Z" fill="white"/>
<path opacity="0.11" d="M785.711 83.6592C786.01 83.4655 786.095 83.0666 785.901 82.7682C785.707 82.4698 785.308 82.3849 785.01 82.5786C784.712 82.7722 784.627 83.1711 784.82 83.4695C785.014 83.7679 785.413 83.8528 785.711 83.6592Z" fill="white"/>
<path d="M779.444 74.2949C779.668 74.1497 779.731 73.8506 779.586 73.6269C779.441 73.4031 779.142 73.3395 778.918 73.4847C778.695 73.6299 778.631 73.9289 778.776 74.1527C778.921 74.3764 779.22 74.4401 779.444 74.2949Z" fill="white"/>
<path d="M779.213 114.741C779.436 114.596 779.5 114.297 779.355 114.073C779.21 113.849 778.911 113.786 778.687 113.931C778.463 114.076 778.399 114.375 778.545 114.599C778.69 114.823 778.989 114.886 779.213 114.741Z" fill="white"/>
<path d="M872.371 61.9609C872.595 61.8157 872.658 61.5166 872.513 61.2929C872.368 61.0692 872.069 61.0055 871.845 61.1507C871.621 61.2959 871.558 61.5949 871.703 61.8187C871.848 62.0424 872.147 62.1061 872.371 61.9609Z" fill="white"/>
<path d="M694.132 171.104C694.355 170.959 694.419 170.66 694.274 170.436C694.129 170.213 693.83 170.149 693.606 170.294C693.382 170.439 693.318 170.738 693.464 170.962C693.609 171.186 693.908 171.25 694.132 171.104Z" fill="white"/>
<path d="M654.188 188.201C654.412 188.055 654.476 187.756 654.33 187.533C654.185 187.309 653.886 187.245 653.662 187.39C653.439 187.536 653.375 187.835 653.52 188.058C653.665 188.282 653.964 188.346 654.188 188.201Z" fill="white"/>
<path d="M642.587 180.378C642.811 180.233 642.875 179.934 642.729 179.71C642.584 179.487 642.285 179.423 642.061 179.568C641.838 179.713 641.774 180.012 641.919 180.236C642.064 180.46 642.363 180.524 642.587 180.378Z" fill="white"/>
<path d="M769.988 88.1074C770.212 87.9622 770.275 87.6631 770.13 87.4394C769.985 87.2157 769.686 87.152 769.462 87.2972C769.238 87.4424 769.175 87.7414 769.32 87.9652C769.465 88.1889 769.764 88.2526 769.988 88.1074Z" fill="white"/>
<path d="M735.968 138.583C736.191 138.438 736.255 138.139 736.11 137.915C735.965 137.691 735.665 137.628 735.442 137.773C735.218 137.918 735.154 138.217 735.3 138.441C735.445 138.664 735.744 138.728 735.968 138.583Z" fill="white"/>
<path d="M811.554 106.034C811.778 105.888 811.842 105.589 811.697 105.366C811.551 105.142 811.252 105.078 811.029 105.223C810.805 105.369 810.741 105.668 810.886 105.891C811.032 106.115 811.331 106.179 811.554 106.034Z" fill="white"/>
<path d="M871.197 41.2299C871.421 41.0847 871.485 40.7857 871.34 40.5619C871.194 40.3382 870.895 40.2745 870.672 40.4197C870.448 40.5649 870.384 40.864 870.53 41.0877C870.675 41.3115 870.974 41.3751 871.197 41.2299Z" fill="white"/>
<path d="M868.041 22.1723C868.265 22.0271 868.329 21.7281 868.183 21.5043C868.038 21.2806 867.739 21.2169 867.515 21.3621C867.292 21.5073 867.228 21.8064 867.373 22.0301C867.518 22.2538 867.818 22.3175 868.041 22.1723Z" fill="white"/>
<path opacity="0.3" d="M801.895 60.1064C802.193 59.9128 802.278 59.5139 802.085 59.2155C801.891 58.9171 801.492 58.8322 801.194 59.0258C800.895 59.2195 800.81 59.6184 801.004 59.9168C801.198 60.2152 801.596 60.3001 801.895 60.1064Z" fill="white"/>
<path d="M789.454 40.9345C789.752 40.7409 789.837 40.342 789.644 40.0436C789.45 39.7452 789.051 39.6603 788.753 39.854C788.454 40.0476 788.369 40.4465 788.563 40.7449C788.757 41.0433 789.156 41.1282 789.454 40.9345Z" fill="white"/>
<path d="M819.661 57.0229C819.885 56.8777 819.949 56.5786 819.804 56.3549C819.658 56.1312 819.359 56.0675 819.136 56.2127C818.912 56.3579 818.848 56.657 818.993 56.8807C819.139 57.1044 819.438 57.1681 819.661 57.0229Z" fill="white"/>
<path opacity="0.3" d="M825.924 37.9917C826.223 37.798 826.307 37.3992 826.114 37.1008C825.92 36.8024 825.521 36.7174 825.223 36.9111C824.925 37.1047 824.84 37.5036 825.033 37.802C825.227 38.1004 825.626 38.1853 825.924 37.9917Z" fill="white"/>
<path opacity="0.3" d="M865.101 39.8154C865.4 39.6218 865.485 39.2229 865.291 38.9245C865.097 38.6261 864.699 38.5412 864.4 38.7348C864.102 38.9285 864.017 39.3273 864.21 39.6257C864.404 39.9241 864.803 40.0091 865.101 39.8154Z" fill="white"/>
<path opacity="0.3" d="M833.855 60.8584C834.154 60.6647 834.239 60.2659 834.045 59.9675C833.851 59.6691 833.452 59.5841 833.154 59.7778C832.856 59.9714 832.771 60.3703 832.964 60.6687C833.158 60.9671 833.557 61.052 833.855 60.8584Z" fill="white"/>
<path opacity="0.3" d="M681.829 166.04C682.128 165.846 682.213 165.447 682.019 165.149C681.825 164.851 681.427 164.766 681.128 164.959C680.83 165.153 680.745 165.552 680.939 165.85C681.132 166.149 681.531 166.234 681.829 166.04Z" fill="white"/>
<path opacity="0.3" d="M650.314 165.384C650.613 165.191 650.698 164.792 650.504 164.493C650.31 164.195 649.911 164.11 649.613 164.304C649.315 164.497 649.23 164.896 649.423 165.195C649.617 165.493 650.016 165.578 650.314 165.384Z" fill="white"/>
<path opacity="0.11" d="M848.771 38.8989C849.07 38.7053 849.155 38.3064 848.961 38.008C848.767 37.7096 848.368 37.6247 848.07 37.8183C847.772 38.012 847.687 38.4108 847.88 38.7092C848.074 39.0076 848.473 39.0926 848.771 38.8989Z" fill="white"/>
<path opacity="0.3" d="M682.973 131.143C683.271 130.949 683.356 130.55 683.163 130.252C682.969 129.953 682.57 129.868 682.272 130.062C681.973 130.256 681.888 130.654 682.082 130.953C682.276 131.251 682.675 131.336 682.973 131.143Z" fill="white"/>
<path opacity="0.11" d="M672.177 130.473C672.475 130.279 672.56 129.881 672.366 129.582C672.173 129.284 671.774 129.199 671.475 129.393C671.177 129.586 671.092 129.985 671.286 130.283C671.479 130.582 671.878 130.667 672.177 130.473Z" fill="white"/>
<path opacity="0.3" d="M681.234 149.157C681.533 148.964 681.618 148.565 681.424 148.266C681.23 147.968 680.831 147.883 680.533 148.077C680.235 148.27 680.15 148.669 680.343 148.968C680.537 149.266 680.936 149.351 681.234 149.157Z" fill="white"/>
<path d="M697.934 137.935C698.158 137.789 698.221 137.49 698.076 137.267C697.931 137.043 697.632 136.979 697.408 137.124C697.184 137.269 697.121 137.569 697.266 137.792C697.411 138.016 697.71 138.08 697.934 137.935Z" fill="white"/>
</g>
</g>
<mask id="mask2_8320_1177" style="mask-type:alpha" maskUnits="userSpaceOnUse" x="245" y="-11" width="478" height="401">
<rect width="478" height="400.709" transform="matrix(-1 0 0 1 723 -11)" fill="url(#paint3_radial_8320_1177)"/>
</mask>
<g mask="url(#mask2_8320_1177)">
</g>
<g clip-path="url(#clip3_8320_1177)">
<g opacity="0.7">
<path opacity="0.11" d="M597.822 289.795C597.524 289.602 597.439 289.203 597.632 288.904C597.826 288.606 598.225 288.521 598.523 288.715C598.822 288.908 598.906 289.307 598.713 289.606C598.519 289.904 598.12 289.989 597.822 289.795Z" fill="white"/>
<path d="M594.141 291.627C593.918 291.482 593.854 291.183 593.999 290.959C594.144 290.735 594.443 290.671 594.667 290.817C594.891 290.962 594.955 291.261 594.809 291.485C594.664 291.708 594.365 291.772 594.141 291.627Z" fill="white"/>
<path d="M588.908 280.174C588.684 280.029 588.621 279.73 588.766 279.506C588.911 279.282 589.21 279.218 589.434 279.364C589.657 279.509 589.721 279.808 589.576 280.032C589.431 280.255 589.132 280.319 588.908 280.174Z" fill="white"/>
<path d="M612.213 294.528C611.989 294.383 611.926 294.084 612.071 293.86C612.216 293.637 612.515 293.573 612.739 293.718C612.963 293.863 613.026 294.162 612.881 294.386C612.736 294.61 612.437 294.673 612.213 294.528Z" fill="white"/>
<path opacity="0.11" d="M621.376 309.685C621.077 309.491 620.992 309.093 621.186 308.794C621.38 308.496 621.778 308.411 622.077 308.604C622.375 308.798 622.46 309.197 622.267 309.495C622.073 309.794 621.674 309.879 621.376 309.685Z" fill="white"/>
<path d="M630.36 307.073C630.211 306.976 630.168 306.777 630.265 306.628C630.362 306.479 630.561 306.436 630.71 306.533C630.859 306.63 630.902 306.829 630.805 306.978C630.708 307.127 630.509 307.169 630.36 307.073Z" fill="white"/>
<path d="M591.8 300.853C591.651 300.756 591.609 300.557 591.705 300.408C591.802 300.259 592.001 300.216 592.15 300.313C592.3 300.41 592.342 300.609 592.245 300.758C592.148 300.907 591.949 300.95 591.8 300.853Z" fill="white"/>
<path d="M532.928 262.65C532.779 262.553 532.737 262.354 532.833 262.205C532.93 262.056 533.129 262.013 533.278 262.11C533.427 262.207 533.47 262.406 533.373 262.555C533.276 262.704 533.077 262.747 532.928 262.65Z" fill="white"/>
<path d="M512.959 228.965C512.81 228.869 512.767 228.669 512.864 228.52C512.961 228.371 513.16 228.329 513.309 228.425C513.458 228.522 513.501 228.721 513.404 228.871C513.307 229.02 513.108 229.062 512.959 228.965Z" fill="white"/>
<path d="M489.632 241.843C489.483 241.746 489.44 241.547 489.537 241.398C489.634 241.249 489.833 241.207 489.982 241.303C490.131 241.4 490.174 241.599 490.077 241.748C489.98 241.897 489.781 241.94 489.632 241.843Z" fill="white"/>
<path d="M686.106 352.459C685.957 352.363 685.915 352.163 686.012 352.014C686.108 351.865 686.308 351.823 686.457 351.92C686.606 352.016 686.648 352.216 686.551 352.365C686.455 352.514 686.255 352.556 686.106 352.459Z" fill="white"/>
<path opacity="0.11" d="M699.618 340.505C699.468 340.408 699.426 340.209 699.523 340.06C699.62 339.911 699.819 339.868 699.968 339.965C700.117 340.062 700.159 340.261 700.063 340.41C699.966 340.559 699.767 340.602 699.618 340.505Z" fill="white"/>
<path opacity="0.11" d="M707.197 354.251C707.048 354.154 707.006 353.955 707.102 353.806C707.199 353.657 707.398 353.614 707.547 353.711C707.697 353.808 707.739 354.007 707.642 354.156C707.545 354.305 707.346 354.348 707.197 354.251Z" fill="white"/>
<path opacity="0.11" d="M687.772 364.671C687.623 364.574 687.58 364.375 687.677 364.226C687.774 364.077 687.973 364.034 688.122 364.131C688.271 364.228 688.314 364.427 688.217 364.576C688.12 364.725 687.921 364.768 687.772 364.671Z" fill="white"/>
<path opacity="0.11" d="M630.515 312.161C630.365 312.064 630.323 311.865 630.42 311.715C630.517 311.566 630.716 311.524 630.865 311.621C631.014 311.717 631.056 311.917 630.96 312.066C630.863 312.215 630.664 312.257 630.515 312.161Z" fill="white"/>
<path opacity="0.11" d="M586.027 310.925C585.878 310.828 585.835 310.629 585.932 310.48C586.029 310.331 586.228 310.289 586.377 310.385C586.526 310.482 586.569 310.681 586.472 310.83C586.375 310.98 586.176 311.022 586.027 310.925Z" fill="white"/>
<path opacity="0.11" d="M535.934 274.578C535.785 274.481 535.743 274.282 535.84 274.132C535.936 273.983 536.136 273.941 536.285 274.038C536.434 274.134 536.476 274.334 536.38 274.483C536.283 274.632 536.084 274.674 535.934 274.578Z" fill="white"/>
<path opacity="0.3" d="M678.063 337.646C677.914 337.55 677.872 337.35 677.969 337.201C678.065 337.052 678.265 337.01 678.414 337.107C678.563 337.203 678.605 337.403 678.508 337.552C678.412 337.701 678.212 337.743 678.063 337.646Z" fill="white"/>
<path d="M625.418 282.757C625.269 282.661 625.227 282.461 625.324 282.312C625.42 282.163 625.62 282.121 625.769 282.217C625.918 282.314 625.96 282.513 625.863 282.662C625.767 282.812 625.567 282.854 625.418 282.757Z" fill="white"/>
<path d="M584.182 255.23C584.032 255.133 583.99 254.934 584.087 254.785C584.184 254.636 584.383 254.593 584.532 254.69C584.681 254.787 584.723 254.986 584.627 255.135C584.53 255.284 584.331 255.327 584.182 255.23Z" fill="white"/>
<path d="M627.658 319.518C627.509 319.421 627.466 319.222 627.563 319.073C627.66 318.924 627.859 318.881 628.008 318.978C628.157 319.075 628.199 319.274 628.103 319.423C628.006 319.572 627.807 319.615 627.658 319.518Z" fill="white"/>
<path opacity="0.3" d="M646.561 331.787C646.412 331.69 646.369 331.491 646.466 331.341C646.563 331.192 646.762 331.15 646.911 331.247C647.06 331.343 647.103 331.543 647.006 331.692C646.909 331.841 646.71 331.883 646.561 331.787Z" fill="white"/>
<path opacity="0.11" d="M679.567 329.412C679.418 329.315 679.375 329.116 679.472 328.967C679.569 328.818 679.768 328.775 679.917 328.872C680.066 328.969 680.109 329.168 680.012 329.317C679.915 329.466 679.716 329.509 679.567 329.412Z" fill="white"/>
<path opacity="0.3" d="M616.348 286.083C616.199 285.987 616.157 285.787 616.253 285.638C616.35 285.489 616.549 285.447 616.698 285.544C616.847 285.64 616.89 285.84 616.793 285.989C616.696 286.138 616.497 286.18 616.348 286.083Z" fill="white"/>
<path opacity="0.3" d="M619.735 321.67C619.586 321.573 619.544 321.374 619.64 321.225C619.737 321.076 619.936 321.033 620.086 321.13C620.235 321.227 620.277 321.426 620.18 321.575C620.084 321.724 619.884 321.767 619.735 321.67Z" fill="white"/>
<path opacity="0.3" d="M650.66 345.575C650.51 345.478 650.468 345.279 650.565 345.13C650.662 344.98 650.861 344.938 651.01 345.035C651.159 345.132 651.201 345.331 651.105 345.48C651.008 345.629 650.809 345.671 650.66 345.575Z" fill="white"/>
<path opacity="0.3" d="M670.23 332.565C670.081 332.468 670.039 332.269 670.136 332.12C670.232 331.971 670.432 331.928 670.581 332.025C670.73 332.122 670.772 332.321 670.675 332.47C670.579 332.619 670.379 332.662 670.23 332.565Z" fill="white"/>
<path opacity="0.3" d="M502.792 222.752C502.643 222.656 502.6 222.456 502.697 222.307C502.794 222.158 502.993 222.116 503.142 222.213C503.291 222.309 503.334 222.509 503.237 222.658C503.14 222.807 502.941 222.849 502.792 222.752Z" fill="white"/>
<path opacity="0.11" d="M553.454 239.893C553.305 239.797 553.263 239.597 553.36 239.448C553.456 239.299 553.656 239.257 553.805 239.354C553.954 239.45 553.996 239.65 553.9 239.799C553.803 239.948 553.604 239.99 553.454 239.893Z" fill="white"/>
<path opacity="0.11" d="M502.547 239.094C502.398 238.997 502.356 238.798 502.452 238.649C502.549 238.5 502.748 238.457 502.898 238.554C503.047 238.651 503.089 238.85 502.992 238.999C502.896 239.148 502.696 239.19 502.547 239.094Z" fill="white"/>
<path opacity="0.3" d="M569.292 285.863C568.993 285.67 568.908 285.271 569.102 284.972C569.296 284.674 569.695 284.589 569.993 284.783C570.291 284.976 570.376 285.375 570.183 285.674C569.989 285.972 569.59 286.057 569.292 285.863Z" fill="white"/>
<path opacity="0.11" d="M558.615 267.422C558.316 267.229 558.232 266.83 558.425 266.531C558.619 266.233 559.018 266.148 559.316 266.342C559.615 266.535 559.699 266.934 559.506 267.233C559.312 267.531 558.913 267.616 558.615 267.422Z" fill="white"/>
<path d="M564.883 258.059C564.659 257.913 564.595 257.614 564.74 257.391C564.886 257.167 565.185 257.103 565.408 257.248C565.632 257.394 565.696 257.693 565.551 257.916C565.405 258.14 565.106 258.204 564.883 258.059Z" fill="white"/>
<path d="M565.114 298.505C564.89 298.36 564.826 298.061 564.971 297.837C565.117 297.613 565.416 297.549 565.639 297.695C565.863 297.84 565.927 298.139 565.782 298.363C565.636 298.586 565.337 298.65 565.114 298.505Z" fill="white"/>
<path d="M471.955 245.724C471.732 245.579 471.668 245.28 471.813 245.056C471.958 244.832 472.257 244.769 472.481 244.914C472.705 245.059 472.769 245.358 472.623 245.582C472.478 245.806 472.179 245.869 471.955 245.724Z" fill="white"/>
<path d="M650.195 354.868C649.971 354.722 649.908 354.423 650.053 354.2C650.198 353.976 650.497 353.912 650.721 354.057C650.945 354.203 651.008 354.502 650.863 354.725C650.718 354.949 650.419 355.013 650.195 354.868Z" fill="white"/>
<path d="M690.138 371.964C689.915 371.819 689.851 371.52 689.996 371.296C690.141 371.072 690.44 371.008 690.664 371.154C690.888 371.299 690.952 371.598 690.806 371.822C690.661 372.045 690.362 372.109 690.138 371.964Z" fill="white"/>
<path d="M701.74 364.142C701.516 363.996 701.452 363.697 701.597 363.474C701.742 363.25 702.042 363.186 702.265 363.331C702.489 363.477 702.553 363.776 702.408 363.999C702.262 364.223 701.963 364.287 701.74 364.142Z" fill="white"/>
<path d="M574.338 271.871C574.114 271.726 574.051 271.427 574.196 271.203C574.341 270.979 574.64 270.916 574.864 271.061C575.088 271.206 575.151 271.505 575.006 271.729C574.861 271.953 574.562 272.016 574.338 271.871Z" fill="white"/>
<path d="M608.359 322.347C608.135 322.201 608.071 321.902 608.216 321.679C608.362 321.455 608.661 321.391 608.884 321.536C609.108 321.682 609.172 321.981 609.027 322.204C608.881 322.428 608.582 322.492 608.359 322.347Z" fill="white"/>
<path d="M532.772 289.797C532.548 289.652 532.484 289.353 532.63 289.129C532.775 288.906 533.074 288.842 533.298 288.987C533.521 289.132 533.585 289.431 533.44 289.655C533.295 289.879 532.995 289.942 532.772 289.797Z" fill="white"/>
<path d="M473.129 224.994C472.905 224.848 472.842 224.549 472.987 224.326C473.132 224.102 473.431 224.038 473.655 224.183C473.879 224.329 473.942 224.628 473.797 224.851C473.652 225.075 473.353 225.139 473.129 224.994Z" fill="white"/>
<path d="M476.286 205.935C476.062 205.79 475.998 205.491 476.144 205.267C476.289 205.043 476.588 204.98 476.812 205.125C477.035 205.27 477.099 205.569 476.954 205.793C476.809 206.017 476.51 206.08 476.286 205.935Z" fill="white"/>
<path opacity="0.3" d="M542.427 243.87C542.129 243.676 542.044 243.278 542.238 242.979C542.431 242.681 542.83 242.596 543.129 242.79C543.427 242.983 543.512 243.382 543.318 243.68C543.125 243.979 542.726 244.064 542.427 243.87Z" fill="white"/>
<path d="M554.872 224.698C554.574 224.504 554.489 224.105 554.683 223.807C554.876 223.508 555.275 223.423 555.573 223.617C555.872 223.811 555.957 224.21 555.763 224.508C555.569 224.806 555.171 224.891 554.872 224.698Z" fill="white"/>
<path d="M524.665 240.786C524.442 240.64 524.378 240.341 524.523 240.118C524.668 239.894 524.967 239.83 525.191 239.975C525.415 240.121 525.478 240.42 525.333 240.643C525.188 240.867 524.889 240.931 524.665 240.786Z" fill="white"/>
<path opacity="0.3" d="M518.402 221.755C518.104 221.561 518.019 221.162 518.212 220.864C518.406 220.566 518.805 220.481 519.103 220.674C519.402 220.868 519.487 221.267 519.293 221.565C519.099 221.864 518.7 221.948 518.402 221.755Z" fill="white"/>
<path opacity="0.3" d="M479.225 223.578C478.927 223.384 478.842 222.986 479.036 222.687C479.229 222.389 479.628 222.304 479.926 222.498C480.225 222.691 480.31 223.09 480.116 223.388C479.923 223.687 479.524 223.772 479.225 223.578Z" fill="white"/>
<path opacity="0.3" d="M510.471 244.622C510.172 244.428 510.088 244.029 510.281 243.731C510.475 243.432 510.874 243.347 511.172 243.541C511.47 243.735 511.555 244.134 511.362 244.432C511.168 244.73 510.769 244.815 510.471 244.622Z" fill="white"/>
<path opacity="0.3" d="M662.497 349.803C662.198 349.61 662.113 349.211 662.307 348.912C662.501 348.614 662.9 348.529 663.198 348.723C663.496 348.916 663.581 349.315 663.388 349.614C663.194 349.912 662.795 349.997 662.497 349.803Z" fill="white"/>
<path opacity="0.3" d="M694.012 349.147C693.713 348.953 693.629 348.554 693.822 348.256C694.016 347.958 694.415 347.873 694.713 348.066C695.012 348.26 695.096 348.659 694.903 348.957C694.709 349.256 694.31 349.341 694.012 349.147Z" fill="white"/>
<path opacity="0.11" d="M495.555 222.662C495.256 222.468 495.172 222.07 495.365 221.771C495.559 221.473 495.958 221.388 496.256 221.581C496.554 221.775 496.639 222.174 496.446 222.472C496.252 222.771 495.853 222.856 495.555 222.662Z" fill="white"/>
<path opacity="0.3" d="M661.353 314.905C661.055 314.712 660.97 314.313 661.164 314.014C661.357 313.716 661.756 313.631 662.054 313.825C662.353 314.018 662.438 314.417 662.244 314.716C662.05 315.014 661.652 315.099 661.353 314.905Z" fill="white"/>
<path opacity="0.11" d="M672.149 314.236C671.851 314.043 671.766 313.644 671.959 313.345C672.153 313.047 672.552 312.962 672.85 313.156C673.149 313.349 673.234 313.748 673.04 314.047C672.846 314.345 672.447 314.43 672.149 314.236Z" fill="white"/>
<path opacity="0.3" d="M663.092 332.921C662.794 332.727 662.709 332.328 662.903 332.03C663.096 331.732 663.495 331.647 663.794 331.84C664.092 332.034 664.177 332.433 663.983 332.731C663.79 333.03 663.391 333.115 663.092 332.921Z" fill="white"/>
<path d="M646.392 321.698C646.169 321.553 646.105 321.254 646.25 321.03C646.395 320.806 646.694 320.743 646.918 320.888C647.142 321.033 647.206 321.332 647.06 321.556C646.915 321.78 646.616 321.843 646.392 321.698Z" fill="white"/>
<path opacity="0.11" d="M557.951 146.725C557.653 146.531 557.568 146.133 557.762 145.834C557.955 145.536 558.354 145.451 558.653 145.644C558.951 145.838 559.036 146.237 558.842 146.535C558.649 146.834 558.25 146.919 557.951 146.725Z" fill="white"/>
<path d="M554.27 148.557C554.047 148.412 553.983 148.113 554.128 147.889C554.273 147.665 554.572 147.602 554.796 147.747C555.02 147.892 555.083 148.191 554.938 148.415C554.793 148.639 554.494 148.702 554.27 148.557Z" fill="white"/>
<path d="M549.037 137.103C548.813 136.958 548.749 136.659 548.895 136.435C549.04 136.212 549.339 136.148 549.563 136.293C549.786 136.438 549.85 136.738 549.705 136.961C549.56 137.185 549.261 137.249 549.037 137.103Z" fill="white"/>
<path d="M572.343 151.458C572.119 151.313 572.055 151.014 572.2 150.79C572.346 150.567 572.645 150.503 572.868 150.648C573.092 150.793 573.156 151.093 573.011 151.316C572.865 151.54 572.566 151.604 572.343 151.458Z" fill="white"/>
<path opacity="0.11" d="M581.505 166.615C581.207 166.421 581.122 166.022 581.315 165.724C581.509 165.425 581.908 165.34 582.206 165.534C582.505 165.728 582.59 166.127 582.396 166.425C582.202 166.723 581.803 166.808 581.505 166.615Z" fill="white"/>
<path d="M590.49 164.003C590.341 163.907 590.298 163.707 590.395 163.558C590.492 163.409 590.691 163.367 590.84 163.464C590.989 163.56 591.031 163.76 590.935 163.909C590.838 164.058 590.639 164.1 590.49 164.003Z" fill="white"/>
<path d="M551.93 157.783C551.78 157.686 551.738 157.487 551.835 157.338C551.932 157.189 552.131 157.147 552.28 157.243C552.429 157.34 552.471 157.539 552.375 157.688C552.278 157.837 552.079 157.88 551.93 157.783Z" fill="white"/>
<path d="M493.058 119.58C492.909 119.484 492.866 119.284 492.963 119.135C493.06 118.986 493.259 118.944 493.408 119.041C493.557 119.137 493.6 119.337 493.503 119.486C493.406 119.635 493.207 119.677 493.058 119.58Z" fill="white"/>
<path d="M473.088 85.8954C472.939 85.7987 472.897 85.5994 472.993 85.4503C473.09 85.3013 473.29 85.2589 473.439 85.3556C473.588 85.4523 473.63 85.6516 473.533 85.8007C473.437 85.9497 473.237 85.9922 473.088 85.8954Z" fill="white"/>
<path d="M449.762 98.7743C449.613 98.6776 449.57 98.4783 449.667 98.3293C449.764 98.1802 449.963 98.1378 450.112 98.2345C450.261 98.3312 450.303 98.5305 450.207 98.6796C450.11 98.8287 449.911 98.8711 449.762 98.7743Z" fill="white"/>
<path d="M646.235 209.389C646.086 209.292 646.044 209.093 646.14 208.944C646.237 208.795 646.436 208.753 646.586 208.849C646.735 208.946 646.777 209.145 646.68 209.294C646.584 209.443 646.384 209.486 646.235 209.389Z" fill="white"/>
<path opacity="0.11" d="M659.747 197.435C659.598 197.338 659.555 197.139 659.652 196.99C659.749 196.841 659.948 196.798 660.097 196.895C660.246 196.992 660.289 197.191 660.192 197.34C660.095 197.489 659.896 197.532 659.747 197.435Z" fill="white"/>
<path opacity="0.11" d="M667.328 211.181C667.178 211.084 667.136 210.885 667.233 210.736C667.329 210.587 667.529 210.545 667.678 210.641C667.827 210.738 667.869 210.937 667.773 211.086C667.676 211.235 667.477 211.278 667.328 211.181Z" fill="white"/>
<path opacity="0.11" d="M647.901 221.601C647.752 221.505 647.71 221.305 647.806 221.156C647.903 221.007 648.103 220.965 648.252 221.062C648.401 221.158 648.443 221.358 648.346 221.507C648.25 221.656 648.05 221.698 647.901 221.601Z" fill="white"/>
<path opacity="0.11" d="M590.644 169.09C590.495 168.994 590.452 168.794 590.549 168.645C590.646 168.496 590.845 168.454 590.994 168.55C591.143 168.647 591.186 168.846 591.089 168.995C590.992 169.145 590.793 169.187 590.644 169.09Z" fill="white"/>
<path opacity="0.11" d="M546.157 167.855C546.008 167.759 545.966 167.559 546.062 167.41C546.159 167.261 546.358 167.219 546.507 167.316C546.656 167.412 546.699 167.612 546.602 167.761C546.505 167.91 546.306 167.952 546.157 167.855Z" fill="white"/>
<path opacity="0.11" d="M496.064 131.507C495.915 131.411 495.872 131.211 495.969 131.062C496.066 130.913 496.265 130.871 496.414 130.967C496.563 131.064 496.606 131.263 496.509 131.412C496.412 131.562 496.213 131.604 496.064 131.507Z" fill="white"/>
<path opacity="0.3" d="M638.193 194.576C638.044 194.479 638.002 194.28 638.098 194.131C638.195 193.982 638.394 193.94 638.544 194.036C638.693 194.133 638.735 194.332 638.638 194.481C638.542 194.63 638.342 194.673 638.193 194.576Z" fill="white"/>
<path d="M585.547 139.687C585.398 139.59 585.356 139.391 585.452 139.242C585.549 139.093 585.748 139.05 585.898 139.147C586.047 139.244 586.089 139.443 585.992 139.592C585.896 139.741 585.696 139.784 585.547 139.687Z" fill="white"/>
<path d="M544.311 112.16C544.162 112.063 544.12 111.864 544.217 111.715C544.313 111.565 544.513 111.523 544.662 111.62C544.811 111.716 544.853 111.916 544.756 112.065C544.66 112.214 544.46 112.256 544.311 112.16Z" fill="white"/>
<path d="M587.787 176.449C587.638 176.352 587.595 176.153 587.692 176.004C587.789 175.854 587.988 175.812 588.137 175.909C588.286 176.006 588.329 176.205 588.232 176.354C588.135 176.503 587.936 176.545 587.787 176.449Z" fill="white"/>
<path opacity="0.3" d="M606.691 188.716C606.542 188.619 606.499 188.42 606.596 188.271C606.693 188.122 606.892 188.079 607.041 188.176C607.19 188.273 607.233 188.472 607.136 188.621C607.039 188.77 606.84 188.812 606.691 188.716Z" fill="white"/>
<path opacity="0.11" d="M639.697 186.343C639.548 186.246 639.505 186.047 639.602 185.898C639.699 185.749 639.898 185.706 640.047 185.803C640.196 185.9 640.238 186.099 640.142 186.248C640.045 186.397 639.846 186.439 639.697 186.343Z" fill="white"/>
<path opacity="0.3" d="M576.477 143.013C576.328 142.916 576.286 142.717 576.383 142.568C576.479 142.419 576.679 142.377 576.828 142.473C576.977 142.57 577.019 142.769 576.922 142.918C576.826 143.067 576.626 143.11 576.477 143.013Z" fill="white"/>
<path opacity="0.3" d="M579.865 178.6C579.716 178.503 579.673 178.304 579.77 178.155C579.867 178.006 580.066 177.963 580.215 178.06C580.364 178.157 580.406 178.356 580.31 178.505C580.213 178.654 580.014 178.697 579.865 178.6Z" fill="white"/>
<path opacity="0.3" d="M610.789 202.505C610.64 202.408 610.597 202.209 610.694 202.06C610.791 201.911 610.99 201.868 611.139 201.965C611.288 202.062 611.331 202.261 611.234 202.41C611.137 202.559 610.938 202.602 610.789 202.505Z" fill="white"/>
<path opacity="0.3" d="M630.36 189.495C630.211 189.398 630.169 189.199 630.265 189.05C630.362 188.901 630.561 188.858 630.711 188.955C630.86 189.052 630.902 189.251 630.805 189.4C630.709 189.549 630.509 189.592 630.36 189.495Z" fill="white"/>
<path opacity="0.3" d="M462.921 79.682C462.772 79.5853 462.73 79.386 462.826 79.237C462.923 79.0879 463.123 79.0455 463.272 79.1422C463.421 79.239 463.463 79.4382 463.366 79.5873C463.27 79.7364 463.07 79.7788 462.921 79.682Z" fill="white"/>
<path opacity="0.11" d="M513.584 96.8246C513.435 96.7279 513.392 96.5286 513.489 96.3795C513.586 96.2305 513.785 96.1881 513.934 96.2848C514.083 96.3815 514.126 96.5808 514.029 96.7299C513.932 96.8789 513.733 96.9214 513.584 96.8246Z" fill="white"/>
<path opacity="0.11" d="M462.678 96.0243C462.529 95.9276 462.486 95.7283 462.583 95.5792C462.68 95.4302 462.879 95.3878 463.028 95.4845C463.177 95.5812 463.219 95.7805 463.123 95.9296C463.026 96.0787 462.827 96.1211 462.678 96.0243Z" fill="white"/>
<path opacity="0.3" d="M529.421 142.793C529.123 142.6 529.038 142.201 529.231 141.903C529.425 141.604 529.824 141.519 530.122 141.713C530.421 141.906 530.506 142.305 530.312 142.604C530.118 142.902 529.719 142.987 529.421 142.793Z" fill="white"/>
<path opacity="0.11" d="M518.745 124.353C518.446 124.159 518.361 123.76 518.555 123.462C518.749 123.163 519.148 123.078 519.446 123.272C519.744 123.466 519.829 123.864 519.636 124.163C519.442 124.461 519.043 124.546 518.745 124.353Z" fill="white"/>
<path d="M525.012 114.988C524.788 114.843 524.725 114.544 524.87 114.32C525.015 114.096 525.314 114.033 525.538 114.178C525.761 114.323 525.825 114.622 525.68 114.846C525.535 115.07 525.236 115.133 525.012 114.988Z" fill="white"/>
<path d="M525.243 155.435C525.019 155.289 524.956 154.99 525.101 154.767C525.246 154.543 525.545 154.479 525.769 154.624C525.992 154.77 526.056 155.069 525.911 155.292C525.766 155.516 525.467 155.58 525.243 155.435Z" fill="white"/>
<path d="M432.085 102.654C431.861 102.509 431.798 102.209 431.943 101.986C432.088 101.762 432.387 101.698 432.611 101.844C432.835 101.989 432.898 102.288 432.753 102.512C432.608 102.735 432.309 102.799 432.085 102.654Z" fill="white"/>
<path d="M610.324 211.798C610.101 211.653 610.037 211.354 610.182 211.13C610.327 210.906 610.627 210.842 610.85 210.988C611.074 211.133 611.138 211.432 610.992 211.656C610.847 211.879 610.548 211.943 610.324 211.798Z" fill="white"/>
<path d="M650.268 228.894C650.044 228.749 649.98 228.45 650.126 228.226C650.271 228.002 650.57 227.939 650.794 228.084C651.017 228.229 651.081 228.528 650.936 228.752C650.791 228.976 650.492 229.039 650.268 228.894Z" fill="white"/>
<path d="M661.869 221.071C661.646 220.926 661.582 220.627 661.727 220.403C661.872 220.18 662.171 220.116 662.395 220.261C662.619 220.406 662.683 220.705 662.537 220.929C662.392 221.153 662.093 221.216 661.869 221.071Z" fill="white"/>
<path d="M534.468 128.801C534.244 128.656 534.181 128.357 534.326 128.133C534.471 127.909 534.77 127.846 534.994 127.991C535.218 128.136 535.281 128.435 535.136 128.659C534.991 128.883 534.692 128.946 534.468 128.801Z" fill="white"/>
<path d="M568.489 179.276C568.265 179.131 568.201 178.832 568.346 178.608C568.492 178.385 568.791 178.321 569.014 178.466C569.238 178.611 569.302 178.91 569.157 179.134C569.011 179.358 568.712 179.422 568.489 179.276Z" fill="white"/>
<path d="M492.902 146.727C492.678 146.582 492.614 146.283 492.759 146.059C492.905 145.835 493.204 145.772 493.427 145.917C493.651 146.062 493.715 146.361 493.57 146.585C493.424 146.809 493.125 146.872 492.902 146.727Z" fill="white"/>
<path d="M433.259 81.9233C433.035 81.7781 432.971 81.479 433.116 81.2553C433.262 81.0316 433.561 80.9679 433.784 81.1131C434.008 81.2583 434.072 81.5573 433.927 81.7811C433.781 82.0048 433.482 82.0685 433.259 81.9233Z" fill="white"/>
<path d="M436.415 62.8662C436.191 62.721 436.127 62.4219 436.273 62.1982C436.418 61.9744 436.717 61.9108 436.941 62.056C437.164 62.2012 437.228 62.5002 437.083 62.724C436.938 62.9477 436.639 63.0114 436.415 62.8662Z" fill="white"/>
<path opacity="0.3" d="M502.557 100.799C502.259 100.606 502.174 100.207 502.368 99.9084C502.561 99.61 502.96 99.5251 503.259 99.7187C503.557 99.9124 503.642 100.311 503.448 100.61C503.255 100.908 502.856 100.993 502.557 100.799Z" fill="white"/>
<path d="M515.002 81.6279C514.704 81.4343 514.619 81.0354 514.812 80.737C515.006 80.4386 515.405 80.3537 515.703 80.5473C516.002 80.741 516.087 81.1398 515.893 81.4382C515.699 81.7366 515.3 81.8216 515.002 81.6279Z" fill="white"/>
<path d="M484.795 97.7158C484.571 97.5706 484.507 97.2715 484.652 97.0478C484.798 96.824 485.097 96.7604 485.32 96.9056C485.544 97.0508 485.608 97.3498 485.463 97.5736C485.317 97.7973 485.018 97.861 484.795 97.7158Z" fill="white"/>
<path opacity="0.3" d="M478.531 78.6846C478.233 78.4909 478.148 78.092 478.342 77.7936C478.535 77.4952 478.934 77.4103 479.233 77.604C479.531 77.7976 479.616 78.1965 479.422 78.4949C479.229 78.7933 478.83 78.8782 478.531 78.6846Z" fill="white"/>
<path opacity="0.3" d="M439.355 80.5083C439.057 80.3146 438.972 79.9158 439.165 79.6174C439.359 79.319 439.758 79.234 440.056 79.4277C440.355 79.6213 440.44 80.0202 440.246 80.3186C440.052 80.617 439.654 80.7019 439.355 80.5083Z" fill="white"/>
<path opacity="0.3" d="M470.601 101.552C470.302 101.358 470.217 100.959 470.411 100.661C470.605 100.362 471.004 100.278 471.302 100.471C471.6 100.665 471.685 101.064 471.492 101.362C471.298 101.66 470.899 101.745 470.601 101.552Z" fill="white"/>
<path opacity="0.3" d="M622.627 206.733C622.328 206.54 622.243 206.141 622.437 205.842C622.631 205.544 623.029 205.459 623.328 205.653C623.626 205.846 623.711 206.245 623.518 206.544C623.324 206.842 622.925 206.927 622.627 206.733Z" fill="white"/>
<path opacity="0.3" d="M654.142 206.077C653.843 205.883 653.758 205.485 653.952 205.186C654.146 204.888 654.545 204.803 654.843 204.997C655.141 205.19 655.226 205.589 655.033 205.887C654.839 206.186 654.44 206.271 654.142 206.077Z" fill="white"/>
<path opacity="0.11" d="M455.684 79.5923C455.386 79.3986 455.301 78.9997 455.495 78.7013C455.688 78.4029 456.087 78.318 456.385 78.5117C456.684 78.7053 456.769 79.1042 456.575 79.4026C456.382 79.701 455.983 79.7859 455.684 79.5923Z" fill="white"/>
<path opacity="0.3" d="M621.483 171.836C621.185 171.642 621.1 171.243 621.293 170.945C621.487 170.647 621.886 170.562 622.184 170.755C622.483 170.949 622.568 171.348 622.374 171.646C622.18 171.945 621.781 172.03 621.483 171.836Z" fill="white"/>
<path opacity="0.11" d="M632.279 171.166C631.981 170.972 631.896 170.573 632.09 170.275C632.283 169.977 632.682 169.892 632.981 170.085C633.279 170.279 633.364 170.678 633.17 170.976C632.977 171.275 632.578 171.36 632.279 171.166Z" fill="white"/>
<path opacity="0.3" d="M623.221 189.851C622.923 189.657 622.838 189.258 623.032 188.96C623.225 188.661 623.624 188.576 623.923 188.77C624.221 188.964 624.306 189.363 624.112 189.661C623.919 189.959 623.52 190.044 623.221 189.851Z" fill="white"/>
<path d="M606.522 178.628C606.298 178.483 606.234 178.184 606.38 177.96C606.525 177.737 606.824 177.673 607.048 177.818C607.271 177.963 607.335 178.262 607.19 178.486C607.045 178.71 606.745 178.774 606.522 178.628Z" fill="white"/>
<path opacity="0.11" d="M388.495 96.8862C388.197 96.6926 388.112 96.2937 388.306 95.9953C388.499 95.6969 388.898 95.612 389.197 95.8056C389.495 95.9993 389.58 96.3981 389.386 96.6965C389.193 96.9949 388.794 97.0799 388.495 96.8862Z" fill="white"/>
<path d="M384.814 98.7182C384.59 98.573 384.527 98.274 384.672 98.0502C384.817 97.8265 385.116 97.7628 385.34 97.908C385.564 98.0532 385.627 98.3523 385.482 98.576C385.337 98.7997 385.038 98.8634 384.814 98.7182Z" fill="white"/>
<path d="M379.581 87.2646C379.357 87.1194 379.293 86.8203 379.439 86.5966C379.584 86.3729 379.883 86.3092 380.107 86.4544C380.33 86.5996 380.394 86.8987 380.249 87.1224C380.104 87.3461 379.805 87.4098 379.581 87.2646Z" fill="white"/>
<path d="M402.887 101.619C402.663 101.474 402.6 101.175 402.745 100.951C402.89 100.727 403.189 100.664 403.413 100.809C403.637 100.954 403.7 101.253 403.555 101.477C403.41 101.701 403.111 101.764 402.887 101.619Z" fill="white"/>
<path opacity="0.11" d="M412.049 116.775C411.751 116.582 411.666 116.183 411.86 115.884C412.053 115.586 412.452 115.501 412.751 115.695C413.049 115.888 413.134 116.287 412.94 116.586C412.747 116.884 412.348 116.969 412.049 116.775Z" fill="white"/>
<path d="M421.034 114.164C420.885 114.067 420.843 113.868 420.939 113.719C421.036 113.57 421.235 113.527 421.384 113.624C421.533 113.721 421.576 113.92 421.479 114.069C421.382 114.218 421.183 114.261 421.034 114.164Z" fill="white"/>
<path d="M382.474 107.944C382.325 107.848 382.283 107.648 382.38 107.499C382.476 107.35 382.676 107.308 382.825 107.404C382.974 107.501 383.016 107.7 382.92 107.85C382.823 107.999 382.624 108.041 382.474 107.944Z" fill="white"/>
<path d="M323.602 69.7411C323.453 69.6444 323.41 69.4451 323.507 69.2961C323.604 69.147 323.803 69.1046 323.952 69.2013C324.101 69.298 324.144 69.4973 324.047 69.6464C323.95 69.7954 323.751 69.8379 323.602 69.7411Z" fill="white"/>
<path d="M303.632 36.0561C303.483 35.9593 303.441 35.7601 303.537 35.611C303.634 35.4619 303.833 35.4195 303.983 35.5162C304.132 35.613 304.174 35.8123 304.077 35.9613C303.981 36.1104 303.781 36.1528 303.632 36.0561Z" fill="white"/>
<path d="M280.306 48.9345C280.156 48.8377 280.114 48.6385 280.211 48.4894C280.308 48.3403 280.507 48.2979 280.656 48.3946C280.805 48.4914 280.847 48.6907 280.751 48.8397C280.654 48.9888 280.455 49.0312 280.306 48.9345Z" fill="white"/>
<path d="M476.78 159.55C476.631 159.453 476.589 159.254 476.685 159.105C476.782 158.956 476.981 158.914 477.13 159.01C477.28 159.107 477.322 159.306 477.225 159.455C477.128 159.605 476.929 159.647 476.78 159.55Z" fill="white"/>
<path opacity="0.11" d="M490.291 147.596C490.142 147.499 490.1 147.3 490.197 147.151C490.293 147.002 490.493 146.96 490.642 147.056C490.791 147.153 490.833 147.352 490.736 147.501C490.64 147.65 490.44 147.693 490.291 147.596Z" fill="white"/>
<path opacity="0.11" d="M497.871 161.343C497.722 161.246 497.679 161.047 497.776 160.898C497.873 160.749 498.072 160.706 498.221 160.803C498.37 160.9 498.413 161.099 498.316 161.248C498.219 161.397 498.02 161.439 497.871 161.343Z" fill="white"/>
<path opacity="0.11" d="M478.446 171.762C478.297 171.665 478.254 171.466 478.351 171.317C478.448 171.168 478.647 171.126 478.796 171.222C478.945 171.319 478.987 171.518 478.891 171.667C478.794 171.816 478.595 171.859 478.446 171.762Z" fill="white"/>
<path opacity="0.11" d="M421.188 119.251C421.039 119.155 420.997 118.955 421.094 118.806C421.19 118.657 421.39 118.615 421.539 118.712C421.688 118.808 421.73 119.008 421.633 119.157C421.537 119.306 421.337 119.348 421.188 119.251Z" fill="white"/>
<path opacity="0.11" d="M376.705 118.016C376.556 117.919 376.514 117.72 376.611 117.571C376.707 117.422 376.907 117.379 377.056 117.476C377.205 117.573 377.247 117.772 377.151 117.921C377.054 118.07 376.855 118.113 376.705 118.016Z" fill="white"/>
<path opacity="0.11" d="M326.608 81.6684C326.459 81.5716 326.416 81.3724 326.513 81.2233C326.61 81.0742 326.809 81.0318 326.958 81.1286C327.107 81.2253 327.15 81.4246 327.053 81.5736C326.956 81.7227 326.757 81.7651 326.608 81.6684Z" fill="white"/>
<path opacity="0.3" d="M468.737 144.737C468.588 144.64 468.546 144.441 468.642 144.292C468.739 144.143 468.938 144.101 469.088 144.197C469.237 144.294 469.279 144.493 469.182 144.642C469.086 144.792 468.886 144.834 468.737 144.737Z" fill="white"/>
<path d="M416.092 89.8485C415.943 89.7518 415.901 89.5525 415.997 89.4035C416.094 89.2544 416.293 89.212 416.442 89.3087C416.592 89.4055 416.634 89.6047 416.537 89.7538C416.44 89.9029 416.241 89.9453 416.092 89.8485Z" fill="white"/>
<path d="M374.855 62.3207C374.706 62.224 374.664 62.0247 374.761 61.8757C374.857 61.7266 375.057 61.6842 375.206 61.7809C375.355 61.8776 375.397 62.0769 375.3 62.226C375.204 62.375 375.004 62.4175 374.855 62.3207Z" fill="white"/>
<path d="M418.332 126.61C418.183 126.513 418.14 126.314 418.237 126.165C418.334 126.016 418.533 125.973 418.682 126.07C418.831 126.167 418.874 126.366 418.777 126.515C418.68 126.664 418.481 126.707 418.332 126.61Z" fill="white"/>
<path opacity="0.3" d="M437.235 138.877C437.086 138.781 437.043 138.581 437.14 138.432C437.237 138.283 437.436 138.241 437.585 138.338C437.734 138.434 437.777 138.634 437.68 138.783C437.583 138.932 437.384 138.974 437.235 138.877Z" fill="white"/>
<path opacity="0.11" d="M470.241 136.503C470.092 136.407 470.049 136.207 470.146 136.058C470.243 135.909 470.442 135.867 470.591 135.964C470.74 136.06 470.782 136.26 470.686 136.409C470.589 136.558 470.39 136.6 470.241 136.503Z" fill="white"/>
<path opacity="0.3" d="M407.022 93.1747C406.873 93.078 406.83 92.8787 406.927 92.7296C407.024 92.5806 407.223 92.5381 407.372 92.6349C407.521 92.7316 407.564 92.9309 407.467 93.08C407.37 93.229 407.171 93.2715 407.022 93.1747Z" fill="white"/>
<path opacity="0.3" d="M410.409 128.761C410.26 128.664 410.217 128.465 410.314 128.316C410.411 128.167 410.61 128.125 410.759 128.221C410.908 128.318 410.95 128.517 410.854 128.666C410.757 128.815 410.558 128.858 410.409 128.761Z" fill="white"/>
<path opacity="0.3" d="M441.333 152.666C441.184 152.569 441.142 152.37 441.239 152.221C441.335 152.072 441.535 152.029 441.684 152.126C441.833 152.223 441.875 152.422 441.778 152.571C441.682 152.72 441.482 152.763 441.333 152.666Z" fill="white"/>
<path opacity="0.3" d="M460.905 139.656C460.756 139.559 460.713 139.36 460.81 139.211C460.907 139.062 461.106 139.02 461.255 139.116C461.404 139.213 461.446 139.412 461.35 139.561C461.253 139.71 461.054 139.753 460.905 139.656Z" fill="white"/>
<path opacity="0.3" d="M293.466 29.8437C293.317 29.7469 293.274 29.5477 293.371 29.3986C293.468 29.2495 293.667 29.2071 293.816 29.3038C293.965 29.4006 294.008 29.5998 293.911 29.7489C293.814 29.898 293.615 29.9404 293.466 29.8437Z" fill="white"/>
<path opacity="0.11" d="M344.128 46.9853C343.979 46.8885 343.936 46.6893 344.033 46.5402C344.13 46.3911 344.329 46.3487 344.478 46.4454C344.627 46.5422 344.67 46.7415 344.573 46.8905C344.476 47.0396 344.277 47.082 344.128 46.9853Z" fill="white"/>
<path opacity="0.11" d="M293.222 46.1855C293.072 46.0887 293.03 45.8895 293.127 45.7404C293.224 45.5913 293.423 45.5489 293.572 45.6456C293.721 45.7424 293.763 45.9416 293.667 46.0907C293.57 46.2398 293.371 46.2822 293.222 46.1855Z" fill="white"/>
<path opacity="0.3" d="M359.965 92.9546C359.667 92.7609 359.582 92.362 359.776 92.0636C359.969 91.7652 360.368 91.6803 360.667 91.874C360.965 92.0676 361.05 92.4665 360.856 92.7649C360.663 93.0633 360.264 93.1482 359.965 92.9546Z" fill="white"/>
<path opacity="0.11" d="M349.289 74.5136C348.99 74.32 348.905 73.9211 349.099 73.6227C349.293 73.3243 349.692 73.2394 349.99 73.4331C350.288 73.6267 350.373 74.0256 350.18 74.324C349.986 74.6224 349.587 74.7073 349.289 74.5136Z" fill="white"/>
<path d="M355.556 65.1494C355.332 65.0042 355.269 64.7051 355.414 64.4814C355.559 64.2576 355.858 64.194 356.082 64.3392C356.305 64.4844 356.369 64.7834 356.224 65.0072C356.079 65.2309 355.78 65.2946 355.556 65.1494Z" fill="white"/>
<path d="M355.787 105.596C355.564 105.45 355.5 105.151 355.645 104.928C355.79 104.704 356.089 104.64 356.313 104.785C356.537 104.931 356.601 105.23 356.455 105.453C356.31 105.677 356.011 105.741 355.787 105.596Z" fill="white"/>
<path d="M262.629 52.8154C262.405 52.6702 262.342 52.3711 262.487 52.1474C262.632 51.9237 262.931 51.86 263.155 52.0052C263.379 52.1504 263.442 52.4494 263.297 52.6732C263.152 52.8969 262.853 52.9606 262.629 52.8154Z" fill="white"/>
<path d="M440.868 161.959C440.645 161.814 440.581 161.515 440.726 161.291C440.871 161.067 441.17 161.004 441.394 161.149C441.618 161.294 441.682 161.593 441.536 161.817C441.391 162.04 441.092 162.104 440.868 161.959Z" fill="white"/>
<path d="M480.812 179.055C480.588 178.91 480.524 178.611 480.67 178.387C480.815 178.163 481.114 178.1 481.338 178.245C481.561 178.39 481.625 178.689 481.48 178.913C481.335 179.137 481.036 179.2 480.812 179.055Z" fill="white"/>
<path d="M492.413 171.233C492.189 171.088 492.125 170.789 492.271 170.565C492.416 170.341 492.715 170.277 492.939 170.423C493.162 170.568 493.226 170.867 493.081 171.091C492.936 171.314 492.637 171.378 492.413 171.233Z" fill="white"/>
<path d="M365.012 78.9619C364.788 78.8167 364.725 78.5176 364.87 78.2939C365.015 78.0701 365.314 78.0065 365.538 78.1517C365.762 78.2969 365.825 78.5959 365.68 78.8197C365.535 79.0434 365.236 79.1071 365.012 78.9619Z" fill="white"/>
<path d="M399.032 129.437C398.809 129.292 398.745 128.993 398.89 128.769C399.035 128.546 399.335 128.482 399.558 128.627C399.782 128.772 399.846 129.072 399.7 129.295C399.555 129.519 399.256 129.583 399.032 129.437Z" fill="white"/>
<path d="M323.446 96.8881C323.222 96.7429 323.158 96.4439 323.303 96.2201C323.449 95.9964 323.748 95.9327 323.971 96.0779C324.195 96.2231 324.259 96.5222 324.114 96.7459C323.968 96.9697 323.669 97.0333 323.446 96.8881Z" fill="white"/>
<path d="M263.803 32.0844C263.579 31.9392 263.515 31.6402 263.66 31.4164C263.806 31.1927 264.105 31.129 264.328 31.2742C264.552 31.4194 264.616 31.7185 264.47 31.9422C264.325 32.1659 264.026 32.2296 263.803 32.0844Z" fill="white"/>
<path d="M266.959 13.0268C266.735 12.8816 266.671 12.5825 266.817 12.3588C266.962 12.1351 267.261 12.0714 267.485 12.2166C267.708 12.3618 267.772 12.6609 267.627 12.8846C267.482 13.1083 267.182 13.172 266.959 13.0268Z" fill="white"/>
<path opacity="0.3" d="M333.105 50.9609C332.807 50.7673 332.722 50.3684 332.915 50.07C333.109 49.7716 333.508 49.6867 333.806 49.8803C334.105 50.074 334.19 50.4729 333.996 50.7712C333.802 51.0696 333.404 51.1545 333.105 50.9609Z" fill="white"/>
<path d="M345.546 31.789C345.248 31.5954 345.163 31.1965 345.356 30.8981C345.55 30.5997 345.949 30.5148 346.247 30.7085C346.546 30.9021 346.631 31.301 346.437 31.5994C346.243 31.8978 345.844 31.9827 345.546 31.789Z" fill="white"/>
<path d="M315.339 47.8774C315.115 47.7322 315.051 47.4331 315.196 47.2094C315.342 46.9857 315.641 46.922 315.864 47.0672C316.088 47.2124 316.152 47.5114 316.007 47.7352C315.861 47.9589 315.562 48.0226 315.339 47.8774Z" fill="white"/>
<path opacity="0.3" d="M309.076 28.8462C308.777 28.6525 308.693 28.2536 308.886 27.9553C309.08 27.6569 309.479 27.5719 309.777 27.7656C310.075 27.9592 310.16 28.3581 309.967 28.6565C309.773 28.9549 309.374 29.0398 309.076 28.8462Z" fill="white"/>
<path opacity="0.3" d="M269.899 30.6699C269.6 30.4763 269.515 30.0774 269.709 29.779C269.903 29.4806 270.301 29.3957 270.6 29.5893C270.898 29.783 270.983 30.1818 270.79 30.4802C270.596 30.7786 270.197 30.8635 269.899 30.6699Z" fill="white"/>
<path opacity="0.3" d="M301.145 51.7129C300.846 51.5192 300.761 51.1203 300.955 50.8219C301.149 50.5236 301.548 50.4386 301.846 50.6323C302.144 50.8259 302.229 51.2248 302.036 51.5232C301.842 51.8216 301.443 51.9065 301.145 51.7129Z" fill="white"/>
<path opacity="0.3" d="M453.171 156.895C452.872 156.701 452.787 156.302 452.981 156.004C453.175 155.705 453.573 155.62 453.872 155.814C454.17 156.008 454.255 156.406 454.061 156.705C453.868 157.003 453.469 157.088 453.171 156.895Z" fill="white"/>
<path opacity="0.3" d="M484.686 156.239C484.387 156.045 484.302 155.646 484.496 155.348C484.69 155.049 485.089 154.965 485.387 155.158C485.685 155.352 485.77 155.751 485.577 156.049C485.383 156.347 484.984 156.432 484.686 156.239Z" fill="white"/>
<path opacity="0.11" d="M286.229 29.7534C285.93 29.5598 285.845 29.1609 286.039 28.8625C286.233 28.5641 286.632 28.4792 286.93 28.6728C287.228 28.8665 287.313 29.2653 287.12 29.5637C286.926 29.8621 286.527 29.947 286.229 29.7534Z" fill="white"/>
<path opacity="0.3" d="M452.027 121.997C451.729 121.803 451.644 121.405 451.837 121.106C452.031 120.808 452.43 120.723 452.728 120.916C453.027 121.11 453.112 121.509 452.918 121.807C452.724 122.106 452.325 122.191 452.027 121.997Z" fill="white"/>
<path opacity="0.11" d="M462.823 121.328C462.525 121.134 462.44 120.735 462.634 120.437C462.827 120.138 463.226 120.053 463.525 120.247C463.823 120.441 463.908 120.84 463.714 121.138C463.521 121.436 463.122 121.521 462.823 121.328Z" fill="white"/>
<path opacity="0.3" d="M453.766 140.012C453.467 139.818 453.382 139.419 453.576 139.121C453.77 138.822 454.169 138.737 454.467 138.931C454.765 139.125 454.85 139.524 454.657 139.822C454.463 140.12 454.064 140.205 453.766 140.012Z" fill="white"/>
<path d="M437.066 128.789C436.842 128.644 436.779 128.345 436.924 128.121C437.069 127.897 437.368 127.834 437.592 127.979C437.816 128.124 437.879 128.423 437.734 128.647C437.589 128.871 437.29 128.934 437.066 128.789Z" fill="white"/>
</g>
</g>
<mask id="path-341-inside-1_8320_1177" fill="white">
<path d="M-568 -725.805C-568 -1164.98 -211.979 -1521 227.195 -1521H908.805C1347.98 -1521 1704 -1164.98 1704 -725.805V-725.805C1704 -286.63 1347.98 69.3906 908.805 69.3906H227.195C-211.979 69.3906 -568 -286.63 -568 -725.805V-725.805Z"/>
</mask>
<path d="M-568 -725.805C-568 -1164.98 -211.979 -1521 227.195 -1521H908.805C1347.98 -1521 1704 -1164.98 1704 -725.805V-725.805C1704 -286.63 1347.98 69.3906 908.805 69.3906H227.195C-211.979 69.3906 -568 -286.63 -568 -725.805V-725.805Z" fill="#121316"/>
<path d="M-568 -1521H1704H-568ZM1704 -725.805C1704 -286.078 1347.53 70.3906 907.805 70.3906H228.195C-211.531 70.3906 -568 -286.078 -568 -725.805C-568 -287.183 -211.979 68.3906 227.195 68.3906H908.805C1347.98 68.3906 1704 -287.183 1704 -725.805ZM-568 69.3906V-1521V69.3906ZM1704 -1521V69.3906V-1521Z" fill="white" fill-opacity="0.05" mask="url(#path-341-inside-1_8320_1177)"/>
</g>
</g>
<defs>
<radialGradient id="paint0_radial_8320_1177" cx="0" cy="0" r="1" gradientUnits="userSpaceOnUse" gradientTransform="translate(568 133) rotate(27.8416) scale(642.358 530.545)">
<stop/>
<stop offset="0.8" stop-opacity="0"/>
</radialGradient>
<radialGradient id="paint1_radial_8320_1177" cx="0" cy="0" r="1" gradientUnits="userSpaceOnUse" gradientTransform="translate(568 133) rotate(27.8416) scale(642.358 530.545)">
<stop stop-color="#7877C6"/>
<stop offset="0.7" stop-opacity="0"/>
</radialGradient>
<radialGradient id="paint2_radial_8320_1177" cx="0" cy="0" r="1" gradientUnits="userSpaceOnUse" gradientTransform="translate(651 198.5) rotate(39.9732) scale(311.87 307.081)">
<stop/>
<stop offset="1" stop-opacity="0"/>
</radialGradient>
<radialGradient id="paint3_radial_8320_1177" cx="0" cy="0" r="1" gradientUnits="userSpaceOnUse" gradientTransform="translate(239 200.354) rotate(39.9732) scale(311.87 307.081)">
<stop/>
<stop offset="1" stop-opacity="0"/>
</radialGradient>
<clipPath id="clip0_8320_1177">
<rect width="1136" height="433" fill="white"/>
</clipPath>
<clipPath id="clip1_8320_1177">
<rect width="1136" height="600" fill="white" transform="translate(0 -167)"/>
</clipPath>
<clipPath id="clip2_8320_1177">
<rect width="478" height="400.709" fill="white" transform="translate(412 -1.85449)"/>
</clipPath>
<clipPath id="clip3_8320_1177">
<rect width="478" height="400.709" fill="white" transform="matrix(-1 0 0 1 723 -11)"/>
</clipPath>
</defs>
</svg>
