<svg width="144" height="92" viewBox="0 0 144 92" fill="none" xmlns="http://www.w3.org/2000/svg">
<circle cx="36.5" cy="28.5" r="1.5" fill="white" fill-opacity="0.12"/>
<circle cx="1.5" cy="28.5" r="1.5" fill="white" fill-opacity="0.12"/>
<circle cx="1.5" cy="37.5" r="1.5" fill="white" fill-opacity="0.12"/>
<circle cx="45.5" cy="28.5" r="1.5" fill="white" fill-opacity="0.12"/>
<circle cx="45.5" cy="46.5" r="1.5" fill="white" fill-opacity="0.12"/>
<circle cx="62.5" cy="1.5" r="1.5" fill="white" fill-opacity="0.12"/>
<circle cx="71.5" cy="28.5" r="1.5" fill="white" fill-opacity="0.12"/>
<circle cx="80.5" cy="28.5" r="1.5" fill="white" fill-opacity="0.12"/>
<circle cx="124.5" cy="28.5" r="1.5" fill="white" fill-opacity="0.12"/>
<circle cx="89.5" cy="11.5" r="1.5" fill="white" fill-opacity="0.12"/>
<circle cx="80.5" cy="11.5" r="1.5" fill="white" fill-opacity="0.12"/>
<circle cx="71.5" cy="2.5" r="1.5" fill="white" fill-opacity="0.12"/>
<circle cx="71.5" cy="63.5" r="1.5" fill="white" fill-opacity="0.12"/>
<circle cx="71.5" cy="72.5" r="1.5" fill="white" fill-opacity="0.12"/>
<circle cx="71.5" cy="81.5" r="1.5" fill="white" fill-opacity="0.12"/>
<circle cx="62.5" cy="80.5" r="1.5" fill="white" fill-opacity="0.12"/>
<circle cx="89.5" cy="71.5" r="1.5" fill="white" fill-opacity="0.12"/>
<circle cx="98.5" cy="72.5" r="1.5" fill="white" fill-opacity="0.12"/>
<circle cx="98.5" cy="80.5" r="1.5" fill="white" fill-opacity="0.12"/>
<circle cx="107.5" cy="81.5" r="1.5" fill="white" fill-opacity="0.12"/>
<circle cx="107.5" cy="72.5" r="1.5" fill="white" fill-opacity="0.12"/>
<circle cx="124.5" cy="63.5" r="1.5" fill="white" fill-opacity="0.12"/>
<circle cx="133.5" cy="54.5" r="1.5" fill="white" fill-opacity="0.12"/>
<circle cx="142.5" cy="54.5" r="1.5" fill="white" fill-opacity="0.12"/>
<circle cx="115.5" cy="90.5" r="1.5" fill="white" fill-opacity="0.12"/>
<circle cx="115.5" cy="10.5" r="1.5" fill="white" fill-opacity="0.12"/>
<circle cx="18.5" cy="19.5" r="1.5" fill="white" fill-opacity="0.49"/>
<circle cx="36.5" cy="19.5" r="1.5" fill="white" fill-opacity="0.49"/>
<circle cx="36.5" cy="37.5" r="1.5" fill="white" fill-opacity="0.49"/>
<circle cx="54.5" cy="19.5" r="1.5" fill="white" fill-opacity="0.49"/>
<circle cx="62.5" cy="19.5" r="1.5" fill="white" fill-opacity="0.49"/>
<circle cx="62.5" cy="28.5" r="1.5" fill="white" fill-opacity="0.49"/>
<circle cx="98.5" cy="28.5" r="1.5" fill="white" fill-opacity="0.49"/>
<circle cx="124.5" cy="11.5" r="1.5" fill="white" fill-opacity="0.49"/>
<circle cx="133.5" cy="11.5" r="1.5" fill="white" fill-opacity="0.49"/>
<circle cx="80.5" cy="89.5" r="1.5" fill="white" fill-opacity="0.49"/>
<circle cx="89.5" cy="89.5" r="1.5" fill="white" fill-opacity="0.49"/>
<circle cx="89.5" cy="55.5" r="1.5" fill="white" fill-opacity="0.49"/>
<circle cx="98.5" cy="55.5" r="1.5" fill="white" fill-opacity="0.49"/>
<circle cx="98.5" cy="63.5" r="1.5" fill="white" fill-opacity="0.49"/>
<circle cx="107.5" cy="55.5" r="1.5" fill="white" fill-opacity="0.49"/>
<circle cx="124.5" cy="81.5" r="1.5" fill="white" fill-opacity="0.49"/>
<circle cx="124.5" cy="90.5" r="1.5" fill="white" fill-opacity="0.49"/>
<circle cx="133.5" cy="90.5" r="1.5" fill="white" fill-opacity="0.49"/>
<circle cx="124.5" cy="1.5" r="1.5" fill="white" fill-opacity="0.49"/>
</svg>
