<svg width="165" height="28" viewBox="0 0 165 28" fill="none" xmlns="http://www.w3.org/2000/svg">
<g clip-path="url(#clip0_8264_600)">
<path d="M19.7151 7.29122H20.6449L23.295 4.49428L23.4249 3.30635C18.4925 -1.28891 10.9649 -0.792493 6.61087 4.41315C5.4011 5.85798 4.52444 7.57903 4.04492 9.44109C4.33958 9.3136 4.66719 9.29235 4.97467 9.38314L10.2749 8.45984C10.2749 8.45984 10.544 7.98853 10.6849 8.0175C13.0422 5.2843 17.0101 4.96559 19.7334 7.29122H19.7151Z" fill="white"/>
<path d="M27.0711 9.44102C26.4616 7.07289 25.2116 4.94427 23.4729 3.31787L19.754 7.24287C21.3243 8.59691 22.2192 10.6386 22.1808 12.7788V13.4761C24.0092 13.4761 25.4916 15.0407 25.4916 16.9704C25.4916 18.9 24.0092 20.4646 22.1808 20.4646H15.5591L14.8984 21.1716V25.3631L15.5591 26.0604H22.1808C26.9357 26.0991 30.8212 22.062 30.8578 17.0438C30.8797 13.9957 29.4577 11.1447 27.0711 9.44102Z" fill="white"/>
<path d="M8.92824 26.0159H15.5499V20.422H8.92824C8.45604 20.422 7.99117 20.3139 7.56108 20.1072L6.63134 20.4124L3.9629 23.2093L3.73047 24.1905C5.22574 25.3842 7.05228 26.0255 8.92824 26.0159Z" fill="white"/>
<path d="M8.92817 7.87086C4.17147 7.89984 0.340858 11.9929 0.368311 17.0131C0.384783 19.8158 1.62383 22.4544 3.73039 24.1619L7.57016 20.1094C5.90467 19.3155 5.16344 17.2449 5.91566 15.4871C6.66787 13.7294 8.62985 12.9471 10.2953 13.741C11.0292 14.0906 11.6167 14.7126 11.9498 15.4871L15.7896 11.4347C14.1571 9.17855 11.6167 7.85927 8.92817 7.87086Z" fill="white"/>
<path d="M48.4859 22.1105C46.1817 22.1414 43.9671 21.1814 42.3492 19.4507C40.6782 17.7934 39.7448 15.4716 39.7741 13.0513C39.7467 10.631 40.6801 8.31116 42.3492 6.65192C43.9598 4.90383 46.1762 3.92451 48.4859 3.94382C50.6858 3.91292 52.807 4.81497 54.3718 6.44717L52.7173 8.22424C51.5844 7.06721 50.0617 6.43365 48.4859 6.45683C46.8332 6.43558 45.2464 7.14834 44.1153 8.41933C42.9404 9.64975 42.2925 11.3341 42.3199 13.0803C42.3053 14.8071 42.9532 16.4663 44.1153 17.6833C46.5093 20.202 50.3692 20.2503 52.8198 17.7914C53.55 16.9492 53.9966 15.8753 54.0936 14.7395H48.5133V12.2284H56.4088C56.4857 12.7345 56.5168 13.2464 56.5022 13.7602C56.601 15.9023 55.8653 17.9942 54.4652 19.5511C52.9076 21.2606 50.7334 22.1916 48.4859 22.1105ZM66.8428 20.4416C64.6411 22.6687 61.1674 22.6687 58.9656 20.4416C57.8986 19.3502 57.3166 17.8378 57.3569 16.2713C57.3166 14.7047 57.9004 13.1923 58.9656 12.1009C61.1692 9.87961 64.6393 9.87961 66.8428 12.1009C67.908 13.1923 68.4918 14.7047 68.4516 16.2713C68.49 17.8397 67.9025 19.3521 66.8337 20.4416H66.8428ZM60.7043 18.8036C61.8409 20.0862 63.7479 20.1518 64.9632 18.9504C65.0108 18.9021 65.0584 18.8538 65.1023 18.8036C65.7227 18.1256 66.0577 17.2139 66.032 16.2713C66.0595 15.3267 65.7246 14.4092 65.1023 13.7293C63.9328 12.4428 61.9964 12.3984 60.7757 13.6327C60.7446 13.6636 60.7135 13.6964 60.6842 13.7293C60.0619 14.4092 59.727 15.3267 59.7544 16.2713C59.7306 17.2139 60.0692 18.1275 60.6933 18.8036H60.7043ZM78.9496 20.4416C76.7479 22.6687 73.2742 22.6687 71.0724 20.4416C70.0054 19.3502 69.4234 17.8378 69.4637 16.2713C69.4234 14.7047 70.0072 13.1923 71.0724 12.1009C73.2742 9.87382 76.7479 9.87382 78.9496 12.1009C80.0148 13.1923 80.5986 14.7047 80.5584 16.2713C80.6005 17.8378 80.0166 19.3502 78.9496 20.4416ZM72.8129 18.8036C73.9495 20.0862 75.8566 20.1518 77.0718 18.9504C77.1194 18.9021 77.167 18.8538 77.2109 18.8036C77.8314 18.1256 78.1663 17.2139 78.1407 16.2713C78.1681 15.3267 77.8332 14.4092 77.2109 13.7293C76.0414 12.4428 74.1051 12.3984 72.8862 13.6327C72.855 13.6636 72.8239 13.6964 72.7946 13.7293C72.1724 14.4092 71.8374 15.3267 71.8649 16.2713C71.8411 17.2139 72.1797 18.1275 72.8038 18.8036H72.8129ZM86.9092 27.3509C85.7946 27.3876 84.702 27.0206 83.8125 26.3097C83.0231 25.6833 82.4014 24.8513 82.0079 23.8953L84.1273 22.9623C84.3579 23.534 84.7184 24.0363 85.1778 24.4245C85.6683 24.8417 86.2851 25.0619 86.9165 25.0426C87.7254 25.0948 88.5161 24.7722 89.0835 24.1599C89.6435 23.4471 89.9199 22.5316 89.8558 21.6083V20.7641H89.7716C89.0523 21.6643 87.9744 22.1549 86.8616 22.0892C85.4505 22.0931 84.1017 21.475 83.1426 20.3817C82.1031 19.2981 81.5284 17.8127 81.5522 16.2693C81.5265 14.7183 82.1012 13.2232 83.1426 12.128C84.0998 11.0308 85.4487 10.4069 86.8616 10.4108C87.4527 10.4089 88.0384 10.5479 88.5728 10.8126C89.0359 11.025 89.4477 11.3438 89.7826 11.7455H89.8668V10.8126H92.1728V21.2644C92.2955 22.9353 91.761 24.5868 90.694 25.8288C89.6783 26.8545 88.3148 27.403 86.9092 27.3509ZM87.0776 19.8138C87.881 19.8331 88.6515 19.4719 89.1786 18.8325C89.7515 18.1391 90.0553 17.2409 90.0242 16.3195C90.059 15.3827 89.757 14.4691 89.1786 13.7583C88.6515 13.117 87.881 12.7577 87.0776 12.777C86.2521 12.7596 85.4597 13.117 84.9014 13.7583C84.2865 14.444 83.9516 15.3576 83.9717 16.3002C83.9534 17.2351 84.2865 18.1391 84.9014 18.8132C85.456 19.4603 86.2485 19.8254 87.0776 19.8138ZM96.2743 4.6025V21.757H93.8475V4.6025H96.2743ZM102.933 22.1105C101.463 22.151 100.045 21.5426 99.0178 20.4319C97.9764 19.3309 97.4072 17.8262 97.4457 16.2713C97.3908 14.7125 97.938 13.1962 98.9611 12.07C99.9274 10.9961 101.278 10.4011 102.68 10.4301C103.319 10.4224 103.95 10.5537 104.54 10.8126C105.07 11.0386 105.553 11.3727 105.962 11.7938C106.313 12.1512 106.624 12.5491 106.891 12.9818C107.107 13.3468 107.29 13.7312 107.44 14.1291L107.691 14.7974L100.253 18.0271C100.714 19.1435 101.778 19.8466 102.931 19.7945C104.045 19.7983 105.079 19.1822 105.656 18.1758L107.515 19.5009C107.041 20.2182 106.433 20.8261 105.729 21.2876C104.895 21.8439 103.921 22.1298 102.933 22.1105ZM99.8268 16.0935L104.774 13.9244C104.622 13.5419 104.349 13.2271 104.001 13.032C103.613 12.8002 103.174 12.6824 102.728 12.6881C101.972 12.7094 101.252 13.0436 100.729 13.6211C100.094 14.2624 99.7627 15.1683 99.8268 16.0935Z" fill="white"/>
<path d="M120.406 22.1117C116.174 22.189 112.686 18.631 112.613 14.1652C112.611 14.057 112.611 13.9469 112.614 13.8387C112.516 9.3729 115.867 5.67003 120.096 5.56573C120.199 5.56379 120.303 5.56379 120.406 5.56379C122.521 5.49426 124.553 6.44846 125.92 8.15406L124.58 9.52742C123.575 8.19269 122.027 7.44517 120.415 7.5147C118.868 7.478 117.373 8.10963 116.277 9.26086C115.136 10.472 114.527 12.1293 114.593 13.8349C114.525 15.5405 115.136 17.1978 116.277 18.4089C117.373 19.562 118.868 20.1917 120.415 20.155C122.216 20.1763 123.927 19.3303 125.063 17.8584L126.403 19.2723C125.702 20.157 124.822 20.8639 123.828 21.343C122.756 21.8684 121.586 22.1311 120.406 22.1117Z" fill="white"/>
<path d="M130.002 21.7595H128.076V5.90881H130.002V21.7595Z" fill="white"/>
<path d="M133.145 12.2171C135.244 10.017 138.634 10.017 140.733 12.2171C141.728 13.3277 142.265 14.8112 142.221 16.3391C142.265 17.867 141.728 19.3504 140.733 20.4611C138.634 22.6612 135.244 22.6612 133.145 20.4611C132.149 19.3504 131.613 17.867 131.657 16.3391C131.613 14.8112 132.147 13.3277 133.145 12.2171ZM134.576 19.1863C135.808 20.5596 137.861 20.6195 139.164 19.3195C139.208 19.277 139.25 19.2307 139.291 19.1863C139.97 18.4175 140.328 17.3918 140.286 16.341C140.33 15.2902 139.971 14.2646 139.291 13.4958C138.059 12.1224 136.005 12.0626 134.702 13.3625C134.658 13.405 134.616 13.4514 134.576 13.4958C133.897 14.2646 133.538 15.2902 133.58 16.341C133.542 17.3899 133.904 18.4117 134.585 19.1766L134.576 19.1863Z" fill="white"/>
<path d="M152.886 21.7578H151.027V20.257H150.972C150.641 20.8268 150.172 21.2942 149.614 21.611C149.036 21.9645 148.377 22.1518 147.707 22.1499C146.605 22.2291 145.531 21.7733 144.788 20.9137C144.083 19.973 143.73 18.7928 143.792 17.5972V10.9235H145.718V17.2244C145.718 19.2467 146.563 20.257 148.256 20.257C149.019 20.2821 149.746 19.917 150.209 19.2757C150.709 18.6093 150.974 17.7807 150.963 16.9308V10.9235H152.888V21.7578H152.886Z" fill="white"/>
<path d="M159.424 22.1129C158.103 22.1168 156.845 21.5122 155.983 20.4537C155.019 19.3295 154.503 17.8576 154.541 16.3413C154.503 14.825 155.019 13.3531 155.983 12.229C156.845 11.1724 158.103 10.5659 159.424 10.5697C160.156 10.5581 160.879 10.7397 161.525 11.099C162.094 11.4003 162.576 11.8581 162.92 12.4241H163.004L162.92 10.9232V5.90881H164.845V21.7594H162.986V20.2586H162.901C162.557 20.8245 162.076 21.2823 161.507 21.5836C160.866 21.939 160.151 22.1225 159.424 22.1129ZM159.741 20.2586C160.621 20.2721 161.465 19.8858 162.056 19.1981C162.709 18.412 163.044 17.3863 162.986 16.3413C163.044 15.2983 162.709 14.2707 162.056 13.4845C160.888 12.1285 158.901 12.03 157.616 13.2643C157.543 13.3338 157.473 13.4092 157.407 13.4845C156.752 14.2649 156.417 15.2886 156.477 16.3297C156.417 17.3708 156.752 18.3946 157.407 19.1749C158 19.878 158.851 20.2721 159.741 20.2586Z" fill="white"/>
</g>
<defs>
<clipPath id="clip0_8264_600">
<rect width="165" height="28" fill="white"/>
</clipPath>
</defs>
</svg>
