<svg width="58" height="55" viewBox="0 0 58 55" fill="none" xmlns="http://www.w3.org/2000/svg">
<path d="M47.244 37.2434C63.8171 32.9106 55.5847 15.0376 47.244 15.0376C45.1977 -5.20938 24.7965 0.338574 21.6876 10.1976C14.3381 6.18514 10.0887 11.5652 9.5483 15.5792C-4.64182 20.0204 1.53246 36.2685 9.5483 37.2434H47.244Z" fill="url(#paint0_linear_114_122)"/>
<path fill-rule="evenodd" clip-rule="evenodd" d="M22.1815 10.2944C22.1713 10.3756 22.1502 10.4372 22.136 10.4785L22.1348 10.482C22.1337 10.4854 22.1325 10.4888 22.1313 10.4923C22.1158 10.5373 22.0967 10.593 22.0707 10.6955L21.4954 10.5496L21.448 10.6364C17.9081 8.70382 15.2089 9.06851 13.339 10.2964C11.4304 11.5497 10.2979 13.7584 10.0438 15.646C10.0179 15.8384 9.88295 15.9984 9.69765 16.0564C6.24667 17.1365 4.082 18.9169 2.86392 20.9571C1.64318 23.0018 1.34412 25.3562 1.71457 27.6308C2.08548 29.9083 3.12519 32.085 4.55058 33.746C5.97088 35.4011 7.74299 36.5106 9.57921 36.7434H47.1793C51.1934 35.6816 53.6459 33.8222 54.9847 31.6808C56.3321 29.5257 56.591 27.0218 56.0969 24.6163C55.602 22.207 54.3554 19.9225 52.7339 18.2456C51.1077 16.5639 49.1509 15.5376 47.244 15.5376C46.9873 15.5376 46.7723 15.3433 46.7465 15.0879C46.2434 10.1096 44.6194 6.7827 42.4773 4.71281C40.3375 2.64527 37.633 1.78526 34.872 1.82779C32.1046 1.87042 29.2916 2.82133 26.9822 4.36317C24.6884 5.89465 22.9267 7.98458 22.1815 10.2944ZM21.4065 9.48707C17.8345 7.71063 14.915 8.06519 12.7901 9.46051C10.7087 10.8273 9.46492 13.1448 9.10185 15.1977C5.62477 16.348 3.33258 18.2214 2.00531 20.4445C0.643257 22.7259 0.326225 25.3272 0.727569 27.7916C1.12844 30.2531 2.24839 32.5988 3.79169 34.3973C5.33249 36.1928 7.32674 37.4769 9.48794 37.7398C9.50797 37.7422 9.52812 37.7434 9.5483 37.7434H47.244C47.2867 37.7434 47.3292 37.7379 47.3704 37.7272C51.6062 36.6198 54.3213 34.6283 55.8326 32.2109C57.3422 29.7963 57.6114 27.0195 57.0764 24.4151C56.5423 21.8146 55.2027 19.3601 53.4527 17.5504C51.8234 15.8654 49.7979 14.7008 47.6944 14.5535C47.1249 9.64061 45.4611 6.20538 43.1722 3.99368C40.814 1.71508 37.8403 0.781949 34.8566 0.827907C31.8793 0.873767 28.8812 1.89297 26.427 3.53149C24.1528 5.04984 22.3149 7.12145 21.4065 9.48707Z" fill="#202129"/>
<path d="M31.7593 11.3815C31.7593 12.3053 31.0093 13.0543 30.0843 13.0543C29.1592 13.0543 28.4093 12.3053 28.4093 11.3815C28.4093 10.4576 29.1592 9.70868 30.0843 9.70868C31.0093 9.70868 31.7593 10.4576 31.7593 11.3815Z" fill="#202129"/>
<path d="M31.7593 11.3815C31.7593 12.3053 31.0093 13.0543 30.0843 13.0543C29.1592 13.0543 28.4093 12.3053 28.4093 11.3815C28.4093 10.4576 29.1592 9.70868 30.0843 9.70868C31.0093 9.70868 31.7593 10.4576 31.7593 11.3815Z" fill="#202129"/>
<path d="M42.152 12.2723C42.152 13.1961 41.4021 13.9451 40.477 13.9451C39.552 13.9451 38.8021 13.1961 38.8021 12.2723C38.8021 11.3484 39.552 10.5995 40.477 10.5995C41.4021 10.5995 42.152 11.3484 42.152 12.2723Z" fill="#202129"/>
<path d="M52.211 23.9104C52.211 24.8343 51.4611 25.5832 50.536 25.5832C49.6109 25.5832 48.861 24.8343 48.861 23.9104C48.861 22.9865 49.6109 22.2376 50.536 22.2376C51.4611 22.2376 52.211 22.9865 52.211 23.9104Z" fill="#202129"/>
<path d="M19.6959 15.3725C19.6959 16.0489 19.1469 16.5973 18.4696 16.5973C17.7922 16.5973 17.2432 16.0489 17.2432 15.3725C17.2432 14.6961 17.7922 14.1477 18.4696 14.1477C19.1469 14.1477 19.6959 14.6961 19.6959 15.3725Z" fill="#202129"/>
<path d="M14.4071 25.6751C14.4071 26.4192 13.8092 27.0224 13.0716 27.0224C12.3339 27.0224 11.736 26.4192 11.736 25.6751C11.736 24.9311 12.3339 24.3279 13.0716 24.3279C13.8092 24.3279 14.4071 24.9311 14.4071 25.6751Z" fill="#202129"/>
<path d="M15.3705 32.7502C15.3705 33.5676 14.6872 34.2301 13.8443 34.2301C13.0014 34.2301 12.3181 33.5676 12.3181 32.7502C12.3181 31.9329 13.0014 31.2703 13.8443 31.2703C14.6872 31.2703 15.3705 31.9329 15.3705 32.7502Z" fill="#202129"/>
<path d="M12.6481 19.5086C12.6481 20.424 11.905 21.1661 10.9883 21.1661C10.0717 21.1661 9.32861 20.424 9.32861 19.5086C9.32861 18.5931 10.0717 17.851 10.9883 17.851C11.905 17.851 12.6481 18.5931 12.6481 19.5086Z" fill="#202129"/>
<path d="M28.4093 15.9995C28.4093 17.0526 27.5545 17.9064 26.5 17.9064C25.4455 17.9064 24.5907 17.0526 24.5907 15.9995C24.5907 14.9464 25.4455 14.0927 26.5 14.0927C27.5545 14.0927 28.4093 14.9464 28.4093 15.9995Z" fill="#202129"/>
<path d="M7.58215 27.189C7.58215 27.9454 6.96815 28.5586 6.21075 28.5586C5.45335 28.5586 4.83936 27.9454 4.83936 27.189C4.83936 26.4326 5.45335 25.8194 6.21075 25.8194C6.96815 25.8194 7.58215 26.4326 7.58215 27.189Z" fill="#202129"/>
<path d="M35.6235 6.6084C35.6235 7.53226 34.8736 8.2812 33.9485 8.2812C33.0235 8.2812 32.2736 7.53226 32.2736 6.6084C32.2736 5.68454 33.0235 4.93561 33.9485 4.93561C34.8736 4.93561 35.6235 5.68454 35.6235 6.6084Z" fill="#202129"/>
<path fill-rule="evenodd" clip-rule="evenodd" d="M38.0528 6.60842C38.0528 8.87415 36.214 10.7087 33.9485 10.7087C31.683 10.7087 29.8442 8.87415 29.8442 6.60842C29.8442 4.34269 31.683 2.50818 33.9485 2.50818C36.214 2.50818 38.0528 4.34269 38.0528 6.60842ZM33.9485 9.70866C35.663 9.70866 37.0528 8.32064 37.0528 6.60842C37.0528 4.8962 35.663 3.50818 33.9485 3.50818C32.2341 3.50818 30.8442 4.8962 30.8442 6.60842C30.8442 8.32064 32.2341 9.70866 33.9485 9.70866Z" fill="#202129"/>
<path fill-rule="evenodd" clip-rule="evenodd" d="M44.5813 12.2722C44.5813 14.538 42.7425 16.3725 40.477 16.3725C38.2115 16.3725 36.3727 14.538 36.3727 12.2722C36.3727 10.0065 38.2115 8.172 40.477 8.172C42.7425 8.172 44.5813 10.0065 44.5813 12.2722ZM40.477 15.3725C42.1915 15.3725 43.5813 13.9845 43.5813 12.2722C43.5813 10.56 42.1915 9.172 40.477 9.172C38.7626 9.172 37.3727 10.56 37.3727 12.2722C37.3727 13.9845 38.7626 15.3725 40.477 15.3725Z" fill="#202129"/>
<path fill-rule="evenodd" clip-rule="evenodd" d="M44.384 19.2849C44.384 20.1319 43.6967 20.8169 42.8508 20.8169C42.005 20.8169 41.3177 20.1319 41.3177 19.2849C41.3177 18.4379 42.005 17.7528 42.8508 17.7528C43.6967 17.7528 44.384 18.4379 44.384 19.2849ZM42.8508 20.1169C43.311 20.1169 43.684 19.7444 43.684 19.2849C43.684 18.8253 43.311 18.4528 42.8508 18.4528C42.3907 18.4528 42.0177 18.8253 42.0177 19.2849C42.0177 19.7444 42.3907 20.1169 42.8508 20.1169Z" fill="#202129"/>
<path fill-rule="evenodd" clip-rule="evenodd" d="M45.7243 31.7515C45.7243 32.9497 44.7521 33.9184 43.5562 33.9184C42.3603 33.9184 41.3881 32.9497 41.3881 31.7515C41.3881 30.5534 42.3603 29.5847 43.5562 29.5847C44.7521 29.5847 45.7243 30.5534 45.7243 31.7515ZM43.5562 32.7184C44.0909 32.7184 44.5243 32.2855 44.5243 31.7515C44.5243 31.2176 44.0909 30.7847 43.5562 30.7847C43.0216 30.7847 42.5881 31.2176 42.5881 31.7515C42.5881 32.2855 43.0216 32.7184 43.5562 32.7184Z" fill="#202129"/>
<path fill-rule="evenodd" clip-rule="evenodd" d="M39.425 30.1123C39.425 31.0408 38.6699 31.7847 37.7492 31.7847C36.8285 31.7847 36.0734 31.0408 36.0734 30.1123C36.0734 29.1839 36.8285 28.4399 37.7492 28.4399C38.6699 28.4399 39.425 29.1839 39.425 30.1123ZM37.7492 30.7847C38.1225 30.7847 38.425 30.4837 38.425 30.1123C38.425 29.741 38.1225 29.4399 37.7492 29.4399C37.3759 29.4399 37.0734 29.741 37.0734 30.1123C37.0734 30.4837 37.3759 30.7847 37.7492 30.7847Z" fill="#202129"/>
<path fill-rule="evenodd" clip-rule="evenodd" d="M54.5737 23.9104C54.5737 26.1394 52.7647 27.9441 50.536 27.9441C48.3073 27.9441 46.4983 26.1394 46.4983 23.9104C46.4983 21.6814 48.3073 19.8767 50.536 19.8767C52.7647 19.8767 54.5737 21.6814 54.5737 23.9104ZM50.536 26.9441C52.2136 26.9441 53.5737 25.5859 53.5737 23.9104C53.5737 22.2349 52.2136 20.8767 50.536 20.8767C48.8583 20.8767 47.4983 22.2349 47.4983 23.9104C47.4983 25.5859 48.8583 26.9441 50.536 26.9441Z" fill="#202129"/>
<path fill-rule="evenodd" clip-rule="evenodd" d="M21.4157 15.3725C21.4157 16.9995 20.0954 18.3161 18.4696 18.3161C16.8437 18.3161 15.5234 16.9995 15.5234 15.3725C15.5234 13.7456 16.8437 12.429 18.4696 12.429C20.0954 12.429 21.4157 13.7456 21.4157 15.3725ZM18.4696 17.3161C19.5444 17.3161 20.4157 16.446 20.4157 15.3725C20.4157 14.2991 19.5444 13.429 18.4696 13.429C17.3948 13.429 16.5234 14.2991 16.5234 15.3725C16.5234 16.446 17.3948 17.3161 18.4696 17.3161Z" fill="#202129"/>
<path fill-rule="evenodd" clip-rule="evenodd" d="M9.79251 27.189C9.79251 29.1665 8.18765 30.7674 6.21071 30.7674C4.23376 30.7674 2.62891 29.1665 2.62891 27.189C2.62891 25.2114 4.23376 23.6105 6.21071 23.6105C8.18765 23.6105 9.79251 25.2114 9.79251 27.189ZM6.21071 29.7674C7.63659 29.7674 8.79251 28.613 8.79251 27.189C8.79251 25.7649 7.63659 24.6105 6.21071 24.6105C4.78482 24.6105 3.62891 25.7649 3.62891 27.189C3.62891 28.613 4.78482 29.7674 6.21071 29.7674Z" fill="#202129"/>
<path fill-rule="evenodd" clip-rule="evenodd" d="M29.8273 37.7613V12.7091H30.8273V37.7613H29.8273Z" fill="#202129"/>
<path fill-rule="evenodd" clip-rule="evenodd" d="M33.1919 33.9508V10.2769H34.1919V33.4508H41.019L41.8849 32.5502L42.6057 33.2434L41.5923 34.2973C41.498 34.3954 41.3679 34.4508 41.2319 34.4508H33.6919C33.4158 34.4508 33.1919 34.2269 33.1919 33.9508Z" fill="#202129"/>
<path fill-rule="evenodd" clip-rule="evenodd" d="M40.1397 15.6938C40.3271 15.8965 40.3148 16.2128 40.112 16.4003L34.1935 21.8729C33.9908 22.0604 33.6744 22.048 33.487 21.8452C33.2995 21.6425 33.3119 21.3261 33.5146 21.1387L39.4331 15.6661C39.6359 15.4786 39.9522 15.491 40.1397 15.6938ZM19.8592 16.9233C20.0452 16.7191 20.3615 16.7044 20.5656 16.8904L23.759 19.8C23.863 19.8947 23.9223 20.0289 23.9223 20.1696V22.8663C23.9223 23.1424 23.6984 23.3663 23.4223 23.3663H14.2678C14.1473 23.3663 14.0309 23.3228 13.9399 23.2438L11.2433 20.9019C11.0348 20.7209 11.0125 20.4051 11.1936 20.1966C11.3746 19.9881 11.6904 19.9658 11.8989 20.1469L14.4546 22.3663H22.9223V20.3904L19.8921 17.6296C19.688 17.4436 19.6733 17.1274 19.8592 16.9233ZM26.7377 17.0311C27.0139 17.0311 27.2377 17.2549 27.2377 17.5311V26.1C27.2377 26.3761 27.0139 26.6 26.7377 26.6H14.2678C13.9916 26.6 13.7678 26.3761 13.7678 26.1C13.7678 25.8238 13.9916 25.6 14.2678 25.6H26.2377V17.5311C26.2377 17.2549 26.4616 17.0311 26.7377 17.0311ZM33.3541 23.6137C33.3541 23.3376 33.5779 23.1137 33.8541 23.1137H46.745C47.0212 23.1137 47.245 23.3376 47.245 23.6137C47.245 23.8899 47.0212 24.1137 46.745 24.1137H33.8541C33.5779 24.1137 33.3541 23.8899 33.3541 23.6137ZM35.4215 26.4108C35.4215 26.1347 35.6453 25.9108 35.9215 25.9108H43.8668C44.143 25.9108 44.3668 26.1347 44.3668 26.4108C44.3668 26.687 44.143 26.9108 43.8668 26.9108H35.9215C35.6453 26.9108 35.4215 26.687 35.4215 26.4108ZM8.90845 27.3925C8.90845 27.1164 9.1323 26.8925 9.40845 26.8925H12.0892C12.2164 26.8925 12.3388 26.941 12.4316 27.0281L13.867 28.3765H25.3352C25.6689 28.3007 26.1306 28.3175 26.5952 28.5407C27.1091 28.7876 27.5918 29.2693 27.9192 30.0769C27.9434 30.1366 27.9558 30.2004 27.9558 30.2648V37.6369C27.9558 37.913 27.732 38.1369 27.4558 38.1369C27.1797 38.1369 26.9558 37.913 26.9558 37.6369V30.3659C26.7141 29.8167 26.4096 29.561 26.1622 29.4421C25.8889 29.3108 25.6441 29.326 25.5347 29.3573C25.4901 29.37 25.4438 29.3765 25.3974 29.3765H13.669C13.5418 29.3765 13.4193 29.328 13.3266 29.2409L11.8912 27.8925H9.40845C9.1323 27.8925 8.90845 27.6686 8.90845 27.3925ZM22.609 30.0324C22.7374 29.7879 23.0396 29.6937 23.2841 29.8221C23.6275 30.0024 24.1335 30.3174 24.5378 30.6866C24.7389 30.8703 24.9371 31.0873 25.0718 31.3272C25.1954 31.5471 25.2907 31.8337 25.2272 32.1434V37.6369C25.2272 37.913 25.0033 38.1369 24.7272 38.1369C24.451 38.1369 24.2272 37.913 24.2272 37.6369V32.0839C24.2272 32.0368 24.2338 31.9899 24.2469 31.9446C24.2474 31.9362 24.2456 31.8982 24.2 31.817C24.1383 31.7072 24.0253 31.5729 23.8634 31.4251C23.5417 31.1312 23.1141 30.8623 22.8193 30.7075C22.5748 30.5791 22.4806 30.2768 22.609 30.0324ZM24.2467 31.9465C24.2467 31.9465 24.2467 31.9459 24.2469 31.945ZM14.5572 32.8977C14.5572 32.6215 14.7811 32.3977 15.0572 32.3977H20.5624C20.6271 32.3977 20.6911 32.4102 20.751 32.4346C21.0133 32.5415 21.3916 32.7528 21.7081 33.0587C22.0218 33.3619 22.3357 33.8202 22.3064 34.4066C22.2692 35.1515 22.2909 36.8562 22.3069 37.6265C22.3127 37.9026 22.0935 38.131 21.8175 38.1368C21.5414 38.1425 21.3129 37.9234 21.3071 37.6473C21.2913 36.8857 21.2683 35.1437 21.3077 34.3567C21.3166 34.1772 21.2237 33.9813 21.0132 33.7778C20.8373 33.6078 20.6215 33.4758 20.4572 33.3977H15.0572C14.7811 33.3977 14.5572 33.1738 14.5572 32.8977Z" fill="#202129"/>
<path d="M44.1717 46.6426C44.1717 47.0008 43.8839 47.2912 43.5287 47.2912C43.1736 47.2912 42.8857 47.0008 42.8857 46.6426C42.8857 46.2844 43.1736 45.994 43.5287 45.994C43.8839 45.994 44.1717 46.2844 44.1717 46.6426Z" fill="url(#paint1_linear_114_122)"/>
<path d="M34.9564 49.8987C34.9564 50.6237 34.3903 51.2114 33.6921 51.2114C32.9939 51.2114 32.4279 50.6237 32.4279 49.8987C32.4279 49.1738 32.9939 48.5861 33.6921 48.5861C34.3903 48.5861 34.9564 49.1738 34.9564 49.8987Z" fill="url(#paint2_linear_114_122)"/>
<path d="M22.5413 50.3866C22.5413 51.178 21.9234 51.8196 21.1612 51.8196C20.399 51.8196 19.7811 51.178 19.7811 50.3866C19.7811 49.5952 20.399 48.9537 21.1612 48.9537C21.9234 48.9537 22.5413 49.5952 22.5413 50.3866Z" fill="url(#paint3_linear_114_122)"/>
<path d="M38.4202 49.7662C38.4202 50.418 37.9113 50.9463 37.2836 50.9463C36.6558 50.9463 36.147 50.418 36.147 49.7662C36.147 49.1144 36.6558 48.5861 37.2836 48.5861C37.9113 48.5861 38.4202 49.1144 38.4202 49.7662Z" fill="url(#paint4_linear_114_122)"/>
<path fill-rule="evenodd" clip-rule="evenodd" d="M51.6917 42.2538C51.6917 43.5448 50.6482 44.5981 49.3526 44.5981C48.0571 44.5981 47.0135 43.5448 47.0135 42.2538C47.0135 40.9627 48.0571 39.9094 49.3526 39.9094C50.6482 39.9094 51.6917 40.9627 51.6917 42.2538ZM49.3526 43.5981C50.0922 43.5981 50.6917 42.9962 50.6917 42.2538C50.6917 41.5113 50.0922 40.9094 49.3526 40.9094C48.6131 40.9094 48.0135 41.5113 48.0135 42.2538C48.0135 42.9962 48.6131 43.5981 49.3526 43.5981Z" fill="url(#paint5_linear_114_122)"/>
<path fill-rule="evenodd" clip-rule="evenodd" d="M21.3238 45.3042V37.8597H22.3238V45.5846L27.0207 49.9007L26.3441 50.637L21.629 46.3042H17.1622V45.3042H21.3238ZM28.6117 43.5719V37.8597H29.6117V43.484C29.7155 43.7565 29.9161 44.1552 30.2028 44.517C30.5075 44.9015 30.871 45.1964 31.2733 45.3042H41.4552V46.3042H31.2127C31.1754 46.3042 31.1383 46.3 31.1019 46.2918C30.3686 46.1251 29.8086 45.6296 29.4191 45.1382C29.0266 44.643 28.7647 44.0992 28.639 43.7349C28.6209 43.6824 28.6117 43.6274 28.6117 43.5719ZM17.6874 42.6931H10.5308V41.6931H17.6874V42.6931ZM47.3643 42.6931H33.839V41.6931H47.3643V42.6931ZM25.0006 44.0315V41.7335H26.0006V44.0315H25.0006Z" fill="url(#paint6_linear_114_122)"/>
<path d="M26.6284 40.8995C26.6284 41.5306 26.1356 42.0423 25.5277 42.0423C24.9198 42.0423 24.4271 41.5306 24.4271 40.8995C24.4271 40.2683 24.9198 39.7567 25.5277 39.7567C26.1356 39.7567 26.6284 40.2683 26.6284 40.8995Z" fill="url(#paint7_linear_114_122)"/>
<path d="M26.6284 44.6828C26.6284 45.314 26.1356 45.8257 25.5277 45.8257C24.9198 45.8257 24.4271 45.314 24.4271 44.6828C24.4271 44.0517 24.9198 43.54 25.5277 43.54C26.1356 43.54 26.6284 44.0517 26.6284 44.6828Z" fill="url(#paint8_linear_114_122)"/>
<path d="M34.3902 42.1261C34.3902 42.9388 33.7556 43.5977 32.9728 43.5977C32.19 43.5977 31.5554 42.9388 31.5554 42.1261C31.5554 41.3133 32.19 40.6544 32.9728 40.6544C33.7556 40.6544 34.3902 41.3133 34.3902 42.1261Z" fill="url(#paint9_linear_114_122)"/>
<path fill-rule="evenodd" clip-rule="evenodd" d="M30.4158 51.8196C30.4158 53.1107 29.3722 54.164 28.0767 54.164C26.7812 54.164 25.7376 53.1107 25.7376 51.8196C25.7376 50.5286 26.7812 49.4753 28.0767 49.4753C29.3722 49.4753 30.4158 50.5286 30.4158 51.8196ZM28.0767 53.164C28.8163 53.164 29.4158 52.5621 29.4158 51.8196C29.4158 51.0772 28.8163 50.4753 28.0767 50.4753C27.3371 50.4753 26.7376 51.0772 26.7376 51.8196C26.7376 52.5621 27.3371 53.164 28.0767 53.164Z" fill="url(#paint10_linear_114_122)"/>
<path fill-rule="evenodd" clip-rule="evenodd" d="M46.0527 46.5526C46.0527 47.9461 44.9264 49.0825 43.5288 49.0825C42.1312 49.0825 41.0049 47.9461 41.0049 46.5526C41.0049 45.1591 42.1312 44.0227 43.5288 44.0227C44.9264 44.0227 46.0527 45.1591 46.0527 46.5526ZM43.5288 48.0825C44.3704 48.0825 45.0527 47.3975 45.0527 46.5526C45.0527 45.7077 44.3704 45.0227 43.5288 45.0227C42.6872 45.0227 42.0049 45.7077 42.0049 46.5526C42.0049 47.3975 42.6872 48.0825 43.5288 48.0825Z" fill="url(#paint11_linear_114_122)"/>
<path fill-rule="evenodd" clip-rule="evenodd" d="M17.6448 46.3481C17.6448 47.7834 16.4847 48.9537 15.0455 48.9537C13.6062 48.9537 12.4462 47.7834 12.4462 46.3481C12.4462 44.9128 13.6062 43.7425 15.0455 43.7425C16.4847 43.7425 17.6448 44.9128 17.6448 46.3481ZM15.0455 47.9537C15.9287 47.9537 16.6448 47.2348 16.6448 46.3481C16.6448 45.4613 15.9287 44.7425 15.0455 44.7425C14.1622 44.7425 13.4462 45.4613 13.4462 46.3481C13.4462 47.2348 14.1622 47.9537 15.0455 47.9537Z" fill="url(#paint12_linear_114_122)"/>
<path d="M19.5001 42.1755C19.5001 42.8803 18.9499 43.4516 18.2711 43.4516C17.5924 43.4516 17.0421 42.8803 17.0421 42.1755C17.0421 41.4708 17.5924 40.8995 18.2711 40.8995C18.9499 40.8995 19.5001 41.4708 19.5001 42.1755Z" fill="url(#paint13_linear_114_122)"/>
<path fill-rule="evenodd" clip-rule="evenodd" d="M11.1316 42.2237C11.1316 43.5148 10.0881 44.5681 8.79252 44.5681C7.49698 44.5681 6.45343 43.5148 6.45343 42.2237C6.45343 40.9327 7.49698 39.8794 8.79252 39.8794C10.0881 39.8794 11.1316 40.9327 11.1316 42.2237ZM8.79252 43.5681C9.53207 43.5681 10.1316 42.9662 10.1316 42.2237C10.1316 41.4813 9.53207 40.8794 8.79252 40.8794C8.05296 40.8794 7.45343 41.4813 7.45343 42.2237C7.45343 42.9662 8.05296 43.5681 8.79252 43.5681Z" fill="url(#paint14_linear_114_122)"/>
<defs>
<linearGradient id="paint0_linear_114_122" x1="28.9475" y1="1.32629" x2="28.9475" y2="38.1016" gradientUnits="userSpaceOnUse">
<stop offset="0.405834" stop-color="white"/>
<stop offset="0.944538" stop-color="#FCFCFC"/>
</linearGradient>
<linearGradient id="paint1_linear_114_122" x1="43.5287" y1="45.994" x2="43.5287" y2="47.2912" gradientUnits="userSpaceOnUse">
<stop stop-color="white"/>
<stop offset="1" stop-color="#FCFCFC"/>
</linearGradient>
<linearGradient id="paint2_linear_114_122" x1="33.6921" y1="48.5861" x2="33.6921" y2="51.2114" gradientUnits="userSpaceOnUse">
<stop stop-color="white"/>
<stop offset="1" stop-color="#FCFCFC"/>
</linearGradient>
<linearGradient id="paint3_linear_114_122" x1="21.1612" y1="48.9537" x2="21.1612" y2="51.8196" gradientUnits="userSpaceOnUse">
<stop stop-color="white"/>
<stop offset="1" stop-color="#FCFCFC"/>
</linearGradient>
<linearGradient id="paint4_linear_114_122" x1="37.2836" y1="48.5861" x2="37.2836" y2="50.9463" gradientUnits="userSpaceOnUse">
<stop stop-color="white"/>
<stop offset="1" stop-color="#FCFCFC"/>
</linearGradient>
<linearGradient id="paint5_linear_114_122" x1="49.3526" y1="39.9094" x2="49.3526" y2="44.5981" gradientUnits="userSpaceOnUse">
<stop stop-color="white"/>
<stop offset="1" stop-color="#FCFCFC"/>
</linearGradient>
<linearGradient id="paint6_linear_114_122" x1="28.9476" y1="37.8597" x2="28.9476" y2="50.637" gradientUnits="userSpaceOnUse">
<stop stop-color="white"/>
<stop offset="1" stop-color="#FCFCFC"/>
</linearGradient>
<linearGradient id="paint7_linear_114_122" x1="25.5277" y1="39.7567" x2="25.5277" y2="42.0423" gradientUnits="userSpaceOnUse">
<stop stop-color="white"/>
<stop offset="1" stop-color="#FCFCFC"/>
</linearGradient>
<linearGradient id="paint8_linear_114_122" x1="25.5277" y1="43.54" x2="25.5277" y2="45.8257" gradientUnits="userSpaceOnUse">
<stop stop-color="white"/>
<stop offset="1" stop-color="#FCFCFC"/>
</linearGradient>
<linearGradient id="paint9_linear_114_122" x1="32.9728" y1="40.6544" x2="32.9728" y2="43.5977" gradientUnits="userSpaceOnUse">
<stop stop-color="white"/>
<stop offset="1" stop-color="#FCFCFC"/>
</linearGradient>
<linearGradient id="paint10_linear_114_122" x1="28.0767" y1="49.4753" x2="28.0767" y2="54.164" gradientUnits="userSpaceOnUse">
<stop stop-color="white"/>
<stop offset="1" stop-color="#FCFCFC"/>
</linearGradient>
<linearGradient id="paint11_linear_114_122" x1="43.5288" y1="44.0227" x2="43.5288" y2="49.0825" gradientUnits="userSpaceOnUse">
<stop stop-color="white"/>
<stop offset="1" stop-color="#FCFCFC"/>
</linearGradient>
<linearGradient id="paint12_linear_114_122" x1="15.0455" y1="43.7425" x2="15.0455" y2="48.9537" gradientUnits="userSpaceOnUse">
<stop stop-color="white"/>
<stop offset="1" stop-color="#FCFCFC"/>
</linearGradient>
<linearGradient id="paint13_linear_114_122" x1="18.2711" y1="40.8995" x2="18.2711" y2="43.4516" gradientUnits="userSpaceOnUse">
<stop stop-color="white"/>
<stop offset="1" stop-color="#FCFCFC"/>
</linearGradient>
<linearGradient id="paint14_linear_114_122" x1="8.79252" y1="39.8794" x2="8.79252" y2="44.5681" gradientUnits="userSpaceOnUse">
<stop stop-color="white"/>
<stop offset="1" stop-color="#FCFCFC"/>
</linearGradient>
</defs>
</svg>
