<svg width="234" height="137" viewBox="0 0 234 137" fill="none" xmlns="http://www.w3.org/2000/svg">
<rect x="0.5" y="0.5" width="233" height="152" rx="7.5" fill="white" fill-opacity="0.015" stroke="url(#paint0_linear_8765_2044)"/>
<circle cx="16.5" cy="15.5" r="2.5" fill="#D9D9D9"/>
<circle cx="25.5" cy="15.5" r="2.5" fill="#D9D9D9"/>
<circle cx="34.5" cy="15.5" r="2.5" fill="#D9D9D9"/>
<g clip-path="url(#clip0_8765_2044)">
<path d="M83.4925 86.4425C83.8447 92.811 85.9873 98.9509 89.674 104.156L67.3784 119.857C59.5598 108.76 55.6387 95.3846 56.2283 81.8226C56.8179 68.2607 61.8849 55.2763 70.6371 44.8997L70.771 44.7496L91.3468 62.6361C85.7923 69.2816 82.9831 77.7963 83.4925 86.4425Z" fill="white" fill-opacity="0.03"/>
<path d="M114.149 23.0813L115.708 50.3164C111.849 50.5611 108.061 51.466 104.508 52.9919L100.847 54.7884C97.2251 56.8299 94.0129 59.5247 91.3729 62.7364L70.7913 44.7485C76.1645 38.3776 82.7811 33.1701 90.2363 29.4445C97.6915 25.719 105.828 23.5537 114.149 23.0813Z" fill="white" fill-opacity="0.06"/>
<path d="M179.049 80.9742C179.856 94.8698 175.899 108.625 167.832 119.968L145.587 104.211C149.302 98.9557 151.459 92.7586 151.81 86.3321C152.161 79.9056 150.692 73.5105 147.571 67.8816C144.45 62.2527 139.805 57.6184 134.168 54.5112C128.532 51.4041 122.133 49.9501 115.708 50.3164L114.149 23.0813C130.429 22.1658 146.407 27.748 158.575 38.6023C170.743 49.4566 178.106 64.6958 179.049 80.9742Z" fill="white" fill-opacity="0.12"/>
<path d="M101.542 42.3984C101.335 41.9001 100.938 41.5046 100.439 41.2989C99.9399 41.0931 99.3796 41.0941 98.8812 41.3015C98.3829 41.5089 97.9874 41.9058 97.7817 42.4048C97.576 42.9038 97.577 43.4641 97.7844 43.9625L113.344 81.0328L117 79.4484L101.542 42.3984Z" fill="white" fill-opacity="0.39"/>
<path d="M122.038 84.486C122.038 85.4823 121.742 86.4563 121.189 87.2847C120.635 88.1131 119.848 88.7588 118.928 89.14C118.007 89.5213 116.994 89.6211 116.017 89.4267C115.04 89.2323 114.142 88.7525 113.438 88.048C112.733 87.3435 112.254 86.4459 112.059 85.4688C111.865 84.4916 111.965 83.4787 112.346 82.5582C112.727 81.6377 113.373 80.851 114.201 80.2975C115.03 79.7439 116.004 79.4485 117 79.4485C118.336 79.4485 119.617 79.9792 120.562 80.9239C121.507 81.8686 122.038 83.15 122.038 84.486Z" fill="white"/>
</g>
<defs>
<linearGradient id="paint0_linear_8765_2044" x1="117" y1="0" x2="117" y2="153" gradientUnits="userSpaceOnUse">
<stop stop-color="white" stop-opacity="0.04"/>
<stop offset="1" stop-color="white" stop-opacity="0.01"/>
</linearGradient>
<clipPath id="clip0_8765_2044">
<rect width="130" height="130" fill="white" transform="translate(52 23)"/>
</clipPath>
</defs>
</svg>
