<svg width="428" height="428" viewBox="0 0 428 428" fill="none" xmlns="http://www.w3.org/2000/svg">
<path fill-rule="evenodd" clip-rule="evenodd" d="M254.354 394.271C254.354 394.271 156.224 394.271 107.573 394.271C89.1451 394.271 74.2134 379.34 74.2134 360.912C74.2134 296.288 74.2134 131.973 74.2134 67.3495C74.2134 58.5026 77.7228 50.016 83.981 43.7577C90.2392 37.4995 98.7259 33.9901 107.573 33.9901C158.706 33.9901 269.94 33.9901 321.073 33.9901C329.92 33.9901 338.406 37.4995 344.665 43.7577C350.923 50.016 354.432 58.5026 354.432 67.3495V294.193V294.273C354.419 295.488 354.085 296.608 353.511 297.583C353.218 298.063 352.884 298.517 352.484 298.917L259.078 392.323C258.677 392.723 258.224 393.057 257.743 393.351C256.769 393.924 255.648 394.258 254.434 394.271H254.354ZM341.088 287.521V67.3495C341.088 62.0387 338.98 56.9547 335.231 53.1918C331.468 49.4422 326.384 47.3339 321.073 47.3339C269.94 47.3339 158.706 47.3339 107.573 47.3339C102.262 47.3339 97.178 49.4422 93.415 53.1918C89.6654 56.9547 87.5572 62.0387 87.5572 67.3495C87.5572 131.973 87.5572 296.288 87.5572 360.912C87.5572 371.961 96.5242 380.928 107.573 380.928H247.682V320.881C247.682 302.453 262.614 287.521 281.042 287.521H341.088ZM331.654 300.865H281.042C269.993 300.865 261.026 309.832 261.026 320.881V371.494L331.654 300.865ZM220.995 274.178C220.995 263.129 212.028 254.162 200.979 254.162C186.168 254.162 162.416 254.162 147.604 254.162C136.555 254.162 127.588 263.129 127.588 274.178C127.588 278.474 127.588 283.225 127.588 287.521C127.588 298.57 136.555 307.537 147.604 307.537C162.416 307.537 186.168 307.537 200.979 307.537C212.028 307.537 220.995 298.57 220.995 287.521V274.178ZM207.651 274.178C207.651 270.495 204.662 267.506 200.979 267.506C186.168 267.506 162.416 267.506 147.604 267.506C143.921 267.506 140.932 270.495 140.932 274.178C140.932 278.474 140.932 283.225 140.932 287.521C140.932 291.204 143.921 294.193 147.604 294.193C162.416 294.193 186.168 294.193 200.979 294.193C204.662 294.193 207.651 291.204 207.651 287.521V274.178ZM134.26 220.803H294.385C298.068 220.803 301.057 217.814 301.057 214.131C301.057 210.448 298.068 207.459 294.385 207.459H134.26C130.577 207.459 127.588 210.448 127.588 214.131C127.588 217.814 130.577 220.803 134.26 220.803ZM134.26 180.771H294.385C298.068 180.771 301.057 177.782 301.057 174.099C301.057 170.417 298.068 167.428 294.385 167.428H134.26C130.577 167.428 127.588 170.417 127.588 174.099C127.588 177.782 130.577 180.771 134.26 180.771ZM301.057 107.381C301.057 96.3321 292.09 87.3651 281.042 87.3651C250.885 87.3651 177.761 87.3651 147.604 87.3651C136.555 87.3651 127.588 96.3321 127.588 107.381C127.588 111.677 127.588 116.428 127.588 120.724C127.588 131.773 136.555 140.74 147.604 140.74C177.761 140.74 250.885 140.74 281.042 140.74C292.09 140.74 301.057 131.773 301.057 120.724V107.381ZM287.713 107.381C287.713 103.698 284.724 100.709 281.042 100.709C250.885 100.709 177.761 100.709 147.604 100.709C143.921 100.709 140.932 103.698 140.932 107.381C140.932 111.677 140.932 116.428 140.932 120.724C140.932 124.407 143.921 127.396 147.604 127.396C177.761 127.396 250.885 127.396 281.042 127.396C284.724 127.396 287.713 124.407 287.713 120.724V107.381Z" fill="#DEE1E6"/>
</svg>
