<svg width="484" height="419" viewBox="0 0 484 419" fill="none" xmlns="http://www.w3.org/2000/svg">
<path d="M479.636 347.44C476.162 341.16 470.581 337.558 464.324 337.558H448.293V100.773C448.293 81.4536 432.575 65.7356 413.255 65.7356H289.5V25.8716C289.5 12.0866 278.285 0.871582 264.5 0.871582H219.5C205.715 0.871582 194.5 12.0866 194.5 25.8716V27.0886C192.884 26.7596 191.212 26.5856 189.5 26.5856H144.5C130.715 26.5856 119.5 37.8006 119.5 51.5856V65.7356H70.7449C51.4259 65.7356 35.7079 81.4536 35.7079 100.773V337.558H19.6759C13.4189 337.558 7.83786 341.161 4.36386 347.441C-0.0891397 355.49 -1.29814 368.896 5.00586 378.944C5.35086 379.494 5.74886 380.008 6.19286 380.481C41.4889 418.006 43.2949 418.006 48.1189 418.006H435.881C440.705 418.006 442.51 418.006 477.808 380.481C478.252 380.008 478.65 379.494 478.996 378.944C485.298 368.895 484.089 355.489 479.636 347.44ZM51.3979 398.006C46.2399 393.341 32.9439 379.706 21.5849 367.652C20.0889 364.524 20.5919 359.767 21.6089 357.557H182V361.858C182 376.09 193.579 387.67 207.812 387.67H276.189C290.421 387.67 302.001 376.091 302.001 361.858V357.557H462.393C463.41 359.767 463.913 364.524 462.416 367.652C451.057 379.706 437.761 393.34 432.604 398.006H51.3979ZM55.7079 100.773C55.7079 92.4806 62.4539 85.7356 70.7449 85.7356H119.5V337.558H55.7079V100.773ZM144.5 46.5856H189.5C192.257 46.5856 194.5 48.8286 194.5 51.5856V62.2996H139.5V51.5856C139.5 48.8286 141.743 46.5856 144.5 46.5856ZM219.5 20.8716H264.5C267.257 20.8716 269.5 23.1146 269.5 25.8716V36.5856H214.5V25.8716C214.5 23.1146 216.743 20.8716 219.5 20.8716ZM269.5 71.5816H214.5V56.5856H269.5V71.5816ZM428.293 100.773V272.566L357.945 121.706C352.119 109.212 337.216 103.787 324.721 109.614L289.5 126.038V85.7356H413.255C421.547 85.7356 428.293 92.4816 428.293 100.773ZM289.973 153.403C288.807 150.904 289.892 147.923 292.391 146.758L333.175 127.74C333.857 127.422 334.573 127.272 335.279 127.272C337.164 127.272 338.971 128.342 339.818 130.159L344.346 139.87L294.5 163.113L289.973 153.403ZM421.978 318.18L381.196 337.198C378.697 338.364 375.715 337.279 374.55 334.78L317.743 212.957L367.589 189.713L424.397 311.537C425.858 314.67 424.215 317.138 421.978 318.18ZM269.5 337.558H214.5V91.5816H269.5V337.558ZM289.5 337.558V199.716L353.777 337.558H289.5ZM309.29 194.831L302.952 181.24L352.8 157.996L359.137 171.587L309.29 194.831ZM139.5 117.296H194.5V337.558H139.5V117.296ZM202 357.67H282V361.858C282 365.062 279.393 367.67 276.188 367.67H207.811C204.606 367.67 201.999 365.063 201.999 361.858V357.67H202ZM194.5 82.2996V97.2956H139.5V82.2996H194.5Z" fill="#DEE1E6"/>
<path d="M177 302.67H157C151.477 302.67 147 307.148 147 312.67C147 318.192 151.477 322.67 157 322.67H177C182.523 322.67 187 318.192 187 312.67C187 307.148 182.523 302.67 177 302.67ZM232 322.67H252C257.522 322.67 262 318.192 262 312.67C262 307.148 257.522 302.67 252 302.67H232C226.477 302.67 222 307.148 222 312.67C222 318.192 226.477 322.67 232 322.67ZM395.915 291.867L377.789 300.319C372.784 302.653 370.618 308.603 372.952 313.609C376.491 321.199 384.356 319.324 386.242 318.446L404.368 309.994C409.373 307.66 411.539 301.71 409.205 296.704C406.87 291.701 400.925 289.534 395.915 291.867Z" fill="#DEE1E6"/>
</svg>
