<svg width="428" height="428" viewBox="0 0 428 428" fill="none" xmlns="http://www.w3.org/2000/svg">
<path d="M163.243 13.7329C150.907 13.7329 143.921 24.3632 140.79 36.3032V47.093H414.329V36.3032C414.329 23.9597 404.264 13.7329 391.928 13.7329H163.243ZM140.79 60.4371V80.4531H414.329V60.4371H140.79ZM140.79 93.797V171.372C140.79 183.716 150.907 193.877 163.243 193.877H391.928C404.264 193.877 414.329 183.716 414.329 171.372V93.797H140.79ZM188.458 120.876H226.588C234.534 120.876 240.87 127.492 240.87 135.458V152.959C240.87 160.977 234.534 167.58 226.588 167.58H188.458C180.512 167.58 174.176 160.979 174.176 152.959V135.458C174.176 127.44 180.512 120.876 188.458 120.876ZM188.458 134.22C187.956 134.22 187.533 134.775 187.533 135.458V152.959C187.533 153.774 187.956 154.235 188.458 154.235H226.588C227.09 154.235 227.513 153.746 227.513 152.959V135.458C227.513 134.697 227.09 134.22 226.588 134.22H188.458ZM153.717 253.938C140.79 253.938 118.254 263.772 103.234 271.465C105.824 276.209 107.43 281.563 107.43 287.324V377.266C115.927 375.786 124.546 374.427 134.144 374.06C142.392 374.06 157.81 385.749 167.83 392.825C182.109 402.904 197.489 414.053 214.169 414.053C219.19 414.053 224.234 412.402 230.875 409.922C267.377 396.277 344.369 352.72 389.218 326.483C400.567 320.207 404.295 305.674 397.884 294.57C391.732 283.915 379.245 281.32 367.104 285.461L283.326 314.468C283.926 319.919 282.95 325.57 280.016 330.653C272.681 343.358 256.272 347.749 243.568 340.414L203.08 317.062C194.71 312.789 201.925 300.381 209.777 305.542L250.213 328.881C256.716 332.635 264.691 330.51 268.444 324.007C272.198 317.505 270.061 309.544 263.558 305.79C233.783 288.599 180.977 253.938 153.717 253.938ZM34.0639 267.282C22.8325 267.282 14.0088 276.364 14.0088 287.337V380.706C14.0088 391.636 22.8388 400.676 33.9338 400.749H74.0959C86.279 400.749 94.086 390.398 94.086 380.693V287.324C94.086 276.112 85.0162 267.282 74.1091 267.282H34.0639ZM47.3949 360.703C51.0798 360.703 54.0671 363.691 54.0671 367.375C54.0671 371.06 51.0798 374.047 47.3949 374.047C43.7102 374.047 40.723 371.06 40.723 367.375C40.723 363.691 43.7102 360.703 47.3949 360.703Z" fill="#DEE1E6"/>
</svg>
