<svg width="186" height="52" viewBox="0 0 186 52" fill="none" xmlns="http://www.w3.org/2000/svg">
<path fill-rule="evenodd" clip-rule="evenodd" d="M61.5212 27.2027L62.1512 23.6156C62.1512 23.6156 57.2994 22.0398 53.3506 24.9622V39.312H57.5439V27.6534C59.2149 26.3068 61.5212 27.2027 61.5212 27.2027Z" fill="white" fill-opacity="0.2"/>
<mask id="mask0_7114_155268" style="mask-type:alpha" maskUnits="userSpaceOnUse" x="53" y="23" width="10" height="17">
<path d="M53.3506 24.9619C55.2505 23.5562 57.3596 23.1912 59.0367 23.1915C60.8452 23.1915 62.1515 23.6156 62.1515 23.6156L61.5212 27.2027C61.5212 27.2027 59.2149 26.3068 57.5439 27.6531V39.3118H53.3506V24.9619Z" fill="white"/>
</mask>
<g mask="url(#mask0_7114_155268)">
<path fill-rule="evenodd" clip-rule="evenodd" d="M-201.911 83.7874L388.618 83.7874V-752.795H-201.911L-201.911 83.7874Z" fill="white" fill-opacity="0.2"/>
</g>
<mask id="mask1_7114_155268" style="mask-type:alpha" maskUnits="userSpaceOnUse" x="53" y="23" width="10" height="17">
<path d="M53.3506 24.9619C55.2505 23.5562 57.3594 23.1915 59.0367 23.1915C60.8452 23.1915 62.1515 23.6156 62.1515 23.6156L61.5212 27.2027C61.5212 27.2027 59.2149 26.3068 57.5439 27.6531V39.3118H53.3506V24.9619Z" fill="white"/>
</mask>
<g mask="url(#mask1_7114_155268)">
<path fill-rule="evenodd" clip-rule="evenodd" d="M46.3203 46.342H69.1813V16.1613H46.3203V46.342Z" fill="white" fill-opacity="0.2"/>
</g>
<path fill-rule="evenodd" clip-rule="evenodd" d="M25.3701 19.5244L29.5615 18.7348V23.4018H33.7091V27.134H29.5615V32.7C29.5615 33.6481 29.7148 34.4008 30.0284 34.9575C30.3383 35.5226 30.9598 35.8027 31.8932 35.8027C32.3497 35.8027 32.808 35.7589 33.2915 35.6661C33.7614 35.5716 34.1995 35.4503 34.5938 35.2915L35.1868 38.7875C34.6795 39.0051 34.1187 39.1941 33.5005 39.3542C32.8803 39.5128 32.1188 39.5955 31.2191 39.5955C30.0754 39.5955 29.1303 39.4287 28.3787 39.0979C27.6309 38.7672 27.0297 38.3031 26.5814 37.7109C26.1332 37.1238 25.818 36.4034 25.6412 35.5598C25.461 34.7179 25.3701 33.788 25.3701 32.7624V19.5244Z" fill="white" fill-opacity="0.2"/>
<mask id="mask2_7114_155268" style="mask-type:alpha" maskUnits="userSpaceOnUse" x="25" y="18" width="11" height="22">
<path d="M25.3701 19.5244L29.5615 18.7348V23.4018H33.7091V27.134H29.5615V32.7C29.5615 33.6484 29.7148 34.4008 30.0281 34.9575C30.338 35.5229 30.9596 35.8027 31.893 35.8027C32.3494 35.8027 32.8075 35.7589 33.2913 35.6661C33.7612 35.5716 34.1995 35.4503 34.5938 35.2918L35.1866 38.7875C34.6795 39.0054 34.1184 39.1943 33.5002 39.3545C32.88 39.513 32.1186 39.5955 31.2189 39.5955C30.0749 39.5955 29.13 39.4287 28.3787 39.0979C27.6306 38.7672 27.0291 38.3031 26.5811 37.7111C26.1329 37.1238 25.8181 36.4034 25.6412 35.5598C25.4607 34.7179 25.3701 33.7883 25.3701 32.7624V19.5244Z" fill="white"/>
</mask>
<g mask="url(#mask2_7114_155268)">
<path fill-rule="evenodd" clip-rule="evenodd" d="M-201.911 83.7874L388.617 83.7874V-752.795H-201.911L-201.911 83.7874Z" fill="white" fill-opacity="0.2"/>
<path fill-rule="evenodd" clip-rule="evenodd" d="M18.3398 46.6257H42.2166V11.7046H18.3398L18.3398 46.6257Z" fill="white" fill-opacity="0.2"/>
</g>
<path fill-rule="evenodd" clip-rule="evenodd" d="M68.3599 36.0983C69.1265 36.0983 69.6689 36.0137 69.9909 35.8552C70.3107 35.695 70.4657 35.3813 70.4657 34.9224C70.4657 34.5596 70.2636 34.2441 69.8491 33.9758C69.4348 33.7026 68.8114 33.3989 67.9658 33.0528C67.3104 32.7913 66.714 32.5216 66.1765 32.2432C65.6459 31.9598 65.1911 31.629 64.8155 31.2358C64.4412 30.8446 64.1515 30.3753 63.9425 29.8288C63.7336 29.2921 63.6345 28.6426 63.6345 27.8765C63.6345 26.3933 64.1515 25.2173 65.181 24.3551C66.2119 23.4965 67.6239 23.0578 69.4263 23.0578C70.3277 23.0578 71.1902 23.1438 72.0157 23.3177C72.8396 23.4863 73.4984 23.6788 73.9816 23.8727L73.2522 27.3651C72.7637 27.1846 72.2331 27.0261 71.662 26.8878C71.0908 26.7463 70.4473 26.6718 69.7363 26.6718C68.4239 26.6718 67.7668 27.0666 67.7668 27.8478C67.7668 28.0282 67.7955 28.1887 67.8528 28.3286C67.91 28.4704 68.0214 28.6054 68.1865 28.7352C68.3599 28.8636 68.5858 29.0084 68.8787 29.1571C69.1701 29.314 69.5408 29.4758 69.9909 29.6598C70.9054 30.0243 71.6652 30.3786 72.2652 30.7364C72.8664 31.094 73.3382 31.4705 73.687 31.8886C74.0339 32.2971 74.2801 32.7494 74.4181 33.2519C74.5564 33.7532 74.6286 34.3318 74.6286 34.9916C74.6286 36.5556 74.0794 37.7382 72.9861 38.538C71.8876 39.3344 70.3343 39.7358 68.3278 39.7358C67.0171 39.7358 65.9255 39.6195 65.0545 39.375C64.1802 39.1371 63.577 38.9314 63.2402 38.7726L63.9425 35.1315C64.652 35.4319 65.3899 35.6646 66.1346 35.8404C66.8893 36.0124 67.6239 36.0983 68.3599 36.0983Z" fill="white" fill-opacity="0.2"/>
<mask id="mask3_7114_155268" style="mask-type:alpha" maskUnits="userSpaceOnUse" x="63" y="23" width="12" height="17">
<path d="M65.181 24.3554C66.2121 23.4965 67.6239 23.0578 69.4263 23.0578C70.328 23.0578 71.1905 23.1438 72.016 23.3177C72.8396 23.4864 73.4984 23.6785 73.9819 23.8727L73.2525 27.3651C72.7637 27.1846 72.2334 27.0261 71.662 26.8878C71.0911 26.746 70.4473 26.6721 69.7365 26.6721C68.4239 26.6721 67.7671 27.0663 67.7671 27.8478C67.7671 28.0282 67.7955 28.1887 67.8528 28.3286C67.9103 28.4704 68.0217 28.6054 68.1868 28.7352C68.3599 28.8636 68.586 29.0084 68.879 29.1571C69.1703 29.3137 69.5408 29.4761 69.9909 29.6598C70.9057 30.0243 71.6655 30.3786 72.2652 30.7364C72.8667 31.094 73.3384 31.4702 73.6873 31.8886C74.0342 32.2971 74.2801 32.7492 74.4183 33.2519C74.5566 33.7532 74.6286 34.3318 74.6286 34.9916C74.6286 36.5556 74.0794 37.7384 72.9863 38.538C71.8878 39.3344 70.3345 39.7358 68.3281 39.7358C67.0174 39.7358 65.9257 39.6195 65.0548 39.375C64.1802 39.1371 63.5773 38.9314 63.2402 38.7726L63.9428 35.1315C64.6522 35.4322 65.3899 35.6646 66.1346 35.8404C66.8893 36.0121 67.6239 36.0984 68.3599 36.0984C69.1265 36.0984 69.6692 36.014 69.9909 35.8552C70.311 35.695 70.466 35.3813 70.466 34.9224C70.466 34.5596 70.2639 34.2441 69.8493 33.9758C69.4348 33.7026 68.8114 33.3989 67.9658 33.0528C67.3103 32.7913 66.7143 32.5216 66.1765 32.2432C65.6462 31.9598 65.1911 31.629 64.8157 31.2358C64.4414 30.8443 64.1517 30.3753 63.9428 29.8288C63.7339 29.2918 63.6345 28.6426 63.6345 27.8765C63.6345 26.3936 64.1517 25.2176 65.181 24.3554Z" fill="white"/>
</mask>
<g mask="url(#mask3_7114_155268)">
<path fill-rule="evenodd" clip-rule="evenodd" d="M-201.911 83.7871L388.617 83.7871V-752.795H-201.911L-201.911 83.7871Z" fill="white" fill-opacity="0.2"/>
<path fill-rule="evenodd" clip-rule="evenodd" d="M56.21 46.7661H81.6588V16.0276H56.21V46.7661Z" fill="white" fill-opacity="0.2"/>
</g>
<path fill-rule="evenodd" clip-rule="evenodd" d="M87.5472 30.2244C87.1715 31.7497 86.7756 33.2683 86.3528 34.7698C85.9314 36.2765 85.4832 37.7918 85.0202 39.3169H81.757C81.4183 38.4733 81.0495 37.4712 80.6552 36.3086C80.2573 35.1411 79.8516 33.8739 79.4253 32.4956C79.0039 31.1219 78.5729 29.6677 78.1313 28.1289C77.6883 26.597 77.2586 25.0481 76.8477 23.4805H81.265C81.4115 24.2009 81.5782 24.9925 81.7584 25.8443C81.9372 26.698 82.1258 27.5772 82.3229 28.4816C82.5201 29.3827 82.7306 30.2884 82.9461 31.2029C83.1635 32.1174 83.3861 32.9931 83.6115 33.8353C83.856 32.9528 84.0953 32.0517 84.3294 31.1287C84.5602 30.2044 84.7877 29.2964 85.0049 28.4041C85.219 27.5131 85.4295 26.6476 85.6215 25.8142C85.817 24.9821 85.9906 24.2009 86.1439 23.4805H89.1779C89.3329 24.2009 89.4961 24.9821 89.6864 25.8142C89.8717 26.6476 90.0692 27.5131 90.2781 28.4041C90.4801 29.2964 90.7008 30.2044 90.9215 31.1287C91.1488 32.0517 91.3815 32.9528 91.6225 33.8353C91.8497 32.9931 92.0756 32.1174 92.3029 31.2029C92.5304 30.2884 92.7443 29.3827 92.9397 28.4816C93.1352 27.5772 93.3239 26.698 93.506 25.8443C93.6861 24.9925 93.8496 24.2009 93.9994 23.4805H98.3595C97.9452 25.0481 97.5189 26.597 97.0758 28.1289C96.6293 29.6677 96.2029 31.1219 95.7769 32.4956C95.3572 33.8739 94.9429 35.1411 94.5401 36.3086C94.1343 37.4712 93.7601 38.4733 93.4268 39.3169H90.1636C89.6916 37.7918 89.2335 36.2765 88.782 34.7698C88.3321 33.2683 87.9244 31.7497 87.5472 30.2244Z" fill="white" fill-opacity="0.2"/>
<mask id="mask4_7114_155268" style="mask-type:alpha" maskUnits="userSpaceOnUse" x="76" y="23" width="23" height="17">
<path d="M93.9994 23.4806H98.3595C97.9452 25.0481 97.5189 26.597 97.0756 28.1287C96.6293 29.6677 96.203 31.1222 95.7766 32.4956C95.3572 33.8739 94.9429 35.1411 94.5399 36.3086C94.1341 37.4712 93.7601 38.473 93.4266 39.3169H90.1634C89.6916 37.7918 89.2335 36.2763 88.782 34.7695C88.3321 33.2683 87.9244 31.7497 87.5472 30.2244C87.1712 31.7497 86.7753 33.2683 86.3528 34.7695C85.9314 36.2763 85.4832 37.7918 85.0199 39.3169H81.7567C81.418 38.473 81.0492 37.4712 80.6549 36.3086C80.2573 35.1411 79.8513 33.8739 79.4253 32.4956C79.0039 31.1222 78.5726 29.6677 78.1312 28.1287C77.6882 26.597 77.2586 25.0481 76.8477 23.4806H81.2647C81.4115 24.2009 81.5782 24.9922 81.7584 25.8443C81.9372 26.698 82.1255 27.5772 82.3229 28.4813C82.5198 29.3824 82.7306 30.2884 82.9461 31.2029C83.1635 32.1174 83.3861 32.9931 83.6115 33.8353C83.8557 32.9528 84.095 32.0515 84.3291 31.1287C84.5599 30.2044 84.7877 29.2964 85.0049 28.4041C85.2187 27.5129 85.4293 26.6474 85.6215 25.8142C85.817 24.9821 85.9906 24.2009 86.1436 23.4806H89.1779C89.3326 24.2009 89.4961 24.9821 89.6864 25.8142C89.8718 26.6474 90.0692 27.5129 90.2778 28.4041C90.4802 29.2964 90.7006 30.2044 90.9215 31.1287C91.1488 32.0515 91.3815 32.9528 91.6222 33.8353C91.8497 32.9931 92.0753 32.1174 92.3029 31.2029C92.5304 30.2884 92.7443 29.3824 92.9397 28.4813C93.1352 27.5772 93.3239 26.698 93.5057 25.8443C93.6862 24.9922 93.8496 24.2009 93.9994 23.4806Z" fill="white"/>
</mask>
<g mask="url(#mask4_7114_155268)">
<path fill-rule="evenodd" clip-rule="evenodd" d="M-201.911 83.7871L388.618 83.7871V-752.795H-201.911L-201.911 83.7871Z" fill="white" fill-opacity="0.2"/>
<path fill-rule="evenodd" clip-rule="evenodd" d="M69.8174 46.3472H105.389V16.4505L69.8174 16.4505V46.3472Z" fill="white" fill-opacity="0.2"/>
</g>
<path fill-rule="evenodd" clip-rule="evenodd" d="M101.322 39.3108H105.507V23.4778H101.322V39.3108Z" fill="white" fill-opacity="0.2"/>
<mask id="mask5_7114_155268" style="mask-type:alpha" maskUnits="userSpaceOnUse" x="101" y="23" width="5" height="17">
<path d="M101.322 39.311V23.478H105.507V39.311H101.322Z" fill="white"/>
</mask>
<g mask="url(#mask5_7114_155268)">
<path fill-rule="evenodd" clip-rule="evenodd" d="M-201.911 83.7871L388.618 83.7871V-752.795H-201.911L-201.911 83.7871Z" fill="white" fill-opacity="0.2"/>
<path fill-rule="evenodd" clip-rule="evenodd" d="M94.292 46.3411H112.537V16.4477H94.292V46.3411Z" fill="white" fill-opacity="0.2"/>
</g>
<path fill-rule="evenodd" clip-rule="evenodd" d="M108.836 19.5292L113.024 18.7346V23.4857H117.169V27.2111H113.024V32.7825C113.024 33.7255 113.179 34.485 113.487 35.04C113.796 35.6018 114.42 35.8836 115.356 35.8836C115.809 35.8836 116.274 35.8431 116.749 35.7503C117.229 35.6591 117.664 35.5293 118.06 35.3724L118.648 38.8651C118.14 39.0874 117.576 39.2766 116.961 39.4384C116.339 39.5969 115.587 39.678 114.683 39.678C113.538 39.678 112.593 39.5129 111.843 39.1786C111.092 38.853 110.492 38.3925 110.044 37.795C109.596 37.208 109.283 36.4841 109.102 35.6457C108.92 34.8004 108.836 33.8657 108.836 32.8446V19.5292Z" fill="white" fill-opacity="0.2"/>
<mask id="mask6_7114_155268" style="mask-type:alpha" maskUnits="userSpaceOnUse" x="108" y="18" width="11" height="22">
<path d="M108.836 19.5292L113.024 18.7346V23.4857H117.168V27.2111H113.024V32.7825C113.024 33.7255 113.179 34.4847 113.487 35.04C113.796 35.6018 114.42 35.8833 115.356 35.8833C115.809 35.8833 116.274 35.8431 116.749 35.7503C117.229 35.6588 117.664 35.5293 118.059 35.3724L118.647 38.8648C118.14 39.0874 117.576 39.2766 116.961 39.4384C116.339 39.5969 115.587 39.678 114.683 39.678C113.538 39.678 112.593 39.5129 111.843 39.1786C111.092 38.8527 110.492 38.3925 110.044 37.7953C109.596 37.208 109.283 36.4843 109.102 35.6457C108.92 34.8004 108.836 33.8654 108.836 32.8449V19.5292Z" fill="white"/>
</mask>
<g mask="url(#mask6_7114_155268)">
<path fill-rule="evenodd" clip-rule="evenodd" d="M-201.911 83.7871L388.618 83.7871V-752.795H-201.911L-201.911 83.7871Z" fill="white" fill-opacity="0.2"/>
<path fill-rule="evenodd" clip-rule="evenodd" d="M101.806 46.7083H125.678V11.7044H101.806V46.7083Z" fill="white" fill-opacity="0.2"/>
</g>
<path fill-rule="evenodd" clip-rule="evenodd" d="M120.128 31.4025C120.128 30.2566 120.302 29.177 120.649 28.1647C120.996 27.1489 121.496 26.2684 122.152 25.514C122.808 24.76 123.604 24.1658 124.544 23.7222C125.479 23.2852 126.547 23.0591 127.746 23.0591C128.533 23.0591 129.256 23.1385 129.913 23.2869C130.57 23.4405 131.21 23.6549 131.825 23.9331L130.956 27.5153C130.56 27.3565 130.13 27.2182 129.659 27.0933C129.19 26.9751 128.663 26.9129 128.083 26.9129C126.847 26.9129 125.922 27.3261 125.317 28.1494C124.702 28.9747 124.402 30.0562 124.402 31.4025C124.402 32.8246 124.687 33.9297 125.263 34.7128C125.829 35.4939 126.83 35.8871 128.253 35.8871C128.76 35.8871 129.301 35.8346 129.886 35.7352C130.465 35.6339 130.999 35.4753 131.491 35.2527L132.078 38.9275C131.589 39.1484 130.983 39.3341 130.252 39.4975C129.517 39.6566 128.713 39.739 127.834 39.739C126.484 39.739 125.319 39.5197 124.346 39.0893C123.373 38.6591 122.569 38.0718 121.942 37.3295C121.311 36.5856 120.856 35.7083 120.565 34.6958C120.273 33.6819 120.128 32.582 120.128 31.4025Z" fill="white" fill-opacity="0.2"/>
<mask id="mask7_7114_155268" style="mask-type:alpha" maskUnits="userSpaceOnUse" x="120" y="23" width="13" height="17">
<path d="M124.544 23.7225C125.479 23.2855 126.547 23.0593 127.746 23.0593C128.533 23.0593 129.256 23.1385 129.913 23.2869C130.57 23.4407 131.21 23.6549 131.825 23.9333L130.956 27.5152C130.56 27.3567 130.13 27.2184 129.658 27.0936C129.19 26.975 128.663 26.9129 128.083 26.9129C126.847 26.9129 125.922 27.3263 125.317 28.1496C124.702 28.9746 124.402 30.0561 124.402 31.4027C124.402 32.8249 124.687 33.9299 125.263 34.713C125.829 35.4942 126.83 35.8874 128.253 35.8874C128.76 35.8874 129.301 35.8348 129.886 35.7354C130.465 35.6341 130.999 35.4756 131.491 35.2527L132.078 38.9277C131.589 39.1487 130.983 39.334 130.251 39.4978C129.517 39.6566 128.713 39.7393 127.834 39.7393C126.484 39.7393 125.319 39.5197 124.346 39.0892C123.373 38.6591 122.569 38.0721 121.942 37.3301C121.311 36.5859 120.856 35.7086 120.565 34.6961C120.273 33.6821 120.128 32.582 120.128 31.4027C120.128 30.2568 120.302 29.1772 120.649 28.165C120.996 27.1492 121.496 26.2683 122.151 25.514C122.808 24.7599 123.604 24.166 124.544 23.7225Z" fill="white"/>
</mask>
<g mask="url(#mask7_7114_155268)">
<path fill-rule="evenodd" clip-rule="evenodd" d="M-201.911 83.7874L388.618 83.7874V-752.795H-201.911L-201.911 83.7874Z" fill="white" fill-opacity="0.2"/>
<path fill-rule="evenodd" clip-rule="evenodd" d="M113.098 46.7695H139.107V16.0291H113.098V46.7695Z" fill="white" fill-opacity="0.2"/>
</g>
<path fill-rule="evenodd" clip-rule="evenodd" d="M134.785 39.3113V19.5234L138.975 18.7356V23.5442C139.254 23.4445 139.613 23.3484 140.058 23.2575C140.496 23.168 140.926 23.1206 141.337 23.1206C142.535 23.1206 143.53 23.2978 144.329 23.6471C145.124 23.9982 145.766 24.4959 146.241 25.1386C146.723 25.7782 147.056 26.544 147.257 27.4232C147.451 28.3087 147.548 29.2944 147.548 30.3776V39.3113H143.36V30.9156C143.36 29.4712 143.187 28.4489 142.841 27.8432C142.494 27.2474 141.851 26.9457 140.916 26.9457C140.535 26.9457 140.188 26.9813 139.858 27.0486C139.531 27.1195 139.236 27.197 138.975 27.2764V39.3113H134.785Z" fill="white" fill-opacity="0.2"/>
<mask id="mask8_7114_155268" style="mask-type:alpha" maskUnits="userSpaceOnUse" x="134" y="18" width="14" height="22">
<path d="M134.785 19.5234L138.975 18.7356V23.5445C139.254 23.4445 139.613 23.3484 140.058 23.2575C140.496 23.168 140.926 23.1209 141.337 23.1209C142.535 23.1209 143.53 23.298 144.329 23.6471C145.124 23.9984 145.766 24.496 146.241 25.1388C146.722 25.7782 147.057 26.544 147.257 27.4235C147.451 28.309 147.548 29.2944 147.548 30.3778V39.3113H143.36V30.9156C143.36 29.4715 143.186 28.4489 142.841 27.8432C142.494 27.2477 141.851 26.9457 140.916 26.9457C140.535 26.9457 140.188 26.9813 139.858 27.0489C139.531 27.1195 139.236 27.197 138.975 27.2764V39.3113H134.785V19.5234Z" fill="white"/>
</mask>
<g mask="url(#mask8_7114_155268)">
<path fill-rule="evenodd" clip-rule="evenodd" d="M-201.911 83.7874L388.618 83.7874V-752.795H-201.911L-201.911 83.7874Z" fill="white" fill-opacity="0.2"/>
<path fill-rule="evenodd" clip-rule="evenodd" d="M127.755 46.3416H154.578V11.7053H127.755V46.3416Z" fill="white" fill-opacity="0.2"/>
</g>
<path fill-rule="evenodd" clip-rule="evenodd" d="M8.46777 39.3164V24.9682C8.46777 24.9682 10.5736 23.1679 15.1796 23.1679C19.371 23.1679 21.6726 25.4104 21.6726 30.3454V39.3164H17.4861V30.3454C17.4861 27.2022 16.0169 26.9845 14.7617 26.9845C13.5066 26.9845 12.666 27.6526 12.666 27.6526V39.3164H8.46777Z" fill="white" fill-opacity="0.2"/>
<mask id="mask9_7114_155268" style="mask-type:alpha" maskUnits="userSpaceOnUse" x="8" y="23" width="14" height="17">
<path d="M8.46777 24.9682C8.46777 24.9682 10.5736 23.1679 15.1796 23.1679C19.371 23.1679 21.6723 25.4101 21.6723 30.3457V39.3164H17.4861V30.3457C17.4861 27.2019 16.0169 26.9845 14.7617 26.9845C13.5066 26.9845 12.666 27.6528 12.666 27.6528V39.3164H8.46777V24.9682Z" fill="white"/>
</mask>
<g mask="url(#mask9_7114_155268)">
<path fill-rule="evenodd" clip-rule="evenodd" d="M-201.911 83.7871L388.617 83.7871V-752.795H-201.911L-201.911 83.7871Z" fill="white" fill-opacity="0.2"/>
<path fill-rule="evenodd" clip-rule="evenodd" d="M1.4375 46.3467H28.702L28.702 16.138H1.4375L1.4375 46.3467Z" fill="white" fill-opacity="0.2"/>
</g>
<path fill-rule="evenodd" clip-rule="evenodd" d="M0.580078 39.3164L0.580078 19.5251L4.77151 18.7353L4.77151 39.3164H0.580078Z" fill="white" fill-opacity="0.2"/>
<mask id="mask10_7114_155268" style="mask-type:alpha" maskUnits="userSpaceOnUse" x="0" y="18" width="5" height="22">
<path d="M0.580078 19.5253L4.77151 18.7353L4.77151 39.3164H0.580078L0.580078 19.5253Z" fill="white"/>
</mask>
<g mask="url(#mask10_7114_155268)">
<path fill-rule="evenodd" clip-rule="evenodd" d="M-201.911 83.7871L388.618 83.7871V-752.795H-201.911L-201.911 83.7871Z" fill="white" fill-opacity="0.2"/>
<path fill-rule="evenodd" clip-rule="evenodd" d="M-6.4502 46.3467H11.8016L11.8016 11.7055H-6.4502L-6.4502 46.3467Z" fill="white" fill-opacity="0.2"/>
</g>
<path fill-rule="evenodd" clip-rule="evenodd" d="M50.0736 32.5362H40.6459C40.6459 32.5362 40.8565 35.8988 45.0429 35.8988C47.1389 35.8988 49.2346 35.2288 49.2346 35.2288L49.6541 38.8209C49.6541 38.8209 47.56 39.7102 44.6287 39.7102C40.4354 39.7102 36.665 37.471 36.665 31.1932C36.665 26.2562 39.5964 23.1214 43.7865 23.1214C50.0736 23.1214 50.4947 29.8398 50.0736 32.5362ZM43.5808 26.2562C40.8565 26.2562 40.6459 29.3943 40.6459 29.3943H46.5086C46.5086 29.3943 46.3033 26.2562 43.5808 26.2562Z" fill="white" fill-opacity="0.2"/>
<mask id="mask11_7114_155268" style="mask-type:alpha" maskUnits="userSpaceOnUse" x="36" y="23" width="15" height="17">
<path d="M36.665 31.1932C36.665 26.2562 39.5964 23.1214 43.7862 23.1214C50.0733 23.1214 50.4944 29.84 50.0733 32.5362H40.6459C40.6459 32.5362 40.8564 35.8988 45.0427 35.8988C47.1386 35.8988 49.2344 35.2288 49.2344 35.2288L49.6538 38.8209C49.6538 38.8209 47.5598 39.7104 44.6284 39.7104C40.4354 39.7104 36.665 37.4713 36.665 31.1932ZM43.5805 26.2562C40.8564 26.2562 40.6459 29.3946 40.6459 29.3946H46.5086C46.5086 29.3946 46.303 26.2562 43.5805 26.2562Z" fill="white"/>
</mask>
<g mask="url(#mask11_7114_155268)">
<path fill-rule="evenodd" clip-rule="evenodd" d="M-201.911 83.7874L388.617 83.7874V-752.795H-201.911L-201.911 83.7874Z" fill="white" fill-opacity="0.2"/>
<path fill-rule="evenodd" clip-rule="evenodd" d="M29.6348 46.7405H57.2206V16.0913H29.6348L29.6348 46.7405Z" fill="white" fill-opacity="0.2"/>
</g>
<mask id="mask12_7114_155268" style="mask-type:alpha" maskUnits="userSpaceOnUse" x="153" y="15" width="28" height="37">
<path d="M153.1 18.7394C153.1 17.7827 165.15 15.7182 173.231 15.7182C176.736 15.7182 179.494 16.1065 180.2 17.1415C183.839 21.9468 158.221 52.0941 156.087 51.1796C154.375 50.7223 169.744 31.5335 167.182 23.764C165.904 19.6555 153.1 20.1125 153.1 18.7394Z" fill="white"/>
</mask>
<g mask="url(#mask12_7114_155268)">
<path fill-rule="evenodd" clip-rule="evenodd" d="M146.069 58.2302H187.583V8.68819H146.069V58.2302Z" fill="white" fill-opacity="0.2"/>
</g>
<mask id="mask13_7114_155268" style="mask-type:alpha" maskUnits="userSpaceOnUse" x="153" y="15" width="28" height="37">
<path d="M153.1 18.7394C153.1 17.7827 165.15 15.7182 173.231 15.7182C176.736 15.7182 179.494 16.1065 180.2 17.1415C183.839 21.9468 158.221 52.0941 156.087 51.1796C154.375 50.7223 169.744 31.5335 167.182 23.764C165.904 19.6555 153.1 20.1125 153.1 18.7394Z" fill="white"/>
</mask>
<g mask="url(#mask13_7114_155268)">
<path fill-rule="evenodd" clip-rule="evenodd" d="M146.069 58.2302H187.583V8.68819H146.069V58.2302Z" fill="white" fill-opacity="0.2"/>
</g>
<mask id="mask14_7114_155268" style="mask-type:alpha" maskUnits="userSpaceOnUse" x="174" y="0" width="12" height="13">
<path d="M174.865 6.86193C174.865 3.58039 177.35 0.92475 180.413 0.92475C183.479 0.92475 185.961 3.58039 185.961 6.86193C185.961 10.1451 183.479 12.8008 180.413 12.8008C177.35 12.8008 174.865 10.1451 174.865 6.86193Z" fill="white"/>
</mask>
<g mask="url(#mask14_7114_155268)">
<path fill-rule="evenodd" clip-rule="evenodd" d="M167.835 19.8311H192.99V-6.10567H167.835V19.8311Z" fill="white" fill-opacity="0.2"/>
<path fill-rule="evenodd" clip-rule="evenodd" d="M167.835 19.8311H192.99V-6.10567H167.835V19.8311Z" fill="white" fill-opacity="0.2"/>
</g>
</svg>
