<svg width="131" height="32" viewBox="0 0 131 32" fill="none" xmlns="http://www.w3.org/2000/svg">
<g clip-path="url(#clip0_8264_597)">
<path d="M50.9422 22.3937H47.9209V8.9844H50.9422V14.4177H57.6655V8.9844H60.6868V22.3925H57.6655V16.7808H50.9422V22.3937ZM66.1658 17.014C66.1658 19.3859 66.9057 20.3735 69.4041 20.3735C71.9025 20.3735 72.6104 19.3759 72.6104 17.014V8.98316H75.6292V17.0888C75.7845 18.3521 75.4874 19.629 74.7906 20.689C73.6068 22.0009 71.8889 22.5409 69.3918 22.5409C66.8946 22.5409 65.1546 22.0009 63.9756 20.689C63.3147 19.9682 63.1519 18.7873 63.1519 17.0888V8.98316H66.1522L66.1658 17.014ZM85.5057 8.98316L91.6223 22.3925H88.2766L86.9571 19.1976H80.7173L79.4385 22.3925H76.2285L82.3019 8.98316H85.5057ZM81.6865 16.8095H85.9657L83.7866 11.6568L81.6865 16.8095ZM112.077 8.9844L107.638 22.3925H103.938L100.892 12.3963L98.2161 22.4062H94.535L89.754 8.99812H92.9972L96.3268 19.3061L99.1261 8.99812H102.686L105.902 19.3061L109.001 8.99812L112.077 8.9844ZM116.153 14.4364H124.51V16.7609H116.124C116.14 19.1701 117.16 20.0455 119.54 20.0455H124.498V22.3812H119.4C117.816 22.5309 116.23 22.1156 114.921 21.2053C114.155 20.5733 113.554 19.761 113.171 18.8396C112.788 17.9182 112.634 16.9158 112.723 15.9204C112.723 11.1817 114.863 8.97443 119.481 8.97443H124.496V11.3114H119.539C117.364 11.3101 116.265 12.3165 116.142 14.4264M127.171 8.9844H130.328V22.3937H127.171V8.9844Z" fill="white"/>
<path d="M18.5811 24.5531C18.6255 24.5157 18.639 24.4533 18.6156 24.3997C15.5298 17.7033 11.6831 11.3932 7.15321 5.59703C7.15321 5.59703 3.55233 9.05129 3.8076 12.518C3.93021 14.1334 4.68095 15.6338 5.89537 16.6906C9.03627 19.787 16.6425 23.6952 18.4121 24.5793C18.4676 24.6105 18.5379 24.5993 18.5823 24.5544M17.4059 27.203C17.3941 27.1689 17.3721 27.1392 17.3429 27.1182C17.3138 27.0972 17.2789 27.0859 17.2431 27.0858V27.0833L4.57834 27.5298C5.95086 30.0064 8.27787 31.9293 10.6739 31.3394C12.3363 30.9192 16.1048 28.2618 17.3331 27.3652V27.3614C17.428 27.2741 17.3948 27.2043 17.3948 27.2043M17.597 26.052C17.6587 25.9523 17.5477 25.865 17.5477 25.865L17.5489 25.86C11.9996 22.069 1.20683 16.2417 1.20683 16.2417C0.623391 18.0679 0.746544 20.05 1.55145 21.788C2.35635 23.5261 3.7831 24.8908 5.54391 25.6069C6.31738 25.9168 7.13518 26.0987 7.96587 26.1456C8.15578 26.183 15.4981 26.1493 17.4638 26.1406C17.5193 26.1343 17.5686 26.1007 17.5945 26.0508M18.438 0.0677C17.8856 0.117581 16.3983 0.459266 16.3983 0.459266C14.4339 0.96556 12.8678 2.46075 12.2524 4.41235C11.9048 5.74418 11.9108 7.14516 12.2697 8.47392C13.3882 13.4945 18.8968 21.7473 20.0781 23.4782C20.162 23.563 20.2311 23.5318 20.2311 23.5318C20.3026 23.5143 20.3519 23.447 20.3482 23.3722H20.3507C22.1709 4.94982 18.4393 0.0527344 18.4393 0.0527344M22.6284 23.5268C22.6974 23.5555 22.7763 23.5256 22.8109 23.4582C24.0268 21.68 29.5021 13.4733 30.6144 8.47392C30.9474 7.14209 30.9548 5.74792 30.6354 4.41235C30.3286 3.44742 29.7831 2.57778 29.0506 1.88594C28.3181 1.19409 27.4229 0.703003 26.45 0.459266C26.45 0.459266 25.4819 0.212356 24.4559 0.0664537C24.4559 0.0664537 20.7021 4.95231 22.5272 23.3859H22.5297C22.5309 23.4482 22.5692 23.5056 22.6284 23.5268ZM25.625 27.0971C25.625 27.0971 25.5017 27.112 25.4819 27.1943C25.4671 27.2567 25.4856 27.324 25.5313 27.3689C26.7398 28.2481 30.4146 30.8606 32.1904 31.3507C32.1904 31.3507 35.4645 32.478 38.307 27.5397L25.6274 27.0908L25.625 27.0971ZM41.681 16.213C41.681 16.213 30.9153 22.0541 25.3475 25.8525C25.3196 25.8736 25.2986 25.9028 25.2874 25.9362C25.2762 25.9696 25.2752 26.0056 25.2846 26.0396C25.2846 26.0396 25.3376 26.1356 25.4153 26.1356V26.1381L35.1402 26.1131C35.8878 26.0537 36.6226 25.8822 37.3204 25.6044C39.1394 24.8836 40.6032 23.4669 41.3973 21.6613C42.1426 19.9397 42.2434 18.0029 41.681 16.2117M24.3301 24.5668C24.3795 24.6042 24.4473 24.6092 24.5028 24.5793C26.3156 23.664 33.8663 19.782 36.9924 16.7018C38.2064 15.6369 38.9561 14.1309 39.079 12.5106C39.3071 8.92535 35.7494 5.60825 35.7494 5.60825C31.2286 11.3893 27.3881 17.6825 24.3055 24.3611H24.3092C24.2759 24.4297 24.2894 24.5107 24.3437 24.5656" fill="white"/>
</g>
<defs>
<clipPath id="clip0_8264_597">
<rect width="131" height="32" fill="white"/>
</clipPath>
</defs>
</svg>
