<svg width="189" height="32" viewBox="0 0 189 32" fill="none" xmlns="http://www.w3.org/2000/svg">
<path fill-rule="evenodd" clip-rule="evenodd" d="M32 16C32 24.8366 24.8366 32 16 32C7.16344 32 0 24.8366 0 16C0 7.16344 7.16344 0 16 0C24.8366 0 32 7.16344 32 16ZM23.6961 15.9177L23.6962 14.384V14.372C23.6963 13.3535 23.6965 12.335 23.6961 11.3164C23.6956 9.66827 22.2753 8.24567 20.6254 8.24512C17.5546 8.24349 14.4834 8.24294 11.4126 8.24512C9.87289 8.24621 8.4706 9.55494 8.36043 11.086C8.24316 12.7167 9.05694 13.9241 10.631 14.4515C11.1758 14.6339 11.7356 14.7557 12.2956 14.8776L12.2956 14.8776C12.627 14.9496 12.9584 15.0217 13.2867 15.1064C14.1877 15.3391 15.0419 15.6464 15.7116 16.3481C16.2636 16.9268 16.5505 17.6264 16.7616 18.3706C16.8815 18.7928 16.975 19.2215 17.0685 19.6501C17.1731 20.1298 17.2777 20.6095 17.4194 21.0802C17.6735 21.9241 18.0679 22.6695 18.8669 23.1304C19.9245 23.7407 21.0099 23.7837 22.0718 23.1898C23.1305 22.5976 23.6939 21.6713 23.6961 20.4372C23.6972 19.4329 23.6968 18.4286 23.6965 17.4242C23.6963 16.9221 23.6961 16.4199 23.6961 15.9177ZM8.33277 20.4225C8.31368 18.6714 9.75142 17.2297 11.5202 17.2259C13.2885 17.222 14.7208 18.6485 14.7197 20.4127C14.7186 22.1584 13.2869 23.5957 11.5442 23.6001C9.77651 23.6044 8.35186 22.1954 8.33277 20.4225Z" fill="white"/>
<path d="M41 23.7446H42.5291L43.8935 19.4253L52.0096 19.402L53.3505 23.7446H54.8796L50.4569 9.85776C50.057 8.60377 49.116 8 47.9398 8C46.7636 8 45.8226 8.60377 45.4227 9.85776L41 23.7446ZM46.74 10.299C46.9282 9.64877 47.3046 9.34688 47.9398 9.34688C48.575 9.34688 48.9514 9.64877 49.1631 10.299L51.5861 18.0552H44.317L46.74 10.299Z" fill="white"/>
<path d="M62.1414 23.7446V18.9608H65.2231C69.0577 18.9608 71.9277 17.2888 71.9277 13.5733C71.9277 9.97387 69.1753 8.23222 65.1761 8.23222H60.6358V23.7446H62.1414ZM65.1996 9.62554C68.2343 9.62554 70.375 10.8331 70.375 13.5733C70.375 16.4296 68.0931 17.5675 65.1996 17.5675H62.1414V9.62554H65.1996Z" fill="white"/>
<path d="M82.5603 24C83.8071 24 84.7952 23.2569 85.2657 21.7707L89.4766 8.23222H87.924L83.8542 21.4688C83.6189 22.2351 83.219 22.6531 82.5603 22.6531C81.9016 22.6531 81.5017 22.2351 81.2665 21.4688L77.1731 8.23222H75.6205L79.8314 21.7707C80.3019 23.2569 81.29 24 82.5603 24Z" fill="white"/>
<path d="M105.294 23.7446V22.3512H96.1898V16.6851H104.659V15.2917H96.1898V9.62554H105.082V8.23222H96.1898C95.0606 8.23222 94.6842 8.78955 94.6842 9.69521V22.2816C94.6842 23.1872 95.0606 23.7446 96.1898 23.7446H105.294Z" fill="white"/>
<path d="M112.831 23.7446V17.521H115.325C117.889 17.521 118.759 19.1001 119.865 21.283L121.112 23.7446H122.735L121.394 21.074C120.383 19.0537 119.583 17.5675 118.077 16.9637C120.453 16.5689 121.935 15.0131 121.935 12.7141C121.935 9.64877 119.442 8.23222 116.313 8.23222H111.349V23.7446H112.831ZM116.313 9.62554C118.548 9.62554 120.406 10.5776 120.406 12.8302C120.406 15.0595 118.642 16.1509 116.266 16.1509H112.855V9.62554H116.313Z" fill="white"/>
<path d="M137.965 8.23222H126.462V9.62554H131.449V23.7446H132.955V9.62554H137.965V8.23222Z" fill="white"/>
<path d="M142.968 8.23222V23.7446H144.473V8.23222H142.968Z" fill="white"/>
<path d="M156.146 23.9303C159.157 23.9303 161.462 22.1655 161.462 19.5181C161.462 16.4064 158.804 15.7097 156.428 15.1988C154.358 14.7576 152.429 14.3396 152.429 12.2961C152.429 10.6705 154.029 9.48621 155.887 9.48621C157.746 9.48621 159.134 10.3222 159.839 11.8316L161.086 11.1814C160.216 9.13788 158.193 8.06967 155.934 8.06967C153.205 8.06967 150.923 9.90421 150.923 12.3425C150.923 15.4311 153.629 16.1277 156.005 16.6386C158.075 17.0566 159.957 17.4514 159.957 19.5181C159.957 21.4224 158.31 22.5138 156.146 22.5138C154.123 22.5138 152.57 21.6546 151.888 20.1219L150.618 20.7489C151.488 22.7925 153.652 23.9303 156.146 23.9303Z" fill="white"/>
<path d="M178 23.7446V22.3512H168.896V16.6851H177.365V15.2917H168.896V9.62554H177.788V8.23222H168.896C167.767 8.23222 167.39 8.78955 167.39 9.69521V22.2816C167.39 23.1872 167.767 23.7446 168.896 23.7446H178Z" fill="white"/>
</svg>
