<svg width="78" height="87" viewBox="0 0 78 87" fill="none" xmlns="http://www.w3.org/2000/svg">
<path fill-rule="evenodd" clip-rule="evenodd" d="M0 23.7384C0 10.8334 10.2927 0.332534 23.1168 -0.00292969L58.1731 32.2637C59.607 33.5835 61.8394 33.491 63.1592 32.0571C69.7583 24.8874 69.2958 13.7256 62.1261 7.12655L54.3839 0.000399846C67.1537 0.396199 77.3841 10.8726 77.3841 23.7384V63.2562C77.3841 76.1302 67.1406 86.6117 54.3595 86.9949L19.3208 54.7446C17.8869 53.4248 15.6545 53.5173 14.3347 54.9512C7.73563 62.1209 8.19817 73.2827 15.3678 79.8818L23.0983 86.997C10.2829 86.652 0 76.1549 0 63.2562V23.7384ZM14.3347 11.3405C7.73563 18.5102 8.19817 29.672 15.3678 36.2711L58.1731 75.67C59.607 76.9898 61.8394 76.8973 63.1592 75.4634C69.7583 68.2937 69.2958 57.1319 62.1261 50.5328L19.3208 11.1339C17.8869 9.81411 15.6545 9.90662 14.3347 11.3405Z" fill="#FF6F00"/>
</svg>
