<svg width="32" height="32" viewBox="0 0 32 32" fill="none" xmlns="http://www.w3.org/2000/svg">
<path d="M16.0004 6.12665C14.5476 4.79079 12.646 4.04938 10.6724 4.04932C9.62777 4.0504 8.59368 4.25806 7.62963 4.66034C6.66558 5.06262 5.7906 5.65158 5.05505 6.39332C1.91771 9.54398 1.91905 14.472 5.05771 17.6093L14.8337 27.3853C15.0604 27.784 15.4977 28.0413 16.0004 28.0413C16.2068 28.0393 16.4098 27.9889 16.5932 27.8942C16.7766 27.7995 16.9353 27.6631 17.0564 27.496L26.9431 17.6093C30.0817 14.4706 30.0817 9.54398 26.9404 6.38798C26.2052 5.64761 25.3309 5.05985 24.3678 4.65849C23.4047 4.25714 22.3718 4.05012 21.3284 4.04932C19.3548 4.04964 17.4533 4.79101 16.0004 6.12665ZM25.055 8.27332C27.139 10.368 27.1404 13.64 25.0577 15.724L16.0004 24.7813L6.94305 15.724C4.86038 13.64 4.86171 10.368 6.94038 8.27865C7.95371 7.27065 9.27905 6.71598 10.6724 6.71598C12.0657 6.71598 13.3857 7.27065 14.391 8.27598L15.0577 8.94265C15.1814 9.06658 15.3284 9.16489 15.4901 9.23198C15.6519 9.29906 15.8253 9.33358 16.0004 9.33358C16.1755 9.33358 16.3489 9.29906 16.5106 9.23198C16.6724 9.16489 16.8193 9.06658 16.943 8.94265L17.6097 8.27598C19.6257 6.26398 23.0417 6.26932 25.055 8.27332Z" fill="white"/>
</svg>
