<svg width="48" height="48" viewBox="0 0 48 48" fill="none" xmlns="http://www.w3.org/2000/svg">
<rect width="48" height="48" rx="12" fill="white" fill-opacity="0.03"/>
<path d="M28.19 14H19.81C16.17 14 14 16.17 14 19.81V28.18C14 31.83 16.17 34 19.81 34H28.18C31.82 34 33.99 31.83 33.99 28.19V19.81C34 16.17 31.83 14 28.19 14ZM22.22 33H19.91C17.2 33 15 30.8 15 28.09V25.78C15 25.37 15.34 25.03 15.75 25.03C16.16 25.03 16.5 25.37 16.5 25.78V28.09C16.5 29.97 18.03 31.5 19.91 31.5H22.22C22.63 31.5 22.97 31.84 22.97 32.25C22.97 32.66 22.64 33 22.22 33ZM22.22 16.5H19.91C18.03 16.5 16.5 18.03 16.5 19.91V22.22C16.5 22.63 16.16 22.97 15.75 22.97C15.34 22.97 15 22.64 15 22.22V19.91C15 17.2 17.2 15 19.91 15H22.22C22.63 15 22.97 15.34 22.97 15.75C22.97 16.16 22.64 16.5 22.22 16.5ZM33 28.09C33 30.8 30.8 33 28.09 33H26.7C26.29 33 25.95 32.66 25.95 32.25C25.95 31.84 26.29 31.5 26.7 31.5H28.09C29.97 31.5 31.5 29.97 31.5 28.09V26.7C31.5 26.29 31.84 25.95 32.25 25.95C32.66 25.95 33 26.29 33 26.7V28.09ZM33 22.22C33 22.63 32.66 22.97 32.25 22.97C31.84 22.97 31.5 22.63 31.5 22.22V19.91C31.5 18.03 29.97 16.5 28.09 16.5H25.78C25.37 16.5 25.03 16.16 25.03 15.75C25.03 15.34 25.36 15 25.78 15H28.09C30.8 15 33 17.2 33 19.91V22.22Z" fill="white"/>
<rect x="0.5" y="0.5" width="47" height="47" rx="11.5" stroke="white" stroke-opacity="0.04"/>
</svg>
