<svg width="16" height="16" viewBox="0 0 16 16" fill="none" xmlns="http://www.w3.org/2000/svg">
<path d="M14.6663 14.1666H13.833V7.3333C13.833 5.71996 12.9463 4.8333 11.333 4.8333H8.49967V4.0133C8.88634 4.10663 9.27301 4.15996 9.66634 4.15996C10.293 4.15996 10.9197 4.03996 11.5197 3.79996C11.7063 3.72663 11.833 3.53996 11.833 3.3333V1.3333C11.833 1.16663 11.753 1.0133 11.613 0.919963C11.473 0.82663 11.2997 0.80663 11.1463 0.86663C10.193 1.24663 9.13967 1.24663 8.18634 0.86663C8.03301 0.80663 7.85967 0.82663 7.71967 0.919963C7.57967 1.0133 7.49967 1.16663 7.49967 1.3333V3.3333V4.8333H4.66634C3.05301 4.8333 2.16634 5.71996 2.16634 7.3333V14.1666H1.33301C1.05967 14.1666 0.833008 14.3933 0.833008 14.6666C0.833008 14.94 1.05967 15.1666 1.33301 15.1666H2.66634H13.333H14.6663C14.9397 15.1666 15.1663 14.94 15.1663 14.6666C15.1663 14.3933 14.9397 14.1666 14.6663 14.1666ZM4.82634 14.1666H3.16634V8.49996H4.82634V14.1666ZM7.49301 14.1666H5.82634V8.49996H7.49301V14.1666ZM10.1597 14.1666H8.49301V8.49996H10.1597V14.1666ZM12.833 14.1666H11.1597V8.49996H12.833V14.1666Z" fill="white"/>
</svg>
