<svg width="562" height="144" viewBox="0 0 562 144" fill="none" xmlns="http://www.w3.org/2000/svg">
<path fill-rule="evenodd" clip-rule="evenodd" d="M0 52.7384C0 39.8334 10.2927 29.3325 23.1168 28.9971L58.1731 61.2637C59.607 62.5835 61.8394 62.491 63.1592 61.0571C69.7583 53.8874 69.2958 42.7256 62.1261 36.1265L54.3839 29.0004C67.1537 29.3962 77.3841 39.8726 77.3841 52.7384V92.2562C77.3841 105.13 67.1406 115.612 54.3595 115.995L19.3208 83.7446C17.8869 82.4248 15.6545 82.5173 14.3347 83.9512C7.73563 91.1209 8.19817 102.283 15.3678 108.882L23.0983 115.997C10.2829 115.652 0 105.155 0 92.2562V52.7384ZM14.3347 40.3405C7.73563 47.5102 8.19817 58.672 15.3678 65.2711L58.1731 104.67C59.607 105.99 61.8394 105.897 63.1592 104.463C69.7583 97.2937 69.2958 86.1319 62.1261 79.5328L19.3208 40.1339C17.8869 38.8141 15.6545 38.9066 14.3347 40.3405Z" fill="#FF6F00"/>
<path d="M105.53 90.2833C108.552 91.3133 111.848 92.1374 115.419 92.7554C119.058 93.3047 122.663 93.5794 126.234 93.5794C131.11 93.5794 134.715 93.3734 137.049 92.9614C139.453 92.4807 141.032 91.7597 141.788 90.7983C142.543 89.8369 142.921 88.6009 142.921 87.0902C142.921 85.7854 142.646 84.7554 142.097 84C141.547 83.2447 140.483 82.661 138.904 82.249C137.324 81.7683 134.989 81.3906 131.899 81.1159L125.101 80.4979C120.019 80.0172 116.002 78.9528 113.05 77.3048C110.165 75.6567 108.105 73.4593 106.869 70.7125C105.702 67.8971 105.118 64.5323 105.118 60.6181C105.118 55.9486 106.045 52.1718 107.899 49.2877C109.822 46.4035 112.912 44.3091 117.17 43.0044C121.427 41.631 127.092 40.9443 134.165 40.9443C143.367 40.9443 150.955 42.146 156.929 44.5495L156.62 58.558L156.311 58.97C149.513 56.5666 142.406 55.3649 134.989 55.3649C131.419 55.3649 128.672 55.5709 126.749 55.9829C124.826 56.3263 123.487 56.91 122.732 57.734C121.977 58.558 121.599 59.7254 121.599 61.2361C121.599 62.7469 121.839 63.8799 122.32 64.6353C122.869 65.3906 123.934 65.9743 125.513 66.3863C127.092 66.7297 129.393 67.073 132.414 67.4164L138.904 68.1374C144.397 68.7554 148.62 69.8541 151.573 71.4335C154.526 73.0129 156.552 75.1417 157.65 77.8198C158.818 80.4292 159.401 83.6224 159.401 87.3992C159.401 92 158.406 95.8455 156.414 98.9356C154.492 101.957 151.333 104.223 146.938 105.734C142.543 107.245 136.672 108 129.324 108C124.517 108 120.191 107.76 116.346 107.279C112.5 106.73 108.758 106.009 105.118 105.116V90.5923L105.53 90.2833ZM167.685 74.4207C167.685 66.1117 168.612 59.5194 170.466 54.6439C172.389 49.7683 175.651 46.2662 180.252 44.1374C184.921 42.0087 191.41 40.9443 199.719 40.9443C205.968 40.9443 211.153 41.528 215.273 42.6954C219.393 43.8628 222.655 45.7512 225.058 48.3606C227.462 50.9701 229.144 54.4379 230.106 58.764C231.136 63.0215 231.651 68.2404 231.651 74.4207C231.651 80.6696 231.136 85.9571 230.106 90.2833C229.144 94.5408 227.462 97.9743 225.058 100.584C222.655 103.193 219.393 105.082 215.273 106.249C211.153 107.416 205.968 108 199.719 108C193.471 108 188.286 107.416 184.166 106.249C180.046 105.082 176.784 103.193 174.38 100.584C171.977 97.9743 170.26 94.5408 169.23 90.2833C168.2 85.9571 167.685 80.6696 167.685 74.4207ZM199.719 93.5794C204.114 93.5794 207.41 93.0301 209.608 91.9314C211.805 90.8326 213.282 88.9099 214.037 86.1631C214.792 83.3477 215.17 79.4335 215.17 74.4207C215.17 69.4765 214.792 65.631 214.037 62.8842C213.282 60.1374 211.805 58.2147 209.608 57.116C207.41 55.9486 204.114 55.3649 199.719 55.3649C195.393 55.3649 192.097 55.9486 189.831 57.116C187.634 58.2147 186.123 60.1374 185.299 62.8842C184.544 65.631 184.166 69.4765 184.166 74.4207C184.166 79.4335 184.544 83.3477 185.299 86.1631C186.123 88.9099 187.634 90.8326 189.831 91.9314C192.097 93.0301 195.393 93.5794 199.719 93.5794ZM258.449 107.073H241.969V41.8714H290.381V55.2619H258.449V70.1975H288.321V83.588H258.449V107.073ZM311.489 107.073V55.7769H292.948V41.8714H346.51V55.7769H327.969V107.073H311.489ZM395.441 87.8112C395.441 85.5451 395.544 83.485 395.75 81.6309L395.544 81.3219C393.621 81.5966 391.527 81.8026 389.261 81.94C386.995 82.0086 384.9 82.0086 382.977 81.94V68.5494L409.862 68.4464V103.468C406.703 104.91 403.098 106.043 399.046 106.867C395.063 107.622 389.982 108 383.801 108C375.561 108 369.106 106.901 364.437 104.704C359.767 102.438 356.471 98.8326 354.548 93.8884C352.626 88.8756 351.664 82.2146 351.664 73.9056C351.664 67.176 352.42 61.6481 353.93 57.322C355.51 52.9958 357.776 49.6653 360.729 47.3306C363.75 44.9271 367.424 43.2791 371.75 42.3864C376.076 41.425 381.02 40.9443 386.583 40.9443C389.879 40.9443 393.175 41.0817 396.471 41.3563C399.836 41.631 403.166 42.146 406.462 42.9014V56.4979L406.153 56.7039C403.269 56.0173 400.385 55.5366 397.501 55.2619C394.686 54.9872 391.836 54.8499 388.952 54.8499C384.763 54.8499 381.089 55.2962 377.93 56.1889C374.84 57.013 372.437 58.764 370.72 61.4421C369.003 64.1202 368.145 68.2747 368.145 73.9056C368.145 79.4679 368.591 83.7254 369.484 86.6781C370.445 89.5623 372.196 91.5537 374.737 92.6524C377.347 93.6824 381.055 94.1974 385.862 94.1974C386.48 94.1974 387.441 94.1974 388.746 94.1974C390.05 94.1288 391.355 94.0601 392.66 93.9914C393.965 93.9228 394.892 93.8198 395.441 93.6824V87.8112ZM421.22 107.073V41.8714H469.632V55.2619H437.701V67.6224H465.409V81.0129H437.701V93.6824H469.632V107.073H421.22ZM507.62 103.777C506.453 100.069 505.251 96.1202 504.015 91.9314C502.848 87.7425 501.681 83.588 500.513 79.4679C499.346 75.3477 498.281 71.5022 497.32 67.9314C496.359 64.3606 495.535 61.2705 494.848 58.661C494.161 56.0516 493.681 54.1975 493.406 53.0988L492.994 53.2018C493.2 54.4379 493.372 56.0859 493.509 58.146C493.646 60.1374 493.749 62.2662 493.818 64.5323C493.887 66.7297 493.921 68.7554 493.921 70.6095V107.073H478.161V41.8714H505.766C506.728 45.5108 507.723 49.3563 508.754 53.4078C509.852 57.3906 510.917 61.3735 511.947 65.3563C513.045 69.2705 514.007 73.0129 514.831 76.5837C515.655 80.0859 516.238 83.1417 516.582 85.7511H516.788C517.131 83.1417 517.681 80.0859 518.436 76.5837C519.26 73.0816 520.187 69.3391 521.217 65.3563C522.247 61.3735 523.311 57.3906 524.41 53.4078C525.509 49.3563 526.505 45.5108 527.397 41.8714H554.59V107.073H539.037V70.6095C539.037 68.7554 539.071 66.7297 539.14 64.5323C539.208 62.2662 539.311 60.1374 539.449 58.146C539.655 56.0859 539.826 54.4379 539.964 53.2018L539.552 53.0988C539.277 54.1975 538.796 56.0516 538.11 58.661C537.423 61.2705 536.565 64.3949 535.535 68.0344C534.573 71.6052 533.509 75.4507 532.341 79.5709C531.174 83.691 529.972 87.8455 528.736 92.0344C527.569 96.1545 526.436 100.069 525.337 103.777H507.62Z" fill="white"/>
</svg>
