<svg width="16" height="16" viewBox="0 0 16 16" fill="none" xmlns="http://www.w3.org/2000/svg">
<path d="M10.9463 5.29996C12.573 6.92662 12.573 9.56662 10.9463 11.1933C9.31967 12.82 6.67967 12.82 5.05301 11.1933C3.42634 9.56662 3.42634 6.92662 5.05301 5.29996C6.67967 3.67329 9.31967 3.67329 10.9463 5.29996Z" fill="white"/>
<path d="M5.4997 14.9266C5.4397 14.9266 5.37303 14.9133 5.31303 14.8933C3.81303 14.2933 2.5997 13.2333 1.78636 11.8333C0.999695 10.4666 0.686362 8.91995 0.893028 7.34662C0.926362 7.07328 1.18636 6.87995 1.45303 6.91328C1.72636 6.94662 1.9197 7.19995 1.88636 7.47328C1.71303 8.82662 1.9797 10.1599 2.65303 11.3333C3.34636 12.5333 4.39303 13.4466 5.6797 13.9599C5.93303 14.0666 6.0597 14.3533 5.9597 14.6133C5.88636 14.8066 5.69303 14.9266 5.4997 14.9266Z" fill="white"/>
<path d="M3.89974 3.4867C3.75308 3.4867 3.60641 3.42003 3.50641 3.29336C3.33308 3.08003 3.37308 2.7667 3.59308 2.59336C4.85974 1.60003 6.38641 1.07336 7.99974 1.07336C9.57308 1.07336 11.0731 1.58003 12.3331 2.54003C12.5531 2.7067 12.5931 3.02003 12.4264 3.24003C12.2597 3.46003 11.9464 3.50003 11.7264 3.33336C10.6397 2.5067 9.35308 2.07336 7.99974 2.07336C6.61308 2.07336 5.29974 2.5267 4.20641 3.38003C4.11308 3.45336 4.00641 3.4867 3.89974 3.4867Z" fill="white"/>
<path d="M10.4998 14.9267C10.2998 14.9267 10.1131 14.8067 10.0331 14.6133C9.93314 14.36 10.0531 14.0667 10.3131 13.96C11.5998 13.44 12.6465 12.5333 13.3398 11.3333C14.0198 10.16 14.2865 8.82666 14.1065 7.48C14.0731 7.20666 14.2665 6.95333 14.5398 6.92C14.8065 6.88666 15.0665 7.08 15.0998 7.35333C15.2998 8.92 14.9931 10.4733 14.2065 11.84C13.3998 13.24 12.1798 14.2933 10.6798 14.9C10.6265 14.9133 10.5665 14.9267 10.4998 14.9267Z" fill="white"/>
</svg>
