<svg width="48" height="48" viewBox="0 0 48 48" fill="none" xmlns="http://www.w3.org/2000/svg">
<rect width="48" height="48" rx="12" fill="white" fill-opacity="0.03"/>
<path d="M28.19 14H19.81C16.17 14 14 16.17 14 19.81V28.18C14 31.83 16.17 34 19.81 34H28.18C31.82 34 33.99 31.83 33.99 28.19V19.81C34 16.17 31.83 14 28.19 14ZM23.53 25.53L19.81 29.25H22C22.41 29.25 22.75 29.59 22.75 30C22.75 30.41 22.41 30.75 22 30.75H18C17.9 30.75 17.8 30.73 17.71 30.69C17.53 30.61 17.38 30.47 17.3 30.28C17.27 30.19 17.25 30.1 17.25 30V26C17.25 25.59 17.59 25.25 18 25.25C18.41 25.25 18.75 25.59 18.75 26V28.19L22.47 24.47C22.76 24.18 23.24 24.18 23.53 24.47C23.82 24.76 23.82 25.24 23.53 25.53ZM30.75 22C30.75 22.41 30.41 22.75 30 22.75C29.59 22.75 29.25 22.41 29.25 22V19.81L25.53 23.53C25.38 23.68 25.19 23.75 25 23.75C24.81 23.75 24.62 23.68 24.47 23.53C24.18 23.24 24.18 22.76 24.47 22.47L28.19 18.75H26C25.59 18.75 25.25 18.41 25.25 18C25.25 17.59 25.59 17.25 26 17.25H30C30.1 17.25 30.19 17.27 30.29 17.31C30.47 17.39 30.62 17.53 30.7 17.72C30.73 17.81 30.75 17.9 30.75 18V22Z" fill="white"/>
<rect x="0.5" y="0.5" width="47" height="47" rx="11.5" stroke="white" stroke-opacity="0.04"/>
</svg>
