<svg width="159" height="38" viewBox="0 0 159 38" fill="none" xmlns="http://www.w3.org/2000/svg">
<g clip-path="url(#clip0_7114_155376)">
<path d="M144.067 18.2235H141.287L142.236 14.6069H144.067V9.40625L148.269 9.43265V14.6069H151.062L150.126 18.2235H148.269V22.6982C148.269 23.8949 149.015 24.4933 150.508 24.4933C150.991 24.4933 151.36 24.4361 151.615 24.3217L150.403 28.5192C150.183 28.5544 149.968 28.572 149.757 28.572C148.502 28.572 147.457 28.3696 146.622 27.9648C145.779 27.56 145.143 26.9484 144.712 26.13C144.282 25.3205 144.067 24.2865 144.067 23.0282V18.2235Z" fill="white" fill-opacity="0.5"/>
<path d="M139.265 14.6337V28.1632H135.062V14.6469L139.265 14.6337ZM139.278 10.8059C139.278 11.2283 139.181 11.6023 138.988 11.9278C138.795 12.2534 138.531 12.5174 138.198 12.7198C137.864 12.9222 137.495 13.0234 137.091 13.0234C136.687 13.0234 136.323 12.9266 135.998 12.733C135.664 12.5306 135.401 12.2622 135.207 11.9278C135.005 11.5759 134.904 11.2019 134.904 10.8059C134.904 10.4011 135.001 10.0315 135.194 9.69712C135.405 9.35394 135.673 9.08554 135.998 8.89195C136.323 8.69836 136.687 8.60156 137.091 8.60156C137.495 8.60156 137.864 8.69836 138.198 8.89195C138.523 9.08554 138.786 9.35394 138.988 9.69712C139.181 10.0315 139.278 10.4011 139.278 10.8059Z" fill="white" fill-opacity="0.5"/>
<path d="M130.566 18.6994C130.188 18.3826 129.776 18.1451 129.328 17.9867C128.862 17.8283 128.371 17.7491 127.852 17.7491C126.886 17.7491 126.07 18.0615 125.402 18.6862C124.726 19.311 124.388 20.0854 124.388 21.0094C124.388 21.7309 124.533 22.3777 124.823 22.9497C125.104 23.5217 125.521 23.9748 126.074 24.3092C126.61 24.6524 127.229 24.824 127.931 24.824C128.968 24.824 129.855 24.494 130.592 23.834L132.898 26.7643C132.564 27.1163 132.099 27.4287 131.501 27.7015C130.895 27.9743 130.272 28.1767 129.631 28.3087C128.99 28.4407 128.397 28.5067 127.852 28.5067C126.324 28.5067 124.976 28.1855 123.808 27.5431C122.64 26.8919 121.744 26.0384 121.121 24.9824C120.497 23.9088 120.186 22.7605 120.186 21.5373C120.186 20.4198 120.374 19.4078 120.752 18.5014C121.138 17.5775 121.67 16.7855 122.346 16.1255C123.013 15.4832 123.826 14.9772 124.783 14.6076C125.731 14.2468 126.755 14.0664 127.852 14.0664C128.748 14.0664 129.622 14.2072 130.474 14.4888C131.334 14.7792 132.094 15.1884 132.753 15.7163L130.566 18.6994Z" fill="white" fill-opacity="0.5"/>
<path d="M107.414 19.5979C107.739 19.0788 108.174 18.6652 108.718 18.3572C109.263 18.058 109.838 17.9083 110.444 17.9083C111.068 17.9083 111.647 18.058 112.183 18.3572C112.727 18.6652 113.162 19.0788 113.487 19.5979C113.812 20.1171 113.975 20.6846 113.975 21.3006C113.975 22.2334 113.623 23.0386 112.921 23.7162C112.227 24.385 111.401 24.7194 110.444 24.7194C109.496 24.7194 108.675 24.385 107.981 23.7162C107.278 23.0386 106.927 22.2334 106.927 21.3006C106.927 20.6846 107.089 20.1171 107.414 19.5979ZM113.988 28.138L118.164 28.1776L118.177 21.3006C118.177 20.271 117.97 19.312 117.558 18.4232C117.154 17.5608 116.583 16.7952 115.845 16.1264C115.143 15.4752 114.317 14.9737 113.369 14.6217C112.42 14.2697 111.445 14.0938 110.444 14.0938C109.434 14.0938 108.459 14.2741 107.52 14.6349C106.58 14.9781 105.754 15.4752 105.043 16.1264C104.323 16.7776 103.757 17.5432 103.344 18.4232C102.931 19.312 102.725 20.271 102.725 21.3006C102.725 22.6645 103.08 23.901 103.792 25.0098C104.494 26.1009 105.443 26.9633 106.637 27.5969C107.831 28.2216 109.1 28.534 110.444 28.534C111.463 28.534 112.438 28.3536 113.369 27.9928C113.5 27.9488 113.707 27.8652 113.988 27.7421V28.138Z" fill="white" fill-opacity="0.5"/>
<path d="M100.714 14.6328L93.6138 28.6903L86.7637 14.6592L91.045 14.6328L93.6665 20.6254L96.2484 14.6328H100.714Z" fill="white" fill-opacity="0.5"/>
<path d="M84.7412 14.6337V28.1632H80.539V14.6469L84.7412 14.6337ZM84.7544 10.8059C84.7544 11.2283 84.6578 11.6023 84.4646 11.9278C84.2714 12.2534 84.0079 12.5174 83.6742 12.7198C83.3405 12.9222 82.9716 13.0234 82.5676 13.0234C82.1637 13.0234 81.7992 12.9266 81.4743 12.733C81.1406 12.5306 80.8771 12.2622 80.6839 11.9278C80.4819 11.5759 80.3809 11.2019 80.3809 10.8059C80.3809 10.4011 80.4775 10.0315 80.6707 9.69712C80.8815 9.35394 81.1493 9.08554 81.4743 8.89195C81.7992 8.69836 82.1637 8.60156 82.5676 8.60156C82.9716 8.60156 83.3405 8.69836 83.6742 8.89195C83.9991 9.08554 84.2626 9.35394 84.4646 9.69712C84.6578 10.0315 84.7544 10.4011 84.7544 10.8059Z" fill="white" fill-opacity="0.5"/>
<path d="M72.5498 17.9083C73.6213 17.9523 74.157 18.7004 74.157 20.1523V28.138H78.3724V20.1523C78.3724 16.3069 76.4315 14.2872 72.5498 14.0938H72.3127C68.431 14.2872 66.4902 16.3069 66.4902 20.1523V28.138H70.7056V20.1523C70.7056 18.7004 71.2413 17.9523 72.3127 17.9083H72.5498Z" fill="white" fill-opacity="0.5"/>
<path d="M64.4829 9.41945V21.6422C64.4829 23.059 64.1404 24.2909 63.4554 25.3381C62.7704 26.394 61.8263 27.1948 60.6232 27.7404C59.4112 28.2948 58.0237 28.572 56.4604 28.572C54.9938 28.572 53.7116 28.3344 52.6139 27.8592C51.5073 27.384 50.6511 26.6536 50.0451 25.6681C49.4304 24.6825 49.123 23.4505 49.123 21.9722V9.40625L53.7204 9.41945V20.6522C53.7204 21.3826 53.8039 22.0118 53.9707 22.5398C54.1464 23.0942 54.4449 23.5253 54.8665 23.8333C55.2792 24.1589 55.8501 24.3217 56.579 24.3217C57.9402 24.3217 58.836 23.9213 59.2663 23.1206C59.6879 22.311 59.8986 21.1538 59.8986 19.6491V9.41945H64.4829Z" fill="white" fill-opacity="0.5"/>
<path d="M157.987 14.6337V28.1632H153.785V14.6469L157.987 14.6337ZM158 10.8059C158 11.2283 157.904 11.6023 157.711 11.9278C157.517 12.2534 157.254 12.5174 156.92 12.7198C156.587 12.9222 156.218 13.0234 155.814 13.0234C155.41 13.0234 155.045 12.9266 154.72 12.733C154.387 12.5306 154.123 12.2622 153.93 11.9278C153.728 11.5759 153.627 11.2019 153.627 10.8059C153.627 10.4011 153.724 10.0315 153.917 9.69712C154.128 9.35394 154.395 9.08554 154.72 8.89195C155.045 8.69836 155.41 8.60156 155.814 8.60156C156.218 8.60156 156.587 8.69836 156.92 8.89195C157.245 9.08554 157.509 9.35394 157.711 9.69712C157.904 10.0315 158 10.4011 158 10.8059Z" fill="white" fill-opacity="0.5"/>
<path fill-rule="evenodd" clip-rule="evenodd" d="M18.6908 37.3776C29.0123 37.3776 37.3796 29.0103 37.3796 18.6888C37.3796 8.36726 29.0123 0 18.6908 0C8.36922 0 0.00195312 8.36726 0.00195312 18.6888C0.00195312 29.0103 8.36922 37.3776 18.6908 37.3776ZM23.2477 28.5768C14.3733 32.6071 11.1183 26.7181 10.1141 23.917C9.85446 23.1935 9.72461 22.4318 9.72461 21.6638V15.1836L23.2477 28.5768ZM27.4483 21.958C27.41 25.4701 24.4704 27.7233 24.4704 27.7233L15.6504 18.865L27.4483 7.10547C27.4483 7.10547 27.4867 18.4458 27.4483 21.958Z" fill="white" fill-opacity="0.5"/>
</g>
<defs>
<clipPath id="clip0_7114_155376">
<rect width="158" height="38" fill="white" transform="translate(0.00195312)"/>
</clipPath>
</defs>
</svg>
