<svg width="48" height="48" viewBox="0 0 48 48" fill="none" xmlns="http://www.w3.org/2000/svg">
<rect width="48" height="48" rx="12" fill="white" fill-opacity="0.03"/>
<path d="M23 28.15V30.85C23 33.1 22.1 34 19.85 34H17.15C14.9 34 14 33.1 14 30.85V28.15C14 25.9 14.9 25 17.15 25H19.85C22.1 25 23 25.9 23 28.15Z" fill="white"/>
<path d="M28.48 14H20.52C17.47 14 15 16.47 15 19.52V22.5C15 23.05 15.45 23.5 16 23.5H20.5C22.71 23.5 24.5 25.29 24.5 27.5V32C24.5 32.55 24.95 33 25.5 33H28.48C31.93 33 34 30.94 34 27.48V19.52C34 16.47 31.53 14 28.48 14ZM30.76 21.99C30.76 22.4 30.42 22.74 30.01 22.74C29.6 22.74 29.26 22.4 29.26 21.99V19.79L25.53 23.53C25.38 23.68 25.19 23.75 25 23.75C24.81 23.75 24.62 23.68 24.47 23.53C24.18 23.24 24.18 22.76 24.47 22.47L28.2 18.72H26C25.58 18.72 25.25 18.39 25.25 17.97C25.25 17.56 25.58 17.22 26 17.22H30.01C30.1 17.22 30.19 17.25 30.27 17.28C30.3 17.29 30.32 17.3 30.34 17.31C30.4 17.34 30.45 17.37 30.5 17.42C30.52 17.43 30.54 17.45 30.56 17.47C30.61 17.53 30.65 17.59 30.69 17.66C30.69 17.67 30.7 17.68 30.7 17.69C30.74 17.77 30.75 17.86 30.75 17.95C30.76 17.96 30.76 17.96 30.76 17.97V21.99Z" fill="white"/>
<rect x="0.5" y="0.5" width="47" height="47" rx="11.5" stroke="white" stroke-opacity="0.04"/>
</svg>
