<svg width="24" height="25" viewBox="0 0 24 25" fill="none" xmlns="http://www.w3.org/2000/svg">
<path d="M17 21.3105V19.3105C17 18.2497 16.5786 17.2323 15.8284 16.4821C15.0783 15.732 14.0609 15.3105 13 15.3105H5C3.93913 15.3105 2.92172 15.732 2.17157 16.4821C1.42143 17.2323 1 18.2497 1 19.3105V21.3105M23 21.3105V19.3105C22.9993 18.4243 22.7044 17.5633 22.1614 16.8629C21.6184 16.1624 20.8581 15.6621 20 15.4405M16 3.44055C16.8604 3.66085 17.623 4.16125 18.1676 4.86286C18.7122 5.56447 19.0078 6.42738 19.0078 7.31555C19.0078 8.20372 18.7122 9.06663 18.1676 9.76824C17.623 10.4698 16.8604 10.9702 16 11.1905M13 7.31055C13 9.51969 11.2091 11.3105 9 11.3105C6.79086 11.3105 5 9.51969 5 7.31055C5 5.10141 6.79086 3.31055 9 3.31055C11.2091 3.31055 13 5.10141 13 7.31055Z" stroke="#FF2E42" stroke-width="2" stroke-linecap="round" stroke-linejoin="round"/>
</svg>
